<svg xmlns="http://www.w3.org/2000/svg" width="220" height="150" viewBox="0 0 220 150">
  <path fill="#FFF" fill-rule="evenodd" d="M59.7377902,14.5718134 C62.5051943,16.0377022 64.3945221,18.9531413 64.3945221,22.3146787 C64.3945221,27.1479483 60.4940571,31.0660321 55.6841355,31.0660321 L48.2932168,31.0660321 C46.7401947,31.0660321 45.4819567,29.8016257 45.4819567,28.241781 L45.4819567,28.2347458 L55.6841355,28.2347458 C58.932769,28.2347458 61.5759527,25.5794154 61.5759527,22.3146787 C61.5759527,20.1135581 60.3673493,18.1066925 58.4216899,17.0766376 L55.2312632,15.3873537 L57.634655,12.6858142 C58.604117,11.5955183 59.1389992,10.1981358 59.1389992,8.75073831 C59.1389992,7.19673703 58.541739,5.72942583 57.4601495,4.61921623 C56.3792106,3.51023681 54.9336472,2.87903312 53.3903453,2.84139694 L52.9886384,2.83144007 L42.5857018,2.83144007 C41.0326797,2.83144007 39.7741739,1.56703362 39.7741739,0.00734270697 L39.7741739,0 L53.4585785,0 L53.4585785,0.0109948387 C58.1698051,0.125748662 61.956344,3.99012692 61.956344,8.75073831 C61.956344,10.9895335 61.1123269,13.0249626 59.7377902,14.5718134 Z M45.4819567,5.64850228 L45.4819567,8.4729072 L34.1494724,8.4729072 C32.5967565,8.4729072 31.3382124,7.20850074 31.3382124,5.64850228 L45.4819567,5.64850228 Z M45.4819567,11.2971583 L45.4819567,14.1209482 L36.9616509,14.1209482 C35.408935,14.1209482 34.1503909,12.8566955 34.1503909,11.2971583 L45.4819567,11.2971583 Z M39.772911,19.7693351 C38.2198889,19.7693351 36.9616509,18.5047364 36.9616509,16.9452377 L45.4819567,16.9452377 L45.4819567,19.7693351 L39.772911,19.7693351 Z M45.4819567,22.5934325 L45.4819567,25.4176836 L42.5857018,25.4176836 C41.0329859,25.4176836 39.7741739,24.1531234 39.7741739,22.5934325 L45.4819567,22.5934325 Z M39.7771971,77.1007298 C40.0178309,77.0352606 40.2212676,76.9526839 40.3869712,76.8516545 L40.6029217,77.555747 C40.3869712,77.7224764 40.1131584,77.8372303 39.783588,77.9026995 C39.4519128,77.9672461 39.0998021,78 38.7261078,78 C38.2722788,78 37.8486056,77.9219597 37.4532512,77.7665327 C37.058203,77.6117207 36.7128276,77.3749088 36.4180052,77.0575962 C36.1231445,76.739707 35.8895521,76.3333593 35.7168453,75.8383224 C35.5441384,75.3438623 35.4588757,74.7576374 35.4588757,74.0780718 C35.4588757,73.3703656 35.5532847,72.7694554 35.7439778,72.2743801 C35.9346327,71.7799199 36.1865176,71.3754175 36.4990201,71.0609112 C36.8115226,70.7463666 37.1621026,70.5175125 37.5504155,70.3733878 C37.9390346,70.2289556 38.3338149,70.1558361 38.7370527,70.1558361 C39.1677291,70.1558361 39.52072,70.1800171 39.7930403,70.2271488 C40.066547,70.2739345 40.3010579,70.3372894 40.4948125,70.4162139 L40.2794743,71.2184527 C39.9337545,71.0449956 39.4409296,70.9581134 38.8013442,70.9581134 C38.5065218,70.9581134 38.2156411,71.0122418 37.9274774,71.1205755 C37.6408828,71.2291784 37.3844057,71.4060185 37.156898,71.6514417 C36.930615,71.8968265 36.7490681,72.2180604 36.6141325,72.6158352 C36.4749491,73.0129949 36.4076343,73.5007275 36.4076343,74.0780718 C36.4076343,74.5979432 36.4718876,75.0525759 36.6016569,75.443008 C36.7310818,75.8334017 36.9083808,76.1583261 37.1352762,76.4187423 C37.3631283,76.6785434 37.6274888,76.873721 37.9335622,77.0031218 C38.2403244,77.1331761 38.5710811,77.1986454 38.9313813,77.1986454 C39.2545226,77.1986454 39.5362954,77.1656224 39.7771971,77.1007298 Z M51.2034781,70.1671769 L51.6146757,70.1671769 L54.4822674,77.8693306 L53.5329347,77.8693306 L52.760174,75.76824 L49.9915836,75.76824 L49.240483,77.8693306 L48.346219,77.8693306 L51.2034781,70.1671769 Z M52.4924459,74.9883368 L51.6564269,72.6807278 L51.3871298,71.5321131 L51.3758788,71.5321131 L51.1075383,72.7024484 L50.2815076,74.9883368 L52.4924459,74.9883368 Z M65.7191181,74.4681964 L66.236588,74.8689698 L68.1134019,77.8693306 L67.0672111,77.8693306 L64.9871901,74.5979432 L63.9284854,74.4360576 L63.9284854,77.8693306 L63.0339535,77.8693306 L63.0339535,70.3620855 C63.3068479,70.3118783 63.6214935,70.2717817 63.9778138,70.2427569 C64.3332539,70.2139627 64.6588826,70.1993157 64.9540111,70.1993157 C65.2835433,70.1993157 65.5988012,70.2360292 65.8972974,70.307611 C66.1951812,70.380423 66.4583554,70.4991365 66.6843323,70.6652893 C66.9106154,70.8320571 67.0918561,71.0486478 67.2292027,71.3154841 C67.365669,71.582897 67.4342083,71.9078214 67.4342083,72.2902957 C67.4342083,72.882633 67.2721402,73.363638 66.9486928,73.7314269 C66.6246331,74.0998308 66.2158846,74.3451772 65.7191181,74.4681964 Z M64.7700533,73.8400297 C65.2668198,73.8400297 65.6758361,73.7167415 65.9999341,73.4719333 C66.3228075,73.2259334 66.4851435,72.84319 66.4851435,72.3233571 C66.4851435,71.932925 66.3517387,71.6116527 66.0858092,71.3586177 C65.8190378,71.1061977 65.4489408,70.980103 64.9747145,70.980103 C64.881224,70.980103 64.7846719,70.980103 64.6838338,70.980103 C64.5833401,70.980103 64.4864819,70.9837936 64.3929914,70.9905597 C64.2988503,70.9985175 64.2114445,71.0052451 64.1282865,71.0122418 C64.0460852,71.0195845 63.9787705,71.0303102 63.9284854,71.0449956 L63.9284854,73.8400297 L64.7700533,73.8400297 Z M47.7794207,41.4460825 L47.7794207,57.4531837 L58.3638276,57.4531837 L58.3638276,59.7767084 L45.4667258,59.7767084 L45.4667258,41.4460825 L47.7794207,41.4460825 Z M37.3089015,57.4531837 L37.3089015,59.7767084 L23.8979653,59.7767084 L23.8979653,41.4460825 L37.3089015,41.4460825 L37.3089015,43.7689921 L26.210928,43.7689921 L26.210928,49.4496331 L35.5298259,49.4496331 L35.5298259,51.7731578 L26.210928,51.7731578 L26.210928,57.4531837 L37.3089015,57.4531837 Z M78.9192701,41.4460825 L70.358476,50.0474679 L80.0425342,59.7767084 L76.7717048,59.7767084 L68.7213392,51.6899661 L66.6501966,53.7711429 L66.6501966,59.7767084 L64.3363536,59.7767084 L64.3363536,41.4460825 L66.6501966,41.4460825 L66.6501966,50.4847241 L75.648058,41.4460825 L78.9192701,41.4460825 Z M94.915145,41.4576924 L102.96,59.7767084 L100.431737,59.7767084 L97.9374955,54.097336 L91.79873,54.097336 C91.79873,54.097336 91.5809426,51.7731578 94.191177,51.7731578 C95.2026964,51.7731578 96.1423088,51.7731578 96.9168681,51.7731578 L93.6511668,44.3362642 L86.8709024,59.7767084 L84.3419891,59.7767084 L92.3874181,41.4583075 L92.3819839,41.4460825 L94.9221482,41.4460825 L94.915145,41.4576924 Z M14.4977463,50.0441233 C16.1318216,50.9084867 17.247164,52.6292559 17.247164,54.6131707 C17.247164,57.4654087 14.9454905,59.7767084 12.1064857,59.7767084 L2.40777047,59.7767084 L2.40777047,43.7689921 C2.40413494,43.7689921 2.40076729,43.7689921 2.39739964,43.7689921 C-0.211303966,43.7689921 0.00434039582,41.4460825 0.00434039582,41.4460825 L10.6670452,41.4460825 C10.6682698,41.4460825 10.6694944,41.4460825 10.6694944,41.4460825 L10.793753,41.4460825 L10.793753,41.4515799 C13.574245,41.5195096 15.8077236,43.8001697 15.8077236,46.6096586 C15.8077236,47.9301925 15.3103447,49.1311288 14.4977463,50.0441233 Z M12.1064857,57.4531837 C13.6680799,57.4531837 14.9342013,56.1818959 14.9342013,54.6131707 C14.9342013,51.5590275 11.175101,50.4556993 11.175101,50.4556993 C11.175101,50.4556993 13.4944547,48.9117318 13.4944547,46.6096586 C13.4944547,45.041241 12.2301702,43.7699147 10.6694944,43.7696456 L4.72103939,43.7696456 L4.72103939,57.4531837 L12.1064857,57.4531837 Z" transform="translate(59 36)"/>
</svg>
