<svg xmlns="http://www.w3.org/2000/svg" xmlns:xlink="http://www.w3.org/1999/xlink" width="117" height="50" viewBox="0 0 117 50">
    <defs>
        <path id="a" d="M0 50h117V0H0z"/>
    </defs>
    <g fill="none" fill-rule="evenodd">
        <path fill="#FEFEFE" d="M40.33 5.28a15.337 15.337 0 0 0-3.905-.48c-9.096 0-13.864 6.96-12.274 15.727h6.356c-.548-7.561 2.466-9.371 5.59-9.371 3.945 0 4.822 2.904 4.822 5.206 0 6.193-6.685 12.605-17.591 22.086l.055 5.315h18.1C37.08 47.634 31.323 50 25 50 11.193 50 0 38.807 0 25S11.193 0 25 0c5.784 0 11.094 1.983 15.33 5.28zM50 25c0 4.248-1.067 8.245-2.937 11.749H33.686C39.03 32.16 48.133 25.226 48.402 16.27A24.896 24.896 0 0 1 50 25zM73.188 17.484h5.796C79.182 13.041 77.696 6 68.137 6 61.102 6 56 10.245 56 19.082c0 1.198.05 7.39.05 11.234C56.05 39.903 62.637 42 68.185 42c3.319 0 8.123-.75 10.352-3.196V23.525H67.641v5.543h4.854v6.74c-3.666 1.248-10.353 1.748-10.353-6.74v-9.986c0-5.942 2.725-7.989 5.746-7.989 3.121 0 5.3 1.598 5.3 6.391M116.997 32.322c.25-13.737-15.389-9.176-15.24-16.846.049-2.707 1.793-4.462 4.633-4.462 3.037 0 4.829 1.805 4.78 6.518h5.727C117.047 13.27 116.05 6 106.59 6 100.71 6 95.88 8.908 95.78 15.376c-.248 13.185 15.49 8.874 15.24 16.847-.099 3.258-2.44 4.712-5.08 4.712-3.087 0-5.578-1.805-5.08-7.22h-5.778C94.435 36.885 97.573 42 105.891 42c7.022 0 11.006-3.912 11.106-9.678"/>
        <mask id="b" fill="#fff">
            <use xlink:href="#a"/>
        </mask>
        <path fill="#404042" d="M84 41h6V6h-6z" mask="url(#b)"/>
        <path fill="#FEFEFE" d="M84 41h6V6h-6z" mask="url(#b)"/>
    </g>
</svg>
