<svg xmlns="http://www.w3.org/2000/svg" xmlns:xlink="http://www.w3.org/1999/xlink" width="169" height="54" viewBox="0 0 169 54">
    <defs>
        <path id="a" d="M0 31.19V.403h71.638v30.789H0z"/>
    </defs>
    <g fill="none" fill-rule="evenodd">
        <path fill="#FEFEFE" d="M84 52c17.157 0 31-11.448 31-25.532C115 12.382 101.157 1 84 1S53 12.382 53 26.468C53 40.552 66.843 52 84 52"/>
        <path stroke="#231F20" stroke-width=".35" d="M84 52c17.157 0 31-11.448 31-25.532C115 12.382 101.157 1 84 1S53 12.382 53 26.468C53 40.552 66.843 52 84 52z"/>
        <path fill="#FEFEFE" d="M83.5 51C99.751 51 113 40.247 113 26.968 113 13.753 99.751 3 83.5 3 67.184 3 54 13.753 54 26.968 54 40.247 67.184 51 83.5 51"/>
        <path stroke="#231F20" stroke-width=".35" d="M83.5 51C99.751 51 113 40.247 113 26.968 113 13.753 99.751 3 83.5 3 67.184 3 54 13.753 54 26.968 54 40.247 67.184 51 83.5 51z"/>
        <g transform="translate(0 3)">
            <mask id="b" fill="#fff">
                <use xlink:href="#a"/>
            </mask>
            <path fill="#231F20" d="M64.281 30.354c-1.296.704-4.99 1.728-6.026-.64-1.49.769-4.536 1.344-6.026-.576-2.463.576-5.25 1.792-6.286-1.024-2.203.576-7.646 1.921-8.23-1.599-3.24.448-7.905.767-8.553-2.624-2.787 0-7.582-.449-7.582-3.649-2.786 0-7.646-1.856-7.063-4.096-2.527-.256-5.897-2.88-5.897-4.607-2.462-.769-5.249-2.625-4.665-5.12C2.463 5.521 0 4.498 0 3.025 0 1.618 1.166.402 2.462.402c1.361 0 6.35.768 8.1.768S33.566.722 38.556.978c4.99.32 11.34.192 14.385-.128 3.11-.255 16.265-.96 18.08 2.624 1.296 2.624.324 3.52-.843 4.544-1.231 1.024-5.184 2.88-5.184 9.024 0 6.144.778 9.344-.713 13.312" mask="url(#b)"/>
        </g>
        <path fill="#FEFEFE" d="M4.225 5c4.52 0 15.045.298 17.111.298 2.066 0 16.53 1.49 18.79 2.146 1.033.298 1.291 1.252 0 1.311-1.227.06-16.143.239-18.338.239-2.195 0-17.24.238-19.241-2.206C1.062 5 2.934 5.06 4.225 5M7.75 10.777c2.676.068 15.993.137 17.56.068 1.5-.068 13.577-.75 14.948-.818 1.436-.137 2.742.273 2.742.75 0 .478-.261.887-1.893 1.228-1.632.41-16.646 2.183-28.005 1.979-2.154.068-5.027-1.092-5.81-2.184-.718-1.091.065-1.023.457-1.023M12.56 15.48c1.855 0 23.227-1.501 27.707-2.402 1.535-.12 2.56-.18 2.687.42.128.6.064.9-1.216 1.26-1.343.301-17.213 3.122-25.212 3.242-2.687-.06-5.823-2.46-3.967-2.52M18.426 20.838c2.611-.346 19.843-3.252 24.477-4.567 1.893-.484 2.742-.276 3.003.277.196.554.196 1.522-1.11 2.007-1.37.484-16.579 4.22-19.386 4.427-2.806.139-6.135-.553-7.05-1.314-.848-.692.066-.83.066-.83"/>
        <path fill="#FEFEFE" d="M25.169 23.87c1.797-.412 16.562-3.984 20.799-5.701 1.22-.412 1.669 0 1.861.48.257.482.321 1.169-.513 1.58-.77.344-12.133 5.428-17.525 5.771-1.926 0-3.53-.756-4.43-1.236-.577-.344-.32-.344-.192-.893M48.942 21c-1.672.858-11.898 5.282-15.821 6.206-1.094.265-1.672 1.123-.386 1.585 1.35.396 4.373.197 6.238-.33 1.801-.528 9.197-3.037 12.027-5.876-.579-.264-1.93-1.255-2.058-1.585"/>
        <path fill="#FEFEFE" d="M52.077 23c-1.09.698-8.204 4.445-11.472 5.397-1.09.38-.577 1.397.512 1.524 1.09.19 3.846.19 7.115-1.778C50.218 27 53.102 24.905 54 24.079c-.449-.19-1.41-.762-1.923-1.079M56.1 25c-1.968 1.235-6.446 3.952-7.192 4.446-1.018.618-1.56 1.667.475 1.544 1.967-.185 5.7-1.483 8.617-5.372-.407-.124-1.425-.433-1.9-.618M58.421 27c-1.136 1.18-2.841 3.15-4.041 4.198-.82.788-.253 2.296 1.137 1.641 1.326-.657 3.788-3.018 4.483-5.314A14.83 14.83 0 0 1 58.421 27M61.761 28c-.978 1.28-1.956 2.222-2.543 3.03-.586.74.13 1.548.718 1.75.652.202 1.76.875 3.064-1.885L61.761 28zM33.364 5.02c1.959 0 8.423.39 10.839.39 2.35 0 7.835-.13 9.793-.26 2.024-.13 7.248-.26 9.337 0 2.09.196 6.66.521 7.443 2.67.85 2.15-.914 3.322-2.024 4.169-1.11.782-4.57 2.8-4.7 8.011-.85-.39-2.155-.586-1.241-2.475.522-1.042 3.003-4.429 2.416-5.992-.588-1.563-2.482-2.8-6.856-2.996-4.375-.13-10.512 0-12.667-.325-2.154-.391-10.381-2.475-12.079-2.67-.783-.131-.783-.457-.261-.522"/>
        <path fill="#FEFEFE" d="M50.444 9.027c1.558 0 7.204-.135 8.827.202 1.623.269 3.635.74 4.479 2.289.778 1.279-.455 3.366-1.039 4.241-.649.808-2.337 2.491-2.986 3.097-.584.471-1.687-.27-.714-1.414-1.233.74-2.79.606-2.077-1.212-1.103.943-2.92 1.01-1.817-1.346-.714.606-2.79.538-1.493-1.28-1.103.337-2.336-.336-1.557-1.48-1.363.201-2.207-.876-.714-1.684-1.363.404-1.753-1.279-.909-1.413M44.332 8c-1.775 0-1.835 2.127.177 1.994C46.107 9.928 48 9.462 48 8.798 47.94 8.066 45.633 8 44.332 8"/>
        <path fill="#FEFEFE" d="M45.097 10.22c-1.174.182-1.174.608-1.035.973.138.365.76 1.034 2.762.73C48.895 11.68 50 10.95 50 10.342c0-.609-3.66-.244-4.903-.122M46.101 12.608c-.653.078-1.247.775-1.069 1.55.238.929 1.782 1.239 3.446.154 1.722-1.161 1.604-1.394 1.425-2.013-.178-.62-1.96-.155-3.802.31M50.292 14.14c-.938.327-1.944.786-2.682 1.244-.737.458-1.34 2.161 1.543 1.44 2.95-.785 3.084-1.767 2.681-2.422-.402-.655-1.34-.328-1.542-.262M49.41 17.179c-.837.51-.418 2.494 1.497 1.587 1.975-.907 3.351-1.814 3.052-2.494-.3-.624-2.514-.113-4.549.907M54.098 18.122c-.933.398-3.85 1.366-2.916 2.619.525.569 1.458.057 1.808-.171.408-.228 2.45-1.594 1.924-2.391-.175-.285-.641-.171-.816-.057M54.814 20.302c-2.043 1.256.248 2.333 1.548 1.256.68-.538 2.105-1.615 1.486-2.392-.558-.658-2.415.837-3.034 1.136M57.37 21.097c-.609.7-2.07 1.781-.974 2.608.974.7 1.522 0 2.01-.509.425-.508 2.07-2.226 1.46-2.989-.608-.7-1.948.572-2.496.89M61.766 21.117c-.702-.568-2.043 1.066-2.553 1.99-.447.994-.128 1.563.383 1.847.51.213 1.404-.355 1.596-.853.191-.568 1.276-2.202.574-2.984"/>
        <path stroke="#231F20" d="M67 6c.885.478 1.882 1.134 1.992 1.791.056.716-.166 1.373-1.217 2.209"/>
        <path fill="#231F20" d="M104.42 33.158c1.301.709 5.012 1.74 6.054-.645 1.432.775 4.557 1.354 6.055-.58 2.473.58 5.273 1.805 6.314-1.03 2.213.58 7.682 1.934 8.269-1.61 3.254.45 7.941.772 8.527-2.643 2.8 0 7.682-.452 7.682-3.674 2.8 0 7.682-1.868 7.096-4.124 2.474-.258 5.86-2.9 5.86-4.639 2.538-.774 5.339-2.642 4.752-5.156C166.526 8.155 169 7.124 169 5.642 169 4.224 167.828 3 166.526 3c-1.367 0-6.38.773-8.138.773-1.757 0-23.175-.45-28.189-.193-5.012.322-11.327.193-14.452-.129-3.059-.257-16.275-.967-18.098 2.642-1.367 2.642-.326 3.544.846 4.575 1.172 1.031 5.143 2.9 5.143 9.086 0 6.187-.716 9.409.781 13.404"/>
        <path fill="#FEFEFE" d="M163.801 5c-4.585 0-15.113.298-17.115.298-2.067 0-16.535 1.49-18.86 2.146-.968.298-1.227 1.252 0 1.311 1.292.06 16.212.239 18.408.239 2.196 0 17.18.238 19.247-2.206C166.9 5 165.093 5.06 163.8 5M161.286 10.777c-2.674.068-15.98.137-17.544.068-1.566-.068-13.568-.75-15.003-.818-1.368-.137-2.739.273-2.739.75 0 .478.326.887 1.957 1.228 1.631.41 16.632 2.183 27.982 1.979 2.152.068 5.022-1.092 5.74-2.184.781-1.091-.067-1.023-.393-1.023M155.408 15.48c-1.794 0-23.187-1.501-27.672-2.402-1.538-.12-2.562-.18-2.69.42-.128.6-.065.9 1.216 1.26 1.282.301 17.167 3.122 25.238 3.242 2.69-.06 5.83-2.46 3.908-2.52M150.523 20.838c-2.547-.346-19.787-3.252-24.425-4.567-1.894-.484-2.743-.276-3.004.277-.196.554-.196 1.522 1.11 2.007 1.372.484 16.588 4.22 19.396 4.427 2.809.139 6.14-.553 7.054-1.314.848-.692-.131-.83-.131-.83M142.83 23.87c-1.796-.412-16.558-3.984-20.794-5.701-1.22-.412-1.669 0-1.861.48-.257.482-.321 1.169.449 1.58.834.344 12.194 5.428 17.521 5.771 1.99 0 3.595-.756 4.493-1.236.578-.344.322-.344.193-.893M119.06 21c1.673.858 11.906 5.282 15.832 6.206 1.094.265 1.673 1.123.322 1.585-1.288.396-4.312.197-6.179-.33-1.801-.528-9.203-3.037-12.035-5.876.58-.264 1.93-1.255 2.06-1.585"/>
        <path fill="#FEFEFE" d="M115.867 23c1.095.698 8.242 4.445 11.526 5.397 1.094.38.58 1.397-.515 1.524-1.03.19-3.864.19-7.147-1.778-1.932-1.143-4.83-3.238-5.731-4.064.45-.19 1.417-.762 1.867-1.079M112.836 25c1.973 1.235 6.531 3.952 7.28 4.446 1.02.618 1.496 1.667-.477 1.544-1.973-.185-5.714-1.483-8.639-5.372.407-.124 1.428-.433 1.836-.618M109.526 27c1.144 1.18 2.925 3.15 4.132 4.198.763.788.191 2.296-1.144 1.641-1.399-.657-3.878-3.018-4.514-5.314.51-.131 1.08-.328 1.526-.525M106.241 28c.981 1.28 1.962 2.222 2.551 3.03.588.74-.196 1.548-.785 1.75-.589.202-1.7.875-3.007-1.885L106.241 28zM134.684 5.02c-1.96 0-8.49.39-10.842.39-2.35 0-7.837-.13-9.797-.26-2.024-.13-7.25-.26-9.34 0-2.09.196-6.662.521-7.51 2.67-.784 2.15.98 3.322 2.09 4.169 1.11.782 4.505 2.8 4.637 8.011.914-.39 2.155-.586 1.305-2.475-.521-1.042-3.069-4.429-2.48-5.992.586-1.563 2.546-2.8 6.922-2.996 4.376-.13 10.516 0 12.605-.325 2.155-.391 10.45-2.475 12.149-2.67.718-.131.718-.457.261-.522"/>
        <path fill="#FEFEFE" d="M117.509 9.027c-1.557 0-7.197-.135-8.818.202-1.622.269-3.631.74-4.475 2.289-.713 1.279.519 3.366 1.103 4.241.583.808 2.269 2.491 2.982 3.097.584.471 1.686-.27.713-1.414 1.233.74 2.788.606 2.076-1.212 1.102.943 2.917 1.01 1.815-1.346.714.606 2.787.538 1.492-1.28 1.102.337 2.334-.336 1.49-1.48 1.426.201 2.204-.876.778-1.684 1.362.404 1.752-1.279.844-1.413M123.69 8c1.785 0 1.785 2.127-.239 1.994-1.547-.066-3.451-.532-3.451-1.196.059-.732 2.38-.798 3.69-.798M123.903 10.22c1.174.182 1.174.608 1.035.973-.207.365-.828 1.034-2.83.73-2.003-.243-3.108-.973-3.108-1.581 0-.609 3.66-.244 4.903-.122"/>
        <path fill="#FEFEFE" d="M120.84 12.608c.712.078 1.306.775 1.128 1.55-.238.929-1.782 1.239-3.446.154-1.722-1.161-1.604-1.394-1.425-2.013.178-.62 1.9-.155 3.742.31"/>
        <path fill="#FEFEFE" d="M118.71 14.14c.94.327 1.88.786 2.684 1.244.738.458 1.342 2.161-1.61 1.44-2.885-.785-3.02-1.767-2.617-2.422.402-.655 1.274-.328 1.543-.262M118.548 17.179c.902.51.48 2.494-1.502 1.587-1.923-.907-3.305-1.814-3.005-2.494.3-.624 2.524-.113 4.507.907M113.181 18.122c1.15.398 4.744 1.366 3.595 2.619-.648.569-1.798.057-2.229-.171-.503-.228-3.09-1.594-2.444-2.391.288-.285.863-.171 1.078-.057M113.222 20.302c1.986 1.256-.31 2.333-1.552 1.256-.745-.538-2.173-1.615-1.49-2.392.559-.658 2.42.837 3.042 1.136M110.646 21.097c.613.7 2.082 1.781.919 2.608-.92.7-1.532 0-1.96-.509-.43-.508-2.083-2.226-1.47-2.989.613-.7 1.96.572 2.51.89M106.237 21.117c.646-.568 2.067 1.066 2.519 1.99.517.994.13 1.563-.388 1.847-.452.213-1.356-.355-1.55-.853-.194-.568-1.292-2.202-.581-2.984"/>
        <path stroke="#231F20" d="M101 6c-.91.478-1.934 1.134-1.99 1.791-.057.716.113 1.373 1.25 2.209"/>
        <path fill="#FEFEFE" d="M83.934 52.996c-1.126.066-2.054-.724-1.921-2.568l.596-7.31c0-.658.994-1.118 1.391-1.118s1.391.46 1.391 1.119l.596 7.309c.133 1.844-.795 2.568-2.053 2.568"/>
        <path stroke="#231F20" stroke-width=".35" d="M83.934 52.996c-1.126.066-2.054-.724-1.921-2.568l.596-7.31c0-.658.994-1.118 1.391-1.118s1.391.46 1.391 1.119l.596 7.309c.133 1.844-.795 2.568-2.053 2.568z"/>
        <path fill="#FEFEFE" d="M84.066 52.996c1.126.066 2.054-.724 1.921-2.568l-.596-7.31C85.391 42.46 84.397 42 84 42s-1.391.46-1.391 1.119l-.596 7.309c-.133 1.844.795 2.568 2.053 2.568"/>
        <path stroke="#231F20" stroke-width=".35" d="M84.066 52.996c1.126.066 2.054-.724 1.921-2.568l-.596-7.31C85.391 42.46 84.397 42 84 42s-1.391.46-1.391 1.119l-.596 7.309c-.133 1.844.795 2.568 2.053 2.568z"/>
        <path fill="#FEFEFE" d="M87.568 52.982c.99-.198 1.69-1.058 1.34-2.91l-1.457-7.146c-.116-.661-.99-.926-1.34-.926-.35.066-1.166.662-1.108 1.323l.466 7.343c.117 1.853.991 2.449 2.099 2.316"/>
        <path stroke="#231F20" stroke-width=".35" d="M87.568 52.982c.99-.198 1.69-1.058 1.34-2.91l-1.457-7.146c-.116-.661-.99-.926-1.34-.926-.35.066-1.166.662-1.108 1.323l.466 7.343c.117 1.853.991 2.449 2.099 2.316z"/>
        <path fill="#FEFEFE" d="M92.619 51.868c1.164-.311 1.78-1.244 1.095-2.861l-2.943-6.404c-.206-.559-1.302-.684-1.712-.559-.41.125-1.232.809-1.027 1.368l1.78 6.777c.41 1.679 1.575 2.052 2.807 1.679"/>
        <path stroke="#231F20" stroke-width=".35" d="M92.619 51.868c1.164-.311 1.78-1.244 1.095-2.861l-2.943-6.404c-.206-.559-1.302-.684-1.712-.559-.41.125-1.232.809-1.027 1.368l1.78 6.777c.41 1.679 1.575 2.052 2.807 1.679z"/>
        <path fill="#FEFEFE" d="M96.922 50.763c1.022-.514 1.499-1.543.612-3.15l-3.882-6.172c-.273-.515-1.431-.515-1.772-.322-.409.193-1.09.964-.817 1.544l2.793 6.685c.68 1.672 1.84 1.93 3.066 1.415"/>
        <path stroke="#231F20" stroke-width=".35" d="M96.922 50.763c1.022-.514 1.499-1.543.612-3.15l-3.882-6.172c-.273-.515-1.431-.515-1.772-.322-.409.193-1.09.964-.817 1.544l2.793 6.685c.68 1.672 1.84 1.93 3.066 1.415z"/>
        <path fill="#FEFEFE" d="M79.432 52.982c-.99-.198-1.69-1.058-1.34-2.91l1.457-7.146c.058-.661.99-.926 1.34-.926.35.066 1.166.662 1.108 1.323l-.466 7.343c-.117 1.853-.991 2.449-2.099 2.316"/>
        <path stroke="#231F20" stroke-width=".35" d="M79.432 52.982c-.99-.198-1.69-1.058-1.34-2.91l1.457-7.146c.058-.661.99-.926 1.34-.926.35.066 1.166.662 1.108 1.323l-.466 7.343c-.117 1.853-.991 2.449-2.099 2.316z"/>
        <path fill="#FEFEFE" d="M75.381 51.868c-1.164-.311-1.78-1.244-1.095-2.861l2.943-6.404c.206-.559 1.301-.684 1.712-.559.41.125 1.232.809 1.027 1.368l-1.78 6.777c-.48 1.679-1.575 2.052-2.807 1.679"/>
        <path stroke="#231F20" stroke-width=".35" d="M75.381 51.868c-1.164-.311-1.78-1.244-1.095-2.861l2.943-6.404c.206-.559 1.301-.684 1.712-.559.41.125 1.232.809 1.027 1.368l-1.78 6.777c-.48 1.679-1.575 2.052-2.807 1.679z"/>
        <path fill="#FEFEFE" d="M71.104 50.763c-1.018-.514-1.56-1.543-.611-3.15l3.867-6.172c.271-.515 1.357-.515 1.764-.322.407.193 1.085.964.814 1.544l-2.782 6.685c-.678 1.672-1.831 1.93-3.052 1.415"/>
        <path stroke="#231F20" stroke-width=".35" d="M71.104 50.763c-1.018-.514-1.56-1.543-.611-3.15l3.867-6.172c.271-.515 1.357-.515 1.764-.322.407.193 1.085.964.814 1.544l-2.782 6.685c-.678 1.672-1.831 1.93-3.052 1.415z"/>
        <path fill="#231F20" d="M83.5 43c12.42 0 22.5-7.368 22.5-16.532C106 17.37 95.92 10 83.5 10S61 17.37 61 26.468C61 35.632 71.08 43 83.5 43"/>
        <path fill="#FEFEFE" d="M93.745 21.21c0-2.484-2.643-6.21-10.241-6.21-4.493 0-8.259 1.111-10.504 3.203.529.458 1.122 1.112 1.122 1.896v13.598c-.066.85-.462 1.503-1.057 2.222 2.115 1.7 5.682 3.205 11.233 3.073C89.848 38.862 95 37.096 95 31.997c0-2.157-2.047-4.315-4.294-5.034-.595-.196-.462-.784 0-.98.462-.262 3.039-2.223 3.039-4.773"/>
        <path fill="#231F20" d="M83.5 25c1.915 0 3.5-1.793 3.5-4s-1.585-4-3.5-4-3.5 1.793-3.5 4 1.585 4 3.5 4M84 35c2.237 0 4-1.77 4-4s-1.763-4-4-4-4 1.77-4 4 1.763 4 4 4"/>
        <path stroke="#231F20" stroke-width=".35" d="M84 35c2.237 0 4-1.77 4-4s-1.763-4-4-4-4 1.77-4 4 1.763 4 4 4z"/>
    </g>
</svg>
