<?xml version="1.0" standalone="no"?>
<!DOCTYPE svg PUBLIC "-//W3C//DTD SVG 1.1//EN" "http://www.w3.org/Graphics/SVG/1.1/DTD/svg11.dtd" >
<svg xmlns="http://www.w3.org/2000/svg" xmlns:xlink="http://www.w3.org/1999/xlink" version="1.1">
<metadata>
Created by FontForge 20161116 at Thu Sep 22 22:13:56 2005
 By Jimmy Wärting
Copyright (C)1995; TypeMarket Ltd.  Moscow, 119136, Box 20; phone:(095)1427712; Created by A.Shevtsov
</metadata>
<defs>
<font id="EuropeCondensedC-BoldItalic" horiz-adv-x="480" >
  <font-face 
    font-family="EuropeCondensedC"
    font-weight="700"
    font-style="italic"
    font-stretch="condensed"
    units-per-em="1000"
    panose-1="0 0 8 6 0 0 0 0 0 0"
    ascent="759"
    descent="-241"
    x-height="530"
    cap-height="749"
    bbox="-115 -241 1254 1029"
    underline-thickness="97"
    underline-position="-96"
    slope="-10"
    stemh="117"
    unicode-range="U+0020-2122"
  />
<missing-glyph horiz-adv-x="500" 
 />
    <glyph glyph-name=".notdef" horiz-adv-x="500" 
 />
    <glyph glyph-name="space" unicode=" " horiz-adv-x="257" 
 />
    <glyph glyph-name="space" unicode="&#xa0;" horiz-adv-x="257" 
 />
    <glyph glyph-name="exclam" unicode="!" horiz-adv-x="294" 
d="M23 0l27 154h154l-27 -154h-154zM155 749h154l-91 -514h-154z" />
    <glyph glyph-name="quotedbl" unicode="&#x22;" horiz-adv-x="341" 
d="M65 736h97l-50 -281h-97zM229 736h97l-50 -281h-97z" />
    <glyph glyph-name="numbersign" unicode="#" horiz-adv-x="795" 
d="M424 739h111l-110 -210h122l112 210h111l-111 -210h142l-55 -101h-141l-66 -122h148l-54 -101h-148l-111 -210h-111l111 210h-122l-114 -210h-110l110 210h-144l56 101h142l67 122h-152l55 101h151zM369 428l-66 -122h126l66 122h-126z" />
    <glyph glyph-name="dollar" unicode="$" horiz-adv-x="518" 
d="M330 830h64l-14 -78c122 0 165 -28 165 -103c0 -20 -3 -55 -16 -122h-132c9 54 11 67 11 76c0 19 -8 41 -46 46l-35 -201c111 -30 161 -59 161 -136c0 -17 -4 -47 -21 -139c-22 -121 -86 -173 -219 -173l-16 -88h-64l16 88h-9c-117 0 -163 30 -163 114c0 17 2 38 18 129
h140c-14 -76 -16 -92 -16 -100c0 -21 6 -38 48 -41l40 229c-116 26 -162 57 -162 130c0 13 3 34 17 114c22 125 78 171 219 177zM266 467l32 182c-40 -3 -58 -18 -65 -53c-10 -52 -13 -71 -13 -81c0 -23 10 -42 46 -48zM303 312l-37 -210c40 4 59 18 65 52
c16 84 18 103 18 111c0 17 -9 38 -46 47z" />
    <glyph glyph-name="percent" unicode="%" horiz-adv-x="905" 
d="M159 -9l494 767h92l-494 -767h-92zM240 644c-36 0 -47 -13 -54 -53l-22 -126c-5 -29 -6 -38 -6 -44c0 -22 11 -27 38 -27c36 0 47 10 54 53l23 133c3 17 5 31 5 36c0 21 -11 28 -38 28zM260 758c101 0 141 -20 141 -94c0 -15 -2 -36 -9 -76l-27 -151
c-22 -123 -63 -157 -190 -157c-102 0 -140 21 -140 93c0 10 1 30 7 64l29 163c22 126 63 158 189 158zM708 355c-36 0 -47 -13 -54 -53l-22 -126c-5 -29 -6 -38 -6 -44c0 -22 11 -27 38 -27c36 0 47 10 54 53l23 133c3 17 5 31 5 36c0 21 -11 28 -38 28zM728 469
c101 0 141 -20 141 -94c0 -15 -2 -36 -9 -76l-27 -151c-22 -123 -63 -157 -190 -157c-102 0 -140 21 -140 93c0 10 1 30 7 64l29 163c22 126 63 158 189 158z" />
    <glyph glyph-name="ampersand" unicode="&#x26;" horiz-adv-x="579" 
d="M517 550h-143c7 40 9 55 9 63c0 20 -9 28 -36 28c-31 0 -52 -16 -52 -47c0 -11 2 -23 11 -44l79 -177l16 91h133l-47 -266l62 -119l-131 -88l-23 41c-26 -29 -67 -41 -125 -41h-82c-120 0 -168 29 -168 114c0 18 2 39 6 63l16 93c19 109 65 162 151 168
c-39 62 -52 102 -52 143c0 114 68 186 213 186c129 0 179 -20 179 -97c0 -15 -2 -33 -16 -111zM327 170l-79 148c-24 0 -41 -21 -48 -57c-14 -75 -17 -98 -17 -108c0 -28 15 -33 66 -33c50 0 78 6 78 50z" />
    <glyph glyph-name="quotesingle" unicode="'" horiz-adv-x="178" 
d="M66 736h96l-50 -281h-96z" />
    <glyph glyph-name="parenleft" unicode="(" horiz-adv-x="373" 
d="M389 757l-21 -117c-60 -9 -78 -40 -92 -119l-51 -291c-4 -22 -6 -40 -6 -56c0 -40 15 -60 55 -66l-21 -117h-24c-125 0 -170 41 -170 146c0 35 5 78 14 128l38 218c35 200 87 274 254 274h24z" />
    <glyph glyph-name="parenright" unicode=")" horiz-adv-x="373" 
d="M102 640l21 117h24c124 0 169 -41 169 -146c0 -35 -5 -78 -14 -128l-38 -218c-35 -200 -87 -274 -253 -274h-24l21 116c60 9 77 41 91 120l52 293c4 22 6 41 6 56c0 39 -15 58 -55 64z" />
    <glyph glyph-name="asterisk" unicode="*" horiz-adv-x="456" 
d="M429 592l-16 -90h-116l50 -119l-104 -52l-33 114l-70 -114l-90 52l94 119h-116l16 90h116l-50 119l103 52l33 -115l72 115l89 -52l-94 -119h116zM213 463l73 44l13 72l-58 51l-73 -49l-13 -75z" />
    <glyph glyph-name="plus" unicode="+" horiz-adv-x="740" 
d="M373 613h100l-44 -252h252l-18 -100h-252l-44 -252h-100l44 252h-252l18 100h252z" />
    <glyph glyph-name="comma" unicode="," horiz-adv-x="258" 
d="M53 0l27 154h154l-29 -166c-18 -101 -77 -149 -181 -154l14 82c43 3 70 21 79 84h-64z" />
    <glyph glyph-name="hyphen" unicode="-" horiz-adv-x="350" 
d="M49 340h272l-20 -117h-272z" />
    <glyph glyph-name="hyphen" unicode="&#xad;" horiz-adv-x="350" 
d="M49 340h272l-20 -117h-272z" />
    <glyph glyph-name="period" unicode="." horiz-adv-x="258" 
d="M38 0l28 154h154l-28 -154h-154z" />
    <glyph glyph-name="slash" unicode="/" horiz-adv-x="281" 
d="M-115 -95l393 855h97l-394 -855h-96z" />
    <glyph glyph-name="zero" unicode="0" horiz-adv-x="518" 
d="M327 758c135 0 187 -28 187 -126c0 -24 -2 -44 -9 -84l-62 -347c-30 -169 -85 -210 -252 -210c-135 0 -187 28 -187 126c0 24 3 50 9 84l62 347c30 169 85 210 252 210zM304 632c-34 0 -45 -12 -52 -53l-71 -400c-2 -13 -3 -27 -3 -33c0 -22 10 -29 36 -29
c34 0 45 11 52 52l71 402c3 17 4 26 4 33c0 22 -11 28 -37 28z" />
    <glyph glyph-name="one" unicode="1" horiz-adv-x="517" 
d="M243 749h218l-132 -749h-168l110 625c-43 -55 -92 -110 -142 -160l-78 90c70 65 135 130 192 194z" />
    <glyph glyph-name="two" unicode="2" horiz-adv-x="518" 
d="M242 477h-168l13 70c31 168 82 211 242 211c127 0 176 -26 176 -122c0 -25 -3 -54 -9 -88l-17 -94c-17 -97 -60 -135 -170 -178c-97 -38 -126 -64 -135 -144h242l-23 -132h-411c29 225 84 314 190 360c105 45 126 57 133 96l21 123c2 12 3 21 3 29c0 17 -6 24 -26 24
c-28 0 -36 -13 -43 -53z" />
    <glyph glyph-name="three" unicode="3" horiz-adv-x="518" 
d="M237 531h-155l8 46c26 146 79 181 235 181c129 0 178 -24 178 -111c0 -20 -2 -49 -18 -130c-15 -75 -40 -108 -115 -121c59 -9 83 -34 83 -86c0 -17 -4 -48 -21 -139c-27 -143 -75 -180 -243 -180c-133 0 -186 22 -186 112c0 19 2 41 21 148h164
c-14 -81 -16 -98 -16 -104c0 -23 11 -30 38 -30c35 0 45 9 53 52c18 96 20 116 20 122c0 29 -18 34 -68 34h-62l22 122h58c63 0 74 15 85 68c12 59 14 81 14 88c0 22 -10 29 -36 29c-33 0 -44 -12 -51 -53z" />
    <glyph glyph-name="four" unicode="4" horiz-adv-x="518" 
d="M257 749h253l-82 -468h47l-23 -126h-47l-27 -155h-158l27 155h-263l32 180zM128 281h142l66 374z" />
    <glyph glyph-name="five" unicode="5" horiz-adv-x="518" 
d="M125 749h379l-23 -129h-225l-24 -138c38 34 75 48 124 48c88 0 115 -28 115 -93c0 -29 -5 -66 -13 -110l-27 -156c-25 -145 -80 -180 -239 -180c-130 0 -180 22 -180 110c0 20 3 50 18 132h158c-12 -63 -14 -84 -14 -91c0 -19 9 -25 34 -25c33 0 46 12 53 52l30 170
c4 22 5 33 5 40c0 22 -10 29 -38 29c-37 0 -50 -9 -58 -62h-146z" />
    <glyph glyph-name="six" unicode="6" horiz-adv-x="518" 
d="M492 556h-156c6 28 8 41 8 55c0 23 -10 30 -36 30c-34 0 -45 -14 -52 -54l-28 -154c45 32 83 46 130 46c85 0 114 -25 114 -93c0 -25 -4 -55 -10 -91l-17 -94c-29 -168 -85 -210 -252 -210c-135 0 -187 28 -187 126c0 23 3 48 9 84l68 385c25 141 80 172 238 172
c128 0 184 -15 184 -105c0 -17 -2 -42 -13 -97zM258 359c-34 0 -45 -11 -52 -53l-23 -130c-3 -17 -4 -25 -4 -31c0 -22 11 -28 37 -28c36 0 45 12 52 53l23 130c3 18 4 25 4 30c0 22 -10 29 -37 29z" />
    <glyph glyph-name="seven" unicode="7" horiz-adv-x="517" 
d="M114 749h374l-23 -129l-254 -620h-169l257 617h-208z" />
    <glyph glyph-name="eight" unicode="8" horiz-adv-x="518" 
d="M327 758c130 0 180 -27 180 -122c0 -24 -3 -52 -13 -107c-16 -86 -47 -126 -121 -140c65 -11 87 -39 87 -92c0 -18 -2 -37 -13 -96c-32 -169 -84 -210 -256 -210c-138 0 -192 28 -192 127c0 24 3 51 15 115c19 98 43 141 136 156c-55 11 -78 38 -78 91c0 14 4 45 9 72
c29 163 84 206 246 206zM306 641c-40 0 -51 -13 -60 -59c-17 -88 -19 -106 -19 -113c0 -25 12 -32 43 -32c41 0 52 12 61 58c17 87 19 105 19 112c0 25 -13 34 -44 34zM249 320c-40 0 -52 -14 -60 -60c-17 -92 -19 -103 -19 -117c0 -26 12 -35 42 -35c40 0 54 16 62 62
c17 92 19 109 19 116c0 26 -13 34 -44 34z" />
    <glyph glyph-name="nine" unicode="9" horiz-adv-x="517" 
d="M21 230h163c-13 -72 -15 -86 -15 -93c0 -22 11 -29 38 -29c37 0 47 15 54 54l32 186c-44 -32 -81 -46 -128 -46c-86 0 -115 26 -115 94c0 24 5 64 21 152c30 168 85 210 252 210c135 0 187 -26 187 -125c0 -24 -2 -45 -9 -85l-68 -385c-25 -142 -79 -172 -238 -172
c-132 0 -194 11 -194 105c0 17 2 39 20 134zM301 632c-36 0 -45 -12 -53 -53c-19 -103 -21 -123 -21 -130c0 -23 10 -30 37 -30c34 0 43 12 51 54c20 110 22 124 22 131c0 21 -10 28 -36 28z" />
    <glyph glyph-name="colon" unicode=":" horiz-adv-x="290" 
d="M22 0l27 154h154l-27 -154h-154zM87 367l28 154h154l-28 -154h-154z" />
    <glyph glyph-name="semicolon" unicode=";" horiz-adv-x="290" 
d="M102 367l28 154h154l-28 -154h-154zM37 0l27 154h154l-29 -166c-18 -101 -77 -149 -181 -154l14 82c43 3 70 21 79 84h-64z" />
    <glyph glyph-name="less" unicode="&#x3c;" horiz-adv-x="861" 
d="M780 605l-20 -111l-482 -184l418 -184l-20 -111l-552 246l18 99z" />
    <glyph glyph-name="equal" unicode="=" horiz-adv-x="741" 
d="M96 469h605l-18 -100h-605zM58 252h605l-18 -100h-605z" />
    <glyph glyph-name="greater" unicode="&#x3e;" horiz-adv-x="861" 
d="M185 605l552 -245l-18 -99l-638 -246l20 111l484 184l-420 184z" />
    <glyph glyph-name="question" unicode="?" horiz-adv-x="497" 
d="M98 0l28 154h154l-28 -154h-154zM238 524h-158c28 194 87 234 251 234c131 0 183 -26 183 -110c0 -16 -3 -43 -19 -132c-13 -71 -29 -106 -96 -145c-72 -41 -92 -59 -99 -98l-6 -38h-154l13 74c9 55 22 84 88 123c69 41 77 60 85 100c9 43 12 72 12 79
c0 22 -10 30 -36 30c-34 0 -49 -9 -64 -117z" />
    <glyph glyph-name="at" unicode="@" horiz-adv-x="1034" 
d="M624 356c0 55 -24 83 -73 83c-74 0 -182 -110 -182 -239c0 -44 22 -68 65 -68c54 0 114 43 144 114zM561 140c-47 -57 -98 -83 -163 -83c-92 0 -139 43 -139 124c0 184 157 333 299 333c55 0 90 -23 107 -68l35 51h91l-126 -297c-8 -19 -10 -28 -10 -33
c0 -15 11 -28 43 -28c122 0 217 191 217 298c0 133 -108 230 -290 230c-280 0 -498 -228 -498 -468c0 -168 122 -273 329 -273c109 0 222 34 322 96l31 -59c-117 -77 -240 -116 -365 -116c-243 0 -411 129 -411 341c0 300 278 561 610 561c217 0 368 -112 368 -296
c0 -185 -157 -396 -355 -396c-75 0 -95 25 -95 83z" />
    <glyph glyph-name="A" unicode="A" horiz-adv-x="537" 
d="M213 749h278l-17 -749h-179l12 183h-111l-52 -183h-175zM235 309h79l24 353z" />
    <glyph glyph-name="B" unicode="B" horiz-adv-x="558" 
d="M8 0l132 749h236c132 0 194 -18 194 -107c0 -14 -2 -30 -5 -49l-12 -66c-15 -83 -58 -122 -145 -137c70 -3 105 -37 105 -104c0 -13 -1 -26 -4 -45l-15 -85c-23 -131 -88 -156 -242 -156h-244zM241 327l-35 -195h53c40 0 56 8 64 52l16 89c1 7 2 17 2 21
c0 26 -14 33 -47 33h-53zM292 617l-31 -175h49c40 0 55 9 63 54l11 62c2 11 3 21 3 27c0 26 -13 32 -46 32h-49z" />
    <glyph glyph-name="C" unicode="C" horiz-adv-x="505" 
d="M511 496h-159c13 71 15 92 15 100c0 22 -10 28 -37 28c-35 0 -44 -11 -51 -52l-70 -396c-2 -10 -3 -19 -3 -26c0 -21 10 -26 36 -26c35 0 46 10 53 52l18 103h159l-14 -78c-29 -169 -71 -210 -236 -210c-145 0 -198 23 -198 122c0 20 2 46 9 88l62 347
c30 170 77 210 263 210c130 0 172 -30 172 -116c0 -26 -3 -55 -19 -146z" />
    <glyph glyph-name="D" unicode="D" horiz-adv-x="548" 
d="M292 617l-86 -485h48c36 0 46 10 53 51l66 371c2 11 4 27 4 33c0 23 -11 30 -40 30h-45zM8 0l132 749h221c143 0 196 -33 196 -136c0 -27 -3 -59 -10 -97l-50 -283c-32 -182 -87 -233 -268 -233h-221z" />
    <glyph glyph-name="E" unicode="E" horiz-adv-x="430" 
d="M140 749h330l-23 -132h-155l-29 -163h145l-22 -126h-145l-35 -196h170l-23 -132h-345z" />
    <glyph glyph-name="F" unicode="F" horiz-adv-x="414" 
d="M140 749h329l-23 -132h-154l-33 -188h139l-24 -132h-139l-52 -297h-175z" />
    <glyph glyph-name="G" unicode="G" horiz-adv-x="538" 
d="M536 508h-167l9 52c3 18 4 27 4 33c0 25 -13 31 -46 31c-41 0 -54 -8 -62 -52l-69 -390c-2 -12 -3 -21 -3 -27c0 -25 13 -31 46 -31c41 0 54 9 62 52l17 97h-50l23 132h217l-36 -204c-31 -177 -78 -210 -258 -210c-146 0 -199 23 -199 121c0 21 2 47 9 89l62 347
c30 168 81 210 264 210c140 0 193 -27 193 -126c0 -24 -3 -51 -9 -84z" />
    <glyph glyph-name="H" unicode="H" horiz-adv-x="550" 
d="M315 749l-51 -289h90l51 289h175l-132 -749h-175l58 328h-90l-58 -328h-175l132 749h175z" />
    <glyph glyph-name="I" unicode="I" horiz-adv-x="291" 
d="M318 749l-132 -749h-175l132 749h175z" />
    <glyph glyph-name="J" unicode="J" horiz-adv-x="452" 
d="M307 749h175l-99 -561c-26 -145 -76 -197 -229 -197c-121 0 -164 29 -164 107c0 18 2 38 6 61l20 115h155c-22 -119 -23 -130 -23 -136c0 -12 6 -15 22 -15c20 0 28 6 32 29z" />
    <glyph glyph-name="K" unicode="K" horiz-adv-x="544" 
d="M315 749l-57 -323l170 323h178l-205 -352l96 -397h-181l-73 341l-60 -341h-175l132 749h175z" />
    <glyph glyph-name="L" unicode="L" horiz-adv-x="405" 
d="M315 749l-109 -617h165l-23 -132h-340l132 749h175z" />
    <glyph glyph-name="M" unicode="M" horiz-adv-x="817" 
d="M140 749h251v-590l207 590h249l-132 -749h-157l122 634l-228 -634h-194v634l-100 -634h-150z" />
    <glyph glyph-name="N" unicode="N" horiz-adv-x="640" 
d="M140 749h246l31 -592l94 592h159l-132 -749h-245l-30 609l-96 -609h-159z" />
    <glyph glyph-name="O" unicode="O" horiz-adv-x="543" 
d="M359 758c146 0 198 -26 198 -123c0 -24 -3 -53 -9 -87l-62 -347c-32 -178 -76 -210 -263 -210c-147 0 -199 23 -199 121c0 25 3 55 9 89l62 347c30 170 78 210 264 210zM335 626c-37 0 -48 -11 -56 -54l-69 -391c-2 -12 -3 -22 -3 -28c0 -23 11 -30 40 -30
c37 0 47 10 55 53l69 390c2 12 3 23 3 30c0 23 -10 30 -39 30z" />
    <glyph glyph-name="P" unicode="P" horiz-adv-x="522" 
d="M292 617l-47 -267h39c39 0 53 11 61 54l26 144c3 18 5 32 5 38c0 25 -13 31 -45 31h-39zM221 218l-38 -218h-175l132 749h175c163 0 238 -21 238 -130c0 -18 -2 -37 -6 -62l-27 -152c-27 -152 -101 -187 -272 -187h-27z" />
    <glyph glyph-name="Q" unicode="Q" horiz-adv-x="544" 
d="M478 18l-70 -55l-27 50c-35 -21 -92 -22 -181 -22c-129 0 -176 28 -176 120c0 25 4 56 10 91l61 346c32 180 87 211 264 211c141 0 199 -19 199 -123c0 -24 -3 -54 -9 -88l-65 -371c-5 -28 -17 -72 -36 -103zM246 269l60 58l21 -45l49 279c3 18 5 31 5 36
c0 22 -12 28 -43 28c-41 0 -56 -11 -64 -54l-65 -371c-4 -21 -6 -39 -6 -45c0 -25 13 -31 46 -31c35 0 50 7 58 36z" />
    <glyph glyph-name="R" unicode="R" horiz-adv-x="550" 
d="M8 0l132 749h182c163 0 238 -21 238 -130c0 -18 -2 -39 -6 -62l-15 -86c-15 -87 -58 -129 -147 -144c67 -10 101 -46 101 -105c0 -8 -2 -24 -5 -42l-32 -180h-175l32 178c3 16 4 30 4 37c0 34 -18 44 -60 44h-28l-46 -259h-175zM292 617l-41 -232h42c42 0 57 10 65 54
l22 119c2 10 3 21 3 26c0 27 -14 33 -49 33h-42z" />
    <glyph glyph-name="S" unicode="S" horiz-adv-x="516" 
d="M507 524h-156l9 48c2 11 3 20 3 28c0 24 -11 31 -40 31c-36 0 -48 -12 -56 -52c-3 -14 -10 -59 -10 -67c0 -23 8 -44 86 -62c101 -24 136 -66 136 -129c0 -18 -5 -67 -23 -159c-23 -120 -87 -171 -221 -171h-47c-121 0 -169 29 -169 113c0 19 3 40 7 64l14 82h161
c-12 -63 -15 -84 -15 -90c0 -22 8 -36 44 -36c40 0 52 11 61 55c9 45 12 71 12 83c0 39 -24 48 -88 64c-105 26 -135 60 -135 121c0 17 2 38 6 61l12 70c23 128 72 180 207 180h51c121 0 169 -25 169 -110c0 -19 -3 -40 -7 -65z" />
    <glyph glyph-name="T" unicode="T" horiz-adv-x="431" 
d="M95 749h411l-23 -132h-118l-109 -617h-175l109 617h-118z" />
    <glyph glyph-name="U" unicode="U" horiz-adv-x="545" 
d="M141 749h175l-97 -539c-3 -16 -6 -49 -6 -56c0 -23 10 -31 39 -31c37 0 47 13 55 55l101 571h168l-90 -507c-32 -183 -68 -251 -262 -251c-144 0 -187 36 -187 129c0 33 4 68 15 129z" />
    <glyph glyph-name="V" unicode="V" horiz-adv-x="525" 
d="M102 749h180l-52 -656l182 656h180l-238 -749h-279z" />
    <glyph glyph-name="W" unicode="W" horiz-adv-x="841" 
d="M103 749h169l-63 -623l180 623h232l-40 -623l157 623h169l-220 -749h-246l43 632l-178 -632h-246z" />
    <glyph glyph-name="X" unicode="X" horiz-adv-x="509" 
d="M110 749h170l4 -307l117 307h168l-150 -353l26 -396h-175l-4 337l-122 -337h-174l166 396z" />
    <glyph glyph-name="Y" unicode="Y" horiz-adv-x="477" 
d="M82 749h177l12 -339l127 339h166l-241 -506l-43 -243h-175l43 243z" />
    <glyph glyph-name="Z" unicode="Z" horiz-adv-x="429" 
d="M129 749h361l-21 -118l-291 -499h203l-23 -132h-381l24 134l284 483h-179z" />
    <glyph glyph-name="bracketleft" unicode="[" horiz-adv-x="373" 
d="M176 749h223l-20 -117h-69l-112 -632h69l-20 -117h-223z" />
    <glyph glyph-name="backslash" unicode="\" horiz-adv-x="281" 
d="M153 760l93 -855h-96l-93 855h96z" />
    <glyph glyph-name="bracketright" unicode="]" horiz-adv-x="373" 
d="M126 749h223l-152 -866h-223l20 117h69l112 632h-69z" />
    <glyph glyph-name="asciicircum" unicode="^" horiz-adv-x="1033" 
d="M476 747h127l193 -282h-118l-155 186l-221 -186h-119z" />
    <glyph glyph-name="underscore" unicode="_" horiz-adv-x="518" 
d="M9 -122h518l-18 -104h-518z" />
    <glyph glyph-name="grave" unicode="`" horiz-adv-x="518" 
d="M129 777h129l66 -187h-71z" />
    <glyph glyph-name="a" unicode="a" horiz-adv-x="466" 
d="M222 234c-24 0 -40 -13 -44 -36c-10 -51 -11 -60 -11 -65c0 -14 8 -28 32 -28s38 12 43 36c10 50 11 63 11 67c0 14 -7 26 -31 26zM209 375h-135l7 38c19 107 71 126 203 126c113 0 164 -14 164 -86c0 -12 -1 -25 -4 -40l-73 -413h-146l8 42c-31 -39 -67 -51 -122 -51
c-73 0 -104 24 -104 88c0 16 2 35 6 56l11 64c16 88 66 129 151 129c37 0 70 -11 95 -31c14 79 17 100 17 106c0 19 -9 25 -31 25c-30 0 -39 -12 -47 -53z" />
    <glyph glyph-name="b" unicode="b" 
d="M267 422c-31 0 -40 -12 -47 -53l-36 -201c-3 -17 -4 -27 -4 -34c0 -20 8 -26 32 -26c31 0 41 11 48 53l37 208c2 10 3 18 3 25c0 21 -10 28 -33 28zM135 762h154l-51 -287c33 43 74 64 128 64c68 0 96 -31 96 -98c0 -21 -3 -46 -8 -74l-36 -205
c-21 -118 -57 -171 -146 -171c-55 0 -86 22 -111 76l-12 -67h-148z" />
    <glyph glyph-name="c" unicode="c" horiz-adv-x="445" 
d="M428 348h-145c5 30 6 40 6 47c0 20 -8 27 -30 27c-30 0 -40 -14 -47 -54l-34 -195c-3 -15 -5 -32 -5 -39c0 -19 8 -26 30 -26c30 0 40 14 47 53l8 48h145l-9 -53c-23 -131 -71 -165 -204 -165c-124 0 -175 28 -175 124c0 24 3 52 9 84l24 132c30 165 83 208 238 208
c109 0 152 -22 152 -102c0 -18 -2 -39 -10 -89z" />
    <glyph glyph-name="d" unicode="d" 
d="M266 422c-31 0 -40 -11 -48 -53l-36 -200c-2 -12 -4 -27 -4 -34c0 -21 9 -27 32 -27c32 0 41 11 48 53l37 208c2 10 3 19 3 26c0 20 -9 27 -32 27zM518 762l-134 -762h-148l12 67c-45 -54 -84 -76 -139 -76c-67 0 -94 30 -94 96c0 21 3 46 8 75l36 205
c21 119 60 172 150 172c54 0 87 -21 104 -64l51 287h154z" />
    <glyph glyph-name="e" unicode="e" horiz-adv-x="474" 
d="M431 227h-244l-10 -57c-3 -17 -4 -28 -4 -35c0 -21 10 -27 39 -27c37 0 49 10 58 64h152l-7 -35c-24 -122 -85 -146 -238 -146c-117 0 -162 34 -162 125c0 24 3 51 9 83l23 131c29 164 82 209 238 209c124 0 173 -30 173 -124c0 -24 -3 -52 -9 -85zM205 330h97
c11 60 12 70 12 77c0 23 -12 29 -42 29c-38 0 -50 -10 -58 -55z" />
    <glyph glyph-name="f" unicode="f" horiz-adv-x="310" 
d="M381 758l-19 -112c-6 1 -15 2 -22 2c-35 0 -56 -17 -61 -49l-12 -71h74l-20 -115h-74l-73 -413h-154l73 413h-48l20 115h48l14 78c20 112 70 156 186 156c21 0 44 -1 68 -4z" />
    <glyph glyph-name="g" unicode="g" 
d="M283 422c-31 0 -42 -15 -49 -55l-34 -194c-3 -16 -4 -26 -4 -33c0 -21 10 -26 33 -26c32 0 40 10 47 51l35 199c3 17 4 23 4 30c0 21 -9 28 -32 28zM347 530h147l-91 -516c-27 -154 -75 -209 -212 -209c-122 0 -176 19 -176 99c0 14 2 33 6 50h133c-1 -4 -2 -13 -2 -15
c0 -18 12 -25 37 -25c36 0 45 12 52 53l14 78c-41 -35 -76 -48 -122 -48c-72 0 -100 29 -100 95c0 17 2 45 8 80l35 195c21 118 59 172 150 172c57 0 92 -24 110 -74z" />
    <glyph glyph-name="h" unicode="h" 
d="M289 762l-50 -287c33 43 74 64 128 64c68 0 92 -28 92 -88c0 -21 -3 -45 -8 -74l-66 -377h-154l64 362c2 13 3 22 3 28c0 20 -9 27 -32 27c-30 0 -40 -12 -46 -48l-65 -369h-154l134 762h154z" />
    <glyph glyph-name="i" unicode="i" horiz-adv-x="250" 
d="M249 530l-94 -530h-154l94 530h154zM115 640l21 122h154l-21 -122h-154z" />
    <glyph glyph-name="j" unicode="j" horiz-adv-x="255" 
d="M100 530h154l-100 -571c-19 -111 -59 -153 -163 -153c-12 0 -46 1 -67 4l21 119c45 3 52 16 62 74zM120 640l21 122h154l-21 -122h-154z" />
    <glyph glyph-name="k" unicode="k" horiz-adv-x="452" 
d="M289 762l-78 -446l117 214h142l-125 -227l60 -303h-159l-42 278l-49 -278h-154l134 762h154z" />
    <glyph glyph-name="l" unicode="l" horiz-adv-x="250" 
d="M289 762l-134 -762h-154l134 762h154z" />
    <glyph glyph-name="m" unicode="m" horiz-adv-x="708" 
d="M238 530l-12 -68c42 55 81 77 141 77c59 0 90 -26 90 -73c39 52 81 73 140 73c66 0 90 -26 90 -85c0 -21 -3 -46 -8 -76l-66 -378h-154l64 363c2 12 3 22 3 28c0 19 -8 26 -31 26c-28 0 -40 -12 -46 -48l-65 -369h-154l64 363c2 12 3 22 3 28c0 19 -8 26 -31 26
c-29 0 -40 -12 -46 -48l-65 -369h-154l93 530h144z" />
    <glyph glyph-name="n" unicode="n" 
d="M238 530l-12 -68c42 58 87 77 141 77c68 0 92 -28 92 -88c0 -21 -3 -45 -8 -74l-66 -377h-154l64 362c2 13 3 22 3 28c0 20 -9 27 -32 27c-30 0 -40 -12 -46 -48l-65 -369h-154l93 530h144z" />
    <glyph glyph-name="o" unicode="o" horiz-adv-x="473" 
d="M285 539c124 0 172 -29 172 -123c0 -24 -3 -53 -9 -86l-23 -131c-29 -164 -80 -208 -236 -208c-125 0 -174 28 -174 123c0 24 3 52 9 87l23 129c29 164 82 209 238 209zM265 422c-34 0 -46 -13 -53 -54l-36 -207c-2 -10 -3 -18 -3 -25c0 -21 10 -28 36 -28
c34 0 45 13 52 53l36 206c2 11 3 20 3 27c0 21 -10 28 -35 28z" />
    <glyph glyph-name="p" unicode="p" 
d="M269 422c-31 0 -40 -12 -47 -53l-37 -206c-2 -11 -3 -23 -3 -30c0 -20 9 -25 32 -25c31 0 40 11 48 53l36 201c3 17 4 25 4 32c0 21 -10 28 -33 28zM243 530l-11 -64c34 50 78 73 135 73c69 0 97 -30 97 -97c0 -21 -3 -46 -8 -74l-36 -205c-21 -118 -57 -172 -146 -172
c-55 0 -88 22 -106 73l-46 -257h-154l128 723h147z" />
    <glyph glyph-name="q" unicode="q" 
d="M331 530h147l-128 -723h-154l46 257c-36 -51 -77 -73 -132 -73c-67 0 -94 31 -94 97c0 21 2 40 8 77l36 203c21 118 59 171 150 171c57 0 92 -23 110 -73zM267 422c-31 0 -40 -11 -48 -53l-36 -202c-2 -12 -4 -26 -4 -33c0 -20 9 -26 32 -26c32 0 41 13 48 53l36 203
c3 16 4 24 4 31c0 20 -9 27 -32 27z" />
    <glyph glyph-name="r" unicode="r" horiz-adv-x="403" 
d="M238 530l-10 -58c35 47 72 67 123 67c52 0 73 -20 73 -65c0 -13 -2 -35 -25 -161h-127c11 56 12 73 12 79c0 18 -7 25 -25 25c-25 0 -33 -13 -39 -48l-65 -369h-154l93 530h144z" />
    <glyph glyph-name="s" unicode="s" horiz-adv-x="438" 
d="M412 374h-131c5 23 6 36 6 40c0 16 -6 25 -37 25c-28 0 -44 -13 -48 -34c-5 -26 -6 -33 -6 -38c0 -19 9 -31 87 -47c77 -16 111 -54 111 -93c0 -6 -2 -23 -14 -84c-23 -117 -68 -152 -200 -152h-40c-96 0 -133 22 -133 88c0 13 1 30 11 86h141c-3 -17 -5 -32 -5 -40
c0 -21 9 -28 33 -28c28 0 40 11 47 38c5 20 7 38 7 42c0 19 -8 30 -91 45c-75 13 -103 30 -103 77c0 9 1 19 3 31l11 62c19 104 69 147 175 147h71c85 0 117 -24 117 -83c0 -13 -2 -32 -12 -82z" />
    <glyph glyph-name="t" unicode="t" horiz-adv-x="327" 
d="M135 671h154l-25 -140h86l-20 -117h-86l-40 -223c-5 -28 -6 -35 -6 -41c0 -22 9 -42 49 -42c7 0 15 1 20 2l-20 -113c-28 -4 -56 -6 -82 -6c-97 0 -130 25 -130 91c0 20 3 43 8 70l47 262h-46l20 117h46z" />
    <glyph glyph-name="u" unicode="u" 
d="M96 530h154l-64 -361c-3 -17 -4 -26 -4 -30c0 -19 9 -26 32 -26c30 0 41 14 47 48l65 369h154l-94 -530h-144l12 68c-42 -58 -86 -77 -140 -77c-68 0 -93 28 -93 89c0 21 3 45 8 73z" />
    <glyph glyph-name="v" unicode="v" horiz-adv-x="422" 
d="M55 530h151l-29 -444l139 444h145l-181 -530h-239z" />
    <glyph glyph-name="w" unicode="w" horiz-adv-x="718" 
d="M55 530h147l-22 -415l125 415h200l-19 -415l124 415h147l-174 -530h-214l18 423l-131 -423h-215z" />
    <glyph glyph-name="x" unicode="x" horiz-adv-x="427" 
d="M71 530h155v-221l78 221h146l-107 -241l29 -289h-160v238h-2l-89 -238h-160l132 289z" />
    <glyph glyph-name="y" unicode="y" horiz-adv-x="417" 
d="M61 530h154l-34 -454h2l131 454h148l-161 -493c-52 -158 -92 -232 -212 -232c-27 0 -54 3 -83 11l20 111c16 -4 29 -5 39 -5c45 0 72 24 87 78h-114z" />
    <glyph glyph-name="z" unicode="z" horiz-adv-x="371" 
d="M86 530h297l-22 -124l-204 -289h162l-21 -117h-319l21 116l207 297h-142z" />
    <glyph glyph-name="braceleft" unicode="{" horiz-adv-x="517" 
d="M529 749l-18 -105h-24c-73 0 -92 -24 -105 -99l-22 -123c-15 -85 -40 -130 -130 -150c63 -15 84 -42 84 -93c0 -50 -33 -179 -33 -225c0 -40 19 -54 74 -54h24l-18 -105h-39c-118 0 -170 21 -170 108c0 56 34 191 34 239c0 55 -27 77 -95 77l18 105c83 0 121 37 136 127
l22 127c24 139 80 171 227 171h35z" />
    <glyph glyph-name="bar" unicode="|" horiz-adv-x="518" 
d="M298 793h105l-182 -1034h-105z" />
    <glyph glyph-name="braceright" unicode="}" horiz-adv-x="517" 
d="M138 644l18 105h35c122 0 174 -21 174 -108c0 -51 -34 -194 -34 -237c0 -57 28 -80 95 -80l-18 -105c-85 0 -120 -36 -136 -126l-22 -127c-25 -140 -80 -171 -223 -171h-39l18 105h24c73 0 92 25 105 100l22 122c17 95 39 130 130 150c-62 15 -84 42 -84 94
c0 54 33 179 33 225c0 40 -19 53 -74 53h-24z" />
    <glyph glyph-name="asciitilde" unicode="~" horiz-adv-x="861" 
d="M789 407l-19 -111c-76 -46 -141 -69 -205 -69c-94 0 -178 65 -283 65c-62 0 -128 -27 -209 -79l19 111c81 49 150 73 209 73c118 0 182 -65 285 -65c62 0 125 24 203 75z" />
    <glyph glyph-name="afii10051" unicode="&#x402;" horiz-adv-x="582" 
d="M81 0l109 617h-118l23 132h411l-23 -132h-118l-31 -174c18 10 43 16 86 16c87 0 128 -28 128 -104c0 -8 -1 -28 -6 -59l-25 -146c-14 -81 -74 -150 -183 -150h-48l22 122c19 1 32 22 35 36c9 44 25 139 25 144c0 11 -4 25 -25 25c-18 0 -32 -15 -35 -35l-52 -292h-175z
" />
    <glyph glyph-name="afii10052" unicode="&#x403;" horiz-adv-x="405" 
d="M140 749h340l-23 -132h-165l-109 -617h-175zM433 1029h142l-209 -205h-78z" />
    <glyph glyph-name="quotesinglbase" unicode="&#x201a;" horiz-adv-x="258" 
d="M53 0l27 154h154l-29 -166c-18 -101 -77 -149 -181 -154l14 82c43 3 70 21 79 84h-64z" />
    <glyph glyph-name="afii10100" unicode="&#x453;" horiz-adv-x="369" 
d="M95 530h307l-21 -117h-153l-73 -413h-154zM471 776l-171 -168h-64l117 168h118z" />
    <glyph glyph-name="quotedblbase" unicode="&#x201e;" horiz-adv-x="486" 
d="M69 0l27 154h154l-29 -166c-18 -101 -77 -149 -181 -154l14 82c43 3 70 21 79 84h-64zM265 0l27 154h154l-29 -166c-18 -101 -77 -149 -181 -154l14 82c43 3 70 21 79 84h-64z" />
    <glyph glyph-name="ellipsis" unicode="&#x2026;" horiz-adv-x="978" 
d="M54 0l28 154h154l-28 -154h-154zM398 0l28 154h154l-28 -154h-154zM742 0l28 154h154l-28 -154h-154z" />
    <glyph glyph-name="dagger" unicode="&#x2020;" horiz-adv-x="456" 
d="M83 -9l79 449h-91l24 132h91l31 177h155l-31 -177h91l-24 -132h-91l-79 -449h-155z" />
    <glyph glyph-name="daggerdbl" unicode="&#x2021;" horiz-adv-x="517" 
d="M520 538h-154c9 47 11 64 11 73c0 18 -7 26 -28 26c-30 0 -43 -13 -50 -69l-21 -168h129l-22 -124h-124c-4 -51 -18 -104 -46 -144h233l-23 -132h-454l23 132c61 0 81 19 91 78l12 66h-77l22 124h72l22 176c16 126 93 182 226 182c118 0 174 -35 174 -115
c0 -12 -4 -43 -16 -105z" />
    <glyph glyph-name="perthousand" unicode="&#x2030;" horiz-adv-x="1290" 
d="M159 -9l494 767h92l-494 -767h-92zM240 644c-36 0 -47 -13 -54 -53l-22 -126c-5 -29 -6 -38 -6 -44c0 -22 11 -27 38 -27c36 0 47 10 54 53l23 133c3 17 5 31 5 36c0 21 -11 28 -38 28zM260 758c101 0 141 -20 141 -94c0 -15 -2 -36 -9 -76l-27 -151
c-22 -123 -63 -157 -190 -157c-102 0 -140 21 -140 93c0 10 1 30 7 64l29 163c22 126 63 158 189 158zM708 355c-36 0 -47 -13 -54 -53l-22 -126c-5 -29 -6 -38 -6 -44c0 -22 11 -27 38 -27c36 0 47 10 54 53l23 133c3 17 5 31 5 36c0 21 -11 28 -38 28zM728 469
c101 0 141 -20 141 -94c0 -15 -2 -36 -9 -76l-27 -151c-22 -123 -63 -157 -190 -157c-102 0 -140 21 -140 93c0 10 1 30 7 64l29 163c22 126 63 158 189 158zM1093 355c-36 0 -47 -13 -54 -53l-22 -126c-5 -29 -6 -38 -6 -44c0 -22 11 -27 38 -27c36 0 47 10 54 53l23 133
c3 17 5 31 5 36c0 21 -11 28 -38 28zM1113 469c101 0 141 -20 141 -94c0 -15 -2 -36 -9 -76l-27 -151c-22 -123 -63 -157 -190 -157c-102 0 -140 21 -140 93c0 10 1 30 7 64l29 163c22 126 63 158 189 158z" />
    <glyph glyph-name="afii10058" unicode="&#x409;" horiz-adv-x="865" 
d="M217 749h441l-51 -289h29c146 0 209 -29 209 -129c0 -18 -2 -38 -6 -61l-14 -77c-30 -163 -109 -193 -299 -193h-175l108 617h-91l-63 -357c-29 -164 -109 -267 -246 -267c-39 0 -63 3 -89 9l29 162c13 -6 28 -7 52 -7c49 0 67 34 79 103zM584 328l-35 -196h39
c39 0 54 11 61 53l14 79c3 17 4 26 4 32c0 25 -13 32 -44 32h-39z" />
    <glyph glyph-name="guilsinglleft" unicode="&#x2039;" horiz-adv-x="295" 
d="M85 105l-50 163l108 162h150l-105 -162l52 -163h-155z" />
    <glyph glyph-name="afii10059" unicode="&#x40a;" horiz-adv-x="787" 
d="M315 749l-51 -289h90l51 289h175l-51 -289h29c146 0 209 -29 209 -129c0 -18 -2 -38 -6 -61l-14 -77c-30 -163 -109 -193 -299 -193h-175l58 328h-90l-58 -328h-175l132 749h175zM506 328l-35 -196h39c39 0 54 11 61 53l14 79c3 17 4 26 4 32c0 25 -13 32 -44 32h-39z
" />
    <glyph glyph-name="afii10061" unicode="&#x40c;" horiz-adv-x="544" 
d="M315 749l-57 -323l170 323h178l-205 -352l96 -397h-181l-73 341l-60 -341h-175l132 749h175zM495 1029h142l-209 -205h-78z" />
    <glyph glyph-name="afii10060" unicode="&#x40b;" horiz-adv-x="592" 
d="M95 749h411l-23 -132h-118l-31 -174c18 10 43 16 86 16c87 0 128 -28 128 -104c0 -16 -2 -35 -6 -59l-52 -296h-175c49 272 53 296 53 301c0 13 -4 26 -25 26c-18 0 -31 -14 -35 -35l-52 -292h-175l109 617h-118z" />
    <glyph glyph-name="afii10145" unicode="&#x40f;" horiz-adv-x="550" 
d="M315 749l-109 -617h90l109 617h175l-132 -749h-141l-26 -149h-158l26 149h-141l132 749h175z" />
    <glyph glyph-name="afii10099" unicode="&#x452;" 
d="M135 762h154l-12 -68h131l-17 -99h-131l-21 -120c33 43 74 64 128 64c68 0 92 -28 92 -88c0 -21 -3 -45 -8 -74l-68 -386c-25 -145 -103 -182 -228 -182l21 117c34 0 44 12 51 53l68 383c2 13 3 22 3 28c0 20 -9 27 -32 27c-30 0 -40 -12 -46 -48l-65 -369h-154l105 595
h-44l17 99h44z" />
    <glyph glyph-name="quoteleft" unicode="&#x2018;" horiz-adv-x="270" 
d="M221 604l-27 -154h-154l29 166c18 101 77 149 181 154l-14 -82c-43 -3 -71 -21 -79 -84h64z" />
    <glyph glyph-name="quoteright" unicode="&#x2019;" horiz-adv-x="270" 
d="M69 595l27 154h154l-29 -166c-18 -101 -77 -149 -181 -154l14 82c43 3 70 21 79 84h-64z" />
    <glyph glyph-name="quotedblleft" unicode="&#x201c;" horiz-adv-x="474" 
d="M425 604l-27 -154h-154l29 166c18 101 77 149 181 154l-14 -82c-43 -3 -71 -21 -79 -84h64zM221 604l-27 -154h-154l29 166c18 101 77 149 181 154l-14 -82c-43 -3 -71 -21 -79 -84h64z" />
    <glyph glyph-name="quotedblright" unicode="&#x201d;" horiz-adv-x="474" 
d="M69 595l27 154h154l-29 -166c-18 -101 -77 -149 -181 -154l14 82c43 3 70 21 79 84h-64zM273 595l27 154h154l-29 -166c-18 -101 -77 -149 -181 -154l14 82c43 3 70 21 79 84h-64z" />
    <glyph glyph-name="bullet" unicode="&#x2022;" horiz-adv-x="610" 
d="M331 532c72 0 124 -53 124 -122c0 -92 -85 -175 -177 -175c-73 0 -124 53 -124 123c0 93 86 174 177 174z" />
    <glyph glyph-name="endash" unicode="&#x2013;" horiz-adv-x="596" 
d="M29 223l20 117h518l-20 -117h-518z" />
    <glyph glyph-name="emdash" unicode="&#x2014;" horiz-adv-x="1034" 
d="M10 340h1034l-20 -117h-1034z" />
    <glyph glyph-name="trademark" unicode="&#x2122;" horiz-adv-x="860" 
d="M128 745h245l-10 -57h-84l-38 -218h-77l38 218h-84zM429 745h99l34 -167l92 167h99l-48 -275h-68l36 206l-114 -206h-31l-43 206l-36 -206h-68z" />
    <glyph glyph-name="afii10106" unicode="&#x459;" horiz-adv-x="723" 
d="M138 530h367l-35 -197h84c83 0 126 -30 126 -98c0 -11 -2 -27 -13 -89c-19 -106 -69 -146 -172 -146h-238l73 413h-68l-38 -213c-21 -120 -68 -209 -181 -209c-27 0 -58 2 -79 7l19 112c4 -1 14 -2 20 -2c41 0 63 17 70 57zM451 228l-21 -123h37c24 0 41 14 45 36
c8 41 10 55 10 59c0 15 -10 28 -34 28h-37z" />
    <glyph glyph-name="guilsinglright" unicode="&#x203a;" horiz-adv-x="295" 
d="M210 430l50 -162l-108 -163h-150l105 163l-52 162h155z" />
    <glyph glyph-name="afii10107" unicode="&#x45a;" horiz-adv-x="698" 
d="M249 530l-35 -197h76l35 197h154l-35 -197h84c83 0 126 -30 126 -98c0 -11 -2 -27 -13 -89c-19 -106 -69 -146 -172 -146h-238l40 228h-76l-40 -228h-154l94 530h154zM425 228l-21 -123h37c24 0 41 14 45 36c8 41 10 55 10 59c0 15 -10 28 -34 28h-37z" />
    <glyph glyph-name="afii10109" unicode="&#x45c;" horiz-adv-x="452" 
d="M249 530l-38 -214l118 214h142l-125 -227l59 -303h-159l-42 278l-49 -278h-154l94 530h154zM506 776l-171 -168h-64l117 168h118z" />
    <glyph glyph-name="afii10108" unicode="&#x45b;" 
d="M135 762h154l-12 -68h131l-17 -99h-131l-21 -120c33 43 74 64 128 64c68 0 92 -28 92 -88c0 -21 -3 -45 -8 -74l-66 -377h-154l64 362c2 13 3 22 3 28c0 20 -9 27 -32 27c-30 0 -40 -12 -46 -48l-65 -369h-154l105 595h-44l17 99h44z" />
    <glyph glyph-name="afii10193" unicode="&#x45f;" 
d="M249 530l-73 -413h76l73 413h154l-94 -530h-121l-22 -125h-145l22 125h-118l94 530h154z" />
    <glyph glyph-name="afii10062" unicode="&#x40e;" horiz-adv-x="552" 
d="M54 749h174l37 -324h7l148 324h178l-312 -595c-63 -119 -122 -163 -199 -163c-29 0 -57 4 -77 9l28 161c11 -6 24 -8 44 -8c24 0 46 10 60 47zM194 981h72c-1 -2 -2 -13 -2 -18c0 -44 32 -66 93 -66c69 0 106 26 122 84h70c-30 -117 -94 -170 -207 -170
c-102 0 -150 44 -150 137c0 10 1 25 2 33z" />
    <glyph glyph-name="afii10110" unicode="&#x45e;" horiz-adv-x="417" 
d="M61 530h154l-34 -454h2l131 454h148l-161 -493c-52 -158 -92 -232 -212 -232c-27 0 -54 3 -83 11l20 111c16 -4 29 -5 39 -5c45 0 72 24 87 78h-114zM143 721h63c-1 -5 -2 -11 -2 -17c0 -40 28 -59 81 -59c60 0 93 23 107 76h62c-27 -106 -84 -154 -183 -154
c-88 0 -130 39 -130 122c0 10 1 24 2 32z" />
    <glyph glyph-name="afii10057" unicode="&#x408;" horiz-adv-x="452" 
d="M307 749h175l-99 -561c-26 -145 -76 -197 -229 -197c-121 0 -164 29 -164 107c0 18 2 38 6 61l20 115h155c-22 -119 -23 -130 -23 -136c0 -12 6 -15 22 -15c20 0 28 6 32 29z" />
    <glyph glyph-name="currency" unicode="&#xa4;" horiz-adv-x="626" 
d="M135 723l86 -102c39 25 81 39 130 39c46 0 86 -12 118 -39l121 102l43 -53l-120 -104c13 -25 19 -53 19 -83c0 -60 -21 -112 -63 -161l84 -104l-61 -52l-85 102c-38 -25 -82 -39 -131 -39c-47 0 -86 12 -117 39l-122 -102l-43 52l120 104c-13 25 -19 52 -19 82
c0 60 23 118 63 162l-84 104zM339 583c-84 0 -166 -77 -166 -162c0 -65 48 -115 117 -115c84 0 164 76 164 162c0 64 -47 115 -115 115z" />
    <glyph glyph-name="afii10050" unicode="&#x490;" horiz-adv-x="405" 
d="M140 749h199l14 75h141l-37 -207h-165l-109 -617h-175z" />
    <glyph glyph-name="brokenbar" unicode="&#xa6;" horiz-adv-x="518" 
d="M286 725h105l-67 -382h-105zM195 209h105l-67 -382h-105z" />
    <glyph glyph-name="section" unicode="&#xa7;" horiz-adv-x="562" 
d="M351 310c15 10 23 26 23 40c0 18 -11 30 -42 43l-122 51c-13 -9 -22 -24 -22 -42c0 -16 9 -26 41 -40zM153 490c-21 21 -31 49 -31 81c0 105 72 187 236 187c118 0 171 -28 171 -100c0 -10 -2 -33 -7 -58h-145c2 9 3 17 3 19c0 13 -11 23 -41 23c-42 0 -54 -17 -54 -43
c0 -13 4 -25 55 -46l89 -37c42 -17 83 -50 83 -107c0 -66 -40 -120 -104 -147c24 -28 35 -58 35 -92c0 -109 -75 -179 -239 -179c-127 0 -185 28 -185 102c0 13 2 28 9 66h153c-2 -8 -4 -20 -4 -24c0 -19 8 -29 43 -29c37 0 55 8 55 41c0 24 -13 36 -82 62
c-94 36 -146 67 -146 132c0 67 42 124 106 149z" />
    <glyph glyph-name="afii10023" unicode="&#x401;" horiz-adv-x="430" 
d="M140 749h330l-23 -132h-155l-29 -163h145l-22 -126h-145l-35 -196h170l-23 -132h-345zM185 840l22 122h113l-22 -122h-113zM363 840l22 122h113l-22 -122h-113z" />
    <glyph glyph-name="copyright" unicode="&#xa9;" horiz-adv-x="861" 
d="M496 746c192 0 316 -136 316 -309c0 -241 -221 -442 -448 -442c-187 0 -314 137 -314 310c0 222 203 441 446 441zM486 684c-205 0 -373 -181 -373 -368c0 -148 112 -259 263 -259c192 0 373 169 373 372c0 143 -99 255 -263 255zM626 452h-95c0 48 -24 75 -73 75
c-67 0 -134 -83 -134 -206c0 -66 30 -101 84 -101c49 0 83 28 100 81h97c-22 -93 -107 -156 -214 -156c-106 0 -168 62 -168 167c0 154 101 284 249 284c103 0 154 -56 154 -144z" />
    <glyph glyph-name="afii10053" unicode="&#x404;" horiz-adv-x="505" 
d="M512 496h-159c13 73 15 92 15 100c0 23 -10 30 -37 30c-35 0 -43 -11 -51 -54l-20 -112h78l-23 -132h-78l-26 -144c-2 -12 -4 -27 -4 -34c0 -21 10 -27 36 -27c35 0 46 11 53 53l18 103h159l-14 -78c-32 -177 -71 -210 -236 -210c-146 0 -199 23 -199 120
c0 19 2 44 10 90l62 347c30 170 77 210 263 210c129 0 173 -24 173 -113c0 -30 -4 -60 -20 -149z" />
    <glyph glyph-name="guillemotleft" unicode="&#xab;" horiz-adv-x="512" 
d="M87 105l-52 163l110 162h150l-105 -162l52 -163h-155zM301 105l-51 163l109 162h150l-105 -162l53 -163h-156z" />
    <glyph glyph-name="logicalnot" unicode="&#xac;" horiz-adv-x="742" 
d="M93 340h606l-50 -285h-105l30 168h-501z" />
    <glyph glyph-name="registered" unicode="&#xae;" horiz-adv-x="861" 
d="M496 746c194 0 316 -135 316 -308c0 -238 -218 -443 -448 -443c-186 0 -314 136 -314 310c0 220 201 441 446 441zM486 684c-214 0 -373 -198 -373 -368c0 -146 105 -259 262 -259c193 0 373 170 373 368c0 146 -99 259 -262 259zM240 169l73 417h163
c106 0 159 -32 159 -96c0 -66 -45 -118 -112 -134l60 -187h-113l-49 171h-50l-30 -171h-101zM403 524l-21 -122h50c58 0 96 19 96 71c0 30 -20 51 -80 51h-45z" />
    <glyph glyph-name="afii10056" unicode="&#x407;" horiz-adv-x="291" 
d="M318 749l-132 -749h-175l132 749h175zM101 840l22 122h113l-22 -122h-113zM279 840l22 122h113l-22 -122h-113z" />
    <glyph glyph-name="degree" unicode="&#xb0;" horiz-adv-x="339" 
d="M197 750c75 0 127 -55 127 -126c0 -95 -88 -179 -182 -179c-75 0 -126 52 -126 124c0 99 88 181 181 181zM186 686c-57 0 -105 -53 -105 -102c0 -40 24 -75 73 -75c59 0 105 55 105 103c0 38 -25 74 -73 74z" />
    <glyph glyph-name="plusminus" unicode="&#xb1;" horiz-adv-x="861" 
d="M434 719h102l-29 -165h251l-17 -100h-251l-29 -164h-102l29 164h-252l17 100h252zM91 201h605l-17 -100h-605z" />
    <glyph glyph-name="afii10055" unicode="&#x406;" horiz-adv-x="291" 
d="M318 749l-132 -749h-175l132 749h175z" />
    <glyph glyph-name="afii10103" unicode="&#x456;" horiz-adv-x="250" 
d="M249 530l-94 -530h-154l94 530h154zM115 640l21 122h154l-21 -122h-154z" />
    <glyph glyph-name="afii10098" unicode="&#x491;" horiz-adv-x="369" 
d="M95 530h187l14 79h120l-35 -196h-153l-73 -413h-154z" />
    <glyph glyph-name="mu" unicode="&#xb5;" horiz-adv-x="630" 
d="M171 550h146l-77 -219c-33 -94 -42 -136 -42 -163c0 -43 24 -60 73 -60c72 0 111 53 157 183l91 259h146l-194 -550h-136l20 59h-1c-37 -52 -73 -68 -120 -68c-46 0 -76 12 -97 53l-92 -265h-145z" />
    <glyph glyph-name="mu" unicode="&#x3bc;" horiz-adv-x="630" 
d="M171 550h146l-77 -219c-33 -94 -42 -136 -42 -163c0 -43 24 -60 73 -60c72 0 111 53 157 183l91 259h146l-194 -550h-136l20 59h-1c-37 -52 -73 -68 -120 -68c-46 0 -76 12 -97 53l-92 -265h-145z" />
    <glyph glyph-name="paragraph" unicode="&#xb6;" horiz-adv-x="518" 
d="M563 746l-10 -56h-57l-122 -690h-77l122 690h-80l-122 -690h-77l70 396c-100 4 -157 59 -157 141c0 120 98 209 232 209h278z" />
    <glyph glyph-name="periodcentered" unicode="&#xb7;" horiz-adv-x="258" 
d="M145 463c49 0 73 -38 73 -77c0 -47 -47 -100 -105 -100c-48 0 -74 36 -74 73c0 51 49 104 106 104z" />
    <glyph glyph-name="periodcentered" unicode="&#x2219;" horiz-adv-x="258" 
d="M145 463c49 0 73 -38 73 -77c0 -47 -47 -100 -105 -100c-48 0 -74 36 -74 73c0 51 49 104 106 104z" />
    <glyph glyph-name="afii10071" unicode="&#x451;" horiz-adv-x="474" 
d="M431 227h-244l-10 -57c-3 -17 -4 -28 -4 -35c0 -21 10 -27 39 -27c37 0 49 10 58 64h152l-7 -35c-24 -122 -85 -146 -238 -146c-117 0 -162 34 -162 125c0 24 3 51 9 83l23 131c29 164 82 209 238 209c124 0 173 -30 173 -124c0 -24 -3 -52 -9 -85zM205 330h97
c11 60 12 70 12 77c0 23 -12 29 -42 29c-38 0 -50 -10 -58 -55zM163 640l21 122h113l-21 -122h-113zM340 640l21 122h113l-21 -122h-113z" />
    <glyph glyph-name="afii61352" unicode="&#x2116;" horiz-adv-x="975" 
d="M880 749c94 0 130 -23 130 -91c0 -16 -2 -35 -6 -57l-16 -91c-20 -114 -60 -146 -176 -146c-93 0 -129 21 -129 88c0 16 2 36 6 58l16 91c20 115 59 148 175 148zM865 665c-26 0 -33 -8 -38 -37c-26 -144 -28 -157 -28 -162c0 -14 9 -18 28 -18c26 0 33 6 38 35
c26 143 28 156 28 162c0 16 -8 20 -28 20zM-9 0l132 749h246l31 -592l94 592h159l-132 -749h-245l-30 609l-96 -609h-159zM647 179l20 114h273l-20 -114h-273z" />
    <glyph glyph-name="afii10101" unicode="&#x454;" horiz-adv-x="445" 
d="M434 376h-145c1 8 2 15 2 21c0 19 -8 25 -31 25c-30 0 -40 -13 -47 -54l-6 -33h61l-20 -117h-61c-11 -64 -13 -76 -13 -84c0 -19 8 -26 30 -26c30 0 41 12 49 65h145c-22 -150 -85 -182 -218 -182c-121 0 -165 27 -165 116c0 19 2 44 10 92l23 131c29 164 73 209 228 209
c112 0 164 -23 164 -108c0 -16 -2 -34 -6 -55z" />
    <glyph glyph-name="guillemotright" unicode="&#xbb;" horiz-adv-x="512" 
d="M211 430l50 -162l-108 -163h-151l106 163l-54 162h157zM425 430l53 -162l-111 -163h-150l105 163l-51 162h154z" />
    <glyph glyph-name="afii10105" unicode="&#x458;" horiz-adv-x="255" 
d="M100 530h154l-100 -571c-19 -111 -59 -153 -163 -153c-12 0 -46 1 -67 4l21 119c45 3 52 16 62 74zM120 640l21 122h154l-21 -122h-154z" />
    <glyph glyph-name="afii10054" unicode="&#x405;" horiz-adv-x="516" 
d="M507 524h-156l9 48c2 11 3 20 3 28c0 24 -11 31 -40 31c-36 0 -48 -12 -56 -52c-3 -14 -10 -59 -10 -67c0 -23 8 -44 86 -62c101 -24 136 -66 136 -129c0 -18 -5 -67 -23 -159c-23 -120 -87 -171 -221 -171h-47c-121 0 -169 29 -169 113c0 19 3 40 7 64l14 82h161
c-12 -63 -15 -84 -15 -90c0 -22 8 -36 44 -36c40 0 52 11 61 55c9 45 12 71 12 83c0 39 -24 48 -88 64c-105 26 -135 60 -135 121c0 17 2 38 6 61l12 70c23 128 72 180 207 180h51c121 0 169 -25 169 -110c0 -19 -3 -40 -7 -65z" />
    <glyph glyph-name="afii10102" unicode="&#x455;" horiz-adv-x="438" 
d="M412 374h-131c5 23 6 36 6 40c0 16 -6 25 -37 25c-28 0 -44 -13 -48 -34c-5 -26 -6 -33 -6 -38c0 -19 9 -31 87 -47c77 -16 111 -54 111 -93c0 -6 -2 -23 -14 -84c-23 -117 -68 -152 -200 -152h-40c-96 0 -133 22 -133 88c0 13 1 30 11 86h141c-3 -17 -5 -32 -5 -40
c0 -21 9 -28 33 -28c28 0 40 11 47 38c5 20 7 38 7 42c0 19 -8 30 -91 45c-75 13 -103 30 -103 77c0 9 1 19 3 31l11 62c19 104 69 147 175 147h71c85 0 117 -24 117 -83c0 -13 -2 -32 -12 -82z" />
    <glyph glyph-name="afii10104" unicode="&#x457;" horiz-adv-x="250" 
d="M249 530l-94 -530h-154l94 530h154zM47 640l21 122h113l-21 -122h-113zM224 640l21 122h113l-21 -122h-113z" />
    <glyph glyph-name="afii10017" unicode="&#x410;" horiz-adv-x="537" 
d="M213 749h278l-17 -749h-179l12 183h-111l-52 -183h-175zM235 309h79l24 353z" />
    <glyph glyph-name="afii10018" unicode="&#x411;" horiz-adv-x="540" 
d="M241 328l-35 -196h39c39 0 53 10 61 53l14 79c3 15 4 26 4 32c0 25 -13 32 -44 32h-39zM140 749h397l-23 -132h-222l-28 -157h29c146 0 209 -29 209 -129c0 -18 -2 -38 -6 -61l-14 -77c-30 -163 -109 -193 -299 -193h-175z" />
    <glyph glyph-name="afii10019" unicode="&#x412;" horiz-adv-x="558" 
d="M8 0l132 749h236c132 0 194 -18 194 -107c0 -14 -2 -30 -5 -49l-12 -66c-15 -83 -58 -122 -145 -137c70 -3 105 -37 105 -104c0 -13 -1 -26 -4 -45l-15 -85c-23 -131 -88 -156 -242 -156h-244zM241 327l-35 -195h53c40 0 56 8 64 52l16 89c1 7 2 17 2 21
c0 26 -14 33 -47 33h-53zM292 617l-31 -175h49c40 0 55 9 63 54l11 62c2 11 3 21 3 27c0 26 -13 32 -46 32h-49z" />
    <glyph glyph-name="afii10020" unicode="&#x413;" horiz-adv-x="405" 
d="M140 749h340l-23 -132h-165l-109 -617h-175z" />
    <glyph glyph-name="afii10021" unicode="&#x414;" horiz-adv-x="561" 
d="M389 617h-73l-42 -236c-23 -130 -41 -174 -87 -249h116zM181 749h406l-109 -617h48l-49 -281h-158l26 149h-221l-26 -149h-158l49 281h38c49 82 68 127 93 271z" />
    <glyph glyph-name="afii10022" unicode="&#x415;" horiz-adv-x="430" 
d="M140 749h330l-23 -132h-155l-29 -163h145l-22 -126h-145l-35 -196h170l-23 -132h-345z" />
    <glyph glyph-name="afii10024" unicode="&#x416;" horiz-adv-x="789" 
d="M401 749h157l-57 -323l172 323h177l-204 -352l95 -397h-181l-74 341l-60 -341h-157l60 341l-194 -341h-181l235 397l-80 352h177l58 -323z" />
    <glyph glyph-name="afii10025" unicode="&#x417;" horiz-adv-x="522" 
d="M252 531h-152l8 46c25 147 79 181 235 181c129 0 178 -24 178 -111c0 -20 -2 -43 -7 -70l-11 -60c-14 -76 -40 -108 -115 -121c59 -9 83 -34 83 -86c0 -14 -2 -36 -6 -58l-15 -81c-27 -144 -81 -180 -243 -180c-133 0 -186 22 -186 112c0 19 2 42 7 68l14 80h164
c-15 -85 -16 -98 -16 -104c0 -23 11 -30 38 -30c35 0 46 11 53 52l15 83c3 20 5 36 5 40c0 30 -17 36 -67 36h-62l21 122h58c63 0 76 12 85 65l10 56c2 12 4 25 4 32c0 22 -10 29 -36 29c-33 0 -47 -13 -54 -53z" />
    <glyph glyph-name="afii10026" unicode="&#x418;" horiz-adv-x="595" 
d="M140 749h159l-101 -497l223 497h204l-132 -749h-159l99 484l-217 -484h-208z" />
    <glyph glyph-name="afii10027" unicode="&#x419;" horiz-adv-x="595" 
d="M140 749h159l-101 -497l223 497h204l-132 -749h-159l99 484l-217 -484h-208zM252 981h72c-1 -2 -2 -13 -2 -18c0 -44 32 -66 93 -66c69 0 106 26 122 84h70c-30 -117 -94 -170 -207 -170c-102 0 -150 44 -150 137c0 10 1 25 2 33z" />
    <glyph glyph-name="afii10028" unicode="&#x41a;" horiz-adv-x="544" 
d="M315 749l-57 -323l170 323h178l-205 -352l96 -397h-181l-73 341l-60 -341h-175l132 749h175z" />
    <glyph glyph-name="afii10029" unicode="&#x41b;" horiz-adv-x="628" 
d="M217 749h441l-132 -749h-175l108 617h-91l-63 -357c-29 -164 -109 -267 -246 -267c-39 0 -63 3 -89 9l29 162c13 -6 28 -7 52 -7c49 0 67 34 79 103z" />
    <glyph glyph-name="afii10030" unicode="&#x41c;" horiz-adv-x="817" 
d="M140 749h251v-590l207 590h249l-132 -749h-157l122 634l-228 -634h-194v634l-100 -634h-150z" />
    <glyph glyph-name="afii10031" unicode="&#x41d;" horiz-adv-x="550" 
d="M315 749l-51 -289h90l51 289h175l-132 -749h-175l58 328h-90l-58 -328h-175l132 749h175z" />
    <glyph glyph-name="afii10032" unicode="&#x41e;" horiz-adv-x="543" 
d="M359 758c146 0 198 -26 198 -123c0 -24 -3 -53 -9 -87l-62 -347c-32 -178 -76 -210 -263 -210c-147 0 -199 23 -199 121c0 25 3 55 9 89l62 347c30 170 78 210 264 210zM335 626c-37 0 -48 -11 -56 -54l-69 -391c-2 -12 -3 -22 -3 -28c0 -23 11 -30 40 -30
c37 0 47 10 55 53l69 390c2 12 3 23 3 30c0 23 -10 30 -39 30z" />
    <glyph glyph-name="afii10033" unicode="&#x41f;" horiz-adv-x="550" 
d="M140 749h440l-132 -749h-175l109 617h-90l-109 -617h-175z" />
    <glyph glyph-name="afii10034" unicode="&#x420;" horiz-adv-x="522" 
d="M292 617l-47 -267h39c39 0 53 11 61 54l26 144c3 18 5 32 5 38c0 25 -13 31 -45 31h-39zM221 218l-38 -218h-175l132 749h175c163 0 238 -21 238 -130c0 -18 -2 -37 -6 -62l-27 -152c-27 -152 -101 -187 -272 -187h-27z" />
    <glyph glyph-name="afii10035" unicode="&#x421;" horiz-adv-x="505" 
d="M511 496h-159c13 71 15 92 15 100c0 22 -10 28 -37 28c-35 0 -44 -11 -51 -52l-70 -396c-2 -10 -3 -19 -3 -26c0 -21 10 -26 36 -26c35 0 46 10 53 52l18 103h159l-14 -78c-29 -169 -71 -210 -236 -210c-145 0 -198 23 -198 122c0 20 2 46 9 88l62 347
c30 170 77 210 263 210c130 0 172 -30 172 -116c0 -26 -3 -55 -19 -146z" />
    <glyph glyph-name="afii10036" unicode="&#x422;" horiz-adv-x="431" 
d="M95 749h411l-23 -132h-118l-109 -617h-175l109 617h-118z" />
    <glyph glyph-name="afii10037" unicode="&#x423;" horiz-adv-x="552" 
d="M94 749h174l37 -324h7l148 324h178l-312 -595c-63 -119 -122 -163 -199 -163c-29 0 -57 4 -77 9l28 161c11 -6 24 -8 44 -8c24 0 46 10 60 47z" />
    <glyph glyph-name="afii10038" unicode="&#x424;" horiz-adv-x="761" 
d="M381 749h170l-10 -56c150 0 222 -29 222 -134c0 -17 -2 -36 -6 -58l-41 -234c-27 -153 -112 -193 -284 -193l-13 -74h-170l13 74c-149 0 -223 30 -223 136c0 17 2 36 6 57l41 234c27 153 109 192 285 192zM518 561l-62 -349h27c39 0 55 12 63 55l41 228c2 12 4 27 4 33
c0 27 -14 33 -46 33h-27zM286 212l62 349h-28c-39 0 -55 -12 -63 -55l-40 -228c-3 -17 -4 -28 -4 -34c0 -26 14 -32 45 -32h28z" />
    <glyph glyph-name="afii10039" unicode="&#x425;" horiz-adv-x="509" 
d="M110 749h170l4 -307l117 307h168l-150 -353l26 -396h-175l-4 337l-122 -337h-174l166 396z" />
    <glyph glyph-name="afii10040" unicode="&#x426;" horiz-adv-x="555" 
d="M315 749l-109 -617h91l108 617h175l-108 -617h47l-49 -281h-158l26 149h-330l132 749h175z" />
    <glyph glyph-name="afii10041" unicode="&#x427;" horiz-adv-x="550" 
d="M140 749h175l-37 -209c-4 -24 -6 -41 -6 -53c0 -32 12 -41 34 -41s34 2 47 7l52 296h175l-132 -749h-175l56 319c-30 -6 -73 -10 -103 -10c-86 0 -138 30 -138 121c0 17 2 37 6 59z" />
    <glyph glyph-name="afii10042" unicode="&#x428;" horiz-adv-x="804" 
d="M310 749l-109 -617h92l109 617h170l-109 -617h92l109 617h170l-132 -749h-694l132 749h170z" />
    <glyph glyph-name="afii10043" unicode="&#x429;" horiz-adv-x="808" 
d="M310 749l-109 -617h92l109 617h170l-109 -617h92l109 617h170l-109 -617h47l-49 -281h-158l26 149h-583l132 749h170z" />
    <glyph glyph-name="afii10044" unicode="&#x42a;" horiz-adv-x="575" 
d="M294 328l-35 -196h39c39 0 54 11 61 53l14 79c3 17 4 26 4 32c0 25 -13 32 -44 32h-39zM87 749h281l-51 -289h29c146 0 209 -29 209 -129c0 -18 -2 -38 -6 -61l-14 -77c-29 -164 -109 -193 -299 -193h-175l109 617h-106z" />
    <glyph glyph-name="afii10045" unicode="&#x42b;" horiz-adv-x="822" 
d="M241 328l-35 -196h39c39 0 54 11 61 53l14 79c3 17 4 26 4 32c0 25 -13 32 -44 32h-39zM315 749l-51 -289h29c146 0 209 -29 209 -129c0 -18 -2 -38 -6 -61l-14 -77c-30 -163 -109 -193 -299 -193h-175l132 749h175zM846 749l-132 -749h-175l132 749h175z" />
    <glyph glyph-name="afii10046" unicode="&#x42c;" horiz-adv-x="522" 
d="M241 328l-35 -196h39c39 0 54 11 61 53l14 79c3 17 4 26 4 32c0 25 -13 32 -44 32h-39zM315 749l-51 -289h29c146 0 209 -29 209 -129c0 -18 -2 -38 -6 -61l-14 -77c-30 -163 -109 -193 -299 -193h-175l132 749h175z" />
    <glyph glyph-name="afii10047" unicode="&#x42d;" horiz-adv-x="505" 
d="M235 496h-159l9 52c30 171 69 210 236 210c147 0 199 -25 199 -120c0 -25 -3 -48 -10 -90l-62 -347c-31 -173 -79 -210 -263 -210c-127 0 -173 20 -173 110c0 27 3 61 25 178h159c-18 -98 -20 -119 -20 -127c0 -23 10 -29 37 -29c35 0 43 11 51 53l27 152h-78l23 132h78
l18 101c3 18 5 29 5 37c0 21 -10 28 -36 28c-35 0 -46 -12 -53 -54z" />
    <glyph glyph-name="afii10048" unicode="&#x42e;" horiz-adv-x="798" 
d="M315 749l-51 -289h70l16 88c31 170 78 210 264 210c146 0 198 -26 198 -123c0 -24 -2 -46 -9 -87l-62 -347c-32 -180 -76 -210 -263 -210c-147 0 -199 23 -199 121c0 25 3 57 10 97l22 119h-70l-58 -328h-175l132 749h175zM590 626c-37 0 -48 -11 -56 -54l-68 -385
c-2 -11 -4 -28 -4 -34c0 -23 11 -30 40 -30c37 0 48 11 55 53l68 385c2 9 4 25 4 35c0 23 -10 30 -39 30z" />
    <glyph glyph-name="afii10049" unicode="&#x42f;" horiz-adv-x="536" 
d="M333 420l35 197h-40c-39 0 -53 -8 -61 -52l-13 -68c-3 -17 -5 -38 -5 -44c0 -25 13 -33 44 -33h40zM566 749l-132 -749h-175l51 288h-26l-131 -288h-175l155 309c-43 19 -63 52 -63 107c0 19 3 46 20 141c29 163 109 192 301 192h175z" />
    <glyph glyph-name="afii10065" unicode="&#x430;" horiz-adv-x="466" 
d="M222 234c-24 0 -40 -13 -44 -36c-10 -51 -11 -60 -11 -65c0 -14 8 -28 32 -28s38 12 43 36c10 50 11 63 11 67c0 14 -7 26 -31 26zM209 375h-135l7 38c19 107 71 126 203 126c113 0 164 -14 164 -86c0 -12 -1 -25 -4 -40l-73 -413h-146l8 42c-31 -39 -67 -51 -122 -51
c-73 0 -104 24 -104 88c0 16 2 35 6 56l11 64c16 88 66 129 151 129c37 0 70 -11 95 -31c14 79 17 100 17 106c0 19 -9 25 -31 25c-30 0 -39 -12 -47 -53z" />
    <glyph glyph-name="afii10066" unicode="&#x431;" horiz-adv-x="483" 
d="M390 738h98c-21 -119 -84 -160 -195 -160c-71 0 -112 -25 -130 -161h4c20 53 68 88 119 88c105 0 155 -27 155 -134c0 -30 -4 -67 -12 -111c-40 -213 -90 -269 -254 -269c-124 0 -169 39 -169 147c0 39 5 82 32 240c38 220 113 321 258 321c68 0 89 10 94 39zM247 383
c-45 0 -60 -38 -77 -133c-8 -46 -13 -77 -13 -99c0 -33 11 -43 40 -43c48 0 56 27 76 142c6 37 10 71 10 86c0 34 -10 47 -36 47z" />
    <glyph glyph-name="afii10067" unicode="&#x432;" horiz-adv-x="476" 
d="M193 215l-19 -110h37c24 0 38 14 43 36s8 44 8 47c0 17 -11 27 -32 27h-37zM1 0l94 530h215c104 0 133 -30 133 -87c0 -15 -2 -31 -5 -50c-12 -70 -40 -113 -116 -125c59 -12 90 -34 90 -80c0 -7 -1 -20 -6 -50c-18 -107 -69 -138 -172 -138h-233zM230 425l-19 -110h31
c24 0 38 12 43 37c6 29 8 43 8 45c0 17 -13 28 -33 28h-30z" />
    <glyph glyph-name="afii10068" unicode="&#x433;" horiz-adv-x="369" 
d="M95 530h307l-21 -117h-153l-73 -413h-154z" />
    <glyph glyph-name="afii10069" unicode="&#x434;" horiz-adv-x="538" 
d="M346 413h-68l-15 -86c-19 -107 -39 -154 -77 -210h108zM154 530h367l-73 -413h43l-43 -242h-145l22 125h-204l-22 -125h-145l43 242h45c39 59 56 99 77 218z" />
    <glyph glyph-name="afii10070" unicode="&#x435;" horiz-adv-x="474" 
d="M431 227h-244l-10 -57c-3 -17 -4 -28 -4 -35c0 -21 10 -27 39 -27c37 0 49 10 58 64h152l-7 -35c-24 -122 -85 -146 -238 -146c-117 0 -162 34 -162 125c0 24 3 51 9 83l23 131c29 164 82 209 238 209c124 0 173 -30 173 -124c0 -24 -3 -52 -9 -85zM205 330h97
c11 60 12 70 12 77c0 23 -12 29 -42 29c-38 0 -50 -10 -58 -55z" />
    <glyph glyph-name="afii10072" unicode="&#x436;" horiz-adv-x="650" 
d="M446 530l-38 -213l117 213h144l-125 -227l59 -303h-159l-43 278l-49 -278h-148l49 278l-141 -278h-159l167 303l-45 227h144l41 -213l38 213h148z" />
    <glyph glyph-name="afii10073" unicode="&#x437;" horiz-adv-x="472" 
d="M184 388h-107c23 135 96 151 177 151h53c104 0 133 -29 133 -86c0 -15 -2 -32 -5 -51c-13 -71 -40 -113 -115 -125c59 -12 90 -34 90 -80c0 -7 -3 -32 -10 -68c-18 -95 -68 -135 -171 -135h-105c-80 0 -114 32 -114 103c0 17 2 36 6 57h114c0 -36 21 -55 47 -55h26
c24 0 42 14 46 36c8 43 11 62 11 64c0 18 -11 26 -32 26h-42l17 99h36c24 0 39 15 44 37c4 19 7 42 7 45c0 17 -11 28 -32 28h-23c-29 0 -44 -13 -51 -46z" />
    <glyph glyph-name="afii10074" unicode="&#x438;" horiz-adv-x="486" 
d="M240 530l-44 -246l135 246h154l-94 -530h-145l43 245l-134 -245h-154l94 530h145z" />
    <glyph glyph-name="afii10075" unicode="&#x439;" horiz-adv-x="486" 
d="M240 530l-44 -246l135 246h154l-94 -530h-145l43 245l-134 -245h-154l94 530h145zM167 721h63c-1 -5 -2 -11 -2 -17c0 -40 28 -59 81 -59c60 0 93 23 107 76h62c-27 -106 -84 -154 -183 -154c-88 0 -130 39 -130 122c0 10 1 24 2 32z" />
    <glyph glyph-name="afii10076" unicode="&#x43a;" horiz-adv-x="452" 
d="M249 530l-38 -214l118 214h142l-125 -227l59 -303h-159l-42 278l-49 -278h-154l94 530h154z" />
    <glyph glyph-name="afii10077" unicode="&#x43b;" horiz-adv-x="505" 
d="M137 530h367l-94 -530h-154l73 413h-68l-38 -213c-21 -120 -68 -209 -181 -209c-27 0 -58 2 -79 7l19 112c4 -1 14 -2 20 -2c41 0 63 17 70 57z" />
    <glyph glyph-name="afii10078" unicode="&#x43c;" horiz-adv-x="707" 
d="M96 530h226l9 -396l149 396h226l-94 -530h-140l76 429l-165 -429h-152l-13 429l-76 -429h-140z" />
    <glyph glyph-name="afii10079" unicode="&#x43d;" 
d="M249 530l-34 -191h76l34 191h154l-94 -530h-154l39 222h-76l-39 -222h-154l94 530h154z" />
    <glyph glyph-name="afii10080" unicode="&#x43e;" horiz-adv-x="473" 
d="M285 539c124 0 172 -29 172 -123c0 -24 -3 -53 -9 -86l-23 -131c-29 -164 -80 -208 -236 -208c-125 0 -174 28 -174 123c0 24 3 52 9 87l23 129c29 164 82 209 238 209zM265 422c-34 0 -46 -13 -53 -54l-36 -207c-2 -10 -3 -18 -3 -25c0 -21 10 -28 36 -28
c34 0 45 13 52 53l36 206c2 11 3 20 3 27c0 21 -10 28 -35 28z" />
    <glyph glyph-name="afii10081" unicode="&#x43f;" 
d="M95 530h384l-94 -530h-154l73 413h-76l-73 -413h-154z" />
    <glyph glyph-name="afii10082" unicode="&#x440;" 
d="M269 422c-31 0 -40 -12 -47 -53l-37 -206c-2 -11 -3 -23 -3 -30c0 -20 9 -25 32 -25c31 0 40 11 48 53l36 201c3 17 4 25 4 32c0 21 -10 28 -33 28zM243 530l-11 -64c34 50 78 73 135 73c69 0 97 -30 97 -97c0 -21 -3 -46 -8 -74l-36 -205c-21 -118 -57 -172 -146 -172
c-55 0 -88 22 -106 73l-46 -257h-154l128 723h147z" />
    <glyph glyph-name="afii10083" unicode="&#x441;" horiz-adv-x="445" 
d="M428 348h-145c5 30 6 40 6 47c0 20 -8 27 -30 27c-30 0 -40 -14 -47 -54l-34 -195c-3 -15 -5 -32 -5 -39c0 -19 8 -26 30 -26c30 0 40 14 47 53l8 48h145l-9 -53c-23 -131 -71 -165 -204 -165c-124 0 -175 28 -175 124c0 24 3 52 9 84l24 132c30 165 83 208 238 208
c109 0 152 -22 152 -102c0 -18 -2 -39 -10 -89z" />
    <glyph glyph-name="afii10084" unicode="&#x442;" horiz-adv-x="384" 
d="M57 530h364l-21 -117h-105l-73 -413h-154l73 413h-105z" />
    <glyph glyph-name="afii10085" unicode="&#x443;" horiz-adv-x="417" 
d="M61 530h154l-34 -454h2l131 454h148l-161 -493c-52 -158 -92 -232 -212 -232c-27 0 -54 3 -83 11l20 111c16 -4 29 -5 39 -5c45 0 72 24 87 78h-114z" />
    <glyph glyph-name="afii10086" unicode="&#x444;" horiz-adv-x="675" 
d="M480 432c-31 0 -40 -11 -47 -52l-38 -213c-3 -17 -4 -26 -4 -33c0 -20 8 -26 32 -26c31 0 39 11 46 53l38 212c3 20 4 29 4 34c0 19 -8 25 -31 25zM343 692h145l-40 -224c31 45 67 71 128 71c72 0 93 -35 93 -90c0 -19 -2 -38 -7 -68l-41 -231
c-18 -103 -69 -159 -146 -159c-39 0 -85 35 -97 76l-46 -258h-145l46 258c-26 -40 -87 -76 -125 -76c-63 0 -95 37 -95 107c0 16 2 33 5 52l41 229c16 91 43 160 142 160c59 0 87 -26 102 -71zM260 432c-31 0 -40 -11 -47 -52l-39 -219c-2 -11 -3 -20 -3 -27
c0 -20 8 -26 32 -26c31 0 39 11 46 53l39 219c2 11 3 20 3 27c0 19 -8 25 -31 25z" />
    <glyph glyph-name="afii10087" unicode="&#x445;" horiz-adv-x="427" 
d="M71 530h155v-221l78 221h146l-107 -241l29 -289h-160v238h-2l-89 -238h-160l132 289z" />
    <glyph glyph-name="afii10088" unicode="&#x446;" horiz-adv-x="490" 
d="M249 530l-73 -413h76l73 413h154l-73 -413h43l-43 -242h-145l22 125h-282l94 530h154z" />
    <glyph glyph-name="afii10089" unicode="&#x447;" 
d="M95 530h154l-31 -174c-4 -21 -5 -33 -5 -39c0 -20 8 -29 31 -29c30 0 41 15 47 48l34 194h154l-94 -530h-154l41 232c-41 -55 -69 -66 -128 -66c-68 0 -93 27 -93 88c0 21 3 45 8 74z" />
    <glyph glyph-name="afii10090" unicode="&#x448;" horiz-adv-x="683" 
d="M240 530l-73 -413h76l73 413h145l-73 -413h76l73 413h145l-94 -530h-587l94 530h145z" />
    <glyph glyph-name="afii10091" unicode="&#x449;" horiz-adv-x="693" 
d="M240 530l-73 -413h76l73 413h145l-73 -413h76l73 413h145l-73 -413h43l-43 -242h-140l22 125h-490l94 530h145z" />
    <glyph glyph-name="afii10092" unicode="&#x44a;" horiz-adv-x="493" 
d="M223 228l-21 -123h37c24 0 41 14 45 36c8 41 10 55 10 59c0 15 -10 28 -34 28h-37zM41 530h236l-35 -197h84c83 0 126 -30 126 -98c0 -11 -2 -27 -13 -89c-19 -106 -69 -146 -172 -146h-238l73 413h-82z" />
    <glyph glyph-name="afii10093" unicode="&#x44b;" horiz-adv-x="693" 
d="M195 228l-21 -123h37c24 0 41 14 45 36c8 41 10 55 10 59c0 15 -10 28 -34 28h-37zM249 530l-35 -197h84c83 0 126 -30 126 -98c0 -11 -2 -27 -13 -89c-19 -106 -69 -146 -172 -146h-238l94 530h154zM692 530l-94 -530h-154l94 530h154z" />
    <glyph glyph-name="afii10094" unicode="&#x44c;" horiz-adv-x="468" 
d="M195 228l-21 -123h37c24 0 41 14 45 36c8 41 10 55 10 59c0 15 -10 28 -34 28h-37zM249 530l-35 -197h84c83 0 126 -30 126 -98c0 -11 -2 -27 -13 -89c-19 -106 -69 -146 -172 -146h-238l94 530h154z" />
    <glyph glyph-name="afii10095" unicode="&#x44d;" horiz-adv-x="445" 
d="M197 376h-145c23 131 81 163 214 163c120 0 164 -27 164 -116c0 -26 -4 -56 -10 -93l-23 -131c-29 -164 -72 -208 -227 -208c-112 0 -163 24 -163 109c0 16 2 35 9 73h145c-4 -19 -5 -32 -5 -39c0 -19 8 -26 30 -26c30 0 39 12 47 53l10 57h-61l20 117h61c8 41 9 53 9 60
c0 20 -8 27 -30 27c-30 0 -39 -11 -45 -46z" />
    <glyph glyph-name="afii10096" unicode="&#x44e;" horiz-adv-x="689" 
d="M249 530l-34 -191h50c28 159 81 200 235 200c125 0 173 -29 173 -123c0 -24 -3 -53 -9 -86l-23 -131c-29 -163 -80 -208 -237 -208c-124 0 -173 28 -173 122c0 24 3 54 13 109h-50l-39 -222h-154l94 530h154zM481 422c-34 0 -46 -13 -53 -54l-36 -207
c-2 -10 -3 -18 -3 -25c0 -21 10 -28 36 -28c34 0 45 13 52 53l36 206c2 11 3 20 3 27c0 21 -10 28 -35 28z" />
    <glyph glyph-name="afii10097" unicode="&#x44f;" horiz-adv-x="467" 
d="M272 302l21 123h-37c-23 0 -39 -14 -43 -36c-6 -31 -10 -55 -10 -59c0 -15 9 -28 32 -28h37zM466 530l-94 -530h-154l35 197h-22l-105 -197h-150l126 219c-29 18 -54 47 -54 94c0 12 4 43 10 72c19 94 77 145 180 145h228z" />
    <glyph glyph-name="hyphenminus" horiz-adv-x="350" 
d="M49 340h272l-20 -117h-272z" />
    <glyph glyph-name="Euro" unicode="&#x20ac;" horiz-adv-x="518" 
d="M536 722l-25 -145c-15 23 -47 43 -104 43c-71 0 -115 -42 -140 -123h200l-46 -96h-180c-2 -8 -4 -18 -6 -27c-2 -11 -3 -24 -4 -32h161l-46 -96h-122c-3 -79 29 -116 98 -116c51 0 93 18 117 39l-26 -144c-21 -15 -70 -33 -145 -33c-141 0 -209 81 -202 254h-73l46 96h36
c1 8 2 19 4 31c2 10 4 19 6 28h-65l46 96h43c52 161 143 261 295 261c69 0 116 -20 132 -36z" />
    </font>
</defs>
</svg>
