<svg xmlns="http://www.w3.org/2000/svg" xmlns:xlink="http://www.w3.org/1999/xlink" width="85" height="96" viewBox="0 0 85 96">
    <defs>
        <path id="a" d="M85 96V0H0v96h85z"/>
    </defs>
    <g fill="none" fill-rule="evenodd">
        <mask id="b" fill="#fff">
            <use xlink:href="#a"/>
        </mask>
        <path fill="#FEFEFE" d="M81.688 77.856c-.076-.009-.151-.021-.219-.03a.893.893 0 0 0-.47.055c-.143.059-.22.245-.22.554v5.189c0 .274.068.463.203.572a.843.843 0 0 0 .487.187l.219.016v-6.543zM77.534 91.63c.286-1.06.571-2.116.858-3.164.285-1.045.571-2.082.865-3.115-.411-.027-.708-.15-.9-.381a1.676 1.676 0 0 1-.36-.73c-.032-.157-.064-.308-.076-.457a4.44 4.44 0 0 1-.017-.374v-5.391c0-.127.004-.266.008-.41.005-.147.037-.291.068-.441.078-.383.25-.719.555-1.004.3-.283.823-.36 1.58-.243 1.48.23 2.969.459 4.457.692v15.036l-2.884-.007v-5.932l-.135-.009c-.176.982-.354 1.966-.53 2.953l-.53 2.984-2.959-.007zm-8.51-.022V74.182l2.876.448V82.494l.656-3.852a2163 2163 0 0 1 .656-3.803c.958.147 1.917.296 2.884.448v16.338l-2.884-.007V83.728a2599.293 2599.293 0 0 0-1.312 7.888c-.959-.002-1.917-.007-2.875-.009zm-8.685-.022V72.824c.958.149 1.917.298 2.875.45V89.586l.908.016V73.414c.96.151 1.917.3 2.876.452v15.792l.589.014v2.883c-.967-.002-1.926-.002-2.884-.002v-.957c-1.455-.002-2.91-.007-4.364-.011zm-8.989-.023V71.418c.959.15 1.917.301 2.876.45v9.123c.218-1.498.437-2.995.656-4.482.218-1.48.437-2.962.664-4.436.959.152 1.917.3 2.876.452V91.58l-2.876-.007v-9.167a717.71 717.71 0 0 0-.664 4.56c-.22 1.528-.438 3.064-.656 4.603l-2.876-.007zm-6.264-2.302l1.539.031v-7.602c0-2.534 0-5.069.008-7.605l-1.228-.16c-.016 2.329-.033 4.656-.042 6.985-.008 2.33-.011 4.661-.025 6.988-.003.541.009 1.093-.252 1.363zm-3.372 3.275c-.008-.858-.017-2.46-.017-3.32.177-.002.353-.01.53-.009.505.005.625-.69.627-1.448.006-2.941.025-5.883.033-8.825.009-2.939.025-5.88.042-8.822 2.086.327 4.385.677 6.479 1.002-.009 3.04-.009 6.08-.009 9.117v9.114c.169.003.337.005.513.01v3.185c-.958 0-1.917 0-2.876-.002a35.98 35.98 0 0 1-.016-.96c-.816-.001-1.623-.004-2.43-.006v.964h-2.876zm-7.172-.975V71.321c1.942-.339 3.884-.673 5.835-1.014v2.327c-.992.154-1.976.308-2.96.457v6.564c.984-.098 1.968-.198 2.96-.298v2.327l-2.96.243v7.355l3.078-.067v2.33l-5.953.015zm-8.602.025V72.813c2.228-.388 4.456-.776 6.685-1.16v19.914l-2.885.006V74.28l-.924.144v17.155l-2.876.007zm-4.55-6.287l2.877-.18v3.765c0 .163 0 .341-.009.54a7.02 7.02 0 0 1-.042.583c-.06.47-.24.904-.521 1.291-.282.388-.79.575-1.539.58-.816.004-1.623.025-2.43.02-.101-.001-.202-.022-.303-.03-.109-.007-.219-.012-.328-.03-.379-.065-.72-.288-1.034-.644-.316-.359-.47-1.058-.47-2.102V76.9c0-.165.003-.35.008-.56a3.014 3.014 0 0 1 .648-1.844c.294-.383.78-.634 1.462-.754.807-.141 1.615-.284 2.43-.425.11-.019.219-.035.345-.05.126-.014.244-.012.362-.008.352.013.682.19.975.541.295.353.446 1.09.446 2.207v3.322l-2.876.334v-3.879c0-.015.005-.036 0-.064a.545.545 0 0 0-.16-.288.33.33 0 0 0-.303-.091.459.459 0 0 0-.302.176.779.779 0 0 0-.143.298.39.39 0 0 1-.009.076.388.388 0 0 0-.008.076v13.424c0 .028.004.051.008.073a.381.381 0 0 1 .009.075.633.633 0 0 0 .143.272.375.375 0 0 0 .302.125.388.388 0 0 0 .303-.145c.082-.097.14-.2.16-.314.005-.028 0-.051 0-.064v-4.115zM9.065 91.634V75.738c.959-.169 1.917-.336 2.876-.5v7.003l.53-3.572.53-3.614c.95-.167 1.9-.332 2.858-.497-.244 1.412-.495 2.817-.731 4.211-.235 1.39-.488 2.773-.723 4.144.285 1.432.58 2.868.866 4.314.286 1.454.588 2.915.883 4.387l-2.842.006c-.236-1.276-.463-2.552-.69-3.816l-.681-3.768v7.589c-.959.002-1.917.007-2.876.009zM.488 86.605l2.875-.18v3.43c0 .117.033.21.101.273a.41.41 0 0 0 .219.112c.025.01.042.017.059.017.016 0 .042 0 .067-.002a.532.532 0 0 0 .32-.113.374.374 0 0 0 .142-.308v-5.188l-2.127.173v-1.612c.706-.07 1.413-.142 2.127-.214v-4.638c0-.006.002-.016 0-.027a.367.367 0 0 0-.142-.222c-.079-.065-.186-.088-.32-.067a.535.535 0 0 0-.32.169.447.447 0 0 0-.126.31v3.04l-2.758.325v-2.48c0-.124.005-.288.017-.491.013-.203.05-.414.118-.646.1-.35.3-.69.597-1.018.3-.331.774-.552 1.42-.666.75-.13 1.497-.27 2.246-.398.117-.02.244-.04.378-.056.135-.015.27-.022.412-.006.337.036.651.203.934.507.28.302.42.918.42 1.83V89.305c0 .136-.004.31-.017.52-.012.209-.048.427-.109.65-.099.359-.294.683-.589.973-.294.29-.756.43-1.395.434-.766.004-1.522.018-2.28.015-.764-.002-1.294-.163-1.605-.456a1.935 1.935 0 0 1-.58-.987 2.474 2.474 0 0 1-.076-.496c-.004-.16-.008-.31-.008-.448v-2.904zM0 96h85v-2.024H0V96zm41.21-75.05c1.552 0 3.08.108 4.576.32L60.45 0l6.567 2.274.155.364-17.266 19.486a32.804 32.804 0 0 1 12.045 6.251l18.228-1.125.302.36-.314 2.286-.36.302-15.447.355.082.081c5.956 5.979 9.65 14.23 9.65 23.32 0 3.091-.43 6.09-1.23 8.936a32.92 32.92 0 0 1-3.613 8.266l-.222.362-.416-.057-27.9-3.86-26.235 4.852-.419.078-.236-.357a32.967 32.967 0 0 1-4.095-8.707 32.922 32.922 0 0 1-1.397-9.514 32.87 32.87 0 0 1 5.142-17.686l-6.35 1.2-.481-.078-2.668-1.323-.094-.178 10.845-1.45a33.216 33.216 0 0 1 11.327-9.756L.284 13.508l4.044-2.445 24.893 12.163A32.535 32.535 0 0 1 41.21 20.95zM29.541 37.915c-.353-.204-.763-.314-1.086-.563-.448-.344-.815-.783-1.2-1.197-.15-.163-.323-.323-.402-.53-.1-.26-.094-.552-.117-.83-.023-.293-.091-.597-.02-.882l.043-.159-7.586 1.434c-4.29 5.066-6.885 11.62-6.885 18.764 0 3.042.5 6.082 1.434 8.97a29.752 29.752 0 0 0 3.751 7.657l6.814-1.26a.065.065 0 0 1-.007-.022l-1.012-9.63c-.007-.068-.065-.12-.092-.184-.093-.223-.17-.494-.138-.739.006-.048.05-.09.046-.138l-.069-1.132c-.006-.109.391-.105.397.004l.042.813c.008.144.239-.126.366-.193.164-.087.32-.19.483-.277.128-.068.327-.056.391-.185.083-.166-.026-.37-.023-.554.005-.201.04-.4.046-.6.009-.24-.01-.478 0-.717.013-.295.083-.57.161-.854.02-.073.186-.476.116-.531-.117-.091-.27-.13-.414-.162-.105-.023-.22.033-.323 0-.26-.083-.353-.322-.368-.577-.012-.216.093-.564.253-.716.059-.055.15-.067.23-.07.177-.005.361-.008.53.047.17.056.293.213.46.277.16.061.336.066.506.092.153.025.423.107.552-.023.027-.027.03-.09 0-.115-.063-.05-.173-.012-.23-.07-.038-.037-.046-.133 0-.161.085-.053.2-.003.299-.023a.35.35 0 0 0 .161-.07c.082-.071.132-.174.207-.253.094-.099.183-.207.3-.278.207-.125.435-.186.666-.092.162.066.314.158.46.254.123.082.223.194.345.277.094.064.194.203.3.162.153-.06.176-.283.299-.393a.881.881 0 0 1 .322-.161c.126-.041.262-.1.39-.07.254.062.426.46.438.693.015.31-.024.622-.092.924-.063.28-.19.542-.3.808-.105.258-.22.513-.344.762-.122.243-.287.465-.391.716-.213.51-.19 1.13-.092 1.663.041.225.07.458.16.669.104.241.306.43.415.67.138.303.214.63.322.947.107.315.226.627.322.946.08.266.134.54.207.808.096.355.21.706.299 1.063.119.471.217.945.253 1.431.024.323.046.646.046.97 0 .27-.03.539-.046.808-.015.247-.026.493-.046.74-.011.138-.055.276-.046.415.011.174.099.397.276.462.136.05.412-.035.506.115l.034.054 7.494-1.386a.289.289 0 0 0-.002-.02c-.05-.366-.06-.738-.116-1.103-.05-.323-.151-.636-.202-.958-.055-.346-.09-.696-.116-1.045-.022-.3-.02-.6-.03-.9 0 0-.028-.755 0-.958.03-.203.117-1.336.117-1.336.01-.435.024-.87.029-1.306.005-.474.02-.949 0-1.423-.02-.446-.032-.896-.116-1.335-.09-.475-.248-.936-.405-1.394a17.705 17.705 0 0 0-.55-1.393c-.165-.376-.364-.737-.55-1.103-.161-.32-.329-.638-.49-.959-.137-.27-.302-.528-.406-.812-.11-.3-.179-.615-.231-.93-.035-.21-.03-.425-.03-.638 0-.126-.033-.268.03-.378.054-.095.383.01.463.03.328.076.664.123.983.232.34.115.65.304.983.435.16.063.325.11.492.145a.7.7 0 0 0 .456-.089c.112-.076.177-.208.286-.287.16-.116.667.107.81.198.204.131.311.476.258.725-.054.253-.065.312.077.549.032.054.167.038.214.018.208-.092.416-.185.609-.305a.295.295 0 0 0 .107-.144c.116-.294.217-.594.304-.898.08-.277.103-.57.197-.843.056-.168.173-.308.25-.467.151-.313.34-.675.394-1.024.032-.209-.025-.404-.037-.61-.006-.113 0-.227 0-.34 0-.06-.023-.126 0-.18.043-.099.162-.096.18.018.013.088-.055.187-.018.269.023.052.105.063.16.054.064-.01.108-.072.162-.108.071-.048.172-.069.214-.144.065-.113-.117-.52.09-.502.045.003.08.063.125.053.031-.006.006-.077.036-.09.095-.04.291.013.357.09.063.074.04.347.018.431-.038.149-.09.295-.16.431-.056.106-.139.196-.215.287-.073.088-.194.144-.233.252-.05.135.007.29-.018.43-.035.196-.128.379-.16.575-.083.496-.047 1.015-.144 1.508-.04.203-.103.4-.179.593-.068.174-.171.332-.25.502-.106.23-.168.443-.143.7.016.167.092.322.125.485.032.16.027.328.072.485.093.33.24.641.34.97.086.288.138.587.214.879.079.3.185.594.25.898.13.6.135 1.275.072 1.885-.014.139-.018.284-.072.413-.102.243-.312.324-.518.448-.078.047-.145.12-.233.144-.053.015-.108-.052-.16-.036-.117.036-.056.228-.054.305.01.395.007.79.017 1.185.014.491.06.981.054 1.472-.005.396-.082.79-.09 1.185-.01.533.044 1.065.036 1.598-.004.342-.047.682-.071 1.023a61.4 61.4 0 0 0-.125 2.207l7.193.995c-.027-1.853-.012-3.707-.03-5.56-.01-.947-.05-1.892-.03-2.84.005-.299.023-.597.03-.896.003-.123.018-.248 0-.37-.011-.073-.07-.13-.087-.202a.712.712 0 0 1-.02-.267c.013-.089.082-.16.102-.248.015-.067-.001-.137 0-.206.012-.597.041-1.194.041-1.792 0-.117-.032-.233-.04-.35-.012-.15.005-.304-.022-.453-.015-.088-.086-.16-.102-.247-.026-.142-.057-.293-.02-.433.01-.043.4-.29.43-.268.041.031.137.38.144.433.028.204.015.413.041.618.029.222.112.436.123.66.03.582-.083 1.172 0 1.75.014.095.179.066.267.103.11.046.223.088.328.144.106.057.2.135.304.195.102.06.213.101.314.163.07.044.122.119.197.152.275.12.397.081.419-.21.018-.252.023-.506.035-.758.008-.19-.105-.887.081-1.027.093-.07.232-.291.232-.291.075-.066.3-.229.314-.327.009-.061-.128-.25-.186-.28-.06-.03-.133-.017-.197-.035-.198-.055-.342-.091-.442-.291-.022-.046.005-.102 0-.152-.006-.067-.006-.138-.035-.198-.024-.05-.103-.064-.116-.117-.014-.059.037-.116.047-.175.01-.062-.01-.128.011-.187.042-.12.135-.129.128-.291-.008-.196-.084-.112-.198-.187-.078-.051-.137-.127-.209-.187-.102-.084-.281-.152-.29-.303-.007-.112.173-.09.244-.093.124-.005.248 0 .372 0 .084 0 .201.041.232-.07.012-.045-.026-.101 0-.14.163-.245.58-.206.825-.187.35.027.718.104.895.443.04.076.02.177.07.245.129.177.512.066.57.257.016.056-.127.278-.164.315-.04.04-.111.04-.15.082-.085.088-.2.216-.059.303.05.031.208-.038.244-.07.12-.106.167-.288.28-.397.199-.193.672-.303.94-.303h.5c.177.178.347.344.465.572.069.132.025.313.14.443.075.085.204.111.279.198.304.357.372.747.485 1.188.081.315.164.629.226.948.129.666.19 1.345.267 2.018.034.296.073.59.102.886.022.223.028.447.052.67.027.251.123.452-.01.7-.063.116-.276.23-.39.298-.155.092-.314.193-.493.227-.152.03-.311.016-.462.051-.068.017-.122.07-.184.103-.092.05-.225.055-.277.145-.055.094.016.218 0 .327-.02.141-.077.275-.106.415-.066.308-.085.622-.148.926-.03.15-.086.294-.12.443-.033.142-.05.287-.08.43-.032.148-.083.293-.107.443-.032.197-.026.495.027.684.028.102.103.186.147.282.063.14.14.279.173.43.035.152.021.313.027.47.026.653.014 1.293-.027 1.945-.002.038-.002.105-.003.18l9.17 1.269a30.034 30.034 0 0 0 3.326-7.279 29.235 29.235 0 0 0 1.282-8.492c0-9.503-4.589-17.964-11.657-23.265l-11.227.258-.303-.434-4.506-.033a.904.904 0 0 1-.03.037c-.107.129-.341.114-.433.255-.1.153-.195.395-.085.54.24.319.663.44.991.664.25.17.492.354.744.522.343.227.743.377 1.04.662.281.269.399.674.657.965.23.258.485.517.796.667 4.733 2.287 9.545 4.405 14.307 6.629.107.05.192.137.298.189.34.167.659.43 1.035.466.145.014-.108-.277-.204-.387-.077-.089-.205-.116-.297-.19-.108-.086-.296-.148-.3-.286-.003-.139.166-.233.287-.3.13-.075.287-.098.436-.109.196-.014.407-.042.587.036.201.086.365.254.498.429.141.186.131.477.307.63.072.062.21-.063.24-.153.086-.249.076-.522.08-.785.003-.164-.076-.326-.06-.489.024-.236-.012-.55.18-.69.163-.118.405.052.589.134.105.046.189.14.25.239.11.18.098.441.257.582.097.086.265.027.39-.01.189-.054.335-.252.531-.256.153-.004.301.114.396.235.07.091.078.229.057.342-.04.209-.147.399-.23.593-.195.45-.377.905-.605 1.337-.21.396-.46.77-.706 1.143-.115.174-.282.314-.38.499-.123.233.27 1.072.27 1.072.035.146.17.302.107.438-.06.126-.249.146-.387.156a1.284 1.284 0 0 1-.588-.084 1.075 1.075 0 0 1-.398-.334 1.26 1.26 0 0 1-.255-.484c-.068-.287.201-.766-.069-.88a97.042 97.042 0 0 0-11.76-4.14c-.263-.073-.083.557-.227.79-.164.264-.415.471-.668.651-.345.245-.738.413-1.11.614-.48.26-.94.561-1.446.768a5.046 5.046 0 0 1-1.213.322c-.435.06-.88.08-1.317.03-.404-.046-.79-.198-1.179-.316-.512-.155-1.015-.34-1.524-.503-.295-.095-.578-.25-.885-.274-.185-.015-.357.103-.534.159-.324.103-.682.134-.969.316-.141.09-.21.28-.234.447-.02.148.146.292.108.438-.032.124-.164.221-.287.252-.19.047-.402.03-.587-.036-.175-.062-.357-.17-.447-.333-.111-.202-.052-.46-.113-.683-.046-.17-.202-.31-.206-.485-.003-.118.294-.247.188-.298-1.2-.586-2.499-.945-3.742-1.433-.251-.099-.472-.3-.74-.326-.087-.008-.049.17-.092.247a1.08 1.08 0 0 1-.19.25c-.1.096-.206.199-.335.252-.09.037-.196.011-.293.007-.147-.007-.302.012-.44-.04-.12-.044-.21-.146-.298-.237-.114-.118-.245-.233-.302-.385-.052-.138-.033-.296-.01-.441.02-.138.25-.314.137-.395-.72-.521-1.648-.701-2.37-1.22-.107-.076.211-.218.186-.347-.023-.125-.188-.174-.298-.238zM18.18 35.377l-2.928.554a31.583 31.583 0 0 0-5.627 18.022c0 3.175.47 6.243 1.342 9.138a31.673 31.673 0 0 0 3.698 8.009l2.116-.392a30.417 30.417 0 0 1-3.672-7.585 29.9 29.9 0 0 1-1.468-9.17 29.592 29.592 0 0 1 6.539-18.576zm-1.638-1.183l3.003-.402a29.734 29.734 0 0 1 10.575-7.344l-2.52-1.093a31.86 31.86 0 0 0-11.058 8.84zm4.028-.539l6.588-.88c.232-.432.524-.82.873-1.243.64-.775.882-.949 1.874-1.316.281-.105.574-.239.873-.217 1.086.08 1.052.492 2.022-.169.257-.175.338-.452.596-.626a.783.783 0 0 1 .583-.111c.499.11.946.386 1.428.555.307.107.613.231.934.273.226.029.46-.015.682-.065.176-.04.34-.12.504-.196l-6.564-2.846a29.04 29.04 0 0 0-10.393 6.841zm10.265-9.64l2.647 1.293a29.309 29.309 0 0 1 10.164-.932l1.311-1.903a31.554 31.554 0 0 0-3.747-.223c-3.632 0-7.123.623-10.375 1.764zm3.546 1.732l1.118.546-.206.593 3.855 2.14c.18.028.363.093.543.083.216-.013.416-.127.63-.162l.195-.031 2.702-3.92a28.683 28.683 0 0 0-8.837.75zm14.559-2.533l-1.525 1.722c3.34.72 6.473 2.01 9.294 3.763l3.288-.203a31.444 31.444 0 0 0-11.057-5.282zm-2.022 2.281l-1.015 1.147-.431.377-.966-.64-1.963 2.778c.11.093.135.245.132.408l12.892-.796a28.656 28.656 0 0 0-8.649-3.274zm15.61 5.1l-3.024.07c6.86 5.442 11.275 13.864 11.275 23.288 0 2.937-.456 5.873-1.31 8.68a30.744 30.744 0 0 1-3.244 7.189l2.139.295a31.621 31.621 0 0 0 3.252-7.577c.768-2.73 1.179-5.61 1.179-8.587 0-8.73-3.547-16.656-9.27-22.399a31.505 31.505 0 0 0-.998-.959zM26.811 68.767c-.008-.07 0-.139 0-.208 0-.454.008-.909 0-1.362-.004-.224-.02-.447-.023-.67-.004-.277.013-.555 0-.831-.01-.224-.059-.446-.069-.67a1.081 1.081 0 0 1 .023-.346c.054-.186.152-.355.23-.532.045-.1.13-.19.138-.3.046-.645.085-1.296.023-1.94-.017-.174-.17-.307-.253-.461-.062-.115-.152-.22-.184-.347-.032-.127.026-.264 0-.392-.04-.193-.275-.234-.437-.254-.137-.017-.285.049-.414 0-.112-.043-.182-.158-.253-.254-.084-.114-.14-.245-.207-.37-.087-.16-.187-.315-.253-.485-.058-.147-.017-.337-.115-.461-.048-.061-.155.005-.23.023-.156.036-.315.07-.46.139-.157.072-.297.177-.438.277-.066.046-.242.08-.233.161l.984 9.769v.002l2.172-.402a.545.545 0 0 0 0-.086zm3.196-.505c-.005-.085.016-.172.025-.257.013-.124.046-.246.046-.37 0-.273-.06-.57-.138-.831-.07-.233-.184-.454-.23-.693-.04-.204-.02-.415-.023-.623-.004-.239.012-.478 0-.716-.003-.056-.025-.11-.046-.162-.095-.233-.203-.46-.3-.692-.08-.192-.173-.378-.23-.578-.038-.135.059-.373-.138-.415-.067-.015-.188-.044-.207.023-.086.312-.021.649-.068.97-.09.6-.29 1.182-.484 1.754-.065.194-.142.384-.207.578-.066.198-.167.391-.184.6-.025.324-.002.665.115.97a.371.371 0 0 0 .207.208c.13.048.283-.02.414.023.053.017.076.085.092.139.016.051 0 .107 0 .161 0 .046.017.102.03.156l1.326-.245zm11.736-1.826a1.12 1.12 0 0 0 .012-.21c-.025-.335-.03-.671-.053-1.006-.012-.168-.042-.334-.054-.503a9.681 9.681 0 0 1-.018-.52c-.006-.386.043-.52.108-.844a.799.799 0 0 0 0-.341c-.04-.164-.144-.307-.197-.467-.078-.235-.138-.477-.197-.718-.066-.269-.09-.55-.197-.808-.032-.078-.077-.182-.178-.161-.109.021-.136.136-.144.233-.013.161.025.325 0 .485a4.363 4.363 0 0 1-.178.7c-.045.137-.12.263-.18.395-.064.141-.129.233-.125.395.011.393.083.762.144 1.149.043.275.104.548.125.826.032.434-.063.847-.108 1.274v.006l.075-.013.202-.005.963.133zM38.622 51.34c-.072-.01-.147-.016-.213-.049-.048-.024-.078-.075-.114-.115a4.248 4.248 0 0 1-.18-.213c-.062-.08-.135-.154-.18-.246a8.043 8.043 0 0 1-.179-.54c0-.092.508.021.556.032.154.035.314.062.457.131.133.065.249.164.36.263.153.138.342.308.26.54-.035.1-.098.209-.196.246-.112.043-.239-.022-.359-.032-.07-.007-.142-.006-.212-.017zm16.27 16.913c.086-.111.173-.213.192-.274.03-.094 0-.197 0-.295 0-.296.016-.591 0-.886-.007-.127-.048-.25-.067-.376-.037-.26-.043-.512-.133-.765-.022-.06-.07-.108-.107-.16-.106-.152-.233-.288-.254-.484-.017-.152.026-.304.026-.456 0-.224-.03-.448-.026-.672.001-.116.04-.231.04-.348 0-.122-.025-.242-.04-.363-.007-.053-.002-.256-.094-.12-.16.235-.123.49-.227.738-.054.127-.169.218-.24.335-.094.152-.172.312-.255.47-.068.129-.178.245-.2.389-.033.208.037.42.04.631.001.166-.018.33-.027.496-.01.166-.01.332-.027.497-.033.31-.116.631-.214.926-.049.147-.13.281-.174.43a.245.245 0 0 0-.008.039l1.796.248zm-3.085-.426c-.014-.308.087-.594.135-.895.03-.19.038-.385.067-.577.025-.167.07-.33.093-.497.049-.331.02-.624.027-.953.006-.297.01-.608.08-.899.055-.224.146-.437.214-.657.074-.237.135-.477.214-.712.059-.173.146-.335.2-.51.062-.193.093-.395.148-.59.043-.154.098-.304.147-.456.032-.099.049-.203.094-.296.023-.048.1-.067.107-.12.039-.295.032-.715-.054-1.007-.04-.139-.12-.264-.16-.403-.024-.082.017-.182-.027-.255-.03-.048-.108-.074-.16-.053-.105.04-.15.292-.281.349-.131.055-.44-.018-.562-.081-.211-.109-.35-.326-.521-.483-.124-.114-.26-.214-.388-.322-.163-.138-.368-.397-.602-.376-.038.003-.09.029-.093.067-.051.513-.047 1.029-.067 1.543-.023.574.014 1.145.026 1.718.017.757.058 1.511.067 2.269.016 1.34.008 2.677-.002 4.016l1.298.18z" mask="url(#b)"/>
    </g>
</svg>
