<svg xmlns="http://www.w3.org/2000/svg" width="110" height="68" viewBox="0 0 110 68">
    <g fill="none" fill-rule="evenodd">
        <path fill="#FEFEFE" d="M1 1v.552c1.744.85 2.95 1.814 3.564 2.9v33.444c-.739.96-1.608 1.735-2.667 2.244V41h11.206v-.86c-.943-.45-1.744-1.188-2.389-2.244V4.452c.557-1.357 1.746-2.281 3.286-2.9V1H1z"/>
        <path stroke="#FEFEFE" stroke-width=".088" d="M1 1v.552c1.744.85 2.95 1.814 3.564 2.9v33.444c-.739.96-1.608 1.735-2.667 2.244V41h11.206v-.86c-.943-.45-1.744-1.188-2.389-2.244V4.452c.557-1.357 1.746-2.281 3.286-2.9V1H1z"/>
        <path fill="#FEFEFE" d="M31.793 1H19v.56c1.62.653 2.686 1.589 3.198 2.94l13.707 36.18c.161.425 1.216.428 1.37 0L45.5 17.936c.25-.694.65-.689.914 0l8.681 22.744c.163.424 1.22.43 1.37 0L69.259 4.5C69.653 3.384 70.494 2.38 72 1.56V1h-8.681v.56c1.935.73 3.16 1.725 2.741 2.94l-8.224 23.898c-.223.65-.679.637-.914 0l-8.224-22.29c-.848-2.299.57-4.164 2.284-4.548V1H38.19v.56c1.648.281 3.01 1.802 4.113 4.548l1.827 4.55c.34.843.234 1.14 0 1.82l-5.483 15.92c-.188.546-.756.45-.913 0l-7.767-22.29c-.865-2.483-.22-4.199 1.827-4.548V1z"/>
        <path stroke="#FEFEFE" stroke-width=".088" d="M31.793 1H19v.56c1.62.653 2.686 1.589 3.198 2.94l13.707 36.18c.161.425 1.216.428 1.37 0L45.5 17.936c.25-.694.65-.689.914 0l8.681 22.744c.163.424 1.22.43 1.37 0L69.259 4.5C69.653 3.384 70.494 2.38 72 1.56V1h-8.681v.56c1.935.73 3.16 1.725 2.741 2.94l-8.224 23.898c-.223.65-.679.637-.914 0l-8.224-22.29c-.848-2.299.57-4.164 2.284-4.548V1H38.19v.56c1.648.281 3.01 1.802 4.113 4.548l1.827 4.55c.34.843.234 1.14 0 1.82l-5.483 15.92c-.188.546-.756.45-.913 0l-7.767-22.29c-.865-2.483-.22-4.199 1.827-4.548V1z"/>
        <path fill="#FEFEFE" d="M108.089 13.401h.455l-.455-12.152h-.456c-1.77 3.434-4.684.72-9.828 0C85.18-.514 73 7.154 73 21.88c0 12.8 10.365 20.75 22.329 20.082 5.661-.316 10.16-3.663 13.671-8.924h-.456c-3.615 3.693-7.792 6.242-13.215 6.247-9.343.007-15.166-6.95-15.038-17.404C80.444 9.4 85.21 2.95 95.329 3.138c7.128.05 10.672 4.301 12.76 10.263"/>
        <path stroke="#FEFEFE" stroke-width=".088" d="M108.089 13.401h.455l-.455-12.152h-.456c-1.77 3.434-4.684.72-9.828 0C85.18-.514 73 7.154 73 21.88c0 12.8 10.365 20.75 22.329 20.082 5.661-.316 10.16-3.663 13.671-8.924h-.456c-3.615 3.693-7.792 6.242-13.215 6.247-9.343.007-15.166-6.95-15.038-17.404C80.444 9.4 85.21 2.95 95.329 3.138c7.128.05 10.672 4.301 12.76 10.263z"/>
        <path fill="#FEFEFE" d="M35.762 49.298c.841 1.632-.742 3.019-1.743 4.259-2.523 2.356-5.318 4.038-8.285 5.314-1.818 2.467-3.797 5.536-6.864 6.431-1.805.59-4.352 1.179-6.109.087-.667-.516-.902-1.302-.68-2.099.285-.283.408-.737.829-.823.532-.049 1.125.013 1.286.528.013.332-.112.687-.457.822-.322.16-.866-.061-.978.442.124.614.804 1.154 1.36 1.35 2.734.638 4.985-.797 6.79-2.847.544-.872 1.323-1.645 1.657-2.614L22.419 60c-2.176.65-5.008 1.093-6.937-.38-.964-.688-1.001-1.853-.829-2.922.582-1.988 2.598-3.264 4.514-3.656 1.41-.296 3.178-.246 3.994.97.025.453.025 1.09-.297 1.496-.692.687-1.656 1.497-2.41 1.277.828-.381 1.916-1.13 2.114-2.099.123-.749-.433-1.154-.99-1.498-1.396-.392-2.844-.011-3.92.823-1.15 1.104-2.04 2.393-1.657 4.037.075.897.953 1.596 1.744 1.879 1.806.355 3.698.048 5.268-.602 2.35-2.614 4.117-5.732 7.085-8.002 1.3-.945 2.585-1.866 4.069-2.32.569.012 1.175-.086 1.595.295"/>
        <path fill="#010202" d="M35 49.359c-.024 2.289-2.103 3.898-3.746 5.305A14.818 14.818 0 0 1 27.224 57H27c.568-1.824 1.879-3.338 3.096-4.876 1.217-1.144 2.292-2.575 3.746-3.123.437.012.969-.083 1.158.358"/>
        <path fill="#FEFEFE" d="M69.437 49.703c-.8 3.677-4.685 5.912-7.562 7.546-.38.613-.97 1.136-1.057 1.877l.16.154c.959-.103 1.992-1.202 2.914-.23.098 1.149-1.033 1.864-1.046 2.872l.222.153c2.583-.37 4.021-4.507 6.898-3.192.405.154.578-.242.897-.306l.898.077c-.246 1.212-1.279 2.093-1.414 3.345h.676c1.34-.856 2.94-1.762 3.738-3.345.259-.281.701-.102 1.058-.154.344.447-.308.855-.382 1.328-.369.587-.799 1.15-.897 1.864.246.37.566-.013.824-.076 1.205-.677 2.348-1.864 3-3.116.332-.281.848-.102 1.279-.153v.383c-.48.996-1.279 1.839-1.427 2.962.934.013 1.697-.867 2.546-1.327.996-.779 2.004-1.52 2.926-2.49.222-.511.393-1.239.971-1.392.27-.039.517.14.603.383-.135.588-.836.957-1.132 1.481.05.97-.123 1.762.148 2.643 1.439-.14 1.697-2.03 3-2.643.713-.434 1.795-.855 2.558-.23.036.383.233.728 0 1.086-.676 1.008-1.734 1.378-2.779 1.634-.32.294-.307.728-.295 1.162.16.408.64.216.898.166 1.709-1.214 3.037-3.422 4.943-4.137.54-.012.946.306 1.352.626.959-.192 2.127-1.15 3-.23-.037 1.2-1.094 1.98-1.279 3.115.135.396.59.217.824.153l1.5-.778c-.615.92-1.684 1.353-2.619 1.787-.516.038-1.07.013-1.28-.536.076-1.162 1.01-1.94 1.207-3.04-.381-.484-.85.205-1.28.307-1.278.78-1.56 2.324-2.778 3.193l-.972-.078c.467-1.072 1.267-2.003 1.648-3.115-.184-.331-.48-.038-.676.077-1.378 1.2-2.533 2.987-4.193 3.511-.566.102-.996-.14-1.426-.395-.382-.281-.382-1.367-1.12-.856-1.217.767-2.556 1.417-4.044 1.251-.53-.191-.43-.766-.751-1.098-1.045.064-2.029 1.89-3 .55-.024-.41-.368-.716-.75-.473-.8.421-1.525 1.239-2.471 1.021-.688-.191-.344-.957-.75-1.328-1.328.243-2.214 1.801-3.677 1.482-.32-.268-.283-.678-.602-.933-1.168.18-2.423 1.966-3.517.536-.086-.255-.11-.523-.38-.702-1.157.307-2.054 1.52-3.37 1.175-.393-.23-.197-.791-.074-1.085.258-.856.972-1.52 1.12-2.413l-.222-.243c-1.612.523-3.086 2.068-3.824 3.665-.295.293-.726.216-1.12.23l-.16-.154c.58-1.15 1.464-2.247 1.735-3.422-2.164.881-3.96 2.682-6.074 3.652-1.144 1.29-1.574 2.886-2.472 4.277-.38.179-.848.345-1.278.166.197-.791.75-1.635 1.204-2.413.099-.55.726-1.047.443-1.557-.467-.218-1.303.166-1.426-.626-.012-.205.135-.332.074-.55l-.148-.152c-2.57.433-2.901 3.485-4.34 5.222a2.152 2.152 0 0 1-1.206 0c.468-1.15 1.267-2.171 1.648-3.359-.319-.383-1.033-.267-1.045-.932-.59-.28-1.205.51-1.869.243-.319-.255-.553-1.047-1.057-.702-.726.319-1.402.996-2.324.613-.553-.166-.553-1.495-1.34-.779-1.009.307-2.164 1.775-3.16.549.05-1.11 1.044-1.813 1.204-2.874-.147-.395-.503-.165-.75-.165-1.414.715-2.2 2.209-3.147 3.435-.406.306-.996.383-1.5.23.369-1.01 1.365-1.737 1.574-2.81h-.443c-1.636 1.188-3.172 2.605-5.103 3.04-.467-.09-1.057-.064-1.278-.626-.123-.307-.013-.792-.369-.933-.812.32-1.537.856-2.472.856l.074-.23c2.115-.856 3.75-2.924 5.84-3.817.652-.077 1.672-.269 1.955.472.099.523-.356.817-.75.932-.64.153-.64-1.008-1.278-.625-.873.83-1.426 1.8-1.5 2.962.307.472.848.115 1.205 0 2.717-1.966 6.246-4.073 7.574-7.393.394-.702.8-1.213 1.266-1.864 1.39-1.992 3.173-3.805 5.398-4.367.516.05.75.447.824.932-.91 3.332-4.254 5.669-7.046 7.086-.577.55-1.168 1.239-1.352 2.03.504.46 1.107-.204 1.66-.319.368-.064.983-.242 1.266.154.222 1.187-.873 1.991-1.193 3.039.615.522 1.292-.243 1.87-.55 1.61-1.442 3.282-3.69 5.545-2.566.578-.102 1.057-.434 1.721-.306v.383l-1.648 2.808c.357.244.85-.089 1.205-.319l3.899-3.192c2.483-3.447 4.955-7.928 8.988-9.487.491-.076 1.278-.255 1.573.23.075 1.787-1.426 2.962-2.471 4.2-1.685 1.789-3.824 2.784-5.84 3.895-1.095 1.303-1.87 2.733-2.558 4.201l.16.153c1.93-.753 3.627-2.093 5.385-3.269 2.448-3.127 4.464-7.137 8.03-9.103.774-.102 1.869-.997 2.471 0-.025 1.621-1.267 2.847-2.324 3.895-1.918 1.94-4.082 3.23-6.221 4.596-.849 1.264-1.71 2.515-2.324 3.881l.22.243c2.411-.957 4.501-2.86 6.53-4.597 1.807-2.719 3.59-5.656 6.135-7.865.91-.395 2.534-1.622 3.148-.153"/>
        <path fill="#010202" d="M67 50.216c-.11 1.528-1.204 2.62-2.2 3.757-.897.842-1.685 1.553-2.734 2.027-.143-.095-.022-.367.065-.51 1.204-1.683 2.1-3.508 3.61-5.06.34-.273.876-.688 1.259-.214M63 50.201c-.07 1.554-1.76 2.526-2.687 3.687-1.123.66-2.05 1.789-3.313 2.112v-.279c1.414-2.056 3.163-4.335 5.363-5.721.243.012.498-.056.637.201M57 50.216c-.252 1.932-2.243 3.1-3.659 4.442-.755.51-1.475 1.077-2.338 1.342-.049-.578.587-1.076.875-1.62 1.355-1.596 2.663-3.574 4.606-4.372.228-.035.384.046.516.208M41 51.364c-.565 2.611-2.694 4.592-4.867 5.636H36c.41-1.19 1.164-2.283 1.896-3.267.842-1.02 1.507-2.515 2.838-2.733l.266.364zM88.911 58c.383.76-.557 1.348-1.168 1.796-.243.063-.418.264-.73.186-.14-.836.922-1.873 1.898-1.982M70 59.419c-.014 1.858-1.675 3.029-2.832 3.581h-.16c-.12-1.64 1.09-3.113 2.194-3.982.333-.067.611.05.798.4M83.968 60c.209 1.518-.642 2.965-1.7 4-.66-.087-.487-1.155-1.268-1.38v-.413c.937-.844 1.892-1.69 2.968-2.207M43 60.345c-.014 1.143-1.194 2.09-2.143 2.562-.271.026-.624.13-.827.079-.23-1.208.922-2.194 1.898-2.878.407-.052.896-.315 1.072.237M54 61c-.292.994-.83 2.194-1.692 2.98-.739.164-.831-.741-1.308-1.082.646-.86 1.77-1.35 2.724-1.898H54zM47 62c-.338.625-.611 2.047-1.577 1.999-.144-.218-.546-.328-.386-.656A4.417 4.417 0 0 1 47 62"/>
    </g>
</svg>
