<svg xmlns="http://www.w3.org/2000/svg" xmlns:xlink="http://www.w3.org/1999/xlink" width="132" height="58" viewBox="0 0 132 58">
    <defs>
        <path id="a" d="M131.489 17V.732H0v16.266z"/>
    </defs>
    <g fill="none" fill-rule="evenodd">
        <path fill="#FEFEFE" d="M55.352 18.209c-1.665 2.62-1.814 3.888-1.86 4.742-.057.83-.057 2.326 1.297 3.548 2.29 2.024 5.483 1.695 8.315 1.695h23.365c.995 0 1.29-.29 1.822-1.008C90.16 24.346 91 21.274 91 18.52c0-5.897-3.857-13.32-13.602-16.68l-1.097 1.562c7.729 3.648 10.932 8.423 10.932 15.106a9.6 9.6 0 0 1-1.61 5.514H62.905c-1.36 0-1.545-1.532-1.063-2.39a90.849 90.849 0 0 1 6.514-9.922c2.296-3.047 4.561-5.894 6.926-8.88.646-.826.216-1.626-1.063-1.887C71.566.386 68.793 0 65.438 0 46.798 0 40 10.64 40 18.523 40 27.069 46.86 37 65.485 37c10.34 0 17.112-3.316 21.033-7.567h-3.954c-3.431 3.147-9.312 5.376-17.08 5.376-15.777 0-21.594-8.814-21.594-16.404.118-6.769 6.36-16.122 21.99-16.434.591-.015 1.05.521.637 1.03-2.672 3.267-10.293 13.843-11.165 15.208"/>
        <g transform="translate(0 41)">
            <mask id="b" fill="#fff">
                <use xlink:href="#a"/>
            </mask>
            <path fill="#FEFEFE" d="M51.995 13.672H30.49c.056-1.663 1.843-3.336 3.473-3.336h13.543V7.003H30.315c-.195-.971 1.65-2.889 3.06-2.889h15.452V2.327l10.016 7.102-6.848 4.243zm74.231-6.355h-14.998c.201-1.805 1.772-3.315 3.363-3.315h15.18l-.053-3.136h-16.091c-5.09 0-9.16 4.177-9.283 9.037-.02.339.21.548.601.548l18.26-.064c.937.128 1.656.862 1.656 1.727 0 .971-.9 1.752-1.98 1.752h-20.09V.876h-5.91v13.023H86.006c-2.956 0-3.565-1.77-3.565-3.397V.8h-9.81c-.972.653-1.91 1.367-2.908 1.966L63.91 6.307 56.34.847H33.468c-3.005 0-5.316.776-7.03 2.115-3.08 2.4-4.057 4.94-4.019 6.076h4.005c-1.758 1.298-2.946 2.861-3.565 4.667H9.7c-2.365 0-3.882-1.658-3.882-3.272v-9.7H0v10.078c0 3.62 3.479 6.127 9.065 6.127H53.167c.92-.612 1.787-1.265 2.743-1.84l5.993-3.586 7.591 5.355h8.643L66.717 8.37l5.87-3.786c1.25-.811 2.56-1.492 3.843-2.242v8.555c0 3.603.93 6.102 8.283 6.102l41.513-.094c3.204.046 5.263-2.15 5.263-4.791 0-2.632-2.365-4.797-5.263-4.797z" mask="url(#b)"/>
        </g>
    </g>
</svg>
