<svg xmlns="http://www.w3.org/2000/svg" width="24" height="24" viewBox="0 0 24 24">
    <g fill="#FFF" fill-rule="evenodd">
        <path d="M1 12h1.5v10H1a1 1 0 0 1-1-1v-8a1 1 0 0 1 1-1zM4 12v10h7.47c1.094 0 2.11-.568 2.684-1.5a9.435 9.435 0 0 0 1.243-3.232l.421-2.285c.121-.654.182-1.3.182-1.983s-.492-1.33-1.846-1.33l-4.779-.2a22.036 22.036 0 0 1 1.85-3.905l.915-1.526c.312-.52.41-1.14.275-1.73l-.055-.244c-.101-.44-.343-.834-.69-1.123l-.354-.296a.2.2 0 0 0-.3.05L9.437 5.31A13.166 13.166 0 0 1 7.31 7.977L6.127 9.12a50 50 0 0 1-.11.105l-1 .96A3.565 3.565 0 0 0 4 12z"/>
    </g>
</svg>
