<svg xmlns="http://www.w3.org/2000/svg" xmlns:xlink="http://www.w3.org/1999/xlink" width="152" height="43" viewBox="0 0 152 43">
    <defs>
        <path id="a" d="M28.819 42.122V.354H.397v41.768h28.422z"/>
    </defs>
    <g fill="none" fill-rule="evenodd">
        <path fill="#FEFEFE" d="M84.188 29.528c-1.64 1.349-3.2 2.856-4.68 4.464h-.04l-.391.433c-.821.956-1.666 1.898-2.374 2.903h-.03c-.534.764-.987 1.564-1.29 2.436a.789.789 0 0 0 .013.296h.01c.062.237.21.463.368.571.872.253 1.595-.21 2.358-.48l.182-.09h.08c1.452-.72 2.858-1.675 4.2-2.774h.05a37.759 37.759 0 0 0 3.531-3.34h.04a58.32 58.32 0 0 0 3.467-4.098c.071-.12.15-.242.233-.367h.03c.664-.988 1.579-2.136 1.045-3.055-.707-.827-1.961-.054-2.779.288a33.447 33.447 0 0 0-3.971 2.813h-.052zm-72.017 10.53a41.72 41.72 0 0 0 1.548-.38c-2.36-.901-4.74-1.75-7.336-2.11-1.726-.161-3.705-.27-4.995.92-.264.28-.277.524-.16.78.193.378.473.623.8.793h.082c.579.273 1.286.334 1.911.478 2.686.337 5.396.068 7.954-.481h.196zm44.553-34.14l-.309-.36c-1.344-.776-2.851.072-4.031.685-6.23 3.66-12.411 12.166-16.316 17.936.98-.162 4.795-1.415 7.394-3.042 4.595-2.543 10.483-8.113 12.953-12.893.273-.702.708-1.532.31-2.326zM37.43 25.033c-.76.218-1.53.417-2.304.6-.943 1.433-1.802 2.712-2.69 3.892h-.03c-1.227 1.622-2.511 3.06-4.15 4.462h-.045a30.46 30.46 0 0 1-1.653 1.303 22.495 22.495 0 0 1-3.355 2.039h-.086c-.667.328-1.35.62-2.044.878 3.632 1.533 8.844 1.551 12.404-.198.468-.22.934-.46 1.393-.72h.066a22.459 22.459 0 0 0 4.453-3.338h.039c.69-.666 1.344-1.38 1.95-2.137l1.854-2.329h.03l3.554-4.463h.01l.064-.08 5.71.001-.071.09h-.01l-3.556 4.493h-.033l-3.534 4.463h-.031l-2.644 3.338h-.032l-1.911 2.413a1.01 1.01 0 0 0-.187.36h-.008a.509.509 0 0 0 .045.33c.433.82 1.925 0 1.925 0s.185-.07.66-.37h.064c.65-.414 1.793-1.224 3.661-2.777h.053c.827-.693 1.795-1.526 2.922-2.534.298-.266.59-.532.876-.798h.041c1.47-1.36 2.814-2.746 4.095-4.319l.12-.147h.032l3.585-4.463h.01l.136-.17h5.38l-.141.182h-.01a167.241 167.241 0 0 0-3.35 4.489h-.028a7.21 7.21 0 0 0-.067.092l.164-.134h.054c2.188-1.775 4.376-3.52 6.896-4.458h.031a11.52 11.52 0 0 1 1.75-.495c.895-.125 1.763.027 2.453.494h.017c.298.203.563.467.781.792.712 1.127.547 2.522.043 3.711h-.017a6.79 6.79 0 0 1-.57 1.045l-1.145 1.424-1.728 1.995h-.035l-2.889 3.337h-.034l-2.011 2.324c-.12.145-.16.285-.131.41h.01a.48.48 0 0 0 .14.19c.355.243.813.016 1.232-.19h.083c.13-.063.255-.12.372-.158a22.71 22.71 0 0 0 4.223-2.618h.055a34.76 34.76 0 0 0 2.417-2.093c.306-.34.604-.793.897-1.245h.027c.272-.42.538-.834.805-1.158a24.496 24.496 0 0 1 3.18-3.3h.045c2.422-2.07 5.202-3.604 8.179-4.466h.043a20.277 20.277 0 0 1 1.756-.421c1.29-.182 2.85-.377 3.916.42h.012c.099.072.195.157.285.252.31.379.381.866.363 1.37l.818-.937.54-.684h.008l6.08-7.707 6.384-8.197h5.449L99.172 25.034h-.01l-3.45 4.44-.04.052h-.03l-3.485 4.463h-.031l-2.604 3.338h-.032l-1.84 2.358a.982.982 0 0 0-.12.385.395.395 0 0 0 .04.162c.215.458 1.078.207 1.531.116.28-.084.558-.18.832-.284h.096c1.643-.636 3.166-1.602 4.57-2.776h.046c1.13-.948 2.182-2.033 3.156-3.188l.12-.151h.031l3.535-4.464h.03l3.535-4.463h.01l1.347-1.702-3.37-.003 1.209-1.44h3.324s9.797-12.594 9.979-12.774H123l-9.817 12.702 8.072-.014-1.291 1.506-7.942.005-1.366 1.732h-.01l-3.537 4.492h-.032l-3.516 4.463h-.031l-2.629 3.338h-.031l-1.817 2.305a.83.83 0 0 0-.172.458c.002.06.012.115.03.162.17.335.358.436.8.424.78-.011 1.507-.249 2.21-.617h.08c.848-.459 1.664-1.102 2.503-1.76.368-.288.786-.639 1.216-1.012h.047c1.573-1.372 3.287-3.037 3.287-3.037l.871.901c-.79.705-1.577 1.448-2.363 2.174h-.041c-1.098 1.008-2.198 1.984-3.319 2.777h-.057c-.923.648-1.86 1.17-2.82 1.483-.89.343-2.774.76-4.193-.064-.609-.355-.989-.83-1.14-1.42h-.01c-.181-.749.006-1.683.555-2.774h-.102c-1.214.93-2.412 1.939-3.68 2.771h-.057c-1.866 1.212-3.883 2.034-6.32 1.639-.8-.144-1.544-.811-1.89-1.55l-.034-.086h-.017c-.297-.794-.317-1.776-.076-2.58-.78.524-1.562 1.246-2.36 1.786-.373.26-.761.53-1.161.794h-.062c-2.065 1.356-4.467 2.554-6.924 1.476-.613-.317-1.024-.854-1.277-1.476h-.016c-.239-.605-.33-1.29-.313-1.93.032-.292.065-.614.111-.885h.007l.01-.048-.11.088h-.05c-1.29 1.04-2.587 1.975-3.946 2.775h-.07c-.895.524-1.818.99-2.786 1.392-1.057.387-3.674.94-4.977-.373-.283-.342-.469-.663-.564-1.019h-.01c-.11-.445-.084-.947.065-1.614.078-.33.296-.75.59-1.202h.027c.798-1.226 2.119-2.686 2.724-3.334h.036c.177-.187.284-.297.284-.297l3.72-4.169h.037l2.65-2.967s.285-.32.013-.695c-.326-.451-.997-.072-1.412.081-1.75.725-3.632 1.955-5.673 3.621h-.048c-1.5 1.226-3.083 2.686-4.762 4.353l-.12.111h-.043c-.9.849-2.04 2.098-3.12 3.334H54.8a135.892 135.892 0 0 0-2.359 2.778h-.032c-.645.78-1.06 1.297-1.06 1.297l-5.435.004 1.06-1.342h.033l2.193-2.773h.032l.809-1.023c-.128-.162-.327.072-.327.072s-.407.4-1.05.987h-.04c-.858.775-2.118 1.865-3.4 2.775h-.052c-.827.581-1.66 1.087-2.395 1.383l-.05.018c-1.058.387-3.679.941-4.982-.373-.285-.344-.47-.666-.565-1.025h-.01c-.109-.444-.082-.944.066-1.608.122-.5.327-.905.526-1.207h.027c.276-.412.532-.625.532-.625-.289.228-.58.45-.876.667h-.056c-1.517 1.107-3.112 2.045-4.785 2.772h-.091c-3.091 1.322-6.452 1.927-10.096 1.547a55.164 55.164 0 0 1-5.994-1.299c-4.158 1.173-9.026 1.966-13.548.992-.794-.228-1.768-.582-2.363-1.239H.477a2.014 2.014 0 0 1-.472-.956c-.053-.717.302-1.358.806-1.862h.044c.336-.33.73-.595 1.112-.784 5.002-2.415 11.149-.732 16.142.788h.136c.218.068.435.133.648.199.09-.065.179-.131.267-.198h.05c1.275-.97 2.44-2.133 3.516-3.34h.036a56.434 56.434 0 0 0 1.49-1.755l2.195-2.708h.032l1.09-1.343c.527-.757 1.73-2.326 1.73-2.326-2.243-.112-4.57-.285-6.76-.782h-.065c-3.051-.705-5.829-2.046-7.725-4.745-1.58-2.524-1.399-6.076.163-8.565C18.2 6.946 23.63 5.522 29.114 5.197c3.415-.09 6.593.577 9.554 1.64 0 0-.073.542-.127.813-4.305-1.083-9.535-1.407-13.821.036-3.56 1.027-7.737 4.201-8.137 8.186-.381 2.65.981 5.121 3.324 6.528 2.924 1.785 6.447 2.163 10.08 2.272 4.54-5.933 11.1-13.795 17.347-17.816 2.525-1.478 5.122-2.975 8.263-2.849.764.037 1.708.36 2.235 1.19 1.016 1.497.145 3.373-.582 4.725-3.214 5.554-9.846 11.035-15.24 13.523a39.644 39.644 0 0 1-4.538 1.588h-.042zm.891 11.721h-.005.005zm-.005 0h-.004.004zM51.53 18.285c1.507-1.396 3.445-1.765 4.33-.824.883.941.376 2.836-1.13 4.231-1.508 1.396-3.446 1.765-4.33.824-.883-.94-.377-2.835 1.13-4.23z"/>
        <g transform="translate(123)">
            <mask id="b" fill="#fff">
                <use xlink:href="#a"/>
            </mask>
            <path fill="#FEFEFE" d="M14.937 9.733a8.304 8.304 0 0 0-.06-.42c.183-.028.372-.05.554-.065.092.139.133.305.19.464a.113.113 0 0 0 .003.012l-.004-.012c-.056-.16-.097-.325-.189-.464a7.503 7.503 0 0 0-.554.065c.023.14.043.282.06.42v.004a7.903 7.903 0 0 0-.06-.424c.183-.028.372-.05.554-.065.092.139.133.305.19.464a.113.113 0 0 0 .003.012l-.004-.012c-.056-.16-.097-.325-.189-.464a7.503 7.503 0 0 0-.554.065c.023.14.043.282.06.424v-.004zm.747 1.101c.054-.372.048-.766-.056-1.11v-.001c.104.345.11.74.056 1.113v-.002zm-.056-1.111c.104.345.11.74.056 1.113v-.002c.054-.372.048-.766-.056-1.11v-.001zm-1.29.01l-.022.136c.006-.046.014-.092.022-.136zm-.493 2.748l.021.52c.12.094.204.239.331.325.005-.283.01-.562.02-.845h.001l.007-.18-.022-.037-.371-.086.012.303zm-5.106 7.723c.057.174-.019.375-.1.406.188.015.428-.015.603-.086-.206-.181-.334-.259-.503-.32zm-.68-.178c-.179-.031-.454.019-.62.08.106.174.314.317.503.384a.412.412 0 0 1 .117-.464zm1.664.419l.247.023.037.128c-.338.448-2.125.273-2.502-.083-.138-.13-.204-.32-.388-.4l-.014-.15c1.017-.605 1.77-.128 2.62.482zm-7.099 7.09c-.022-.17.103-.649.003-.672-.444-.101-.566 1.01-.002.671zm1.054.098c.417.194.492-.588.345-.603-.354-.037-.482.415-.344.603zm18.618 6.858c-.19-1.123-1.37-.722-1.316-.35.671-.164.755-.048 1.316.35zm1.233-.991c.193.533.404 1.001.438 1.58.413-.232.023-1.647-.438-1.58zm1.97 3.579c-.171.029-.913.452-1.022.572.122.053.234.143.372.151.272-.175.452-.475.65-.723zm-2.956 1.528c.14.382 1.202.865 1.409.475-.194-.16-.863-.326-1.147-.445-.068-.029-.205-.12-.262-.03zm-15.54 1.64c-.138-.049-.498-.185-.644-.178l-.043.158c.09.273.524.385.704.167l-.017-.147zm14.896-.746h.006c.345.468 1.148.94 1.44.515-.422-.16-.659-.336-.821-.505h-.012c-.205-.218-.297-.422-.52-.569-.065-.042-.132-.044-.187.019-.111.128-.053.333.095.54zm-1.265 0h.003c.197.668.86 1.243 1.458.93a3.898 3.898 0 0 1-.906-.92h-.009a3.671 3.671 0 0 1-.284-.498c-.038-.08-.076-.184-.173-.182l-.14.172c-.015.164.004.334.052.498zm-1.477 0h.003c.145.628.509 1.274.99 1.19l.091-.109a3.405 3.405 0 0 1-.46-1.071h-.002c-.078-.291-.138-.594-.226-.917-.023-.085-.082-.196-.189-.194-.288.005-.334.545-.207 1.101zm4.484-1.657h.003c.169.611 1.765.996 2.19 1.6.014.018.026.038.038.057h.006c.265.46-.069.869-.044 1.325.2-.121.384-.27.525-.459h-.145c-.073-.06-.002-.188.014-.264.045-.21.032-.41-.03-.592h-.003a1.235 1.235 0 0 0-.39-.534c-.577-.473-1.363-.621-1.933-1.108l-.017-.015h-.01c-.063-.06-.111-.129-.215-.087a.462.462 0 0 0 .011.077zm-.938 0h.008c.197.268.522.443.84.33l-.045-.112a1.574 1.574 0 0 1-.352-.208h-.01a2.586 2.586 0 0 1-.513-.55l-.102-.015c-.013.19.056.39.174.555zm-4.657.014c-.383.398-.419 1.122-.212 1.643h.006c.148.366.418.628.771.606a2.043 2.043 0 0 1-.209-.596H18.4a2.232 2.232 0 0 1 .075-1.071c.024-.081.207-.374.277-.596h.004c.046-.152.037-.269-.123-.251a.934.934 0 0 0-.574.265h-.014zm6.407-1.11c-.145.19-.303.37-.494.527-.017.014-.105.073-.058.105.057.041.154.075.218.106.289-.093.56-.395.77-.743h.005c.212-.348.364-.748.415-1.032-.049-.15-.172.044-.205.09-.224.31-.417.642-.644.947h-.007zm-2.941.004c-.031.431.098 1.118.732.943-.308-.341-.404-.572-.508-.946h-.003c-.017-.06-.033-.122-.05-.188-.062-.234-.148-.076-.17.191h-.002zm-.523-.013h.009a.875.875 0 0 0 .218.234.946.946 0 0 0 .01-.224c-.026-.296-.18-.498.085-1.212-.366-.093-.659.669-.322 1.202zm-3.86.008a2.07 2.07 0 0 0-.445 1.107h-.001c-.03.423.084.851.399 1.19a2.935 2.935 0 0 1 .169-1.198h.003c.145-.387.374-.74.668-1.111h.01c.15-.194.318-.388.498-.596-.12-.08-.317-.01-.445.025a1.678 1.678 0 0 0-.85.583h-.007zm-8.7 4.41c.005-.184-.226-.091-.408.01h-.015c-.107.06-.194.12-.199.125-.202.214.548.44.62-.12l.002-.015zm2.183.01h-.025c-.197-.12-.487-.26-.538-.213a.33.33 0 0 0 .003.203h.004c.122.313.704.454.704.113a1.092 1.092 0 0 0-.148-.103zM7.42 39.5h.141a.48.48 0 0 0 .045-.011c.054-.148-.09-.322-.149-.454-.327-.735-.478.36-.037.465zm17.017-4.404c-.03.212-.059.432-.114.6-.06.185-.159.358-.196.55l.094.03c.397-.25.495-.726.521-1.191h.001c.014-.237.01-.469.018-.667-.053-.002-.146.021-.174.075-.078.148-.115.372-.148.603h-.002zm-2.488-.003c-.37.537.123 1.222.682 1.646h.014c.205.154.417.272.599.334.081-.11.147-.22.2-.33h.003c.307-.636.172-1.26-.136-1.646h-.008c-.3-.368-.758-.511-1.133-.225a1.02 1.02 0 0 0-.216.22l-.005.001zm-1.502.002a.634.634 0 0 0 .027.561c.218-.264.323-.43.451-.566h.007c.144-.144.319-.254.708-.411-.38-.343-1-.033-1.189.416h-.003zm-3.922.004c-.392.449-.645 1.05-.757 1.653h-.003a3.837 3.837 0 0 0-.047 1.092c.018.15.046.295.085.43l.169.051c.038-.158.06-.319.085-.48.017-.11.034-.222.056-.334a3.85 3.85 0 0 1 .243-.775h.006c.271-.622.69-1.156 1.195-1.648h.009c.242-.234.505-.46.779-.681-.775-.09-1.377.207-1.81.692h-.01zm5.806-1.67h.012c.241.195.476.408.616.687.069.138.09.288.24.362.074-.47-.13-.828-.38-1.038h-.017c-.245-.2-.527-.257-.638-.141l.166.13zm-6.31.01a2.939 2.939 0 0 0-1.045 1.657h-.002a3.91 3.91 0 0 0-.065 1.367.622.622 0 0 0 .08.276h.005a.66.66 0 0 0 .045.049l.12-.044.003-.009h.004c.207-.713.406-1.227.639-1.65h.007c.35-.638.779-1.072 1.425-1.658h.015c.196-.182.413-.375.655-.592-.438-.228-1.086.12-1.465.332a3.048 3.048 0 0 0-.41.271h-.012zm-1.022-1.098a3.01 3.01 0 0 0-.588 1.095h-.001a3.804 3.804 0 0 0-.095 1.65h.003a.384.384 0 0 0 .11.214l.121-.044.051-.171h.004c.218-.718.429-1.228.685-1.653h.005c.248-.408.538-.74.914-1.102h.01c.297-.288.649-.597 1.077-.982-.437-.228-1.085.12-1.465.331a3.017 3.017 0 0 0-.82.663h-.011zM3.731 30.683h-.006a1.576 1.576 0 0 1-.07-.224l-.148-.04c-.092.044-.127.142-.123.253.014.28.274.636.525.43-.052-.142-.122-.28-.178-.42zm14.374-1.671h.009a.416.416 0 0 0 .255.134l.146-.128c-.018-.237.026-.576-.045-.789-.147-.438-.656.416-.364.783zm-15.541.01H2.55c-.174-.127-.446-.205-.529-.003h-.003a.323.323 0 0 0-.018.085c-.026.237.598.578.697.118.012-.055-.046-.133-.133-.2zm1.658 0h-.02c-.388-.184-.732-.555-1.131-.752.014.157.111.289.2.403-.02.122-.136.16-.128.303.172-.014.45-.077.609.036h.011c.06.047.103.125.11.246.007.12-.175.216-.113.327.966-.313 1.724.238 2.65.592.002.122-.172.248-.233.353.038.074.13.074.197.058.685-.15 1.306-1.052 2.095-.798l.066.115c-.095.248-.36.368-.427.631l.09.044c.332-.075.848-.478 1.08-.496.308-.02.421.295.517.588H9.8c.088.28.163.532.375.455-.025-.137-.042-.29-.06-.445h-.002a5.276 5.276 0 0 0-.112-.706c-.073-.047-.154-.005-.227-.043-.052-.244-.016-.496-.028-.743a10.996 10.996 0 0 0-2.321.213c-.291.056-.978.307-1.224.26-.527-.104-1.472-.415-1.967-.636l-.012-.005zm14.868-1.098c-.096.316-.091.81.086 1.088h.009c.108.162.276.243.517.167a1.363 1.363 0 0 1-.057-.157h-.003c-.098-.359-.055-.762-.117-1.097h-.002a.991.991 0 0 0-.08-.255c-.046-.094-.19-.017-.235.03a.578.578 0 0 0-.115.224h-.003zm2.139-1.657c-.026.434-.014 1.049-.006 1.648.005.396.01.785.002 1.108-.013.447-.049.768-.14.81-.192.088-.312-.378-.382-.811h-.002c-.047-.288-.073-.558-.084-.64a7.037 7.037 0 0 1-.05-.457h-.001c-.034-.409-.046-.82-.103-1.227l-.109.068c-.121.25-.155.69-.156 1.156 0 .376.023.766.043 1.09.024.392.043.686.011.731-.141.202-1.716-.216-2.32.128l.015.12c.18.05.37 0 .553 0 .716 0 1.222.16 1.868.45.062.027.382.185.417.19.031.007.07 0 .102 0 1.341-1.175 1.771-1.247 3.495-1.52a.548.548 0 0 0-.003-.09h-.002c-.024-.203-.14-.48-.301-.556-.192-.09-.371.712-.547.212-.023-.065-.044-.455-.067-.752a3.749 3.749 0 0 0-.029-.285l-.124-.008a1.691 1.691 0 0 0-.061.289c-.058.38-.099.948-.172 1.011l-.139-.037c-.103-.196-.165-.56-.204-.97h-.002c-.056-.58-.071-1.244-.104-1.656h-.001l-.01-.11-.108-.076c-.053.03-.093.094-.123.184h-.003c-.11.342-.086 1.044-.072 1.648.012.435.017.815-.037.972-.023.07-.087.11-.16.09-.185-.046-.313-.491-.401-1.052h-.002c-.083-.53-.13-1.163-.156-1.656-.017-.338-.023-.61-.024-.736-.144.013-.197.145-.235.264a2.177 2.177 0 0 0-.066.47zm.582-2.766h.005c.095.238.351.668.625 1.1h.007c.345.547.715 1.097.825 1.279.076.127.154.253.232.379h.005c.338.547.676 1.088.961 1.656h.004c.178.35.336.713.463 1.097h.005l.074.241c.052.18.034.648.299.648a.282.282 0 0 0 .256-.166c.094-.235-.11-.366-.197-.542a.623.623 0 0 1-.05-.171h-.002c-.05-.297-.031-.776-.007-1.105l.021-.24a5.22 5.22 0 0 1 .369-1.417h.003c.232-.57.538-1.112.845-1.661h.007l.069-.125c.024-.043.076-.16.015-.196-.06-.034-.226.113-.263.15a2.29 2.29 0 0 0-.165.184h-.008c-.393.486-.651 1.12-.884 1.658h-.005c-.152.351-.293.66-.457.858-.164.001-.201-.148-.188-.287.017-.2.055-.394.11-.581h.002c.17-.588.486-1.122.779-1.66h.006c.103-.189.202-.378.291-.57.03-.064-.049-.138-.095-.158-.207.143-.422.418-.627.738h-.004c-.346.536-.662 1.201-.864 1.586a.516.516 0 0 1-.043.069h-.006c-.053.058-.117.077-.207.012l-.002-.008h-.005c-.11-.355.22-1.033.527-1.665h.004c.209-.43.407-.838.448-1.107h.002l.003-.037a.439.439 0 0 0-.078.047h-.01c-.245.179-.541.656-.8 1.102h-.004c-.276.473-.508.91-.589.91l-.08-.136c.02-.262.101-.525.201-.781h.003c.154-.394.35-.77.436-1.098h.003c.026-.095.041-.189.043-.277-.112.025-.221.136-.326.285h-.008c-.272.395-.515 1.038-.72 1.102l-.077-.003a.241.241 0 0 1-.073-.076c-.07-.387.09-.707.233-1.037h.007c.053-.127.104-.253.14-.385.015-.055.026-.147-.03-.188-.11-.08-.326.29-.54.588h-.008c-.205.287-.407.498-.51.163a.516.516 0 0 1-.011-.172c.014-.233.1-.575.091-.767-.215-.326-.493.476-.51.618-.004.03.009.08.034.146zm-4.855-2.192a2.822 2.822 0 0 1-.032.361 2.39 2.39 0 0 1-.241.74h-.006c-.235.45-.602.805-1.045 1.104h-.021c-.673.45-1.514.77-2.332 1.098h-.027c-1.085.435-2.124.883-2.66 1.657h-.008a2.062 2.062 0 0 0-.327.79c.103-.053.197-.106.319-.09-.03.38-.173.657-.248.954h-.002c-.065.262-.075.545.097.934.149-.317.27-.658.554-.881l.11.03c-.026.168-.14.612-.197 1.016h-.002c-.046.338-.053.645.068.736.15-.225.29-.656.598-.707l.072.128-.218.986a3.77 3.77 0 0 0-.075.518h-.002c-.03.366-.034.732-.105 1.083-.039.188-.096.38-.161.574h-.003c-.111.33-.241.664-.332.983l-.034.117h-.002c-.152.551-.273 1.1-.368 1.656h-.002a19.36 19.36 0 0 0-.199 1.602l-.003.048c-.026.356-.018.741-.047 1.105a3.678 3.678 0 0 1-.031.267c-.019.116-.383.933-.615 1.391h-.004a1.73 1.73 0 0 1-.17.293c-.47.46-1.314.26-1.867.135l-.006.12c.224.056.466.102.684.181.241.087-.069.2.015.377.235-.105 1.116-.611 1.379-.467.162.09.202.319.438.241.031-.3-.151-.591-.076-.888h.002l.008-.029c.07-.215.556-1.031.563-1.143l.021-.489c.014-.32.025-.635.051-.955a1.43 1.43 0 0 1 .018-.143h.002c.02-.13.056-.295.105-.336.112-.099.146.152.284.113l.08-.128c.003-.292-.082-.931.013-1.306h.003a.507.507 0 0 1 .085-.19c.024-.027.114-.057.146-.039a.572.572 0 0 1 .192.23h.007c.113.228.175.506.276.499.05-.004.09-.137.095-.173.016-.105.02-.21.017-.315h-.001c-.014-.428-.14-.874-.046-1.294.03-.125.11-.305.239-.37h.022a.265.265 0 0 1 .053-.012.157.157 0 0 1 .074.009h.017c.088.051.122.187.245.169a.498.498 0 0 0 .033-.167c.015-.243-.017-.67-.019-1.093-.002-.56.049-1.112.329-1.235l.095.09c.033.237.044.778.154 1.135h.004c.043.14.103.25.185.301.02-.061.048-.172.085-.3h.002c.1-.334.257-.779.468-.775l.059.114c-.017.108-.047.367-.069.67-.027.365-.041.789-.008 1.09.025.203.07.349.15.38.028-.124.058-.25.092-.377h.002c.063-.236.135-.474.226-.697.058-.14.126-.273.204-.405h.005c.375-.624.958-1.144 1.56-1.522.072-.045.163-.088.253-.133h.017c.102-.048.199-.099.268-.156.032-.028.059-.073.087-.105-.425-.378-1.192-.008-1.808.265h-.015c-.273.116-.514.217-.68.221a.73.73 0 0 1 .105-.231h.009c.347-.51 1.31-.988 1.754-1.205l.007-.097c-.806-.262-1.836.251-2.517.632-.035.02-.114.024-.139-.015-.142-.218.482-.622 1.069-.973h.019c.45-.27.874-.505.912-.598-.924-.094-1.584.203-2.402.557-.07.031-.13-.014-.146-.09.365-.401.807-.71 1.28-.962h.014c.231-.118.472-.226.713-.323-.401-.19-1.49.073-2.075.328h-.02c-.093.04-.172.082-.233.12h-.117l-.021-.097a.427.427 0 0 0 .023-.029h.007c.6-.686 1.455-.965 2.261-1.331-.67.021-1.347.071-1.992.27-.168.052-.33.134-.504.166l-.058-.098a3.23 3.23 0 0 1 1.135-.669h.038c.577-.205 1.16-.297 1.738-.631-.909.046-1.819.104-2.721.233.31-.414 2.187-.786 3.591-1.257h.036c.892-.304 1.584-.647 1.546-1.068-.642.576-1.933.912-2.967 1.08h-.064c-.239.037-.463.065-.661.085 0 0 .103-.032.275-.093h.023c.48-.172 1.453-.559 2.236-1.104h.015c.456-.319.843-.69 1.032-1.104h.007c.104-.236.144-.483.098-.74a2.037 2.037 0 0 0-.096-.347h-.005a1.406 1.406 0 0 0-.309-.495c-.009.165-.006.33-.012.495zm-1.28-.002c-.059.277-.2.548-.437.803-.05.053-.25.203-.285.299h-.003a.05.05 0 0 0 .006.04c.105.148.31.095.527-.047h.011c.368-.24.772-.73.816-.946.012-.054.018-.107.021-.16.018-.474-.309-.882-.848-1.108.193.379.264.756.193 1.119h-.002zm-1.261 0c-.07.178-.155.367-.195.59.393.074.685-.218.788-.599h.003c.143-.551-.113-1.284-1.04-1.374.675.61.601.978.446 1.382h-.002zm-1.009-.009h.002c.022.17-.015.345.064.506l.152-.043a.966.966 0 0 0 .218-.463h.002c.095-.62-.489-1.254-1.441-1.283.478.322.85.74.986 1.205a.468.468 0 0 1 .017.078zm-1.292 0h.01c.182.18.36.281.438.174.034-.044.04-.1.027-.163h-.002c-.078-.33-.685-.85-.877-.934l-.125.015c-.04.17.248.628.529.908zm-1.21 0l.003.031c.064.492 1.105.575.81.15a.858.858 0 0 0-.19-.17h-.019c-.251-.173-.617-.315-.604-.01zm14.625-1.642c-.091.432-.073 1.117-.048 1.642.015.333.031.6.024.696l-.109.075c-.18-.014-.308-.35-.396-.76H25a8.347 8.347 0 0 1-.156-1.474l-.111-.083c-.311.046-.177.965-.151 1.546.014.345-.01.565-.191.41-.09-.077-.167-.224-.233-.4h-.003c-.128-.337-.215-.777-.268-.998-.243.069-.104.639-.113 1-.006.175-.05.298-.194.285-.102-.01-.173-.13-.212-.211a.985.985 0 0 1-.03-.075h-.005c-.05-.149-.071-.312-.168-.435l-.11.038c-.022.13-.04.263-.063.394h-.002l-.015.078c-.046.218-.482-.056-.445.271.016.145 1.343.405 1.569.475.264.08.524.17.779.27h.019a12.22 12.22 0 0 1 2.148 1.1h.017l.233.153c.155.104.349.378.553.331.352-.08.226-.29.057-.473h-.013c-.104-.115-.221-.217-.248-.27a8.266 8.266 0 0 1-.358-.831h-.004a6.878 6.878 0 0 1-.298-1.101h-.002a6.589 6.589 0 0 1-.079-1.665h.001c.022-.286.063-.578.12-.876l-.101-.09c-.123.028-.193.186-.234.293-.085.224-.14.45-.174.678h-.002c-.08.542-.04 1.097-.009 1.65h.001c.016.29.03.576.024.86-.005.15-.098.34-.257.174-.146-.153-.268-.692-.328-1.024h-.002a3.643 3.643 0 0 1-.026-.164c-.027-.18-.044-.994-.064-1.493-.01-.216-.02-.372-.031-.387-.146-.007-.235.149-.288.39h-.003zm-21.94-.014c.004.068.032.13.094.183l.109.008c.038-.067.08-.137.134-.194h.012a.342.342 0 0 1 .139-.09c.081-.027.183-.027.255.023a.1.1 0 0 1 .045.07h.002c.009.097-.048.218.056.259.11.043.442-.085.628.007.316.156.277.26.678.226.186-.016.29.079.386.218.154.223.341.021.527.03.148.008.596.266.765.34.64.278 1.814.273 2.101.421.072.037.096.091.085.165h-.002a.074.074 0 0 1-.003.014c-.044.201-.338.363-.517.428-.382.14-.848.182-1.248.25-.503.084-.963.251-1.428.41h-.032c-.532.183-1.07.35-1.678.362-.154.003-.327-.023-.452.09.332.242 2.98-.181 3.722-.464h.029a.421.421 0 0 0 .152-.09c.353-.445.674-.013.988.091h.023a.472.472 0 0 0 .098.012.329.329 0 0 0 .09-.01h.025c.165-.08-.177-.39-.034-.537.286-.296.77.055 1.087-.203l-.007-.159a3.283 3.283 0 0 1-.298-.193h-.011c-.281-.22-.011-.244.352-.534.34-.271.332-.881-.014-.693-.191.468-1.002-.062-1.594-.43h-.019c-.22-.137-.407-.249-.518-.276-.536-.13-.91.09-1.196.275h-.014c-.154.1-.282.189-.395.204-.188.026-1.213-.12-1.56-.203h-.03a.247.247 0 0 1-.052-.013c-.31-.107-.718-.513-1.072-.451-.187.032-.411.252-.409.454zm24.375-2.188c-.028.05-.052.096-.073.145a7.91 7.91 0 0 0-.325.955h-.004c-.098.369-.165.733-.198 1.096a5.898 5.898 0 0 0 .075 1.648h.002c.07.371.175.737.316 1.101h.004c.105.27.229.535.372.8a.591.591 0 0 1 .267.302h.005l.004.02c.325.211.569.637.286.994a1.165 1.165 0 0 0-.264-.467c-.449.372-.408.351-.956.196-.098-.028-.189.092-.24.158-.049.063-.099.135-.151.213h-.009c-.265.411-.566 1.01-.817 1.656h-.005a8.7 8.7 0 0 0-.474 1.654h-.002c-.067.414-.078.792-.004 1.087h.003c.009.03.018.063.029.094.085.248.218.357.218.656.167.249.198.653.035.923h-.007a.616.616 0 0 1-.107.129c-.008-.044-.014-.088-.02-.131h-.003a1.319 1.319 0 0 0-.16-.492c-.886.495-.845-.275-1.139-.527-.903-.116-1.956.146-2.67.715-.13.104-.239.205-.333.3h-.006c-.293.298-.45.563-.683.774-.164.151-.354-.171-.467-.256-.184-.138-.607-.358-1.04-.515h-.036c-.436-.157-.878-.243-1.091-.115a.266.266 0 0 0-.025.107c.01.443 1.03 1.096 1.221 1.344.075.098-.015.223-.108.322h-.01c-.038.042-.075.078-.1.105-.168.186-.498.377-.723.49.029.185.099.345.185.495h.006c.184.312.441.576.553.918-.103.328-.431.499-.67.715 0 .008.002.016.003.023h.002c.061.394.339.707.608.984.042.28-.247.455-.27.633a.212.212 0 0 0 0 .036c.035.246.52.693.671.834.009.067-.012.18-.011.27.001.043.008.08.026.104.274.372.961.152 1.16.573.445.129.983.122 1.349-.196-.22-.141-.459-.263-.624-.47h-.01l-.037-.055c-.466-.172-.773-.419-.963-.88a1.065 1.065 0 0 0-.092-.17h-.007c-.128-.187-.29-.324-.331-.604-.041-.275.002-.483.021-.753.008-.1-.01-.197-.033-.295h-.003c-.053-.225-.133-.449-.014-.674.117-.224.38-.342.495-.542.081-.14.052-.31.138-.453h.007a.38.38 0 0 1 .038-.05c.225-.244.627-.155.854-.383.143-.145.264-.34.503-.301.31.05.65.346.977.158.17-.097.309-.248.519-.12.267.16.33.515.576.698h.017a.517.517 0 0 0 .107.06c.271.107.706-.151.781.278.061.348-.134 1 .293 1.182.12.053.304.028.387.136h.005a.2.2 0 0 1 .038.103c.04.331-.35.951-.241 1.243.04.107.148.204.234.307h.01c.082.107.137.218.07.352-.14.285-.4.452-.527.765h-.005a.973.973 0 0 0-.03.091c.618.449 1.176.784 1.308 1.554h.002c.012.077.02.158.025.244.047-.02.11-.145.226-.246h.014a.524.524 0 0 1 .41-.12.759.759 0 0 1 .27.122h.01c.157.1.303.245.274.35-.023.082-.109.038-.16.037-.306-.005-.56.716-1.105 1.28h-.011c-.447.458-1.089.807-2.11.57-.074-.017-.16-.05-.189-.128.173-.14.436-.27.596-.452h.009a.5.5 0 0 0 .131-.426c-.04-.258-.356-.407-.277-.693.104-.374.76-.314.817.225.172-.33.02-.578-.222-.753h-.01a2.06 2.06 0 0 0-.556-.253.794.794 0 0 0-.341.253h-.008c-.222.28-.271.65-.292.678-.268.331-.787.46-1.16.61-.163.066-.137.253-.221.364h-.005a.209.209 0 0 1-.096.063c-.469.157-1.398.155-1.854.166-.088.086-.133.21-.24.278-.547.008-1.273-.28-1.804-.503h-.026l-.104-.044a.465.465 0 0 0-.076.043h-.013c-.088.064-.16.152-.246.219-.134-.007-.322-.095-.523-.218h-.017c-.398-.244-.85-.621-1.058-.797-.122.003-.289.148-.402.076-.149-.096-.432-.55-.656-.935h-.006c-.121-.208-.223-.396-.278-.494-.111.003-.219.058-.33.03-.129-.202-.207-.842-.253-1.193a4.601 4.601 0 0 0-.024-.167c-.04-.253-.245-.242-.46-.279-.044-.24-.09-.46-.136-.659h-.003c-.371-1.573-.781-1.781-1.002.003h-.001c-.026.208-.049.44-.068.7l-.146.009c-.559-.468-.736-.083-.862.39h-.002c-.03.11-.056.226-.085.338-.13.12-.22-.11-.328-.159-.412-.18-.427.488-.454.723-.245-.01-.515.355-.667.755h-.003c-.151.4-.18.837.058.967.16.09.373.124.503.257.27.015.77.053.753.436h-.001v.005c-.006.078-.005.174-.072.226-.088-.124-.164-.197-.234-.232h-.021a.215.215 0 0 0-.156 0h-.025c-.271.128-.514.702-1.119.503-.325-.106-.412-.312-.451-.503h-.002c-.07-.358.023-.654-.962-.126a.756.756 0 0 1-.022.126h-.002c-.132.526-.732.975-1.13.42-.279.064-.303.296-.284.535-.449-.383-.199-.635.038-.966h.008l.012-.018c.106-.15.116-.297.277-.429-.46-.432-1.71.865-1.604-.844-.171-.107-.428-.159-.599-.022a.712.712 0 0 1 .204-.342h.011c.191-.156.457-.148.715 0h.013c.02.008.037.02.057.033.17 0 .336.045.504.067a1.031 1.031 0 0 1-.053-.09h-.006c-.175-.356-.213-.903.263-1.014.098-.205-.126-.433-.3-.504-.005-.202.524-.04.635.097.237.295.388 1.8 1.386 1.206.245-.146.609-1.135.624-1.45v-.003c.007-.344-.012-.714-.038-1.094-.037-.542-.085-1.105-.087-1.652-.002-.59.052-1.163.232-1.67h.005c.037-.104.078-.202.126-.296.083-.17-.908-.434-.993-.616-.193-.412-.824.229-1.002.363l-.088-.032c-.077-.164-.104-.338-.134-.507h-.002a1.81 1.81 0 0 0-.09-.358c-.1-.248-1.138-.262-1.375-.214-.003-.494.68-.95-.743-.905a1.3 1.3 0 0 0-.07-.18h-.005c-.175-.365-.572-.862-.946-.654a1.25 1.25 0 0 0-.061.644h.002c.117.6.674.826.112 1.208.008-.973-.676-.017-1.197-.742-.136-.19-.169-.339-.147-.468h.002c.069-.355.542-.555.312-1.07a.685.685 0 0 0-.363-.093c-.584.416-1.338.273-1.308-.494.002-.036.006-.074.01-.114-.161-.175-.31-.014-.472-.044-.237-.045.204-.615.79-.401a.712.712 0 0 1 .462.008 1.786 1.786 0 0 0-.15-.537h-.006a.321.321 0 0 0-.052-.073c-.55-.533-.51-1.166.33-1.338a.33.33 0 0 0 .06-.245h-.002c-.026-.127-.127-.234-.238-.323.136-.077.33-.018.45.068.097.07.151.154.179.245h.002c.054.178.01.386.007.574-.002.117.144.448.2.562.109-.477.596-1.103 1.048-.515.263-.025.276-.225.277-.442.058-.02.09.025.116.066.229.353.13.773-.245.975-.01.159-.08.307-.148.45H4.29l-.027.06c.122.236.046.572.354.673.2.065.678.235 1.066.35h.025c.206.056.385.1.48.1l.135-.006a2.61 2.61 0 0 0 .364-.093h.029c.133-.041.267-.086.395-.116a13.252 13.252 0 0 1 1.929-.296l.815-.062c.051-.126-.04-.131.005-.26-.1-.054-.472-.153-.48-.225a1.554 1.554 0 0 1-.012-.13c-.021-.662.378-1.356.376-1.47-.001-.082-.13-.08-.117-.167l.006-.03h.003c.148-.615 1.33-1.044 1.619-1.36.051-.057-.057-.146.021-.219a.487.487 0 0 1 .119-.074h.018c.446-.204 1.627-.417 1.703-.48.059-.05.038-.167.059-.234.35-.254.993-.147 1.43-.39h.019a.786.786 0 0 0 .287-.293c.266-.47-.24-.725-.791-.797h-.095a2.353 2.353 0 0 0-.502.003h-.076c-.051.01-.098.021-.142.034-.173.052-.399.216-.583.173-.213-.05-.6-.164-.984-.21h-.06a2.328 2.328 0 0 0-.431 0h-.072c-.249.043-.449.16-.527.406-.063.2.167.303.125.489l-.11.106c-.584.069-1.408-.66-2.028.098h-.008l-.021.027-.027-.026h-.01c-.219-.207-.455-.435-.774-.438-1.017-.012-3.22.517-3.975-.181-.055-.05-.137-.187-.124-.264.054-.349 1.321-.058 1.493-.228h.008a.046.046 0 0 0 .008-.018c.013-.047-.056-.107-.093-.12-.838-.288-2.298-.86-3.144-.952H1.85a2.773 2.773 0 0 0-.353-.002h-.109c-.198.02-.393.07-.576.155 0-.043.018-.098.044-.162H.86c.168-.393.667-1.099-.464-1.416.159-.164.404-.121.606-.09 1.065.158 2.083.92 3.117 1.504h.018c.728.41 1.463.73 2.228.684.282-.016 1.888-.353 1.917-.502.009-.052-.05-.078-.089-.088-.318-.081-1.106.132-1.296.07-.122-.039-.236-.097-.35-.153h-.027a1.896 1.896 0 0 0-.258-.115c-.115-.04-.223.046-.324.112h-.013c-.088.054-.169.09-.244.003h-.006a.225.225 0 0 1-.032-.047c-.255-.469-.602-.547-1-.136l-.11-.022c-.121-.192-.022-.484-.284-.58-.37-.136-.606.357-.752.038.11-.373-.184-.587-.271-.91h-.002a.691.691 0 0 1 .025-.413c.382-1.09 1.58-.06 1.81-.038.463.045.929.075 1.393.113.887-1.028 1.067-.4 1.776-.523.87-.15 1.187-.107 2.018.342.484.261.773.568 1.358.331.204-.082.43-.292.657-.173.114.061.18.208.328.136.306-.15.517-.45.803-.61.384-.217.413.55.664.625.352.105.736-.651.92-.829.33-.32.774.785.97.95.372.056.495-.507.708-.558.237-.058.41.281.535.637h.005c.099.286.17.579.218.686.178.388.523-.275.766-.105.247.17.22.65.17 1.085h-.001c-.03.268-.07.52-.06.667.022.287.484.095.54.391a.24.24 0 0 1 .005.033c.01.32-.406.874-.563 1.116h-.008a.443.443 0 0 1-.017.029c-.113.185.229.366.299.474.101.155-.104.351-.203.452a2.04 2.04 0 0 1-.158.138h-.007c-.181.138-.384.258-.551.409-.232.21.155.383.058.528-.053.08-.505.386-.868.726h-.014c-.392.373-.674.78-.227.98.406-.084 1.218-.553 1.801-.992h.014c.258-.197.47-.387.579-.534.055-.076.183-.539.328-1.121h.002c.087-.343.178-.73.265-1.102h.002c.095-.408.185-.8.256-1.1h.001c.053-.227.094-.403.116-.488-.09-.117-.172-.347-.217-.605h-.003c-.091-.537-.024-1.19.439-1.2-.067.15-.19.33-.102.498.252-.182.49-.132.693.082.347-.385.7-.734 1.06-1.05h.015c.477-.42.968-.78 1.482-1.1h.018c.701-.433 1.442-.787 2.243-1.099h.026c.441-.17.9-.328 1.38-.478.12-.323.188-.48.547-.55.194-.299.678-.455.957-.173-.181.044-.368.111-.46.286.122.112.192.27.175.437-.02.186-.129.335-.22.492h-.008zm-3.834 1.1c-.567.32-1.1.681-1.614 1.1h-.015a13.86 13.86 0 0 0-1.681 1.653h-.009c-.013.015-.027.03-.04.047l-.026-.045h-.006c-.402-.7-.686-.437-.602-.01h.002c.035.169.13.366.303.537-.031.123-.074.324-.126.573h-.002c-.064.31-.144.694-.23 1.1h-.003c-.076.362-.16.742-.243 1.102h-.003c-.174.744-.354 1.404-.5 1.659h-.006a.338.338 0 0 1-.055.074c-.66.628-1.586.936-2.24 1.529l.009.042h.001l.012.06c.091.014.2-.024.291-.06h.025l.012-.004c.633-.244 1.665-.832 2.174-1.273.091-.08.178-.211.259-.379h.005c.197-.416.361-1.048.491-1.655h.002c.085-.4.156-.79.21-1.1h.001c.044-.242.076-.435.099-.541.036-.177.074-.371.126-.562h.002c.076-.276.18-.547.346-.754.093-.117.191-.234.29-.348h.008a12.375 12.375 0 0 1 1.735-1.658h.013a11.465 11.465 0 0 1 1.698-1.102h.024a10.339 10.339 0 0 1 2.23-.868c.115-.03.287-.116.424-.231h.012c.17-.147.281-.34.162-.527l-.154-.053c-.195.045-.268.28-.329.445-.159.048-.314.098-.468.148h-.04c-.94.315-1.777.669-2.551 1.1h-.023zm-9.947-3.864a.913.913 0 0 0-.228.621c0 .176.044.338.119.472h.008c.123.215.325.353.553.353.229 0 .431-.138.556-.35h.006a.978.978 0 0 0 .12-.475.91.91 0 0 0-.226-.618h-.01a.603.603 0 0 0-.445-.207.614.614 0 0 0-.446.204h-.007zm2.77-1.108h.006c.08.176.21.353.426.48-.633.212-1.14-.119-1.14-.119.007.258.136.52.289.737h.007c.127.177.268.322.371.406-.388.154-.945-.059-.945-.059l-.07.767c-.098 1.207-.076 1.564-.076 1.564h.782s.018-.91.788-1.577h.013c.168-.144.371-.275.617-.383.002-.247.01-.487.023-.716.027-.438.067-.824.104-1.1h.001c.036-.29.066-.463.066-.463s-.575.048-1.383-.117c0 0-.013.282.12.58zm-5.819 0h.002a14.723 14.723 0 0 1 .127 1.816c.27.106.489.24.667.385h.007c.795.657.743 1.575.743 1.575h.783s.026-.411-.073-1.564a37.42 37.42 0 0 0-.075-.767s-.556.213-.944.06a2.17 2.17 0 0 0 .37-.407h.009c.152-.218.28-.48.287-.737 0 0-.506.331-1.139.119.215-.127.347-.304.427-.477h.003c.138-.296.123-.583.123-.583-.808.165-1.382.117-1.382.117s.029.174.065.463zm12.511-1.09c-.238.259-.506.49-.79.697.008.08.041.167.092.218.112.24 1.325-.972 1.53-.87.026.058.041.138.006.196-.22.354-.555.596-.861.859h-.009a2.902 2.902 0 0 0-.393.398c-.008.095.049.174.099.254.393-.16.74-.405 1.08-.662h.012c.207-.16.41-.324.619-.48.232-.145.45-.326.73-.37.063 0 .14.03.19.03a.907.907 0 0 0-.258-.271h-.015a1.212 1.212 0 0 0-.717-.183c-.076-.007-.155.036-.224.03 0-.124.034-.27.034-.4-.007-.311-.07-.645-.252-.884a3.957 3.957 0 0 1-.863 1.438h-.01zm-2.734-.002a2.917 2.917 0 0 1-1.11 1.1h-.02a3.51 3.51 0 0 1-.797.318l-.048.442c.357-.016.866-.233 1.582-.638.036-.014.12-.036.135.022.056.174-.081.298-.204.384-.346.265-.75.453-1.178.575h-.03c-.107.03-.215.056-.325.078l-.018.293a4.01 4.01 0 0 0 1.353-.382h.019a3.72 3.72 0 0 0 1.334-1.1h.008a3.604 3.604 0 0 0 .554-1.101h.003a2.95 2.95 0 0 0 .125-.575c-.02-.225-.18-.18-.238-.094-.076.238-.158.46-.255.675h-.005c-.1.22-.216.43-.358.634-.127.138-.225.348-.497.283-.114-.113.283-.527.373-.796l.046-.127h.004c.128-.337.34-.787.108-.87-.105-.007-.152.03-.222.095a2.914 2.914 0 0 1-.212.548 2.98 2.98 0 0 1-.122.236h-.005zm-13.794-.01h.005c.058.186.13.362.21.532.098.203.213.393.345.57h.008c.352.47.811.843 1.333 1.1h.02c.418.204.877.334 1.352.382l-.019-.293a4.918 4.918 0 0 1-.324-.078h-.03a3.52 3.52 0 0 1-1.177-.575c-.123-.086-.26-.21-.204-.384.014-.058.099-.036.133-.022.717.405 1.226.622 1.582.638l-.046-.442a3.518 3.518 0 0 1-.796-.316h-.021a2.922 2.922 0 0 1-1.11-1.101h-.006a3.278 3.278 0 0 1-.122-.237 2.908 2.908 0 0 1-.211-.548c-.07-.065-.119-.102-.224-.094-.232.082-.019.532.11.869h.003c.019.045.033.088.045.127.09.269.489.683.375.796-.274.065-.372-.145-.498-.283a4.062 4.062 0 0 1-.356-.63h-.006a6.23 6.23 0 0 1-.255-.679c-.058-.086-.22-.131-.24.094.022.196.066.388.124.575zm-1.547.011h-.009a3.924 3.924 0 0 1-.864-1.437c-.182.24-.245.573-.252.884 0 .13.035.276.035.4-.07.006-.147-.037-.225-.03a1.208 1.208 0 0 0-.716.182h-.014a.913.913 0 0 0-.259.271c.049 0 .127-.028.19-.028.28.043.498.224.729.369.209.156.413.32.62.48h.012c.338.257.687.501 1.08.662.05-.08.106-.16.099-.254a2.902 2.902 0 0 0-.394-.398h-.008c-.307-.263-.642-.505-.862-.86-.035-.057-.02-.137.008-.195.204-.102 1.416 1.11 1.53.87a.39.39 0 0 0 .091-.218 5.32 5.32 0 0 1-.791-.698zm-.388-1.667c.224.66.634 1.233 1.138 1.657h.013c.044.038.088.073.133.107l.004-.105c.005-.318-.04-.673.073-.958.042-.138.19-.21.301-.268.478-.24 1.13-.275 1.622-.036.21.13.196.42.28.63.066.233.17.444.303.63h.007c.286.393.705.672 1.175.813-.055-.415-.104-.686-.104-.686s1.57.206 2.614-.125h.027c.066-.02.13-.044.19-.07l.013.068h.002c.037.186.164.693.491 1.1h.005c.255.31.63.563 1.176.563.55 0 .924-.251 1.176-.564h.008c.326-.408.448-.914.482-1.102h.003c.008-.043.01-.065.01-.065.058.024.117.046.178.067h.04c1.043.334 2.614.128 2.614.128s-.047.261-.101.664a2.227 2.227 0 0 0 1.105-.793h.009c.132-.187.235-.396.3-.628.084-.21.07-.5.281-.63.491-.24 1.143-.203 1.62.036.113.058.261.13.303.268.112.285.069.638.073.958 0 .035.002.07.004.105.045-.034.088-.07.133-.107h.012a3.765 3.765 0 0 0 1.137-1.655h.003c.083-.241.141-.498.168-.761.35.13.62.421.81.759h.004l.027.049c.113.268.19.573.232.877.442.102.856.357 1.108.73h.008c.12.182.201.39.231.622.02.148.028.344-.018.49h-.003c-.022.015-.039.012-.053 0h-.01c-.023-.025-.04-.064-.063-.077a.792.792 0 0 0-.632-.166c-.17.07-.33.154-.485.243h-.011c-.449.269-.853.605-1.314.862-.157.088-.311.17-.469.239h-.021a2.49 2.49 0 0 1-.387.142c-.405.09-.87.05-1.231-.144h-.018a1.183 1.183 0 0 1-.274-.208l-.063-.1c-.12.11-.245.213-.371.31h-.017c-.393.29-.819.503-1.275.693-.326.093-.65.191-1.003.224l.008.173h.001l.003.062c-1.25.001-1.638 1.038-1.756 1.605h-.002c-.043.208-.049.35-.049.35h-1.309v.403h-2.346v-.404h-1.281s-.003-.141-.04-.349h-.002c-.107-.567-.476-1.604-1.767-1.605l.003-.062h.001l.009-.167c-.379-.027-.723-.132-1.07-.23a5.96 5.96 0 0 1-1.275-.693h-.017a4.78 4.78 0 0 1-.371-.31l-.064.1a1.165 1.165 0 0 1-.274.208h-.016c-.36.194-.828.234-1.232.144a2.785 2.785 0 0 1-.393-.142h-.015a5.518 5.518 0 0 1-.47-.239c-.461-.256-.865-.593-1.314-.862h-.011a4.135 4.135 0 0 0-.485-.243.79.79 0 0 0-.63.166c-.024.013-.042.052-.063.077h-.011c-.014.012-.031.015-.053 0H2.61a1.234 1.234 0 0 1-.017-.49c.03-.232.111-.44.232-.621h.006c.252-.374.667-.629 1.108-.731.043-.304.12-.609.233-.877l.027-.05h.006c.189-.338.458-.63.808-.758.027.261.083.516.165.759h.005zm7.941-1.093a2.116 2.116 0 0 1 0 0zm.001 0a2.05 2.05 0 0 1 0 0zm3.063.002zm-1.249.004zm1.249-.004h-.003a1.448 1.448 0 0 0-.381-.615c.105-.072.28-.102.316-.261-.035-.073-.112-.137-.204-.116-.688.297-1.606.334-2.329.108-.148-.028-.26-.137-.428-.115-.07.022-.063.101-.056.167.049.145.217.145.336.217a2.143 2.143 0 0 0-.312.613v.002c.071-.224.177-.43.312-.615-.119-.072-.287-.072-.337-.217-.006-.066-.014-.145.056-.167.17-.022.281.087.429.115.723.226 1.641.189 2.33-.108.091-.021.168.043.203.116-.035.16-.211.189-.316.26.105-.071.28-.1.316-.26-.035-.073-.112-.137-.204-.116-.688.297-1.606.334-2.329.108-.148-.028-.26-.137-.428-.115-.07.022-.063.101-.056.167.049.145.217.145.336.217a2.143 2.143 0 0 0-.312.613v.002c.071-.224.177-.43.312-.615-.119-.072-.287-.072-.337-.217-.006-.066-.014-.145.056-.167.17-.022.281.087.429.115.723.226 1.641.189 2.33-.108.091-.021.168.043.203.116-.035.16-.211.189-.316.26.105-.071.28-.1.316-.26-.035-.073-.112-.137-.204-.116-.688.297-1.606.334-2.329.108-.148-.028-.26-.137-.428-.115-.07.022-.063.101-.056.167.049.145.217.145.336.217a2.143 2.143 0 0 0-.312.613h-.002a2.05 2.05 0 0 0-.085.406c-.013.229-.01.47.041.687h.002c.061.25.19.469.434.592.076.022.133.088.21.073-.077.015-.134-.051-.21-.073-.245-.123-.373-.341-.434-.593.061.252.19.47.434.593.076.022.133.088.21.073-.077.015-.134-.051-.21-.073-.245-.123-.373-.341-.434-.592v-.001c.061.252.19.47.434.593.076.022.133.088.21.073a2.463 2.463 0 0 1-.145-.655c-.03-.37.009-.752.095-1.11v-.001a3.608 3.608 0 0 0-.095 1.11v.001c-.03-.37.009-.752.095-1.11v-.001a3.608 3.608 0 0 0-.095 1.11v.001c-.03-.37.009-.752.095-1.11h.001c.037-.148.082-.294.133-.432.008-.124.127-.036.19-.036.133.036.295.021.42.065-.025.139-.055.273-.079.41v.002c.024-.139.054-.273.08-.412-.126-.044-.288-.03-.421-.065-.063 0-.182-.088-.19.036a3.956 3.956 0 0 1 0 0c.008-.124.127-.036.19-.036.133.036.295.021.42.065-.025.139-.055.273-.079.41v.002c.024-.139.054-.273.08-.412-.126-.044-.288-.03-.421-.065-.063 0-.182-.088-.19.036.008-.124.127-.036.19-.036.133.036.295.021.42.065-.025.139-.055.273-.079.412h-.002c-.008.044-.017.09-.024.136-.033.31-.038.634-.02.955.016.291.052.578.105.846.14.036.301.044.449.022.065-.282.102-.574.12-.87v.002a5.311 5.311 0 0 1-.12.868 1.163 1.163 0 0 0 0 0c.065-.282.102-.574.12-.87v.002a5.311 5.311 0 0 1-.12.868 1.163 1.163 0 0 0 0 0c.065-.282.102-.574.12-.87a6.737 6.737 0 0 1-.032-1.086 7.903 7.903 0 0 0-.06-.423c.183-.028.372-.05.554-.065.092.139.133.305.19.464a.113.113 0 0 0 .003.012h.004c.104.344.11.738.056 1.11h-.001c-.031.218-.083.43-.146.619l.14-.015c.274-.096.415-.358.506-.614-.091.256-.232.518-.506.614l-.14.015c.063-.189.114-.4.145-.619h.001c-.031.218-.083.43-.146.619l.14-.015c.274-.096.415-.358.506-.614-.091.256-.232.518-.506.614l-.14.015.14-.015c.274-.096.415-.358.506-.614h.003a1.831 1.831 0 0 0 0-1.09l.001-.001zm.046-5.521h-.003c-.088.503-.084 1.039-.127 1.534-.076.4-.049.914-.304 1.22h-.018a.674.674 0 0 1-.203.148c.014-.043.026-.085.037-.128h.005c.183-.696.2-1.44.192-2.178.01-.198.017-.395.036-.59.034-.344.101-.676.263-.97.226-.485.694-.823 1.262-.789.377.028.714.258.815.61.042.197-.028.405-.178.501a.583.583 0 0 1-.037-.182c-.088-.243-.278-.46-.552-.484-.377-.057-.706.134-.886.439a2.583 2.583 0 0 0-.302.869zm-2.74.006c.018.195.027.393.037.59-.009.738.009 1.482.19 2.178h.006c.011.043.023.085.036.128a.666.666 0 0 1-.203-.15h-.018c-.253-.304-.226-.818-.303-1.218-.042-.495-.039-1.031-.127-1.538h-.004a2.565 2.565 0 0 0-.302-.865.864.864 0 0 0-.885-.44c-.272.025-.462.242-.553.485a.555.555 0 0 1-.036.182c-.15-.096-.22-.304-.178-.501.1-.352.438-.582.815-.61.568-.034 1.035.304 1.262.79.162.293.229.625.262.969h.001zm2.124-2.768h-.006c-.01-.015-.02-.03-.032-.045A1.322 1.322 0 0 0 14.411.95a1.226 1.226 0 0 0-.78.503h-.009c-.037.06-.07.12-.098.184-.168.36-.069.844.236 1.143.013-.103.037-.17.121-.204.102-.048.198.006.29.068.062.05.095.143.101.232.038.433-.039.891-.098 1.34h-.001c-.027.2-.05.399-.056.592-.01.445.006 1.205.035 1.633.022.173.039.349.065.521h.003c.024.146.054.286.103.416.03.06.067.118.146.113.052-.004.055-.066.072-.102a3.942 3.942 0 0 1-.07-.4h-.003c-.072-.587-.063-1.306-.049-1.778.018-.343.063-.676.11-1.003h.001c.055-.385.11-.766.13-1.155-.005-.294 0-.588-.167-.822a.477.477 0 0 0-.328-.147c-.118.009-.214.063-.363.197-.03-.046-.034-.107-.051-.16-.005-.277.094-.556.339-.681h.014l.01-.004c.222-.139.565-.143.804-.038a.578.578 0 0 1 .079.04h.018c.298.177.427.516.423.925-.035.644-.299 1.036-.403 1.65-.015.065-.027.132-.041.205h-.002c-.144.775-.181 1.88-.111 2.744h.002c.013.157.03.305.05.442.023.04.054.099.11.074.067-.012.061-.08.085-.13-.002-.106-.001-.24.002-.383h.001c.01-.423.037-.946.056-1.249.068-.52.072-1.008.16-1.508h.003c.019-.104.042-.21.07-.314.132-.584.507-1.164.437-1.795a1.603 1.603 0 0 0-.24-.649zm-2.595-.007c.216-.431.695-1.087 1.62-1.089 1.018.002 1.467.654 1.652 1.09h.005c.09.212.117.37.117.37s.319-.13.578-.173c.471-.043.913.087 1.243.355.42.363.68.957.513 1.544-.107.326-.408.609-.759.623-.175.022-.322-.058-.483-.087a.526.526 0 0 0-.17.142h-.009c-.114.147-.19.35-.278.507l.175-.086c.245-.102.555-.066.793-.218 0 .181-.063.355-.119.515-.175.478-.688.58-1.109.818.197-.036.415-.021.597-.094.105-.043.204-.102.301-.123a1.578 1.578 0 0 1-.497.826c-.162.145-.38.196-.576.261-.063.015-.113.036-.133.109.203-.05.441-.008.638-.037-.038.107-.09.203-.153.292h-.015c-.311.416-.871.665-1.282.932.02.079.077.13.148.159.147.058.245.239.42.188a.47.47 0 0 1 .456.217c.023.045.038.09.046.138h.001c.01.052.007.11-.012.171.196.257.341.582.41.926h.002a2.106 2.106 0 0 1-.073 1.115h-.005c-.19.518-.602.894-1.056 1.142v.396c0 .041-.002.081-.005.12H16a1.463 1.463 0 0 1-.65 1.1h-.015c-.242.166-.511.25-.725.25-.166-.002-.417-.085-.656-.25h-.015a1.497 1.497 0 0 1-.65-1.101 1.466 1.466 0 0 1-.004-.119v-.396c-.457-.248-.868-.623-1.057-1.142h-.004a2.122 2.122 0 0 1-.075-1.115h.004c.069-.347.213-.67.409-.926a.367.367 0 0 1-.013-.174h.002a.537.537 0 0 1 .045-.135.47.47 0 0 1 .457-.217c.175.05.272-.13.42-.188.071-.03.127-.08.148-.16-.412-.266-.974-.515-1.286-.933h-.014a1.136 1.136 0 0 1-.155-.29c.197.03.435-.014.639.037-.021-.073-.07-.094-.134-.109-.196-.065-.413-.116-.575-.26a1.593 1.593 0 0 1-.498-.827c.098.021.197.08.301.123.183.073.401.058.596.094-.42-.239-.932-.34-1.107-.818-.056-.16-.12-.334-.12-.515.239.152.547.116.793.218l.176.086c-.088-.156-.163-.36-.28-.507h-.008a.509.509 0 0 0-.168-.142c-.162.03-.31.109-.486.087-.35-.014-.652-.297-.756-.623-.17-.587.09-1.181.511-1.544.33-.268.772-.398 1.242-.355.26.044.58.173.58.173s.042-.158.146-.37h.004z" mask="url(#b)"/>
        </g>
    </g>
</svg>
