<svg xmlns="http://www.w3.org/2000/svg" width="85" height="77" viewBox="0 0 85 77">
    <g fill="none" fill-rule="nonzero">
        <path fill="#FFF" d="M13 0v4.234H9.266V24H3.734V4.234H0V0zM19.555 24H14V0h5.555C25.589 0 28 .898 28 6.154v4.868c0 4.836-2.159 5.995-7.574 5.995h-.859L19.555 24zm0-11.213h1.262c1.262 0 1.654-.35 1.654-1.733v-5.16c0-1.377-.41-1.664-1.654-1.664h-1.262v8.557zM41.365 0L45 24h-5.66l-.63-5.861h-3.509L34.572 24H29l3.54-24h8.825zM38.22 14.1L37.02 2.79 35.723 14.1h2.497zM51.567 9.27h2.866V0H60v24h-5.567V13.488h-2.866V24H46V0h5.567zM70.133 8.197V5.82c0-1.314-.273-1.631-1.344-1.631-1.07 0-1.284.311-1.284 1.63v12.399c0 1.313.213 1.63 1.284 1.63 1.07 0 1.344-.31 1.344-1.63v-3.224H75v2.433C75 22.717 73.96 24 68.917 24 63.38 24 62 22.873 62 17.427V6.573C62 1.25 63.217 0 68.917 0 74.117 0 75 1.6 75 6.573v1.624h-4.867zM14.176 27v1.79c5.478 0 7.824 1.275 7.824 6.155v7.499c0 4.867-2.44 6.186-7.824 6.186V51H8.855v-2.37C3.44 48.63 1 47.317 1 42.444v-7.5c0-4.899 2.346-6.154 7.855-6.154V27h5.321zm-5.321 6.02h-.878c-1.245 0-1.655.351-1.655 1.766v7.69c0 1.407.435 1.726 1.655 1.726h.878V33.021zm5.321 11.182h.847c1.245 0 1.662-.35 1.662-1.758v-7.722c0-1.408-.436-1.701-1.662-1.701h-.847v11.181zM38 33.57v10.86c0 5.6-1.229 6.57-6.985 6.57S24 49.874 24 44.43V33.57c0-5.288 1.265-6.57 7.015-6.57C36.673 27 38 28.288 38 33.57zm-8.434-.752v12.395c0 1.313.307 1.662 1.45 1.662 1.142 0 1.418-.343 1.418-1.662V32.824c0-1.313-.276-1.692-1.419-1.692-1.142 0-1.45.348-1.45 1.692v-.006zM46.555 51H41V27h5.555c6.034 0 8.445.898 8.445 6.154v4.868c0 4.836-2.159 5.995-7.574 5.995h-.859L46.555 51zm0-11.213h1.262c1.262 0 1.654-.35 1.654-1.733v-5.16c0-1.377-.41-1.664-1.654-1.664h-1.262v8.557zM8.894 53l3.094 18.935L15.254 53H23v24h-4.888l.31-20.317L14.815 77H8.808L5.294 56.683 5.664 77H1V53zM37.356 53L41 77h-5.674l-.63-5.861h-3.518L30.548 77H25l3.55-24h8.806zm-3.152 14.1L33 55.79 31.701 67.1h2.503zM53 53v4.234h-3.734V77h-5.532V57.234H40V53zM68 59.57v10.86c0 5.6-1.229 6.57-6.985 6.57S54 75.874 54 70.43V59.57c0-5.288 1.265-6.57 7.015-6.57C66.673 53 68 54.282 68 59.57zm-8.434-.752v12.395c0 1.313.307 1.662 1.45 1.662 1.142 0 1.418-.343 1.418-1.662V58.818c0-1.313-.276-1.693-1.419-1.693-1.142 0-1.45.349-1.45 1.693zM76.555 77H71V53h5.555c6.034 0 8.445.898 8.445 6.154v4.868c0 4.836-2.159 5.995-7.574 5.995h-.871V77zm0-11.213h1.262c1.262 0 1.654-.35 1.654-1.733v-5.16c0-1.377-.41-1.664-1.654-1.664h-1.262v8.557zM68 33v10l9-5.2z"/>
        <path fill="#E1D6D5" d="M69 34l7.017 5 .983-.543z"/>
        <path fill="#E51F1F" d="M68.7 41.34v-7.2l7.294 3.594L68.7 41.34zm16.017-8.453s-.264-1.766-1.075-2.542a3.966 3.966 0 0 0-2.704-1.088C77.158 29 71.494 29 71.494 29s-5.666 0-9.445.257a3.966 3.966 0 0 0-2.704 1.088c-.81.776-1.075 2.542-1.075 2.542a36.78 36.78 0 0 0-.27 4.15v1.92a36.77 36.77 0 0 0 .27 4.15s.264 1.766 1.075 2.542c1.03 1.02 2.376.99 2.975 1.094 2.156.196 9.18.257 9.18.257s5.672 0 9.45-.269a3.966 3.966 0 0 0 2.705-1.088c.81-.776 1.075-2.542 1.075-2.542.168-1.378.258-2.764.27-4.15v-1.944a36.85 36.85 0 0 0-.27-4.15l-.013.03z"/>
    </g>
</svg>
