<svg xmlns="http://www.w3.org/2000/svg" xmlns:xlink="http://www.w3.org/1999/xlink" width="220" height="150" viewBox="0 0 220 150">
  <defs>
    <polygon id="logo-2-a" points="0 29.835 158.364 29.835 158.364 0 0 0"/>
  </defs>
  <g fill="none" fill-rule="evenodd" transform="translate(31 60)">
    <path fill="#FEFEFE" d="M152.697514,13.0882714 C153.826371,14.6778429 156.452229,18.2253429 158.364086,20.1601286 L152.951014,20.1601286 C152.559086,19.3077 151.9833,17.9026286 150.3018,15.3689143 L147.860014,11.7063429 L149.9793,8.96498571 C151.246371,7.32934286 152.881586,5.14105714 153.319371,4.03534286 L157.097229,4.03534286 L157.097229,4.05848571 C155.577086,4.93384286 153.020014,7.51362857 152.282657,8.31998571 L150.601371,10.1167714 L152.697514,13.0882714 Z M144.128443,5.83212857 C144.128443,4.95677143 144.013157,4.72641429 143.207014,4.54212857 L143.207014,4.03534286 L148.505229,4.03534286 L148.505229,4.54212857 C147.698871,4.72641429 147.583586,4.95677143 147.583586,5.83212857 L147.583586,18.3633429 C147.583586,19.2387 147.698871,19.4690571 148.505229,19.6533429 L148.505229,20.1601286 L143.207014,20.1601286 L143.207014,19.6533429 C144.013157,19.4690571 144.128443,19.2387 144.128443,18.3633429 L144.128443,5.83212857 Z M136.273371,11.8443429 L130.053729,11.8443429 L130.053729,18.3633429 C130.053729,19.2387 130.1688,19.4690571 130.975157,19.6533429 L130.975157,20.1601286 L125.676943,20.1601286 L125.676943,19.6533429 C126.4833,19.4690571 126.598371,19.2387 126.598371,18.3633429 L126.598371,5.83212857 C126.598371,4.95677143 126.4833,4.72641429 125.676943,4.54212857 L125.676943,4.03534286 L130.975157,4.03534286 L130.975157,4.54212857 C130.1688,4.72641429 130.053729,4.95677143 130.053729,5.83212857 L130.053729,10.7847 L136.273371,10.7847 L136.273371,5.83212857 C136.273371,4.95677143 136.158086,4.72641429 135.351943,4.54212857 L135.351943,4.03534286 L140.649943,4.03534286 L140.649943,4.54212857 C139.8438,4.72641429 139.728729,4.95677143 139.728729,5.83212857 L139.728729,18.3633429 C139.728729,19.2387 139.8438,19.4690571 140.649943,19.6533429 L140.649943,20.1601286 L135.351943,20.1601286 L135.351943,19.6533429 C136.158086,19.4690571 136.273371,19.2387 136.273371,18.3633429 L136.273371,11.8443429 Z M118.213586,13.2494143 L116.048229,6.75355714 L113.813871,13.2494143 L118.213586,13.2494143 Z M120.332871,20.1601286 C120.194657,19.2847714 119.687871,17.6724857 119.250086,16.3822714 L118.559229,14.3322 L113.4453,14.3322 C112.915586,15.9447 112.523871,17.2576286 112.316657,18.1792714 C112.132157,19.1004857 111.994157,19.7915571 111.971014,20.1601286 L109.045586,20.1601286 C109.437086,19.5382714 110.174443,18.1100571 111.279943,15.4147714 L114.251443,8.08962857 C114.919586,6.4542 115.034657,5.94741429 115.034657,5.48648571 C115.034657,5.1642 114.942729,4.72641429 114.113229,4.54212857 L114.113229,4.03534286 L118.720371,4.03534286 C118.789586,4.5192 118.835657,5.07205714 119.3193,6.43105714 L122.705443,16.0829143 C123.373371,17.9716286 124.087586,19.5841286 124.433229,20.1601286 L120.332871,20.1601286 Z M102.042729,19.1463429 C104.139086,19.1463429 104.968371,17.7414857 104.968371,14.9311286 C104.968371,12.3052714 104.254157,10.8307714 101.535943,10.8307714 L100.130657,10.8307714 L100.130657,17.7414857 C100.130657,18.7782 100.407086,19.1463429 101.558871,19.1463429 L102.042729,19.1463429 Z M101.282443,5.04891429 C100.269086,5.04891429 100.130657,5.30241429 100.130657,5.99348571 L100.130657,9.8172 L101.029371,9.8172 C105.452014,9.8172 108.584871,10.3239857 108.584871,14.7699857 C108.584871,19.1004857 106.143086,20.1601286 102.204086,20.1601286 L95.7543,20.1601286 L95.7543,19.6533429 C96.5602286,19.4690571 96.6755143,19.2387 96.6755143,18.3633429 L96.6755143,5.83212857 C96.6755143,4.95677143 96.5602286,4.72641429 95.7543,4.54212857 L95.7543,4.03534286 L107.755371,4.03534286 C107.709514,5.21027143 107.709514,6.36184286 107.755371,7.53677143 L106.880229,7.53677143 L106.673014,6.86884286 C106.166014,5.21027143 105.590229,5.04891429 103.494086,5.04891429 L101.282443,5.04891429 Z M88.0374429,12.7657714 C90.1796571,12.7657714 90.6862286,11.0382 90.6862286,8.5272 C90.6862286,6.40812857 89.9493,5.04891429 87.7839429,5.04891429 L87.4153714,5.04891429 C86.7243,5.04891429 86.4018,5.1642 86.4018,5.92427143 L86.4018,12.7657714 L88.0374429,12.7657714 Z M82.0250143,20.1601286 L82.0250143,19.6533429 C82.8313714,19.4690571 82.9464429,19.2387 82.9464429,18.3633429 L82.9464429,5.83212857 C82.9464429,4.95677143 82.8313714,4.72641429 82.0250143,4.54212857 L82.0250143,4.03534286 L88.7053714,4.03534286 C91.9072286,4.03534286 94.3029429,4.79562857 94.3029429,8.66541429 C94.3029429,12.6044143 91.9072286,13.7793429 88.0143,13.7793429 L86.4018,13.7793429 L86.4018,18.3633429 C86.4018,19.2387 86.5168714,19.4690571 87.3232286,19.6533429 L87.3232286,20.1601286 L82.0250143,20.1601286 Z M73.5249429,5.04891429 C72.8340857,5.04891429 72.7190143,5.2332 72.7190143,5.78605714 L72.7190143,10.7847 L74.8612286,10.7847 C75.7595143,10.7847 77.1648,10.6925571 77.7174429,10.3010571 L77.7174429,12.3282 C77.1648,11.9364857 75.7595143,11.8443429 74.8612286,11.8443429 L72.7190143,11.8443429 L72.7190143,17.8565571 C72.7190143,18.8242714 73.1105143,19.1463429 75.2295857,19.1463429 L75.6905143,19.1463429 C77.7866571,19.1463429 78.3395143,19.0083429 78.8000143,17.0043429 L78.9384429,16.4054143 L79.9518,16.4054143 C79.9059429,17.6493429 79.9059429,18.9162 79.9518,20.1601286 L68.3422286,20.1601286 L68.3422286,19.6533429 C69.1481571,19.4690571 69.2636571,19.2387 69.2636571,18.3633429 L69.2636571,5.83212857 C69.2636571,4.95677143 69.1481571,4.72641429 68.3422286,4.54212857 L68.3422286,4.03534286 L79.5834429,4.03534286 C79.5373714,5.21027143 79.5373714,6.36184286 79.5834429,7.53677143 L78.7080857,7.53677143 L78.5006571,6.86884286 C77.9938714,5.21027143 77.4178714,5.04891429 75.3217286,5.04891429 L73.5249429,5.04891429 Z M59.9801571,19.1463429 C62.0765143,19.1463429 62.9058,17.7414857 62.9058,14.9311286 C62.9058,12.3052714 62.1918,10.8307714 59.4735857,10.8307714 L58.0683,10.8307714 L58.0683,17.7414857 C58.0683,18.7782 58.3447286,19.1463429 59.4965143,19.1463429 L59.9801571,19.1463429 Z M59.2200857,5.04891429 C58.2065143,5.04891429 58.0683,5.30241429 58.0683,5.99348571 L58.0683,9.8172 L58.9668,9.8172 C63.3894429,9.8172 66.5225143,10.3239857 66.5225143,14.7699857 C66.5225143,19.1004857 64.0805143,20.1601286 60.1415143,20.1601286 L53.6917286,20.1601286 L53.6917286,19.6533429 C54.4978714,19.4690571 54.6129429,19.2387 54.6129429,18.3633429 L54.6129429,5.83212857 C54.6129429,4.95677143 54.4978714,4.72641429 53.6917286,4.54212857 L53.6917286,4.03534286 L65.6930143,4.03534286 C65.6471571,5.21027143 65.6471571,6.36184286 65.6930143,7.53677143 L64.8178714,7.53677143 L64.6104429,6.86884286 C64.1034429,5.21027143 63.5276571,5.04891429 61.4315143,5.04891429 L59.2200857,5.04891429 Z M51.7335857,17.9945571 L52.2403714,18.9622714 C50.7660857,19.9066286 48.7850143,20.4365571 46.7349429,20.4365571 C41.8976571,20.4365571 39.1104429,17.8565571 39.1104429,12.3052714 C39.1104429,6.98391429 41.3448,3.75891429 47.0576571,3.75891429 C49.5913714,3.75891429 51.2960143,4.31177143 51.7565143,4.49605714 C51.7106571,5.57884286 51.7106571,6.77648571 51.7565143,7.85927143 L50.7200143,7.85927143 L50.4435857,6.8457 C50.0752286,5.64784286 49.3610143,4.81855714 47.1727286,4.81855714 C43.7403,4.81855714 42.8649429,7.35248571 42.8649429,11.7063429 C42.8649429,15.8525571 43.7173714,18.9393429 47.7024429,18.9393429 C49.5913714,18.9393429 50.7660857,18.4784143 51.7335857,17.9945571 Z"/>
    <mask id="logo-2-b" fill="#fff">
      <use xlink:href="#logo-2-a"/>
    </mask>
    <polygon fill="#FEFEFE" points="40.354 25.804 158.364 25.804 158.364 24.191 40.354 24.191" mask="url(#logo-2-b)"/>
    <path fill="#FEFEFE" d="M9.43485,8.91975 L23.3602071,0.909107143 C22.7782071,0.568178571 22.1734929,0.263892857 21.5464929,0.000107142857 L9.43485,6.96675 L4.04192143,3.86432143 C3.65749286,4.28689286 3.29642143,4.73175 2.95977857,5.19375 L9.43485,8.91975 Z M26.2901357,3.12953571 C25.85985,2.71425 25.4040643,2.32425 24.9277071,1.96060714 L9.43485,10.8723214 L2.03835,6.61746429 C1.75935,7.10603571 1.50563571,7.61282143 1.27956429,8.13375 L9.43485,12.8236071 L26.2901357,3.12953571 Z M9.43485,14.77575 L0.684278571,9.74367857 C0.512635714,10.3010357 0.372278571,10.8723214 0.26385,11.45475 L9.43485,16.7298214 L28.48785,5.77082143 C28.1734929,5.29575 27.83535,4.83846429 27.4727786,4.40175 L9.43485,14.77575 Z M31.0479214,14.3126786 C31.0479214,22.88475 24.0975643,29.8351071 15.5239929,29.8351071 C6.94999286,29.8351071 6.42857143e-05,22.88475 6.42857143e-05,14.3126786 C6.42857143e-05,13.9633929 0.01335,13.6181786 0.03585,13.2763929 L9.43485,18.6823929 L29.3434929,7.23160714 C30.4324929,9.35432143 31.0479214,11.7618214 31.0479214,14.3126786 L31.0479214,14.3126786 Z" mask="url(#logo-2-b)"/>
  </g>
</svg>
