<svg xmlns="http://www.w3.org/2000/svg" width="220" height="150" viewBox="0 0 220 150">
  <path fill="#FFF" fill-rule="evenodd" d="M139.919138,103.739626 C138.308486,103.74681 137.057074,102.51249 137.050434,100.910111 C137.043794,99.3091855 138.293832,98.0275318 139.871364,98.0179096 C141.451878,98.0082614 142.729771,99.2951541 142.730445,100.89704 C142.731094,102.453226 141.46565,103.732727 139.919138,103.739626 L139.919138,103.739626 Z M134.070179,68.1445062 C133.861835,67.5464479 133.760348,66.9249693 133.713637,66.2970326 C133.567176,64.3277635 133.618893,62.3553043 133.646981,60.3838566 C133.657045,59.6771004 133.717476,58.9719782 133.863858,58.2773601 C133.98249,57.7145228 134.161059,57.1744574 134.49221,56.697961 C135.134308,55.7740686 136.00083,55.2218392 137.13483,55.1101069 C137.708223,55.0535923 138.277959,55.0611916 138.833846,55.215433 C140.074728,55.5597075 140.90372,56.3566951 141.336981,57.5630306 C141.586771,58.2584527 141.688129,58.986269 141.722235,59.719402 C141.770995,60.7687469 141.790913,61.8194145 141.814697,62.5943305 C141.794181,63.7200829 141.790472,64.5701096 141.759868,65.4191507 C141.730846,66.2231669 141.65838,67.0239151 141.450737,67.8063266 C141.198016,68.7584374 140.690189,69.532731 139.863272,70.0819259 C139.365949,70.412195 138.808843,70.5696006 138.218721,70.6242737 C137.572474,70.6841859 136.931465,70.6572384 136.31756,70.4353818 C135.205554,70.0335034 134.459012,69.2605066 134.070179,68.1445062 L134.070179,68.1445062 Z M134.341003,84.9725134 C134.278445,85.8672278 134.150866,86.7515418 133.903333,87.615574 C133.673099,88.4193827 133.346124,89.1778293 132.847348,89.8554853 C132.205562,90.727376 131.365054,91.3323074 130.357362,91.713022 C129.543568,92.0204415 128.697951,92.1902964 127.832155,92.2166215 C126.710786,92.2507014 125.588223,92.2446324 124.46618,92.255707 C124.388942,92.2564592 124.311705,92.2557849 124.202514,92.2557849 L124.202514,103.571638 L119.678471,103.571638 C119.63993,103.438431 119.622786,74.9489212 119.663428,74.5945316 C119.710554,74.5903819 119.760299,74.582238 119.810044,74.5822639 C122.255991,74.5830939 124.701938,74.5798 127.147885,74.5885404 C128.071829,74.5918343 128.984517,74.700558 129.87503,74.9633935 C131.55296,75.4586934 132.765183,76.4895459 133.490224,78.0878005 C133.863106,78.9097125 134.082992,79.773978 134.212698,80.6628828 C134.421534,82.0941613 134.441738,83.5317682 134.341003,84.9725134 L134.341003,84.9725134 Z M120.461427,55.2432105 C120.948324,59.0470111 121.435298,62.8516157 121.922117,66.654742 C121.932414,66.656376 121.937912,66.6587621 121.942529,66.657595 C121.94826,66.6561426 121.953966,66.6525375 121.958376,66.6484396 C121.963018,66.6441342 121.966753,66.6385061 121.969684,66.6328261 C121.972588,66.6271202 121.974637,66.6207658 121.975986,66.6144634 C121.980032,66.5954523 121.983793,66.5763634 121.987242,66.5572226 C122.668503,62.807732 123.349739,59.0581895 124.031233,55.3087248 C124.033515,55.2961977 124.03974,55.2842931 124.044849,55.2724144 C124.047391,55.2665269 124.051619,55.2613916 124.062123,55.2446888 L126.691074,55.2446888 C127.384058,59.0549216 128.076991,62.8647393 128.769923,66.6745312 C128.783047,66.6745312 128.796196,66.6745312 128.809346,66.6745053 C129.296476,62.8690447 129.783606,59.0635842 130.272214,55.2465821 L132.91626,55.2465821 C131.943971,60.3152299 130.973368,65.3751632 130.001027,70.4442 L127.50741,70.4442 C126.788957,66.6351085 126.069933,62.8228527 125.350883,59.0105969 C125.335918,59.0103894 125.320979,59.0102079 125.305988,59.0100004 C124.600269,62.8198441 123.894524,66.6296878 123.187587,70.4459637 L120.694747,70.4459637 C119.735815,65.3797279 118.777713,60.3178235 117.817199,55.2432105 L120.461427,55.2432105 Z M119.172537,47.6391106 C117.983294,44.8641394 115.981993,42.9364458 113.145243,41.8935071 C112.30183,41.5834162 111.422884,41.4231576 110.524435,41.3624414 C109.167126,41.2707576 107.846076,41.4427911 106.560454,41.8819137 C105.202756,42.3456235 104.003682,43.0771745 102.958461,44.0578149 C101.547128,45.3818999 100.590089,46.9821515 100.085841,48.8497515 C99.884059,49.5971234 99.7737791,50.3601348 99.7581397,51.1355954 C99.7552608,51.2780879 99.7559092,51.421929 99.7363793,51.5625799 C99.6561593,52.1400451 99.1710782,52.5365807 98.5929646,52.5050685 C98.0328246,52.4745418 97.5918347,52.0195983 97.5767918,51.4457641 C97.5626567,50.9065286 97.6021054,50.3691346 97.6723142,49.8350344 C97.8089969,48.7954415 98.0735701,47.7888391 98.4692758,46.8167057 C98.8775863,45.8135529 99.4108047,44.8821909 100.067634,44.0220492 C100.999048,42.8023566 102.118887,41.7893999 103.428811,40.9895335 C104.560814,40.2982611 105.774333,39.8052176 107.067555,39.5065905 C108.122969,39.2628958 109.191791,39.1570768 110.272674,39.2047991 C112.616615,39.3082578 114.764687,40.0113311 116.694248,41.3528451 C118.616106,42.6889644 120.042664,44.4353135 120.979603,46.580714 C121.041849,46.7232583 121.10062,46.8673847 121.15729,47.0122373 C121.211367,47.1504503 121.260593,47.2905566 121.318586,47.4479363 C122.058229,47.2412263 122.773752,47.0412597 123.52989,46.8299331 C123.249885,47.8872403 122.958442,48.905047 122.678722,49.9258882 C122.399988,50.9431503 122.11534,51.9587784 121.823016,53.0120396 C120.312139,51.4880658 118.825617,49.9886793 117.312614,48.4626047 C117.983345,48.2902081 118.62508,48.1252551 119.287901,47.9549074 C119.246377,47.840374 119.214709,47.7374858 119.172537,47.6391106 L119.172537,47.6391106 Z M116.870457,57.4089707 C116.591749,57.4187486 116.309332,57.4119015 116.027304,57.4131205 C115.735368,57.4143914 115.443406,57.4134058 115.151445,57.4134058 L114.281966,57.4134058 L114.281966,70.4167338 C114.130655,70.4627443 112.226356,70.4764126 111.907499,70.4366527 L111.907499,57.4150398 L109.382603,57.4150398 L109.382603,55.2816735 L116.870457,55.2816735 L116.870457,57.4089707 Z M115.889687,103.572676 C114.389393,103.572676 112.887309,103.572676 111.385225,103.572806 C111.364217,103.49313 111.351094,93.9136663 111.351249,85.789731 L111.351249,85.625193 C111.351275,85.515743 111.351275,85.4065524 111.351275,85.2976471 C111.351301,85.188664 111.351301,85.0799662 111.351301,84.9716056 C111.351301,84.8092721 111.351327,84.6477167 111.351379,84.4869913 L111.351379,84.4866541 C111.351483,84.0042704 111.351612,83.5295118 111.35182,83.0647385 C111.351846,83.0128925 111.351872,82.9611761 111.351898,82.9095893 C111.351949,82.8069865 111.352001,82.7048764 111.352053,82.603311 L111.352053,82.6026886 C111.352105,82.5011232 111.352157,82.4000765 111.352209,82.2996263 C111.352235,82.2490511 111.352261,82.1986575 111.352313,82.1484194 C111.35239,81.9985093 111.352468,81.849896 111.352572,81.7026314 L111.352572,81.7020608 C111.352624,81.6039449 111.352702,81.5064773 111.352779,81.4096323 L111.352779,81.4089839 C111.352857,81.3121648 111.352935,81.2159941 111.353013,81.1204977 L111.353013,81.1197974 C111.353143,80.9764232 111.353246,80.8345273 111.353376,80.6942654 L111.353376,80.6937466 C111.353454,80.6002733 111.353532,80.5075002 111.353635,80.4154792 C111.354154,79.9082228 111.354699,79.4232973 111.355373,78.9652674 C111.355503,78.8822203 111.355632,78.8000291 111.355736,78.7187457 C111.356644,78.1484648 111.357655,77.6229754 111.358797,77.1516144 C111.358874,77.1179494 111.358952,77.0845698 111.35903,77.0514755 C111.359289,76.9521406 111.359549,76.8553214 111.359834,76.7611478 C111.360327,76.5727487 111.360897,76.3947758 111.361468,76.2279554 C111.361857,76.1167418 111.362246,76.010456 111.362661,75.9093834 C111.362765,75.8840958 111.362869,75.8591713 111.362972,75.8345321 C111.36318,75.7853056 111.363387,75.7373499 111.363595,75.6907429 C111.366707,75.0150062 111.370416,74.6196636 111.374799,74.5871658 L115.878327,74.5871658 C115.917517,74.7299176 115.928954,103.305224 115.889687,103.572676 L115.889687,103.572676 Z M103.772022,103.615989 C102.512699,99.6438378 101.251794,95.6666809 99.9879327,91.680213 L97.4248847,91.680213 L97.4248847,103.547155 C97.2718363,103.591998 93.1772671,103.605589 92.8755016,103.565881 L92.8755016,74.5958544 C92.9207859,74.5913934 92.9700643,74.5823158 93.0193168,74.5823417 C95.5302594,74.5831457 98.0412798,74.5758058 100.552145,74.5907191 C101.540903,74.5965806 102.516849,74.7276352 103.461646,75.0436395 C104.943188,75.539121 106.01974,76.4868227 106.677711,77.9058594 C107.046339,78.7009017 107.260026,79.5406837 107.38898,80.4037302 C107.589231,81.7439474 107.616853,83.0920232 107.538112,84.4417071 C107.479418,85.4474276 107.334721,86.4407507 107.003545,87.3993455 C106.515714,88.8114313 105.643227,89.9067348 104.340565,90.6507351 C104.295877,90.6762561 104.253005,90.7049673 104.190162,90.7441307 C105.627276,95.0301595 107.064287,99.3157992 108.506173,103.615989 L103.772022,103.615989 Z M90.2720713,78.6641245 L85.4281071,78.6641245 C85.4278218,80.3327952 85.4280034,81.9840111 85.4279774,83.635201 C85.4279515,85.2961428 85.4279774,86.9570588 85.4279774,88.6179747 L85.4279774,93.5812963 L85.4279774,98.5640959 L85.4279774,103.533953 L80.8734332,103.533953 C80.8732516,101.882712 80.8733813,100.231548 80.8733553,98.5803837 C80.8733294,96.9194419 80.8733553,95.258526 80.8733553,93.5975841 L80.8733553,88.6342625 L80.8733553,83.6514888 L80.8733553,78.668378 L76.0396618,78.668378 C76.0003169,78.5200759 75.9890866,74.8204343 76.0260454,74.5541752 L90.264057,74.5541752 C90.3016642,74.691662 90.3114421,78.4054647 90.2720713,78.6641245 L90.2720713,78.6641245 Z M77.1775004,63.8356278 C77.1801977,62.6810087 77.178849,61.526208 77.1990791,60.3718482 C77.2113728,59.671602 77.2763684,58.9743903 77.4125843,58.2843887 C77.6138218,57.2649221 78.0861684,56.4130021 78.9186104,55.7753914 C79.3936284,55.4115351 79.9375324,55.2112314 80.5244642,55.129922 C81.2126502,55.0345812 81.8983982,55.0502206 82.5648498,55.2672531 C83.5967398,55.603306 84.3317143,56.2783424 84.7722633,57.2666339 C85.0579484,57.9074867 85.1697067,58.5929754 85.2388002,59.2855186 C85.3574574,60.475281 85.3425442,61.6694785 85.3551751,63.1892507 C85.3456825,63.7126652 85.3419477,64.5626659 85.3114729,65.411733 C85.282658,66.2157232 85.2103484,67.0163678 85.0038978,67.7990905 C84.7507364,68.7588005 84.2391746,69.5377366 83.4046836,70.0885915 C82.9065308,70.4174341 82.3482323,70.5726351 81.75824,70.6258299 C81.11871,70.6834597 80.4839521,70.656201 79.8759603,70.4379235 C78.7853512,70.0463936 78.0412991,69.296013 77.6442188,68.2062599 C77.4567015,67.6916117 77.3603752,67.1562666 77.2981806,66.6138928 C77.1923098,65.6906488 77.1753218,64.7634106 77.1775004,63.8356278 L77.1775004,63.8356278 Z M87.2294146,55.2866792 L89.3215166,55.2866792 C90.4985704,58.2540696 91.6795924,61.2314972 92.8606144,64.2089247 C92.874542,64.2054753 92.8884437,64.2019998 92.9023454,64.1985503 L92.9023454,55.2846821 L95.2851123,55.2846821 C95.3237569,55.4169298 95.3378402,70.1806383 95.296161,70.4886543 L93.1865003,70.4886543 C92.0046743,67.509515 90.820929,64.5254737 89.6371578,61.5414324 C89.6246048,61.5437926 89.6120518,61.5461528 89.5994987,61.548513 L89.5994987,70.4204945 C89.4388771,70.4621996 87.472435,70.4707066 87.2294146,70.4341369 L87.2294146,55.2866792 Z M102.952081,51.1752516 C102.986887,50.8015137 103.003797,50.4216809 103.086404,50.0575653 C103.637518,47.6285027 105.070742,45.9347778 107.384648,45.0098479 C108.33069,44.6317009 109.32435,44.5070525 110.34322,44.5946903 C112.071155,44.7433036 113.538095,45.4478811 114.733356,46.6940025 C115.873788,47.8829868 116.506731,49.3109974 116.628267,50.959464 C116.633999,51.0370905 116.646085,51.1146132 116.646111,51.1921878 C116.646215,51.3302192 116.572453,51.4061858 116.432735,51.4167677 C116.374665,51.4211509 116.316023,51.4181423 116.257641,51.4181423 C114.097613,51.4181682 111.937584,51.4181682 109.77753,51.4181682 C107.63047,51.4181682 105.483383,51.4181682 103.336323,51.4181682 C103.284425,51.4181682 103.232423,51.4201134 103.180655,51.4175458 C103.013083,51.4093759 102.936571,51.3418126 102.952081,51.1752516 L102.952081,51.1752516 Z M97.4535439,59.8411716 C97.4536996,59.6247356 97.453907,59.412216 97.4541405,59.2044945 C97.4542701,59.1008283 97.4543998,58.9983551 97.4545295,58.8971788 C97.4546073,58.8464479 97.4546851,58.7960543 97.4547629,58.7460237 C97.4548407,58.6960191 97.4549185,58.6463776 97.4549964,58.5970992 C97.455152,58.4985424 97.4553335,58.4013861 97.4555151,58.30576 C97.4559819,58.0667338 97.4565006,57.8372779 97.4570972,57.6191302 C97.4573306,57.5318555 97.45759,57.4464223 97.4578493,57.3628824 C97.457979,57.3211255 97.4581087,57.2798094 97.4582384,57.239038 C97.4584977,57.1574433 97.458783,57.0778457 97.4590942,57.0002971 C97.4593795,56.9227744 97.4596908,56.8473524 97.460002,56.7741092 C97.4606245,56.6276226 97.4612988,56.4899283 97.462025,56.3619082 C97.4623881,56.2978982 97.4627512,56.2363001 97.4631143,56.1772438 C97.4635293,56.1181616 97.4639183,56.0616471 97.4643074,56.0077261 C97.4675753,55.5765919 97.4715695,55.3143789 97.4763676,55.277835 L103.809474,55.277835 C103.849545,55.4193159 103.85966,57.1398587 103.820652,57.4073886 L99.8672006,57.4073886 C99.8252102,57.5628231 99.8127609,61.4382849 99.8508609,61.728431 L103.222412,61.728431 C103.265336,61.8817388 103.275088,63.6084025 103.236392,63.8700708 L99.8667856,63.8700708 C99.8251842,64.0265687 99.8132796,68.0244225 99.852028,68.3139462 L101.827418,68.3139462 L103.808332,68.3139462 C103.849337,68.4619629 103.858726,70.1915833 103.820989,70.443422 C101.710888,70.443422 99.5990482,70.443422 97.4871829,70.4434479 C97.4638924,70.355032 97.4502501,64.2759693 97.4535439,59.8411716 L97.4535439,59.8411716 Z M142.012122,95.4364989 C140.589609,95.4364989 139.165282,95.4364989 137.740954,95.4365767 C137.719272,95.3547486 137.706148,88.1188362 137.70716,82.194404 L137.70716,82.1942743 C137.707185,82.0773807 137.707211,81.9610318 137.707237,81.8452275 L137.707237,81.845046 C137.707263,81.7292676 137.707315,81.6140858 137.707367,81.4995265 L137.707367,81.4992671 C137.707367,81.4229375 137.707419,81.3468672 137.707445,81.271134 C137.707549,80.9677346 137.70773,80.6691852 137.707964,80.3767568 C137.708015,80.267229 137.708119,80.1585312 137.708223,80.050793 C137.708404,79.8349536 137.708612,79.6228749 137.708819,79.4149718 C137.708923,79.3112278 137.709053,79.2085472 137.709183,79.1069818 C137.709494,78.8694858 137.709805,78.6380847 137.710168,78.4136086 C137.710272,78.3496245 137.710376,78.286159 137.710505,78.223342 C137.710557,78.191752 137.710609,78.1603175 137.710661,78.1290128 C137.710765,78.0667664 137.710868,78.0051165 137.710972,77.9440631 C137.71105,77.9133549 137.711102,77.8828282 137.711154,77.8524571 C137.711283,77.7920263 137.711413,77.7322438 137.711543,77.6730837 C137.711672,77.6137421 137.711802,77.555049 137.711906,77.4970301 C137.711958,77.4680337 137.712035,77.4391928 137.712113,77.4105595 C137.712373,77.2959483 137.712658,77.1840085 137.712943,77.0748957 C137.712995,77.0476369 137.713073,77.0205597 137.713151,76.9936382 C137.71328,76.939795 137.713436,76.8866781 137.713592,76.8343133 C137.713825,76.7557531 137.714058,76.6788529 137.714292,76.6036384 C137.715122,76.3530707 137.715978,76.1216437 137.716911,75.9118214 C137.717378,75.8069103 137.717871,75.7073938 137.718364,75.6135833 C137.718571,75.5760279 137.718779,75.5394063 137.719012,75.5037183 C137.722228,74.9506071 137.726171,74.621142 137.730865,74.5871658 L142.000969,74.5871658 C142.04021,74.7299695 142.051389,95.1723147 142.012122,95.4364989 L142.012122,95.4364989 Z M145.898969,56.7180615 C145.499944,54.6495612 144.365477,53.1183253 142.511053,52.1289704 C141.566152,51.6248782 140.544844,51.4161193 139.475061,51.4168455 C134.848882,51.4199838 130.222702,51.4181682 125.596523,51.4181682 C125.538141,51.4181682 125.479681,51.4197763 125.421351,51.4177273 C125.248903,51.4116583 125.187123,51.3536913 125.175348,51.1867931 C125.171691,51.1350508 125.172469,51.0830232 125.170809,51.0311511 C125.137974,50.0173127 125.01911,49.0143673 124.793207,48.024753 C124.29661,45.8490852 123.371603,43.8728134 122.01987,42.0986868 C121.021619,40.7884516 119.84415,39.662803 118.486322,38.7278878 C115.983887,37.0048292 113.210498,36.1046942 110.177178,36.0074601 C108.940549,35.9678299 107.71611,36.0867205 106.505988,36.3491929 C104.338361,36.8193608 102.365331,37.7186141 100.586588,39.0410132 C99.0233207,40.2032316 97.7194399,41.609819 96.6877315,43.2621242 C95.201339,45.6425309 94.4197315,48.2384657 94.3463066,51.0454678 C94.3373587,51.387849 94.3091144,51.4181423 93.9613644,51.4181423 C89.1664971,51.4181682 84.3716298,51.4178051 79.5767366,51.4193094 C79.350004,51.4193872 79.1227009,51.428802 78.8966167,51.4463866 C77.7029898,51.5392634 76.6163749,51.937433 75.6611518,52.654408 C73.9752595,53.9198257 73.053831,55.6106718 73.0190508,57.7259087 C72.9828441,59.931377 73.0093767,62.1378568 73.0093507,64.3438957 C73.0091951,76.7495544 73.008832,89.155265 73.0115812,101.56095 C73.011659,101.916973 73.0122815,102.278469 73.069626,102.628087 C73.4665766,105.047631 74.80184,106.744857 77.0513995,107.714086 C77.8480499,108.057323 78.6910998,108.180233 79.5576217,108.18 C89.5366817,108.177355 99.5157158,108.178314 109.494776,108.178314 C119.467326,108.178314 129.439902,108.178522 139.412478,108.177069 C139.665069,108.177043 139.919112,108.172167 140.170095,108.146335 C142.098307,107.947899 143.636494,107.056322 144.781568,105.500188 C145.615644,104.366655 146.003102,103.080203 146.003232,101.675224 C146.003414,99.6703704 146.00331,97.6654652 146.00331,95.66056 C146.00331,83.1186076 146.003232,70.5766552 146.003673,58.0347288 C146.003699,57.592857 145.98282,57.1527749 145.898969,56.7180615 L145.898969,56.7180615 Z M102.568799,80.0328246 C102.267993,79.3922312 101.789111,78.9528752 101.094,78.7826831 C100.844054,78.7214742 100.583164,78.6792763 100.326605,78.6756971 C99.3991075,78.6627032 98.4712988,78.669654 97.5436197,78.6698874 C97.5066349,78.6698874 97.4696761,78.6781351 97.4263889,78.6832704 L97.4263889,87.5453444 C97.4869495,87.5453444 97.5252311,87.5453704 97.5635126,87.5453444 C98.4717397,87.5450591 99.3799927,87.546745 100.288194,87.5426212 C100.456155,87.5418431 100.625518,87.5274745 100.791664,87.5023944 C101.62491,87.3765529 102.223279,86.9368079 102.570536,86.1620216 C102.84302,85.5541075 102.943444,84.9081194 102.984268,84.2524831 C103.041093,83.3391207 103.059482,82.4247987 102.95509,81.5124478 C102.896552,81.0008082 102.788944,80.5016698 102.568799,80.0328246 M129.340541,80.0877363 C129.095731,79.5501348 128.727699,79.1288303 128.17547,78.8887407 C127.837601,78.7417872 127.481163,78.6749242 127.115517,78.67259 C126.194452,78.6668062 125.27336,78.6696592 124.352269,78.6696073 C124.308541,78.6696073 124.264813,78.6750798 124.212137,78.6785812 L124.212137,88.1293247 C124.271504,88.1293247 124.315881,88.1293507 124.360257,88.1293247 C125.255387,88.1291691 126.150542,88.1311403 127.045671,88.1269646 C127.220091,88.1261606 127.396119,88.1124145 127.568437,88.0855188 C128.111511,88.0007859 128.581264,87.7722897 128.942034,87.3468873 C129.184458,87.0609947 129.347207,86.7311406 129.464878,86.3772178 C129.65045,85.8191009 129.733627,85.2418432 129.767318,84.6583609 C129.824922,83.6605249 129.844815,82.6619109 129.735754,81.6656829 C129.676257,81.1222977 129.568778,80.5888977 129.340541,80.0877363 M137.866269,68.5016865 C138.380606,68.4606817 138.759012,68.2126816 138.974489,67.7377155 C139.033104,67.6084764 139.081475,67.4729348 139.118849,67.3360187 C139.289248,66.7118168 139.326803,66.0696672 139.347863,65.4282179 C139.375148,64.5984991 139.380932,63.768106 139.395975,62.9379982 C139.391436,62.9379204 139.386871,62.9378685 139.382281,62.9378166 C139.382281,62.6069769 139.387182,62.2760594 139.381347,61.9453235 C139.36454,60.9856912 139.360105,60.0251772 139.234912,59.0711731 C139.185893,58.6977464 139.113558,58.3295589 138.965281,57.97976 C138.807616,57.6077858 138.538141,57.3684742 138.145003,57.2716551 C138.07591,57.2546411 138.005623,57.2389758 137.935,57.232414 C137.191803,57.1633982 136.726693,57.4045512 136.458385,58.0366117 C136.325359,58.3500224 136.25209,58.6772829 136.199699,59.0107162 C136.094762,59.6786981 136.062342,60.3532677 136.054302,61.0272667 C136.040141,62.2076921 136.03874,63.3884547 136.050593,64.5688802 C136.057829,65.288345 136.090042,66.0082507 136.199933,66.7215428 C136.254372,67.0747134 136.32842,67.4233711 136.483698,67.7485049 C136.681305,68.1621842 136.992796,68.432178 137.458918,68.4912084 C137.593163,68.5081965 137.73148,68.512424 137.866269,68.5016865 M79.7500124,66.7155957 C79.8076163,67.094832 79.8871361,67.4685439 80.0664317,67.8123516 C80.2726748,68.2077979 80.5937107,68.4459423 81.0409512,68.4971399 C81.162643,68.5110676 81.2876286,68.5118975 81.409865,68.5025087 C81.9238388,68.4630082 82.3045794,68.2194172 82.521975,67.7453329 C82.5837286,67.6106472 82.6331367,67.4685698 82.6722742,67.3255327 C82.8429331,66.7016162 82.8788804,66.0595963 82.8994995,65.4184582 C82.9267842,64.5697024 82.9326457,63.7202463 82.9477145,62.8710755 C82.9423717,62.8710236 82.9370548,62.8709458 82.931712,62.870868 C82.931712,62.4234978 82.9392853,61.9759721 82.9300781,61.5287834 C82.9124934,60.6735436 82.9128047,59.8169033 82.7884156,58.9674731 C82.7318751,58.581286 82.6479462,58.2037356 82.4589505,57.8557003 C82.286917,57.538866 82.0248596,57.3397812 81.676954,57.2700653 C81.4885289,57.2323024 81.2900925,57.2170261 81.0984254,57.2286714 C80.6374907,57.2566563 80.2898445,57.4733257 80.076469,57.8945524 C79.9342878,58.17518 79.8480765,58.4721732 79.7899539,58.7787887 C79.6529858,59.5013139 79.6168311,60.2337986 79.6065085,60.9657905 C79.590091,62.1325996 79.5904282,63.2998496 79.5993761,64.4667883 C79.6051598,65.2185434 79.6368277,65.9702986 79.7500124,66.7155957"/>
</svg>
