<svg xmlns="http://www.w3.org/2000/svg" xmlns:xlink="http://www.w3.org/1999/xlink" width="220" height="150" viewBox="0 0 220 150">
  <defs>
    <polygon id="logo-6-a" points=".032 33.866 .032 .398 16.295 .398 32.557 .398 32.557 33.866"/>
  </defs>
  <g fill="none" fill-rule="evenodd" transform="translate(43 56)">
    <mask id="logo-6-b" fill="#fff">
      <use xlink:href="#logo-6-a"/>
    </mask>
    <path fill="#FFF" d="M16.946746,15.6260957 L16.946746,20.2004185 L27.8613651,20.2004185 C27.5268968,22.7661513 26.6729127,24.6437117 25.3738571,25.9641293 C23.7775556,27.5631182 21.2900476,29.3107141 16.946746,29.3107141 C10.2276032,29.3107141 4.97448413,23.8815021 4.97448413,17.1510475 C4.97448413,10.4200603 10.2276032,4.99138094 16.946746,4.99138094 C20.5663413,4.99138094 23.2208175,6.42258792 25.1696667,8.263396 L28.380881,5.04677563 C25.6711032,2.40647306 22.0328968,0.398415638 16.946746,0.398415638 C7.74009524,0.398415638 0,7.91025486 0,17.1324051 C0,26.3545553 7.74009524,33.8658619 16.946746,33.8658619 C21.9212302,33.8658619 25.6711032,32.229588 28.6036825,29.1807496 C31.6107063,26.1686635 32.5572143,21.9107295 32.5572143,18.4895749 C32.5572143,17.4296189 32.4833016,16.4442326 32.3158016,15.6260957 L16.946746,15.6260957" mask="url(#logo-6-b)"/>
    <path fill="#FFF" d="M46.1893939 29.2985912C42.9713971 29.2985912 40.1923132 26.63868 40.1923132 22.8409091 40.1923132 19.0063483 42.9713971 16.383227 46.1893939 16.383227 49.4068671 16.383227 52.185951 19.0063483 52.185951 22.8409091 52.185951 26.63868 49.4068671 29.2985912 46.1893939 29.2985912zM46.1893939 12.1818182C40.320635 12.1818182 35.530303 16.6581003 35.530303 22.8409091 35.530303 28.968533 40.320635 33.5 46.1893939 33.5 52.0581529 33.5 56.8484848 28.986928 56.8484848 22.8409091 56.8484848 16.6581003 52.0581529 12.1818182 46.1893939 12.1818182L46.1893939 12.1818182zM93.6710056 29.0947784C90.4223515 29.0947784 87.9488483 26.3756596 87.9488483 22.7139892 87.9488483 18.997791 90.4223515 16.3332 93.6710056 16.3332 96.8821182 16.3332 99.3926341 19.0523188 99.3926341 22.750341 99.4111404 26.4301874 96.8821182 29.0947784 93.6710056 29.0947784zM99.0785552 14.538457L98.912527 14.538457C97.8608387 13.3056098 95.8304299 12.1818182 93.2649238 12.1818182 87.9123644 12.1818182 83.2424242 16.7678643 83.2424242 22.7139892 83.2424242 28.6237622 87.9123644 33.2461602 93.2649238 33.2461602 95.8304299 33.2461602 97.8608387 32.1223686 98.912527 30.8531695L99.0785552 30.8531695 99.0785552 32.3217844C99.0785552 36.3459348 96.8821182 38.5031577 93.3569267 38.5031577 90.4778705 38.5031577 88.6875153 36.4731663 87.9488483 34.7506077L83.8515469 36.4186385C85.0327795 39.2099417 88.1518892 42.6363636 93.3569267 42.6363636 98.8755143 42.6363636 103.545455 39.4457094 103.545455 31.669009L103.545455 12.7255381 99.0785552 12.7255381 99.0785552 14.538457 99.0785552 14.538457zM69.5378788 29.2985912C66.3198819 29.2985912 63.5413218 26.63868 63.5413218 22.8409091 63.5413218 19.0063483 66.3198819 16.383227 69.5378788 16.383227 72.7558757 16.383227 75.5349596 19.0063483 75.5349596 22.8409091 75.5349596 26.63868 72.7558757 29.2985912 69.5378788 29.2985912zM69.5378788 12.1818182C63.6691198 12.1818182 58.8787879 16.6581003 58.8787879 22.8409091 58.8787879 28.968533 63.6691198 33.5 69.5378788 33.5 75.4066377 33.5 80.1969697 28.986928 80.1969697 22.8409091 80.1969697 16.6581003 75.4066377 12.1818182 69.5378788 12.1818182L69.5378788 12.1818182z"/>
    <polygon fill="#FFF" points="106.591 33.5 111.667 33.5 111.667 1.015 106.591 1.015"/>
    <path fill="#FFF" d="M124.76132,16.181408 C126.616073,16.181408 128.200996,17.1537131 128.723113,18.5296561 L119.26826,22.510851 C119.26826,18.0340433 122.383935,16.181408 124.76132,16.181408 Z M125.085321,29.2985912 C122.744051,29.2985912 121.087414,28.2164419 120.00655,26.0700129 L134,20.1804723 L133.532055,18.970084 C132.667364,16.585046 130.002092,12.1818182 124.581262,12.1818182 C119.196031,12.1818182 114.712121,16.4930712 114.712121,22.8409091 C114.712121,28.8218989 119.142374,33.5 125.085321,33.5 C129.875691,33.5 132.649307,30.5095051 133.801885,28.785109 L130.235807,26.3632811 C129.04763,28.1244671 127.426592,29.2985912 125.085321,29.2985912 L125.085321,29.2985912 Z"/>
  </g>
</svg>
