<svg xmlns="http://www.w3.org/2000/svg" width="220" height="150" viewBox="0 0 220 150">
  <path fill="#FFF" fill-rule="evenodd" d="M82.4650002,100.93 C68.4010833,100.93 57,89.5289171 57,75.4650002 C57,61.4010833 68.4010833,50 82.4650002,50 C96.5282718,50 107.929355,61.4010833 107.929355,75.4650002 C107.929355,89.5289171 96.5282718,100.93 82.4650002,100.93 Z M88.6655893,84.4252063 L83.3915398,84.4252063 L83.3915398,64.496216 L81.4365153,64.496216 L81.4365153,86.3937805 L83.3915398,86.3937805 L83.3915398,86.3795856 L88.6655893,86.3795856 L88.6655893,84.4252063 Z M101.827485,76.2792711 L101.822968,76.3366959 C101.367441,86.6344485 92.8743763,94.8429703 82.4650002,94.8429703 C71.762693,94.8429703 63.08703,86.1666621 63.08703,75.4650002 C63.08703,64.7633382 71.762693,56.0876752 82.4650002,56.0876752 C82.774707,56.0876752 83.0831234,56.0947726 83.3896041,56.1089675 L83.392185,54.168138 C83.0844138,54.1545883 82.7753522,54.1481361 82.4650002,54.1481361 C70.6916235,54.1481361 61.1474908,63.6922687 61.1474908,75.4650002 C61.1474908,87.2377316 70.6916235,96.7818642 82.4650002,96.7818642 C94.2377316,96.7818642 103.781864,87.2377316 103.781864,75.4650002 C103.781864,75.0817379 103.772186,74.7029923 103.751539,74.3248918 L88.69656,74.3248918 L88.69656,76.2792711 L101.827485,76.2792711 Z M74.5132769,70.3961314 C76.1669824,70.3961314 77.507755,69.0553589 77.507755,67.4010082 C77.507755,65.7466574 76.1669824,64.4058849 74.5132769,64.4058849 C72.8589262,64.4058849 71.5181536,65.7466574 71.5181536,67.4010082 C71.5181536,69.0553589 72.8589262,70.3961314 74.5132769,70.3961314 Z M120.574427,87.9642523 L120.574427,62.7908927 L127.256353,62.7908927 L127.256353,82.4695366 L138.769705,82.4695366 L138.769705,87.9642523 L120.574427,87.9642523 Z M160.755665,64.5633192 C162.69843,66.104756 163.493989,67.6171577 163.862411,70.5187237 L156.774641,70.5187237 C156.361054,68.5217598 154.747997,67.2042153 152.602632,67.2042153 C149.167467,67.2042153 147.115659,70.2851532 147.115659,75.4475791 C147.115659,78.5646495 147.869924,80.9668132 149.297157,82.3940456 C150.214018,83.3109069 151.405744,83.7954691 152.742645,83.7954691 C158.004435,83.7954691 157.955399,78.194937 157.955399,78.194937 L152.856204,78.194937 L152.856204,73.7467724 L163.934031,73.7467724 L163.934031,87.9642523 L158.368986,87.9642523 L158.368986,84.9336417 C158.368986,84.9336417 156.950787,88.6275411 150.788911,88.6275411 C147.982193,88.6275411 145.527121,87.6545454 143.687591,85.8150158 C141.342852,83.4702769 140.050472,79.7505686 140.050472,75.3430531 C140.050472,71.2162094 141.271878,67.8152411 143.580484,65.5059894 C145.791017,63.296102 148.970674,62.1276039 152.777487,62.1276039 C155.983598,62.1276039 158.668369,62.9470366 160.755665,64.5633192 Z"/>
</svg>
