<svg xmlns="http://www.w3.org/2000/svg" width="80" height="80" viewBox="0 0 80 80">
    <g fill="none" fill-rule="evenodd">
        <path fill="#FFF" d="M0 80h80V0H0z"/>
        <path fill="#000" d="M15 15h5.233v43.588H28V64H15zM52 15h13v5.343h-7.856v15.711h7.343v5.717h-7.343v16.811H65V64H52zM33.106 64V58.638l1.68-.007c2.207-.01 5.941-1.51 6.491-4.901.534-3.283.14-5.66-4.189-12.873l-.056-.121c-3.014-4.793-5.87-8.978-4.804-15.546 1.159-7.139 6.881-10.283 12.088-10.188L45.997 15V20.361l-1.681.006c-2.205.012-6.044 1.488-6.595 4.877-.532 3.284-.165 5.409 4.051 12.525l.113.183c3.131 4.919 5.952 9.265 4.885 15.833-1.159 7.14-6.777 10.306-11.984 10.213l-1.68.001"/>
    </g>
</svg>
