<svg xmlns="http://www.w3.org/2000/svg" width="220" height="150" viewBox="0 0 220 150">
  <g fill="#FFF" transform="translate(75 41)">
    <path d="M37.7881968,30.9282209 L44.2009714,39.6204198 C46.2174327,42.3582865 48.2410194,45.0820767 50.2503554,47.8269816 C50.4313504,48.1119953 50.759036,48.2724756 51.0982667,48.2422365 C52.4663253,48.2422365 53.8343839,48.1929689 55.2024425,48.2422365 C55.914973,48.2422365 55.9791007,48.0099753 55.9791007,47.4258032 C55.9791007,37.9664386 55.9791007,28.5141122 55.9791007,19.0547477 C55.9199667,18.1417998 56.2781891,17.2507325 56.9552675,16.6265626 C61.2304506,12.4951288 65.42013,8.30738923 69.6454359,4.14076435 C69.7083671,4.08909023 69.7750486,4.0420427 69.8449445,4 C70.0872048,4.21818475 69.9732,4.48563702 69.9732,4.70382177 C69.9732,21.2530177 69.9732,37.8022135 69.9732,54.3514094 C69.9732,55.0130019 69.6026841,55.2804542 69.2606694,55.6464415 C66.6290568,58.2365056 64.0211951,60.8336079 61.4370844,63.4377485 C59.7270112,65.1339589 58.0026874,66.8090547 56.3068648,68.5193416 C55.9419311,68.8701654 55.4381857,69.0429034 54.9316809,68.9909022 L4.14963141,68.9909022 L4,68.821985 C5.85970463,66.9990866 7.74791048,65.2254558 9.60048981,63.4377485 C14.1939365,58.928597 18.7778828,54.4100612 23.3523287,49.8821412 C23.6302477,49.6107285 23.7735214,49.2324772 23.7442204,48.8475232 C23.7442204,41.4996239 23.7442204,34.1517246 23.7442204,26.8108636 C23.7442204,26.1070418 23.8867265,25.8958953 24.620633,25.9099717 C26.6442196,25.9615853 28.6678063,25.9615853 30.6913929,25.9099717 C31.4039234,25.9099717 31.5250536,26.1070418 31.5250536,26.7545578 C31.5250536,33.5957054 31.5250536,40.436853 31.4894271,47.2709624 C31.4894271,48.0944339 31.6960609,48.3196569 32.5225963,48.2774275 C34.0260357,48.2070454 35.5437257,48.2211218 37.0542904,48.2774275 C37.7240691,48.2774275 37.8451992,48.0873957 37.8380739,47.4750707 C37.8380739,42.2386368 37.8380739,37.0022028 37.8380739,31.7657688 C37.7881968,31.5475841 37.7881968,31.3575522 37.7881968,30.9282209 Z"/>
    <path d="M65,0.0708080452 C63.0938694,1.96249576 61.3002778,3.72760213 59.51372,5.5067731 C56.3766932,8.63614497 53.2537338,11.7795814 50.095606,14.8948887 C49.7814661,15.2094985 49.6241417,15.6478565 49.6665507,16.0903791 C49.6665507,23.0382878 49.6665507,29.9861966 49.6665507,36.9341054 C49.6665507,37.2153972 49.6665507,37.4966891 49.6665507,37.946756 C48.6748001,36.6246843 47.7604201,35.4362263 46.8530738,34.219639 C45.1227855,31.8497551 43.4135983,29.4658067 41.6903436,27.0888905 C40.2836052,25.1901705 38.9261026,23.3055151 37.5685999,21.3927305 C37.257602,20.8796185 36.6909778,20.5774789 36.0915246,20.6051133 C27.5948242,20.6332425 19.0981239,20.6332425 10.6014236,20.6051133 C9.86288588,20.6051133 9.62374034,20.787953 9.6589088,21.547441 C9.72221203,22.9539003 9.70111095,24.4166179 9.6589088,25.8512064 C9.6589088,26.3856609 9.82771742,26.5052099 10.362278,26.4981776 C12.55679,26.4981776 14.751302,26.4981776 16.945814,26.4981776 C17.5507116,26.4981776 17.6843517,26.6880496 17.6491833,27.2576656 C17.6491833,33.7555074 17.6491833,40.2533492 17.6491833,46.751191 C17.6598923,47.1556437 17.4958707,47.5451176 17.199027,47.8201001 C13.0819724,51.9316493 8.98132977,56.0502309 4.8970991,60.1758447 C3.34265309,61.7510791 1.86557771,63.3896041 0.346300164,65 L0.00868293238,64.7890311 C0.00868293238,64.1889418 0.00868293238,63.5888525 0.00868293238,62.9887633 C0.00868293238,46.8144817 0.00868293238,30.6402002 0.00868293238,14.4659186 C-0.0348119876,14.1047395 0.0865964345,13.7431692 0.339266472,13.4813971 C2.99800217,10.8653829 5.63563679,8.22123948 8.25920403,5.59116066 C9.98245865,3.86824806 11.712747,2.14533546 13.4289679,0.415390565 C13.670595,0.142220105 14.0209534,-0.00974342554 14.38555,0.000485081999 L64.6061132,0.000485081999 C64.6553491,0.000485081999 64.7186523,0.000485081999 65,0.0708080452 Z"/>
  </g>
</svg>
