<svg xmlns="http://www.w3.org/2000/svg" xmlns:xlink="http://www.w3.org/1999/xlink" width="71" height="91" viewBox="0 0 71 91">
    <defs>
        <path id="a" d="M0 45.567V.133h35.077V91H0z"/>
        <path id="c" d="M.138.133h35.077V91H.138V.133z"/>
    </defs>
    <g fill="none" fill-rule="evenodd">
        <g>
            <mask id="b" fill="#fff">
                <use xlink:href="#a"/>
            </mask>
            <path fill="#FFF" d="M35.077 91c-16.745-8.595-30.494-20.7-31.2-35.259L0 4.87C14.278 1.624 23.072.133 35.234.133" mask="url(#b)"/>
        </g>
        <path fill="#000" d="M35.077 30.48h-11.81v19.998c0 5.438 4.583 11.666 11.81 11.666"/>
        <g transform="translate(34.94)">
            <mask id="d" fill="#fff">
                <use xlink:href="#c"/>
            </mask>
            <path fill="#FFF" d="M.138 91c16.745-8.595 30.494-20.7 31.199-35.259L35.215 4.87C20.937 1.624 12.143.133-.02.133" mask="url(#d)"/>
        </g>
        <path fill="#000" d="M35.077 1.537c14.454 0 27.498 3.07 33.579 4.56l-.65 8.701c-15.567-3.876-24.82-4.49-32.929-4.49-8.108 0-17.362.614-32.929 4.49l-.65-8.7c6.081-1.491 19.125-4.561 33.58-4.561M48.297 38.587l-.03 9.659 17.102.052.763-9.76zM66.848 29.19l.766-10.066-31.832-.18v9.82h12.515v.426z"/>
        <path fill="#231F20" d="M21.86 38.63c-.415.52-.9 1.215-.99 1.589.193.102.603.447.993.924l-.003-2.514z"/>
        <path fill="#000" d="M17.537 77.52c5.137 4.63 11.206 8.48 16.835 11.44V77.484l-16.835.038zM34.372 67.615v-4.084c-4.828-.22-8.207-2.682-10.227-5.582l-18.662.02c.54 3.41 1.826 6.633 3.642 9.65l25.247-.004zM35.077 30.48h11.81v19.998c0 5.438-4.583 11.666-11.81 11.666"/>
        <path fill="#000" d="M43.196 60.903c3.444-2.636 5.101-6.693 5.101-9.548v-1.7l17.02-.052-.627 8.243c-2.115 13.858-16.57 24.646-28.908 31.137V63.53c2.068-.094 3.87-.6 5.414-1.375l-.037.352c-.414 1.207-.391 1.715-.415 1.975-.07.544-.74.597-.86.537a.97.97 0 0 0-1.47.831c0 .092.013.154.037.238-.349.147-.504.432-.504.833 0 .534.348.967.884.967.223 0 .367.026.531-.1a.972.972 0 0 0 .73.328c.537 0 .81-.143.846-1.23 3.591-1.893 9.056-3.34 11.475-3.21 2.736.146 4.724 2.876 4.935 3.052.212.175.388.175.353-.106-.176-1.122-.525-2.813-3.19-4.262.176-.737 1.476-.875 1.718-.983.182-.08.247-.315 0-.315-1.785-.235-3.058.561-3.305.877-.247-.07-1.454-.158-1.807-.123.199-.901.727-1.559 1.516-2.219-.114.096.212-.28-.035-.28-1.974.175-3.2 2.21-3.34 2.736-.177.035-2.318.386-2.67.49.32-2.067 2.678-3.472 2.89-3.613.212-.14.282-.35 0-.35-2.966.098-5.138 3.911-5.244 4.718-.458.176-1.163.421-1.516.632-.123-1.375-.097-1.8.28-2.62l.198-.408z"/>
        <path fill="#FFF" d="M40.303 73.85c-.028.87-.247.984-.677.984a.778.778 0 0 1-.583-.262c-.131.1-.247.08-.425.08-.43 0-.707-.347-.707-.775 0-.32.124-.548.403-.666a.627.627 0 0 1-.03-.19.776.776 0 0 1 1.177-.665c.095.048.63.006.687-.43.042-.462 1.007-3.94 3.404-4.276.254-.056.17.14.056.253.192-.191-2.058 1.593-1.88 3.582.282-.169 1.11-.453 1.477-.593.084-.646 2.043-3.565 4.415-3.644.226 0 .17.169 0 .281-.169.112-2.231 1.193-2.489 2.847.282-.084 1.687-.365 1.828-.393.113-.421 1.602-2.27 3.333-2.233.198 0-.063.301.029.225-.631.528-1.804 1.185-1.962 1.906.282-.028 1.248.043 1.445.099.198-.253 1.305-.977 2.732-.79.198 0 .146.188 0 .253-.194.086-1.101.372-1.242.961 1.542.905 2.147 1.854 2.288 2.752.028.225-.113.225-.282.085-.17-.14-1.804-1.711-3.993-1.828-1.935-.104-6.13.922-9.004 2.436M39.532 79.85c-.019.595-.301.717-.595.717a.532.532 0 0 1-.399-.18c-.09.07-.169.055-.29.055-.294 0-.484-.237-.484-.53 0-.218.084-.374.275-.455a.427.427 0 0 1-.02-.13.53.53 0 0 1 .805-.455c.065.033.431.004.47-.293.029-.317.19-2.753 1.667-3.013.174-.039.116.096.039.172.13-.13-.877 1.031-.626 2.473.193-.116.562-.244.812-.34.058-.442.604-2.482 2.227-2.536.155 0 .116.115 0 .192-.115.077-.799.794-.975 1.925.219-.113.77-.2.986-.269.077-.287 1.25-1.86 2.434-1.834.135 0-.043.206.02.154-.432.36-1.014.942-1.122 1.435.193-.019.655-.037.79.002a1.669 1.669 0 0 1 1.604-.65c.136 0 .1.129 0 .173-.132.059-.489.298-.585.701 1.137.548 1.623 1.027 1.719 1.642.02.153-.077.153-.193.057s-1.145-.797-2.642-.877c-1.324-.071-3.916.647-5.917 1.864M25.294 48.308c.11-.33.463-.724.507-.921.044-.198-.022-.351.11-.548.132-.198.507-.57.64-.702.131-.132.594-.33.836.197.243.526.661 1.688 1.499 2.04-.33.175-1.124.46-1.543.548-.418.087-.749.153-.573 1.184.177 1.03.22 1.469.155 1.798-.066.329-.088 1.03.529 1.578l.55.768c.22.197.75.416.794-.022.044-.439.176-.877-.265-.92-.154-.023-.573-.374-.529-.768.044-.395-.066-.724-.242-1.053-.176-.329-.242-.702-.154-1.03.088-.33.33-.527.881-.417.44.153 2.468.702 3.085.022.418.307 2.908 1.228 4.362 1.074.265.46.816 1.47 1.168 1.754.287.263.397 1.097-.088 1.535-.286.22-1.036.987-1.653 1.162-.616.176-.859.285-1.145.57-.287.286-.463.286-.64.658-.176.373-.572 1.03.067 1.03s.815-.306.86-.481c.043-.176 0-.549.242-.614.242-.066.991-.11 1.498-.724s1.52-.943 1.917-1.009c.396-.065.44-.46.396-.658-.044-.197-.066-.701.176-.964.353.087 1.477.329 2.006 1.052.088.197.11.307.198.439-.154.263-.463.504-.573.767-.11.263-.242.702-.749 1.097-.507.394-.947.635-1.19.986-.242.351-.396.724-.352 1.206.044.483.176.242.396.242.22 0 .727-.242.75-.57.021-.33-.133-.483.33-.68.463-.198 1.278-.855 1.454-1.272.176-.417.705-1.228 1.124-1.47.418-.24.33-.591.132-.942s-.881-1.294-.75-1.908c.133-.614.86-.987 1.08-1.93.22-.942.089-1.38-.044-1.71.375-.11.595-.022 1.08.198.485.219 1.586.175 1.718-.132.133-.307.089-.92 0-1.052.309-.263.53-.834.353-1.097a1.213 1.213 0 0 1-.176-.965c-.309-.044-.64-.307-.419-.504.22-.197.661-.658.463-1.25.066-.373.088-.833-.551-.811-.022-.241-.22-1.03-1.212-.307-.154.11-.33-.132-.11-.197.22-.066 1.366-.439 1.542-.834.177-.394.11-.592.045-.745.088-.176.176-.526.088-.658s-.441-.11-.683.482c-.243.593-.177.593-.816.702-.639.11-1.123 0-1.542.702-.132.175-.198.372-.507.548-.308.175-.485.46-.529.702-.044.24.177.68.133.986-.044.307-.22.965.595 1.667.396.438.991 1.009.55 1.447-.44.438-.837-.022-1.167-.241-.33-.22-1.41-.548-2.116-.504-.705.043-3.018-.527-3.569-.987-.55-.46-.214-.694.066-.834.198-.087.33-.175.44-.394.111-.22.287-.263.486-.263.198 0 .396-.044.572-.46.177-.417.353-.264.551-.308.199-.044.33-.46-.022-.592-.352-.131-.55-.263-.529-.395.022-.131.265-.416.595-.438.33-.022.353-.241.33-.417-.021-.175 0-.285.221-.394.22-.11.198-.373-.176-.483-.375-.11-.926-.241-.926-.416 0-.176.243-.483.485-.57.243-.088.353-.461-.198-.44-.55.023-.86.089-.97-.262-.11-.351-.132-.548.441-.768.242-.065.309-.394-.132-.372-.44.022-.948.24-1.102.087-.154-.153-.11-.285-.022-.35.088-.066.11-.286-.11-.286s-1.08.33-1.3.088c-.22-.241-.573-.373-.86-.197-.286.175-.286.438-.131.592.154.153-.045.395-.22.241-.177-.153-.111-.263-.111-.329s-.132-.285-.286-.373c-.155-.087-.155-.329-.11-.482.043-.153-.133-.307-.397-.153-.265.153-.507.416-.375.81-.286.023-1.013.198-1.035.417-.022.22.088.461.044.549-.044.087-.287.087-.419.175-.374.373-1.013.724-1.168.877-.154.154-.264.307-.462.548-.199.22-.216.471-.133.592.243.351.441.11.573.307.132.198.132.241.11.351-.021.11.243.351.64.022.396-.329.683-.68.991-.307.309.373.022.592-.11.833-.265.263-.882 1.075-1.168 1.316-.286.241-.507.811-.617 1.338-.11.526-.242.635-.353.767-.528-.197-1.123-.439-1.454-.702-.22-.175-.705-.394-1.013.044-.154.176-.948 1.25-1.146 1.71-.198.461-.507.285-.507 1.163 0 .307-.242.438-.374.92-.022.132-.375.943-.022 1.097.352.153.77-.044.859-.263.088-.22.11-.9.132-1.14"/>
        <path fill="#000" d="M21.857 29.077h12.515V11.808c-6.985.1-16.484.48-32.094 4.55L4.73 48.3l17.126-.003-.001-5.915c-.48-.376-1.218-.982-3.42-.98-1.302 0-4.996 1.225-7.145 3.846-.03.917-.558 1.26-1.011 1.26a.82.82 0 0 1-.616-.277.77.77 0 0 1-.485.159.818.818 0 0 1-.82-.817c0-.338.242-.652.536-.776a.66.66 0 0 1-.03-.2.818.818 0 0 1 1.24-.702c.1.05.429.272.488-.187.045-.488-.017-5.071 2.445-5.765.268-.06.179.148.06.266-.12.119-1.208 1.99-1.062 4.352.297-.178.942-.66 1.328-.807.12-.504.972-4.318 3.008-4.357.238 0 .178.177 0 .296-.179.118-1.065 1.162-1.244 3.027.298-.09 1.04-.215 1.189-.245.119-.444.997-3 2.662-3.147.209 0 .12.213.03.302-.089.09-.971 1.308-1.147 2.499.298-.03.987-.008 1.196.051.178-.228 1.59-1.77 2.799-2.275l.004-5.196c-.232-.21-.594-.432-1.705-.436-1.737-.005-4.64.71-8.646 3.316-.04 1.223-.744 1.68-1.348 1.68-.327 0-.62-.143-.82-.369a1.026 1.026 0 0 1-.648.211 1.091 1.091 0 0 1-1.093-1.088c0-.45.322-.87.715-1.036a.882.882 0 0 1-.041-.267c0-.6.49-1.088 1.094-1.088.204 0 .396.056.56.153.134.067.689.304.768-.308.06-.651 1.065-6.102 4.436-6.576.356-.079.237.198.079.355-.159.158-2.785 2.303-2.591 5.452.396-.237 1.608-.82 2.124-1.018.158-.67 1.648-4.762 4.362-4.815.318 0 .238.237 0 .395-.238.157-1.89 1.315-2.128 3.802a39.16 39.16 0 0 1 1.82-.443c.158-.592 1.212-2.947 3.433-3.145.277 0 .158.286.04.404-.12.118-1.296.925-1.53 2.513.226-.023.707.063 1.122.146l-.007-1.47z"/>
        <path fill="#FFF" d="M11.017 25.964c-.044 1.36-.827 1.867-1.499 1.867-.363 0-.689-.159-.911-.41-.205.157-.44.235-.72.235a1.212 1.212 0 0 1-1.214-1.21c0-.5.358-.967.795-1.15a.979.979 0 0 1-.046-.297c0-.668.544-1.21 1.215-1.21.227 0 .44.063.622.17.15.075.766.338.854-.341.066-.724 1.036-7.17 4.781-7.697.397-.088.265.22.089.395-.176.175-3.085 2.5-2.733 6.446.441-.263 1.983-1.008 2.557-1.228.132-1.008 1.586-5.7 4.847-5.788.352 0 .264.263 0 .438-.265.175-2.248 1.754-2.512 4.517.44-.131 1.85-.35 2.071-.395.176-.657 1.542-3.859 4.01-4.078.309 0 .176.22.044.35-.132.132-1.895 1.623-1.895 3.378.44-.044 1.675-.044 1.983.043.309-.394 1.63-1.841 3.526-1.973.308 0 .176.22 0 .395-.177.175-1.322 1.184-1.543 2.105.661.35 2.556 1.622 2.776 3.026.044.35-.176.35-.44.131-.265-.219-2.292-1.842-4.848-1.842-2.555 0-7.359 1.228-11.81 4.123M30.257 8.038l-.002 1.013-1.522.073v-.89c-.001-.886-.49-1.441-1.318-1.384l-4.207.273.042 2.42-1.516.072-.167-6.054 6.317-.419c1.156-.092 2.172.142 2.17 1.72-.001.451-.163.909-.407 1.318.318.247.616.904.61 1.858M3.261 13.334l-.44-6.096L9.1 5.835c.793-.176 1.917-.066 1.96 1.337.045 1.403-.22 1.995-1.211 2.215L4.583 10.57l.198 2.412-1.52.35z"/>
        <path fill="#000" d="M4.45 8.268l.045.9 4.385-.965c.374-.088.44-.395.418-.592-.017-.153-.176-.373-.617-.286-.44.088-4.23.943-4.23.943"/>
        <path fill="#FFF" d="M12.008 6.514c0-.57-.022-1.403 1.543-1.644l5.09-.834c.616-.11 2.004.307 2.004 1.448l.066 2.938c.022.614-.022 1.425-1.674 1.666l-4.715.746c-.838.153-2.204.022-2.248-1.557l-.066-2.763z"/>
        <path fill="#000" d="M13.55 7.194s0 .46 0 0-.022-.9.794-1.053l3.9-.657c.418-.066.859.24.859.657l.044 1.799c0 .285-.132.745-.771.855l-3.856.614c-.529.087-.881.11-.925-.57l-.044-1.645z"/>
        <path fill="#FFF" d="M33.49 5.375a.528.528 0 0 1-.53-.527c0-.291.238-.527.53-.527h6.214V3.006h-6.94c-.353 0-1.543.077-1.532 1.864.011 1.787 1.267 1.82 1.532 1.82l4.869-.001c.292 0 .53.236.53.527 0 .291-.238.483-.53.483h-6.214v1.315h6.919c.44 0 1.597.066 1.597-1.831s-1.3-1.81-1.597-1.81l-4.847.002zM50.588 3.751l-.374 6.228 1.454.197.176-2.675 5.112.965-.176 2.543 1.454.263.375-6.205-1.433-.263-.154 2.412-5.112-.965.133-2.28zM59.6 11.47l.353-6.14 7.006 1.47-.088 1.25-5.53-1.163-.044 1.14 5.486 1.162-.088 1.25-5.486-1.162-.067 1.25 5.465 1.162-.11 1.25zM49.2 5.001l.066-1.36-6.455-.504c-.551-.043-1.609-.087-1.697 1.71-.088 1.799-.132 2.61-.132 2.61-.022.614.352 1.645 1.52 1.732l6.434.483.066-1.36-5.376-.394c-.507-.022-1.058-.176-1.014-1.097l.044-1.315c.023-.527.199-1.009 1.036-.943L49.2 5z"/>
        <path fill="#000" d="M27.678 5.525l-4.512.251-.02-.962 4.57-.239c.354.01.5.136.516.456.015.321-.24.47-.554.494"/>
        <path fill="#FFF" d="M24.895 34.349c.066.372.238.526.586.526.291 0 .494-.154.494-.373 0-.118-.066-.197-.234-.276l-.806-.373c-.353-.162-.511-.404-.511-.794 0-.583.383-.969.965-.969.639 0 1.005.364 1.03 1.03h-.528c-.053-.35-.198-.495-.493-.495-.265 0-.454.154-.454.368 0 .101.066.185.185.242l.828.381c.375.171.538.373.538.803 0 .302-.115.57-.33.763-.181.162-.384.228-.701.228-.441 0-.754-.154-.935-.46-.101-.163-.136-.308-.154-.601h.52zM28.803 32.151v.58h-.78v2.618h-.542V32.73h-.797v-.579zM31.302 32.151v1.974c0 .728-.216 1.285-1.062 1.285-.842 0-1.062-.548-1.062-1.285V32.15h.542v1.96c0 .518.145.72.511.72.388 0 .529-.193.529-.72v-1.96h.542zM33.707 32.151v.58h-.78v2.618h-.542V32.73h-.798v-.579zM37.347 33.616h1.093v1.733h-.375l-.053-.404c-.207.32-.458.465-.789.465-.71 0-1.211-.675-1.211-1.631 0-1.018.51-1.689 1.29-1.689.635 0 1.058.4 1.138 1.079h-.556c-.105-.347-.282-.5-.577-.5-.454 0-.736.417-.736 1.083 0 .654.291 1.079.736 1.079.34 0 .564-.237.635-.667h-.595v-.548zM39.682 32.151h.613l.93 3.198h-.591l-.18-.672h-.957l-.185.672h-.569zM42.687 32.151c.374 0 .515.04.674.185.176.166.273.42.273.736 0 .369-.093.557-.375.742.256.135.287.223.309.842.017.517.03.596.114.693h-.599c-.053-.176-.062-.22-.066-.505-.013-.469.053-.759-.45-.759h-.497v1.264h-.542V32.15h1.159zM46.057 32.151v.58h-.78v2.618h-.542V32.73h-.798v-.579zM36.087 32.151v.58h-.78v2.618h-.542V32.73h-.798v-.579z"/>
        <path fill="#000" d="M40.308 34.13l-.33-1.246-.331 1.245zM42.07 33.546h.515c.37 0 .49-.1.49-.412 0-.312-.115-.404-.49-.404h-.515v.816z"/>
        <path fill="#FFF" d="M35 62.165l.48-.165.52.165V90.66l-.521.34-.449-.34zM35 10.163l.48-.163.52.163v19.501l-.521.336-.449-.336zM35 .118L35.48 0l.52.118v.639L35.479 1 35.03.757z"/>
    </g>
</svg>
