<svg xmlns="http://www.w3.org/2000/svg" width="72" height="104" viewBox="0 0 72 104">
    <g fill="none" fill-rule="evenodd">
        <path fill="#FFF" d="M0 104h72V0H0z"/>
        <path fill="#000" d="M55 84v5h1.419v-3.33h5.163V89H63v-4.991z"/>
        <g fill="#000">
            <path d="M56.75 81.84h5.611c.78-.156 1.359-.843 1.522-1.509h-8.655c.162.666.75 1.353 1.522 1.508M51.034 87.864c.736-.312 1.131-.851 1.284-1.483h-6.546l.005-6.046-1.467.004v7.525h6.724M33.4 81.819h5.182c.781-.227 1.437-.822 1.597-1.481h-8.232v4.446h6.737v1.56l-5.284.005c-.828.231-1.53.787-1.881 1.522l.428-.009h8.185v-4.556H33.4V81.82M20.608 81.833h5.609c.78-.155 1.36-.843 1.523-1.508h-8.655c.161.665.75 1.353 1.523 1.508M20.608 84.807h5.609c.78-.154 1.36-.842 1.523-1.508h-8.655c.161.667.75 1.354 1.523 1.508M20.608 87.863h5.609c.78-.155 1.36-.843 1.523-1.509h-8.655c.161.667.75 1.354 1.523 1.509M6.016 80.343c.168.658.738 1.33 1.519 1.498h2.36l.121.048v5.957h1.475V81.89l.134-.048h2.363a2.123 2.123 0 0 0 1.513-1.498v-.014H6.016v.014M36.047 65.458l7.367-41.427c7.022 0 9.237.77 9.557 3.912 0 0 4.71-1.756 7.086-5.323-9.271-4.295-18.586-4.489-18.586-4.489l-5.436 6.62.012-.001-5.435-6.62s-9.316.194-18.585 4.49c2.373 3.566 7.086 5.323 7.086 5.323.321-3.143 2.533-3.913 9.508-3.918l7.426 41.433"/>
            <path d="M36.044 16.219c7.495-.058 16.072 1.159 24.854 4.986 1.173-2.112 1.475-3.046 1.475-3.046-9.6-3.797-18.589-5.097-26.33-5.13-7.74.033-16.73 1.333-26.328 5.13 0 0 .429 1.15 1.475 3.046 8.78-3.827 17.36-5.044 24.853-4.986h.001"/>
        </g>
    </g>
</svg>
