<svg xmlns="http://www.w3.org/2000/svg" width="80" height="80" viewBox="0 0 80 80">
    <g fill="none" fill-rule="evenodd">
        <path fill="#FEFEFE" d="M67.373.353c6.778 0 12.273 5.495 12.273 12.273v55.101C79.646 74.505 74.151 80 67.373 80h-55.1C5.495 80 0 74.505 0 67.727V12.626C0 5.848 5.495.353 12.273.353h55.1"/>
        <path fill="#010202" d="M58.197 41.2s6.852-9.84 7.533-13.075c.227-1.155-.273-1.801-1.453-1.801h-5.943c-1.361 0-1.86.6-2.27 1.477.001 0-3.213 6.973-7.123 11.366-1.255 1.42-1.894 1.848-2.586 1.848-.56 0-.818-.474-.818-1.756V28.033c0-1.571-.18-2.033-1.451-2.033h-9.53c-.725 0-1.18.43-1.18 1.017 0 1.478 2.224 1.813 2.224 5.82v8.27c0 1.664-.09 2.31-.862 2.31-2.042 0-6.897-7.16-9.62-15.292C24.575 26.462 23.985 26 22.442 26h-5.944c-.862 0-1.497.6-1.497 1.478 0 1.617 1.86 9.102 9.166 19.127C29.066 53.35 35.51 57 41.318 57c3.539 0 4.401-.6 4.401-2.125V49.7c0-1.293.5-1.847 1.225-1.847.817 0 2.259.267 5.627 3.65C56.564 55.382 56.836 57 59.014 57h6.67c.68 0 1.316-.324 1.316-1.478 0-1.525-1.95-4.25-4.945-7.485-1.226-1.663-3.222-3.464-3.858-4.296-.907-.97-.635-1.525 0-2.541"/>
    </g>
</svg>
