<svg xmlns="http://www.w3.org/2000/svg" width="165" height="46" viewBox="0 0 165 46">
    <g fill="none" fill-rule="evenodd">
        <path fill="#FEFEFE" d="M37.466 9.684c2.969-.672 6.138-.605 8.95.626l.135-.872 10.088.067c1.496-.314 3.082-.336 4.6.022l.334.09 1.005-6.332h13.014l-.982 6.108a12.362 12.362 0 0 1 2.231-.112l.96-5.996H90.77l-.803 5.011c.268-.447.536-.85.849-1.252 2.299-2.752 5.244-3.782 8.727-4.028 2.12-.067 4.219.045 6.184.917l.087-.648h13.015l-1.071 6.623c.736-.224 1.45-.358 2.187-.47 3.415-.426 7.01-.224 9.689 2.193 2.52-2.126 6.16-2.529 9.33-2.306 2.075.202 4.218.761 5.781 2.26 1.785-1.454 4.018-2.035 6.273-2.26 3.46-.223 6.964.157 9.375 2.887 1.094 1.41 1.517 2.775 1.607 4.542 0 .627-.045 1.209-.134 1.835l-1.295 8.145h-.714c.38 1.298.402 2.505.224 3.826l-.715 4.43c-.603 2.707-1.853 4.72-4.174 6.265-2.88 1.7-6.273 1.99-9.554 1.566-1.72-.268-3.527-.828-4.822-2.058-2.813 2.08-6.384 2.46-9.754 2.125-1.094-.134-2.1-.358-3.126-.783l-.09.536h-8.95c-1.563.381-3.102.404-4.688.27-.558-.09-1.138-.18-1.674-.358v.088H99.521l.066-.423c-2.7.917-5.602.894-8.348.223-2.857-.828-5.111-2.573-5.826-5.594l-.915 5.794h-7.924l-.536-.132c-2.188.693-4.553.67-6.697-.18l-.045.312H41.238l.022-.155c-.714.2-1.43.312-2.187.402-3.571.336-7.5 0-10.046-2.842l-.713 2.595H3L4.786 3.285H39.25l-1.785 6.399z"/>
        <path stroke="#FFF" stroke-linejoin="round" stroke-width="5.71" d="M37.466 9.684c2.969-.672 6.138-.605 8.95.626l.135-.872 10.088.067c1.496-.314 3.082-.336 4.6.022l.334.09 1.005-6.332h13.014l-.982 6.108a12.362 12.362 0 0 1 2.231-.112l.96-5.996H90.77l-.803 5.011c.268-.447.536-.85.849-1.252 2.299-2.752 5.244-3.782 8.727-4.028 2.12-.067 4.219.045 6.184.917l.087-.648h13.015l-1.071 6.623c.736-.224 1.45-.358 2.187-.47 3.415-.426 7.01-.224 9.689 2.193 2.52-2.126 6.16-2.529 9.33-2.306 2.075.202 4.218.761 5.781 2.26 1.785-1.454 4.018-2.035 6.273-2.26 3.46-.223 6.964.157 9.375 2.887 1.094 1.41 1.517 2.775 1.607 4.542 0 .627-.045 1.209-.134 1.835l-1.295 8.145h-.714c.38 1.298.402 2.505.224 3.826l-.715 4.43c-.603 2.707-1.853 4.72-4.174 6.265-2.88 1.7-6.273 1.99-9.554 1.566-1.72-.268-3.527-.828-4.822-2.058-2.813 2.08-6.384 2.46-9.754 2.125-1.094-.134-2.1-.358-3.126-.783l-.09.536h-8.95c-1.563.381-3.102.404-4.688.27-.558-.09-1.138-.18-1.674-.358v.088H99.521l.066-.423c-2.7.917-5.602.894-8.348.223-2.857-.828-5.111-2.573-5.826-5.594l-.915 5.794h-7.924l-.536-.132c-2.188.693-4.553.67-6.697-.18l-.045.312H41.238l.022-.155c-.714.2-1.43.312-2.187.402-3.571.336-7.5 0-10.046-2.842l-.713 2.595H3L4.786 3.285H39.25l-1.785 6.399z"/>
        <path fill="#010202" d="M37.466 9.684c2.969-.672 6.138-.605 8.95.626l.135-.872 10.088.067c1.496-.314 3.082-.336 4.6.022l.334.09 1.005-6.332h13.014l-.982 6.108a12.362 12.362 0 0 1 2.231-.112l.96-5.996H90.77l-.803 5.011c.267-.447.536-.85.849-1.252 2.299-2.752 5.244-3.782 8.727-4.028 2.12-.067 4.219.045 6.184.917l.087-.648h13.015l-1.071 6.623c.736-.224 1.45-.358 2.187-.47 3.415-.426 7.01-.224 9.689 2.193 2.52-2.126 6.16-2.529 9.33-2.306 2.075.202 4.218.761 5.781 2.26 1.785-1.454 4.018-2.035 6.273-2.26 3.46-.223 6.964.157 9.375 2.887 1.093 1.41 1.517 2.775 1.607 4.542 0 .627-.045 1.209-.134 1.835l-1.295 8.145h-.714c.38 1.298.402 2.505.224 3.826l-.716 4.43c-.602 2.707-1.852 4.72-4.173 6.265-2.88 1.7-6.273 1.99-9.554 1.566-1.72-.268-3.528-.828-4.822-2.058-2.813 2.08-6.384 2.46-9.754 2.125-1.095-.134-2.1-.358-3.126-.783l-.09.536h-8.95c-1.563.381-3.102.404-4.688.27-.558-.09-1.139-.18-1.675-.358v.088H99.521l.066-.424c-2.7.918-5.602.895-8.348.224-2.857-.828-5.112-2.573-5.826-5.594l-.915 5.794h-7.924l-.536-.132c-2.188.693-4.553.67-6.697-.18l-.045.312H41.238l.022-.155c-.714.2-1.43.312-2.187.402-3.571.336-7.5 0-10.046-2.842l-.713 2.595H3L4.786 3.285H39.25l-1.785 6.399z"/>
        <path fill="#FEFEFE" d="M55.667 22.881h6.088l1.19-7.217c.184-1.104-.091-1.987-.847-2.649-.137-.11-.252-.22-.389-.31-.686-.463-1.556-.705-2.563-.705-1.693 0-2.998.353-3.914 1.037l.137-.86h-6.065l-3.227 19.356L45 38h6.067l3.455-20.77c.137-.75.55-1.148 1.237-1.148.709 0 .983.398.846 1.193l-.938 5.606zM34 7h-5.381l-4.577 14.77L24.644 7h-7.39L12.63 21.77 13.346 7H7.473L6 39h6.676l5.07-17.65L17.23 39H25l7.079-25.201zM41.85 17.405l-2.373 14.608-.252 1.583c-.136.904-.57 1.357-1.254 1.357-.708 0-.982-.453-.845-1.357l2.35-14.608.274-1.583c.137-.882.548-1.312 1.255-1.312.708 0 .981.43.845 1.312zm6.07-.045c.251-1.606-.091-2.827-1.004-3.686a3.708 3.708 0 0 0-.457-.385C45.182 12.43 43.63 12 41.758 12c-.821 0-1.574.045-2.281.158-3.378.544-5.318 2.353-5.82 5.428l-.707 4.387-1.848 11.442c-.365 2.238.25 3.822 1.848 4.704 1.05.587 2.533.881 4.45.881.753 0 1.437-.045 2.077-.135 3.377-.475 5.317-2.216 5.797-5.201l1.642-10.154 1.004-6.15zM71 7h-5.865L61.24 31.25 60 39H65.887l3.498-21.902zM119.319 33.687c-.068.474-.226.813-.496 1.017a1.1 1.1 0 0 1-.678.204c-.722 0-1.015-.408-.88-1.221l.767-4.795c.09-.52.34-.949.79-1.311.384-.294.926-.52 1.602-.702l-1.105 6.808zm8.578-16.102c.248-1.56.045-2.804-.586-3.71-.88-1.242-2.619-1.875-5.216-1.875-1.218 0-2.325.113-3.272.361-2.732.679-4.29 2.352-4.719 4.998l-.857 5.292h5.779c.067-.385.136-.95.18-1.696.09-.746.158-1.312.226-1.696.338-2.103.88-3.166 1.67-3.166.701 0 .972.429.835 1.311l-.632 3.912c-.067.454-.856 1.063-2.37 1.833-.045.021-.067.021-.112.045-2.552 1.288-4.29 2.374-5.215 3.255-.384.363-.723.77-.971 1.2a5.242 5.242 0 0 0-.7 1.9l-.857 5.314c-.294 1.831.225 3.052 1.557 3.662.677.317 1.58.475 2.687.475 1.602 0 2.776-.27 3.499-.79.225-.181.428-.363.563-.59l-.157 1.019h5.282l2.8-17.39.586-3.664zM139.83 25.161c-2.92-1.764-4.48-3.031-4.695-3.754-.196-.724-.196-1.81.043-3.235.195-1.378.671-2.08 1.384-2.08.715 0 .887 1.11.563 3.302l-.627 3.189h5.604l.195-1.29.605-3.933c.238-1.516.044-2.692-.605-3.55-.866-1.2-2.554-1.81-5.085-1.81-4.458 0-6.968 1.854-7.53 5.586l-.542 3.55c-.216 1.424-.086 2.464.434 3.188.497.701 2.12 1.945 4.847 3.73.692.635.865 2.081.518 4.32-.26 1.72-.713 2.578-1.363 2.578-.649 0-.887-.452-.756-1.356l.865-5.608h-5.735l-.28 1.921-.584 3.755c-.217 1.446-.023 2.6.583 3.46.867 1.265 2.618 1.876 5.258 1.876 4.522 0 7.075-1.854 7.639-5.586l.606-3.956c.28-1.787-.174-3.211-1.342-4.297M78.496 17.952L76.232 32.21l-.26 1.643c-.13.788-.523 1.184-1.176 1.184-.674 0-.956-.396-.847-1.184l2.283-14.237.261-1.62c.109-.79.523-1.184 1.197-1.184.652 0 .936.373.806 1.14zm.674-4.162c-.632-.57-1.588-.876-2.938-.92-.152-.022-.326-.022-.478-.022-1.175 0-2.198.307-3.132.963-.914.636-1.458 1.512-1.632 2.586l-1.392 8.739-1.545 9.68c-.196 1.293.152 2.3 1.066 3.067.152.11.305.24.479.329.848.526 1.87.788 3.11.788 1.24 0 2.415-.394 3.524-1.183 0-.022.022-.022.022-.022l.348.854h4.352L86 7h-5.765l-1.065 6.79zM152.213 12c-4.459 0-6.968 1.854-7.53 5.586l-.543 3.55c-.216 1.425-.086 2.465.434 3.188.497.701 2.12 1.945 4.847 3.73.693.635.865 2.081.519 4.32-.26 1.72-.714 2.579-1.363 2.579-.65 0-.887-.453-.757-1.357l.865-5.608h-5.734l-.26 1.717-.606 3.959c-.216 1.47-.022 2.645.606 3.505.887 1.221 2.64 1.831 5.236 1.831 4.523 0 7.077-1.854 7.639-5.586l.607-3.956c.28-1.787-.173-3.211-1.342-4.297-2.922-1.764-4.48-3.03-4.696-3.754-.195-.724-.195-1.81.043-3.234.195-1.379.672-2.08 1.386-2.08.713 0 .886 1.108.562 3.302l-.628 3.188h5.605l.8-5.223c.563-3.573-1.342-5.36-5.69-5.36M114 7h-5.865l-3.652 22.721L103 39h5.865l3.541-22.056zM97.676 25.696L96.4 33.684c-.089.538-.424.806-1.005.806-.627 0-.918-.268-.83-.806l3.602-22.48c.091-.539.448-.807 1.075-.807.58 0 .85.268.76.807l-1.029 6.416h5.972l.938-5.877c.359-2.154-.111-3.703-1.386-4.644-.984-.74-2.483-1.099-4.473-1.099-5.055 0-7.917 2.086-8.59 6.304l-3.33 20.863C87.477 37.071 89.69 39 94.747 39c1.743 0 3.398-.45 4.919-1.391 1.543-.92 2.438-2.153 2.685-3.7l1.319-8.213h-5.994z"/>
    </g>
</svg>
