<svg xmlns="http://www.w3.org/2000/svg" xmlns:xlink="http://www.w3.org/1999/xlink" width="119" height="46" viewBox="0 0 119 46">
    <defs>
        <path id="a" d="M93.864 35V.339H.039V35z"/>
    </defs>
    <g fill="none" fill-rule="evenodd">
        <path fill="#FEFEFE" d="M15.625 3.636h-2.33c-3.522 0-6.932 2.294-6.932 8.951 0 6.434 3.126 8.504 6.933 8.504h2.33V3.636zM11.99 24.672L5.057 40H0l7.614-16.392c-3.58-1.79-5.966-5.035-5.966-11.02C1.648 4.195 7.045 0 13.466 0H20v40h-4.375V24.672H11.99z"/>
        <g transform="translate(25 11)">
            <mask id="b" fill="#fff">
                <use xlink:href="#a"/>
            </mask>
            <path fill="#FEFEFE" d="M78.283 15.056c0-8.979 3.419-14.717 10.033-14.717 2.521 0 3.979.682 5.212 1.477l-.617 4.205c-1.176-1.023-2.858-1.99-4.652-1.99-3.138 0-5.38 3.58-5.38 10.797 0 7.16 1.68 11.251 5.212 11.251 2.13 0 3.756-.852 4.764-1.761l1.01 3.295c-1.515 1.307-3.308 2.16-5.886 2.16-6.054 0-9.696-4.944-9.696-14.717zm-12.78.056v14.262h-4.371V.736h4.371v13.24L72.285.736h4.428l-7.006 13.467 8.015 15.171h-4.764l-7.455-14.262zm-20.57-2.67h7.231c0-4.887-.785-8.467-3.306-8.467-2.69 0-3.644 3.352-3.924 8.467zm4.821 17.33c-5.829 0-9.416-4.716-9.416-13.523 0-9.205 2.522-15.91 8.52-15.91 4.707 0 7.79 3.58 7.79 13.296v2.443h-11.77c0 6.478 1.794 9.887 5.269 9.887 2.465 0 4.427-1.136 5.548-1.932l1.01 3.41c-1.794 1.42-4.149 2.33-6.95 2.33zM31.146 4.316H26.27v.511c0 6.023-.28 14.83-2.634 20.91h7.51V4.318zM37.703 35H33.78v-5.626H21.674V35H17.75v-9.262h1.738c2.578-6.08 2.858-14.945 2.858-22.559V.736h13.116v25.002h2.241V35zM15.228.736v28.638h-4.315V16.533H4.41v12.841H.039V.736h4.372v12.16h6.502V.736h4.315z" mask="url(#b)"/>
        </g>
    </g>
</svg>
