<svg xmlns="http://www.w3.org/2000/svg" width="57" height="46" viewBox="0 0 57 46">
    <path fill="#FFF" fill-rule="evenodd" d="M21.375 31.846V14.154l16.626 8.27-16.626 9.422zM56.43 8.4s-.556-3.818-2.266-5.495C51.994.701 49.57.69 48.454.56 40.474 0 28.51 0 28.51 0h-.025S16.523 0 8.546.56C7.431.69 5.002.7 2.836 2.904 1.126 4.582.57 8.4.57 8.4S0 12.876 0 17.353V28.63c0 4.476.57 8.96.57 8.96s.556 3.81 2.266 5.487c2.166 2.205 5.016 2.137 6.284 2.367C13.68 45.87 28.5 46 28.5 46s11.974-.014 19.954-.577c1.115-.13 3.54-.141 5.71-2.346 1.71-1.677 2.266-5.488 2.266-5.488s.57-4.483.57-8.96V17.354c0-4.477-.57-8.953-.57-8.953z"/>
</svg>
