<?xml version="1.0" standalone="no"?>
<!DOCTYPE svg PUBLIC "-//W3C//DTD SVG 1.1//EN" "http://www.w3.org/Graphics/SVG/1.1/DTD/svg11.dtd" >
<svg xmlns="http://www.w3.org/2000/svg" xmlns:xlink="http://www.w3.org/1999/xlink" version="1.1">
<metadata>
Created by FontForge 20161116 at Thu Sep 22 22:13:56 2005
 By Jimmy Wärting
Copyright (C) 1993; Type Market Ltd. Moscow, 119136, Box 20; phone:(095)2071022; Created by A.Kustov
</metadata>
<defs>
<font id="EuropeC" horiz-adv-x="562" >
  <font-face 
    font-family="EuropeC"
    font-weight="400"
    font-stretch="normal"
    units-per-em="1000"
    panose-1="0 0 5 0 0 0 0 0 0 0"
    ascent="763"
    descent="-237"
    x-height="524"
    cap-height="749"
    bbox="-11 -237 1262 946"
    underline-thickness="50"
    underline-position="-100"
    stemh="65"
    stemv="80"
    unicode-range="U+0020-2122"
  />
<missing-glyph horiz-adv-x="500" 
 />
    <glyph glyph-name=".notdef" horiz-adv-x="500" 
 />
    <glyph glyph-name="space" unicode=" " horiz-adv-x="238" 
 />
    <glyph glyph-name="space" unicode="&#xa0;" horiz-adv-x="238" 
 />
    <glyph glyph-name="exclam" unicode="!" horiz-adv-x="268" 
d="M173 101v-101h-89v101h89zM177 749l-16 -543h-65l-16 543h97z" />
    <glyph glyph-name="quotedbl" unicode="&#x22;" horiz-adv-x="370" 
d="M134 450h-65l-14 300h94zM301 450h-67l-13 300h94z" />
    <glyph glyph-name="numbersign" unicode="#" horiz-adv-x="679" 
d="M435 260l-32 -222h-46l31 222h-132l-30 -222h-49l32 222h-140l7 45h139l18 126h-140l7 46h139l30 205h47l-29 -205h132l28 205h47l-29 -205h144l-7 -46h-143l-18 -126h143l-6 -45h-143zM412 431h-133l-17 -126h132z" />
    <glyph glyph-name="dollar" unicode="$" horiz-adv-x="687" 
d="M314 416v264h-37c-89 0 -158 -5 -158 -123c0 -127 52 -141 159 -141h36zM377 344v-286h29c106 0 168 25 168 143c0 136 -56 143 -179 143h-18zM377 -10v-74h-63v74c-170 0 -285 4 -285 207v27h83c0 -153 32 -166 174 -166h28v286c-147 0 -278 9 -278 192
c0 184 95 213 255 213h23v69h63v-69c169 0 264 -12 264 -210h-83c0 105 -18 141 -125 141h-56v-264c168 0 280 -7 280 -205c0 -183 -83 -221 -256 -221h-24z" />
    <glyph glyph-name="percent" unicode="%" horiz-adv-x="912" 
d="M193 750c136 0 162 -33 162 -140v-97c0 -107 -26 -140 -162 -140c-135 0 -163 32 -163 139v97c0 111 28 141 163 141zM193 709c-71 0 -114 -6 -114 -87v-129c0 -76 43 -79 114 -79c72 0 113 2 113 84v124c0 82 -41 87 -113 87zM730 750l-508 -750h-51l505 750h54z
M709 377c136 0 162 -33 162 -140v-97c0 -107 -26 -140 -162 -140c-135 0 -163 32 -163 139v97c0 111 28 141 163 141zM709 336c-71 0 -114 -6 -114 -87v-129c0 -76 43 -79 114 -79c72 0 113 2 113 84v124c0 82 -41 87 -113 87z" />
    <glyph glyph-name="ampersand" unicode="&#x26;" horiz-adv-x="786" 
d="M579 330h83v-65c0 -32 -3 -67 -9 -100l131 -107l-46 -58l-110 91c-45 -94 -152 -96 -246 -96c-201 0 -318 1 -318 243c0 159 71 180 152 192c-53 45 -66 67 -66 140c0 154 91 171 222 171c144 0 217 -22 217 -182v-41h-83v27c0 120 -28 123 -146 123
c-67 0 -127 -2 -127 -86c0 -57 18 -80 63 -118l281 -236c1 11 2 77 2 102zM269 384c-104 -22 -122 -42 -122 -145c0 -141 19 -174 165 -174h73c64 0 158 5 177 77z" />
    <glyph glyph-name="quotesingle" unicode="'" horiz-adv-x="205" 
d="M136 450h-68l-13 299h95z" />
    <glyph glyph-name="parenleft" unicode="(" horiz-adv-x="311" 
d="M258 756v-70c-108 0 -113 -74 -113 -177v-414c0 -72 5 -143 97 -143h16v-70h-23c-160 0 -173 112 -173 244v351c0 163 5 279 196 279z" />
    <glyph glyph-name="parenright" unicode=")" horiz-adv-x="311" 
d="M62 756c191 0 196 -116 196 -279v-351c0 -132 -13 -244 -173 -244h-23v70h16c92 0 97 70 97 142v416c0 103 -5 176 -113 176v70z" />
    <glyph glyph-name="asterisk" unicode="*" horiz-adv-x="687" 
d="M543 588l-153 -55l93 -132l-45 -32l-93 136l-100 -136l-44 32l96 132l-152 58l18 53l154 -56v162h55v-162l153 57z" />
    <glyph glyph-name="plus" unicode="+" 
d="M26 405h230v217h48v-217h232v-47h-232v-217h-48v217h-230v47z" />
    <glyph glyph-name="comma" unicode="," horiz-adv-x="227" 
d="M159 101v-110c0 -61 -11 -103 -77 -103c-8 0 -17 1 -22 2v42c37 2 49 16 49 53v15h-39v101h89z" />
    <glyph glyph-name="period" unicode="." horiz-adv-x="223" 
d="M156 101v-101h-89v101h89z" />
    <glyph glyph-name="slash" unicode="/" horiz-adv-x="726" 
d="M648 749l-579 -859h-61l577 859h63z" />
    <glyph glyph-name="zero" unicode="0" horiz-adv-x="687" 
d="M660 377c0 -310 -92 -385 -317 -385s-317 75 -317 385s91 380 317 380c225 0 317 -70 317 -380zM577 377c0 255 -42 307 -234 307c-193 0 -234 -52 -234 -306c0 -253 43 -313 234 -313c190 0 234 61 234 312z" />
    <glyph glyph-name="one" unicode="1" horiz-adv-x="687" 
d="M442 749v-749h-80v685l-192 -211l-53 49l207 226h118z" />
    <glyph glyph-name="two" unicode="2" horiz-adv-x="689" 
d="M601 73v-73h-540v140c0 175 107 198 266 212c169 15 191 46 191 167c0 118 -47 165 -182 165c-161 0 -195 -55 -195 -159v-31h-80c0 200 62 263 277 263c181 0 263 -63 263 -239c0 -189 -64 -219 -252 -239c-179 -19 -208 -43 -208 -147v-59h460z" />
    <glyph glyph-name="three" unicode="3" horiz-adv-x="689" 
d="M274 348v73h96c126 0 146 16 146 137c0 79 -39 126 -183 126c-146 0 -181 -47 -181 -164h-80c0 174 69 237 260 237c193 0 267 -70 267 -199c0 -122 -37 -160 -122 -173c110 -14 136 -70 136 -169c0 -177 -63 -224 -279 -224c-161 0 -274 28 -274 209v44h80v-44
c0 -103 35 -136 193 -136c175 0 197 31 197 151c0 100 -43 132 -152 132h-104z" />
    <glyph glyph-name="four" unicode="4" horiz-adv-x="689" 
d="M532 749v-505h113v-73h-113v-171h-80v171h-422v101l376 477h126zM452 244v450l-352 -450h352z" />
    <glyph glyph-name="five" unicode="5" horiz-adv-x="687" 
d="M85 370v378h504v-73h-424v-224c45 60 128 62 196 62c178 0 255 -60 255 -236c0 -216 -50 -285 -269 -285c-178 0 -278 14 -278 223h83c0 -125 20 -150 195 -150c130 0 186 29 186 163c0 162 -27 212 -171 212c-159 0 -183 -17 -197 -70h-80z" />
    <glyph glyph-name="six" unicode="6" horiz-adv-x="689" 
d="M348 458c179 0 262 -53 262 -232c0 -182 -83 -234 -276 -234c-206 0 -277 34 -277 286v108c0 306 45 371 291 371c154 0 262 -13 262 -178v-23h-83v18c0 96 -39 110 -179 110c-162 0 -208 -35 -208 -216v-82c21 47 50 72 208 72zM140 226c0 -132 51 -161 194 -161
c142 0 193 35 193 160c0 127 -47 160 -193 160c-147 0 -194 -33 -194 -159z" />
    <glyph glyph-name="seven" unicode="7" horiz-adv-x="689" 
d="M600 749v-106l-363 -643h-100l395 676h-478v73h546z" />
    <glyph glyph-name="eight" unicode="8" horiz-adv-x="689" 
d="M337 351c-162 0 -196 -35 -196 -144s34 -142 197 -142c162 0 197 31 197 145c0 106 -35 141 -198 141zM337 683c-154 0 -185 -35 -185 -127c0 -107 23 -134 185 -134c169 0 187 35 187 133c0 90 -29 128 -187 128zM187 390c-105 21 -118 79 -118 165
c0 151 68 201 271 201c202 0 267 -50 267 -200c0 -84 -14 -144 -120 -166c101 -18 131 -82 131 -175c0 -164 -47 -223 -281 -223c-230 0 -279 60 -279 227c0 89 21 150 129 171z" />
    <glyph glyph-name="nine" unicode="9" horiz-adv-x="689" 
d="M324 289c-179 0 -262 53 -262 232c0 181 83 235 276 235s277 -35 277 -254v-140c0 -306 -44 -370 -291 -370c-153 0 -262 12 -262 177v23h83v-20c0 -94 40 -107 179 -107c163 0 208 34 208 214v83c-21 -47 -50 -73 -208 -73zM532 522c0 132 -51 161 -194 161
c-142 0 -193 -35 -193 -160c0 -127 47 -161 193 -161c147 0 194 34 194 160z" />
    <glyph glyph-name="colon" unicode=":" horiz-adv-x="223" 
d="M156 101v-101h-89v101h89zM156 522v-101h-89v101h89z" />
    <glyph glyph-name="semicolon" unicode=";" horiz-adv-x="224" 
d="M156 101v-110c0 -61 -11 -103 -77 -103c-8 0 -17 1 -22 2v42c37 2 49 16 49 53v15h-39v101h89zM156 523v-101h-89v101h89z" />
    <glyph glyph-name="less" unicode="&#x3c;" horiz-adv-x="561" 
d="M523 644v-88l-393 -180l393 -181v-87l-487 230v76z" />
    <glyph glyph-name="equal" unicode="=" 
d="M27 486h511v-47h-511v47zM27 325h511v-47h-511v47z" />
    <glyph glyph-name="greater" unicode="&#x3e;" 
d="M38 108v87l393 181l-393 181v87l487 -231v-75z" />
    <glyph glyph-name="question" unicode="?" horiz-adv-x="584" 
d="M301 216h-89c0 111 25 146 122 179c96 33 115 55 115 149c0 109 -41 137 -160 137c-134 0 -148 -28 -148 -115v-50h-80c0 186 36 238 225 238c158 0 243 -26 243 -201c0 -158 -74 -198 -153 -224c-68 -22 -75 -49 -75 -95v-18zM301 101v-101h-89v101h89z" />
    <glyph glyph-name="at" unicode="@" horiz-adv-x="707" 
d="M461 531h55v-258c0 -35 2 -76 44 -76c33 0 56 10 56 187c0 219 -16 230 -275 230c-232 0 -247 -25 -247 -266c0 -253 26 -289 254 -289c160 0 199 9 206 37l39 -28c-26 -47 -59 -56 -228 -56c-231 0 -318 11 -318 337c0 277 57 312 295 312c274 0 320 -47 320 -274
c0 -212 -39 -237 -99 -237c-41 0 -83 17 -91 61c-23 -54 -82 -61 -135 -61c-131 0 -144 81 -144 192c0 119 20 189 152 189c46 0 91 -6 116 -49v49zM461 372c0 79 -23 112 -105 112c-88 0 -104 -19 -104 -142c0 -128 19 -145 91 -145c106 0 118 34 118 126v49z" />
    <glyph glyph-name="A" unicode="A" horiz-adv-x="720" 
d="M26 0l273 749h121l279 -749h-89l-56 154h-378l-60 -154h-90zM527 227l-166 460l-165 -460h331z" />
    <glyph glyph-name="B" unicode="B" horiz-adv-x="691" 
d="M153 345v-272h231c128 0 175 15 175 138c0 122 -31 134 -140 134h-266zM153 676v-258h238c111 0 146 32 146 139c0 91 -25 119 -115 119h-269zM70 0v749h361c128 0 189 -49 189 -184c0 -84 -8 -142 -93 -172c99 -27 115 -77 115 -176c0 -134 -46 -217 -190 -217h-382z
" />
    <glyph glyph-name="C" unicode="C" horiz-adv-x="671" 
d="M565 250h81c0 -194 -62 -258 -297 -258c-226 0 -299 62 -299 380c0 316 72 385 299 385c240 0 277 -76 287 -245h-81c-14 131 -32 172 -206 172c-170 0 -216 -54 -216 -312s45 -307 216 -307c177 0 216 37 216 185z" />
    <glyph glyph-name="D" unicode="D" horiz-adv-x="732" 
d="M70 0v749h346c243 0 273 -164 273 -375c0 -205 -29 -374 -251 -374h-368zM153 676v-603h244c146 0 209 65 209 301c0 237 -65 302 -212 302h-241z" />
    <glyph glyph-name="E" unicode="E" horiz-adv-x="596" 
d="M153 418h381v-73h-381v-272h397v-73h-480v749h482v-73h-399v-258z" />
    <glyph glyph-name="F" unicode="F" horiz-adv-x="545" 
d="M153 418h365v-73h-365v-345h-83v749h457v-73h-374v-258z" />
    <glyph glyph-name="G" unicode="G" horiz-adv-x="695" 
d="M665 529h-83c-9 123 -36 155 -224 155c-177 0 -225 -54 -225 -312s48 -307 225 -307c182 0 224 54 224 230v26h-240v73h323v-87c0 -255 -69 -315 -306 -315c-249 0 -309 88 -309 380s64 385 308 385c262 0 294 -70 307 -228z" />
    <glyph glyph-name="H" unicode="H" horiz-adv-x="744" 
d="M153 418h438v331h83v-749h-83v345h-438v-345h-83v749h83v-331z" />
    <glyph glyph-name="I" unicode="I" horiz-adv-x="223" 
d="M153 749v-749h-83v749h83z" />
    <glyph glyph-name="J" unicode="J" horiz-adv-x="561" 
d="M408 749h83v-543c0 -128 -46 -214 -230 -214c-192 0 -232 68 -232 214v67h83v-55c0 -118 28 -153 149 -153c104 0 147 45 147 154v530z" />
    <glyph glyph-name="K" unicode="K" horiz-adv-x="696" 
d="M153 749v-331h74l307 331h111l-344 -362l384 -387h-115l-343 345h-74v-345h-83v749h83z" />
    <glyph glyph-name="L" unicode="L" horiz-adv-x="553" 
d="M153 749v-676h379v-73h-462v749h83z" />
    <glyph glyph-name="M" unicode="M" horiz-adv-x="946" 
d="M207 749l266 -642l266 642h137v-749h-83v689l-283 -689h-72l-285 682v-682h-83v749h137z" />
    <glyph glyph-name="N" unicode="N" horiz-adv-x="777" 
d="M70 749h132l422 -684v684h83v-749h-132l-422 677v-677h-83v749z" />
    <glyph glyph-name="O" unicode="O" horiz-adv-x="729" 
d="M50 374c0 319 63 383 316 383c251 0 312 -64 312 -383c0 -318 -61 -382 -314 -382c-251 0 -314 64 -314 382zM133 374c0 -264 28 -309 232 -309s230 45 230 309c0 266 -25 310 -230 310c-207 0 -232 -44 -232 -310z" />
    <glyph glyph-name="P" unicode="P" horiz-adv-x="666" 
d="M153 293v-293h-83v749h357c145 0 198 -64 198 -213c0 -182 -58 -243 -249 -243h-223zM153 676v-310h199c134 0 190 25 190 159c0 107 -19 151 -127 151h-262z" />
    <glyph glyph-name="Q" unicode="Q" horiz-adv-x="743" 
d="M726 91l-34 -57l-56 38c-62 -74 -146 -80 -277 -80c-252 0 -315 64 -315 382c0 319 64 383 314 383c255 0 318 -62 318 -383c0 -86 -1 -199 -13 -240zM372 326l217 -143c3 20 4 120 4 191c0 267 -32 310 -236 310s-230 -44 -230 -310c0 -264 27 -309 230 -309
c118 0 175 6 210 51l-233 151z" />
    <glyph glyph-name="R" unicode="R" horiz-adv-x="699" 
d="M153 303v-303h-83v749h356c146 0 217 -55 217 -212c0 -98 -19 -182 -127 -204c86 -6 117 -60 117 -143v-190h-83v170c0 99 -49 133 -144 133h-253zM153 676v-300h245c113 0 162 32 162 148c0 114 -39 152 -134 152h-273z" />
    <glyph glyph-name="S" unicode="S" horiz-adv-x="629" 
d="M35 231h83c0 -149 21 -166 201 -166c175 0 196 42 196 143s-27 125 -194 131c-179 6 -280 39 -280 209c0 152 82 209 278 209c168 0 266 -25 266 -215h-83c0 109 -29 142 -183 142c-164 0 -195 -34 -195 -131c0 -102 42 -125 237 -135c155 -8 237 -44 237 -203
c0 -177 -72 -223 -279 -223c-176 0 -284 15 -284 204v35z" />
    <glyph glyph-name="T" unicode="T" horiz-adv-x="601" 
d="M340 676v-676h-83v676h-242v73h567v-73h-242z" />
    <glyph glyph-name="U" unicode="U" horiz-adv-x="736" 
d="M75 749h83v-525c0 -137 30 -159 210 -159c181 0 213 22 213 159v525h83v-527c0 -220 -103 -230 -296 -230c-185 0 -293 10 -293 230v527z" />
    <glyph glyph-name="V" unicode="V" horiz-adv-x="643" 
d="M552 749h91l-265 -749h-122l-267 749h90l239 -682z" />
    <glyph glyph-name="W" unicode="W" horiz-adv-x="1151" 
d="M1136 749l-237 -749h-128l-196 674l-202 -674h-125l-231 749h88l204 -684l203 684h125l200 -684l210 684h89z" />
    <glyph glyph-name="X" unicode="X" horiz-adv-x="686" 
d="M136 749l212 -320l212 320h100l-246 -361l268 -388h-102l-232 344l-232 -344h-102l268 388l-246 361h100z" />
    <glyph glyph-name="Y" unicode="Y" horiz-adv-x="673" 
d="M20 749h93l227 -358l226 358h95l-283 -436v-313h-83v313z" />
    <glyph glyph-name="Z" unicode="Z" horiz-adv-x="637" 
d="M601 749v-80l-473 -596h483v-73h-584v74l469 602h-454v73h559z" />
    <glyph glyph-name="bracketleft" unicode="[" horiz-adv-x="311" 
d="M61 749h192v-65h-109v-731h109v-65h-192v861z" />
    <glyph glyph-name="backslash" unicode="\" horiz-adv-x="726" 
d="M79 749h63l577 -859h-61z" />
    <glyph glyph-name="bracketright" unicode="]" horiz-adv-x="311" 
d="M250 -112h-192v65h109v731h-109v65h192v-861z" />
    <glyph glyph-name="asciicircum" unicode="^" 
d="M118 420h-82l196 330h99l196 -330h-83l-163 271z" />
    <glyph glyph-name="underscore" unicode="_" 
d="M0 -81h562v-57h-562v57z" />
    <glyph glyph-name="grave" unicode="`" 
d="M227 742l148 -113l-26 -41l-161 99z" />
    <glyph glyph-name="a" unicode="a" horiz-adv-x="565" 
d="M420 155c0 94 -34 103 -174 103c-80 0 -121 -15 -121 -90c0 -90 36 -111 122 -111c101 0 173 5 173 98zM143 382h-80c0 144 89 152 208 152c145 0 229 -20 229 -184v-350h-75l3 68c-37 -66 -71 -76 -176 -76c-129 0 -207 24 -207 168c0 135 79 159 200 159
c124 0 153 -18 175 -61v75c0 128 -23 136 -152 136c-93 0 -125 -10 -125 -72v-15z" />
    <glyph glyph-name="b" unicode="b" horiz-adv-x="566" 
d="M289 469c-142 0 -144 -61 -144 -206c0 -142 4 -206 147 -206c130 0 149 63 149 206c0 145 -19 206 -152 206zM145 749v-285c34 47 68 70 171 70c184 0 205 -116 205 -274c0 -167 -24 -268 -213 -268c-94 0 -128 15 -168 75l5 -67h-80v749h80z" />
    <glyph glyph-name="c" unicode="c" horiz-adv-x="537" 
d="M419 192h77c-9 -164 -67 -200 -226 -200c-174 0 -225 65 -225 271s50 271 223 271c133 0 219 -30 219 -162v-17h-77c0 84 -19 114 -142 114c-117 0 -143 -31 -143 -203s31 -209 145 -209c123 0 142 26 149 135z" />
    <glyph glyph-name="d" unicode="d" horiz-adv-x="566" 
d="M269 469c-142 0 -144 -61 -144 -206c0 -142 4 -206 147 -206c130 0 149 63 149 206c0 145 -19 206 -152 206zM421 464v285h80v-749h-78l3 67c-40 -60 -74 -75 -168 -75c-189 0 -213 101 -213 268c0 158 20 274 204 274c103 0 138 -23 172 -70z" />
    <glyph glyph-name="e" unicode="e" horiz-adv-x="551" 
d="M501 246h-376c0 -157 26 -189 149 -189c126 0 147 17 147 89v16h80c0 -150 -79 -170 -227 -170c-176 0 -229 59 -229 273c0 207 67 269 228 269c160 0 228 -62 228 -245v-43zM125 311h296c0 120 -35 158 -148 158c-114 0 -148 -40 -148 -158z" />
    <glyph glyph-name="f" unicode="f" horiz-adv-x="295" 
d="M302 525v-65h-137v-460h-80v460h-80v65h80v78c0 120 54 156 168 156c17 0 35 -2 46 -4v-65c-19 3 -30 4 -52 4c-59 0 -82 -27 -82 -85v-84h137z" />
    <glyph glyph-name="g" unicode="g" 
d="M269 469c-142 0 -144 -61 -144 -206c0 -142 4 -206 147 -206c130 0 149 63 149 206c0 145 -19 206 -152 206zM425 456l-4 68h76v-558c0 -162 -55 -201 -229 -201c-142 0 -206 21 -206 173h74c4 -96 34 -108 122 -108c114 0 163 11 163 129v105c-33 -65 -106 -72 -172 -72
c-170 0 -204 96 -204 249c0 166 10 293 209 293c69 0 131 -16 171 -78z" />
    <glyph glyph-name="h" unicode="h" horiz-adv-x="575" 
d="M145 749v-284c35 64 99 68 167 68c146 0 198 -42 198 -193v-340h-80v355c0 97 -35 113 -126 113c-132 0 -159 -45 -159 -169v-299h-80v749h80z" />
    <glyph glyph-name="i" unicode="i" horiz-adv-x="210" 
d="M145 749v-86h-80v86h80zM145 524v-524h-80v524h80z" />
    <glyph glyph-name="j" unicode="j" horiz-adv-x="210" 
d="M145 750v-86h-80v86h80zM65 524h80v-573c0 -81 -19 -155 -117 -155c-12 0 -25 1 -38 5v55c4 -2 8 -3 11 -3c63 0 64 46 64 98v573z" />
    <glyph glyph-name="k" unicode="k" horiz-adv-x="506" 
d="M145 749v-438h31l189 213h96l-223 -241l264 -283h-104l-222 246h-31v-246h-80v749h80z" />
    <glyph glyph-name="l" unicode="l" horiz-adv-x="210" 
d="M145 749v-749h-80v749h80z" />
    <glyph glyph-name="m" unicode="m" horiz-adv-x="912" 
d="M145 524v-70c38 59 98 80 168 80c64 0 143 -17 167 -89c38 67 105 89 179 89c136 0 188 -52 188 -187v-347h-80v352c0 90 -26 117 -118 117c-126 0 -153 -60 -153 -122v-347h-80v346c0 96 -22 123 -123 123c-117 0 -148 -53 -148 -168v-301h-80v524h80z" />
    <glyph glyph-name="n" unicode="n" horiz-adv-x="576" 
d="M146 524v-59c35 64 99 68 167 68c146 0 198 -42 198 -193v-340h-80v355c0 97 -35 113 -126 113c-132 0 -159 -45 -159 -169v-299h-80v524h80z" />
    <glyph glyph-name="o" unicode="o" 
d="M511 262c0 -218 -57 -272 -231 -272c-173 0 -230 54 -230 271c0 218 57 272 230 272c174 0 231 -53 231 -271zM431 262c0 173 -31 206 -151 206c-119 0 -150 -32 -150 -206c0 -175 32 -207 150 -207c119 0 151 30 151 207z" />
    <glyph glyph-name="p" unicode="p" horiz-adv-x="566" 
d="M289 469c-142 0 -144 -61 -144 -206c0 -142 4 -206 147 -206c130 0 149 63 149 206c0 145 -19 206 -152 206zM145 60v-285h-80v749h80v-60c38 52 92 70 162 70c189 0 214 -100 214 -267c0 -158 -22 -275 -206 -275c-67 0 -132 8 -170 68z" />
    <glyph glyph-name="q" unicode="q" horiz-adv-x="566" 
d="M269 469c-142 0 -144 -61 -144 -206c0 -142 4 -206 147 -206c130 0 149 63 149 206c0 145 -19 206 -152 206zM421 524h80v-749h-80v285c-38 -60 -105 -68 -172 -68c-184 0 -204 114 -204 271c0 168 25 271 214 271c70 0 124 -18 162 -69v59z" />
    <glyph glyph-name="r" unicode="r" horiz-adv-x="444" 
d="M145 524v-52c30 43 79 65 139 65c107 0 153 -51 153 -156v-31h-80v39c0 64 -27 83 -89 83c-81 0 -123 -41 -123 -123v-349h-80v524h80z" />
    <glyph glyph-name="s" unicode="s" horiz-adv-x="537" 
d="M50 167h80c0 -95 34 -110 139 -110c114 0 144 13 144 95c0 54 -38 76 -140 84c-117 9 -223 22 -223 149c0 108 53 149 207 149c121 0 223 -13 223 -125v-19h-80c0 56 -20 79 -135 79c-110 0 -135 -16 -135 -76c0 -67 17 -82 151 -88c127 -6 212 -37 212 -158
c0 -128 -69 -155 -220 -155c-153 0 -223 24 -223 175z" />
    <glyph glyph-name="t" unicode="t" horiz-adv-x="388" 
d="M357 525v-65h-202v-321c0 -61 11 -82 74 -82s74 20 74 82v46h75c0 -148 -16 -193 -150 -193c-117 0 -153 36 -153 147v321h-69v65h69v126h80v-126h202z" />
    <glyph glyph-name="u" unicode="u" horiz-adv-x="566" 
d="M65 524h80v-348c0 -92 23 -120 119 -120c124 0 157 41 157 159v309h80v-524h-74v69c-45 -67 -101 -78 -180 -78c-126 0 -182 40 -182 166v367z" />
    <glyph glyph-name="v" unicode="v" horiz-adv-x="476" 
d="M383 524h85l-175 -524h-110l-175 524h85l144 -465z" />
    <glyph glyph-name="w" unicode="w" horiz-adv-x="763" 
d="M757 524l-147 -524h-114l-113 469l-113 -469h-116l-141 524h79l120 -471l115 471h114l114 -471l120 471h82z" />
    <glyph glyph-name="x" unicode="x" horiz-adv-x="476" 
d="M442 524l-167 -250l187 -274h-96l-135 212l-135 -212h-96l187 274l-167 250h92l119 -192l119 192h92z" />
    <glyph glyph-name="y" unicode="y" horiz-adv-x="469" 
d="M373 524h81l-161 -594c-36 -133 -80 -167 -159 -167c-13 0 -32 2 -45 6v64c11 -3 19 -5 30 -5c60 0 74 21 115 172h-34l-191 524h80l164 -466z" />
    <glyph glyph-name="z" unicode="z" horiz-adv-x="453" 
d="M50 524h379v-71l-313 -388h313v-65h-406v74l313 385h-286v65z" />
    <glyph glyph-name="braceleft" unicode="{" horiz-adv-x="561" 
d="M154 244v67c51 14 65 53 65 104v196c0 126 66 152 190 152v-73c-77 0 -107 -28 -107 -108v-180c0 -58 -7 -98 -61 -126c52 -29 61 -76 61 -130v-175c0 -82 25 -108 107 -108v-73c-131 0 -190 17 -190 167v179c0 54 -10 92 -65 108z" />
    <glyph glyph-name="bar" unicode="|" horiz-adv-x="561" 
d="M322 -186h-83v935h83v-935z" />
    <glyph glyph-name="braceright" unicode="}" horiz-adv-x="561" 
d="M408 308v-66c-52 -14 -65 -54 -65 -104v-196c0 -124 -63 -152 -190 -152v73c78 4 107 28 107 108v180c0 57 7 98 60 126c-52 29 -60 75 -60 130v175c0 82 -28 108 -107 108v73c129 0 190 -9 190 -167v-179c0 -54 11 -92 65 -109z" />
    <glyph glyph-name="asciitilde" unicode="~" horiz-adv-x="561" 
d="M57 293l-47 37c30 63 78 126 154 126c83 0 150 -82 237 -82c49 0 80 46 101 84l47 -37c-30 -62 -81 -125 -155 -125c-83 0 -147 78 -226 78c-55 0 -85 -36 -111 -81z" />
    <glyph glyph-name="afii10051" unicode="&#x402;" horiz-adv-x="803" 
d="M340 676v-258h196c163 0 222 -49 222 -204c0 -151 -62 -214 -220 -214h-117v73h111c119 0 143 41 143 141c0 115 -35 131 -154 131h-181v-345h-83v676h-242v73h567v-73h-242z" />
    <glyph glyph-name="afii10052" unicode="&#x403;" horiz-adv-x="545" 
d="M71 749h463v-73h-380v-676h-83v749zM445 946l-139 -150h-68l102 150h105z" />
    <glyph glyph-name="quotesinglbase" unicode="&#x201a;" horiz-adv-x="227" 
d="M159 101v-110c0 -61 -11 -103 -77 -103c-8 0 -17 1 -22 2v42c37 2 49 16 49 53v15h-39v101h89z" />
    <glyph glyph-name="afii10100" unicode="&#x453;" horiz-adv-x="434" 
d="M65 524h353v-65h-273v-459h-80v524zM364 695l-119 -128h-68l87 128h100z" />
    <glyph glyph-name="quotedblbase" unicode="&#x201e;" horiz-adv-x="358" 
d="M154 101v-110c0 -61 -11 -103 -77 -103c-8 0 -17 1 -22 2v42c37 2 49 16 49 53v15h-39v101h89zM311 101v-110c0 -61 -11 -103 -77 -103c-8 0 -17 1 -22 2v42c37 2 49 16 49 53v15h-39v101h89z" />
    <glyph glyph-name="ellipsis" unicode="&#x2026;" horiz-adv-x="671" 
d="M156 101v-101h-89v101h89zM380 101v-101h-89v101h89zM604 101v-101h-89v101h89z" />
    <glyph glyph-name="dagger" unicode="&#x2020;" horiz-adv-x="623" 
d="M270 749h83v-245h200v-73h-200v-658h-83v658h-200v73h200v245z" />
    <glyph glyph-name="daggerdbl" unicode="&#x2021;" horiz-adv-x="674" 
d="M53 407h88v92c0 208 71 258 245 258c179 0 214 -57 214 -228h-83c0 123 -31 155 -127 155c-126 0 -166 -38 -166 -139v-138h233v-73h-233v-65c0 -128 -19 -180 -67 -196h401v-73h-515v73c57 15 98 61 98 203v58h-88v73z" />
    <glyph glyph-name="perthousand" unicode="&#x2030;" horiz-adv-x="1297" 
d="M193 750c136 0 162 -33 162 -140v-97c0 -107 -26 -140 -162 -140c-135 0 -163 32 -163 139v97c0 111 28 141 163 141zM193 709c-71 0 -114 -6 -114 -87v-129c0 -76 43 -79 114 -79c72 0 113 2 113 84v124c0 82 -41 87 -113 87zM730 750l-508 -750h-51l505 750h54z
M709 377c136 0 162 -33 162 -140v-97c0 -107 -26 -140 -162 -140c-135 0 -163 32 -163 139v97c0 111 28 141 163 141zM709 336c-71 0 -114 -6 -114 -87v-129c0 -76 43 -79 114 -79c72 0 113 2 113 84v124c0 82 -41 87 -113 87zM1100 377c136 0 162 -33 162 -140v-97
c0 -107 -26 -140 -162 -140c-135 0 -163 32 -163 139v97c0 111 28 141 163 141zM1100 336c-71 0 -114 -6 -114 -87v-129c0 -76 43 -79 114 -79c72 0 113 2 113 84v124c0 82 -41 87 -113 87z" />
    <glyph glyph-name="afii10058" unicode="&#x409;" horiz-adv-x="1071" 
d="M128 749h439v-331h227c163 0 222 -49 222 -204c0 -152 -62 -214 -220 -214h-312v676h-273v-457c0 -142 -35 -219 -141 -219h-53v73h20c64 0 91 19 91 137v539zM567 345v-272h223c119 0 143 41 143 141c0 115 -35 131 -154 131h-212z" />
    <glyph glyph-name="guilsinglleft" unicode="&#x2039;" horiz-adv-x="320" 
d="M192 575l57 -35l-118 -251l131 -253l-55 -36l-150 289z" />
    <glyph glyph-name="afii10059" unicode="&#x40a;" horiz-adv-x="1096" 
d="M153 418h356v331h83v-331h227c163 0 222 -49 222 -204c0 -152 -62 -214 -220 -214h-312v345h-356v-345h-83v749h83v-331zM592 345v-272h223c119 0 143 41 143 141c0 115 -35 131 -154 131h-212z" />
    <glyph glyph-name="afii10061" unicode="&#x40c;" horiz-adv-x="696" 
d="M153 749v-331h74l307 331h111l-344 -362l384 -387h-115l-343 345h-74v-345h-83v749h83zM468 946l-139 -150h-68l102 150h105z" />
    <glyph glyph-name="afii10060" unicode="&#x40b;" horiz-adv-x="749" 
d="M340 676v-258h122c163 0 222 -49 222 -204v-214h-83v214c0 115 -35 131 -154 131h-107v-345h-83v676h-242v73h567v-73h-242z" />
    <glyph glyph-name="afii10145" unicode="&#x40f;" horiz-adv-x="744" 
d="M153 749v-676h438v676h83v-749h-262v-172h-80v172h-262v749h83z" />
    <glyph glyph-name="afii10099" unicode="&#x452;" horiz-adv-x="575" 
d="M145 749v-68h200v-57h-200v-159c35 64 99 68 167 68c146 0 198 -42 198 -193v-190c0 -216 -46 -286 -231 -286v65c113 0 151 36 151 221v205c0 97 -35 113 -126 113c-132 0 -159 -45 -159 -169v-299h-80v624h-65v57h65v68h80z" />
    <glyph glyph-name="quoteleft" unicode="&#x2018;" horiz-adv-x="202" 
d="M48 538v109c0 61 11 103 77 103c8 0 17 -1 22 -2v-42c-37 -2 -49 -16 -49 -53v-14h38v-101h-88z" />
    <glyph glyph-name="quoteright" unicode="&#x2019;" horiz-adv-x="196" 
d="M147 749v-110c0 -61 -11 -103 -77 -103c-8 0 -17 1 -22 2v42c37 2 49 16 49 53v15h-39v101h89z" />
    <glyph glyph-name="quotedblleft" unicode="&#x201c;" horiz-adv-x="350" 
d="M205 538v109c0 61 12 103 78 103c7 0 17 -1 22 -2v-42c-38 -2 -50 -16 -50 -53v-14h39v-101h-89zM47 538v109c0 61 11 103 78 103c7 0 18 -1 22 -2v-42c-38 -2 -50 -16 -50 -53v-14h38v-101h-88z" />
    <glyph glyph-name="quotedblright" unicode="&#x201d;" horiz-adv-x="350" 
d="M148 749v-110c0 -61 -11 -103 -77 -103c-8 0 -17 1 -22 2v42c37 2 49 16 49 53v15h-39v101h89zM306 749v-110c0 -61 -11 -103 -77 -103c-8 0 -17 1 -22 2v42c37 2 49 16 49 53v15h-39v101h89z" />
    <glyph glyph-name="bullet" unicode="&#x2022;" horiz-adv-x="674" 
d="M225 321c0 60 46 108 106 108c61 0 109 -48 109 -108s-47 -107 -108 -107c-60 0 -107 47 -107 107z" />
    <glyph glyph-name="endash" unicode="&#x2013;" horiz-adv-x="687" 
d="M44 405h599v-47h-599v47z" />
    <glyph glyph-name="emdash" unicode="&#x2014;" horiz-adv-x="783" 
d="M0 405h783v-47h-783v47z" />
    <glyph glyph-name="trademark" unicode="&#x2122;" horiz-adv-x="826" 
d="M142 352v355h-129v41h301v-41h-128v-355h-44zM427 748l140 -339l141 339h72v-396h-44v364l-150 -364h-38l-150 361v-361h-44v396h73z" />
    <glyph glyph-name="afii10106" unicode="&#x459;" horiz-adv-x="817" 
d="M101 524h350v-213h168c86 0 153 -35 153 -155c0 -114 -68 -156 -152 -156h-249v459h-190v-308c0 -83 -28 -151 -126 -151h-39v65h12c57 0 73 11 73 88v371zM451 246v-181h142c73 0 99 20 99 91c0 73 -27 90 -103 90h-138z" />
    <glyph glyph-name="guilsinglright" unicode="&#x203a;" horiz-adv-x="308" 
d="M128 575l134 -286l-151 -289l-54 36l130 253l-118 251z" />
    <glyph glyph-name="afii10107" unicode="&#x45a;" horiz-adv-x="817" 
d="M145 524v-213h226v213h80v-213h168c86 0 153 -35 153 -155c0 -114 -68 -156 -152 -156h-249v246h-226v-246h-80v524h80zM451 246v-181h142c73 0 99 20 99 91c0 73 -27 90 -103 90h-138z" />
    <glyph glyph-name="afii10109" unicode="&#x45c;" horiz-adv-x="506" 
d="M145 524v-213h31l189 213h96l-223 -241l264 -283h-104l-222 246h-31v-246h-80v524h80zM386 695l-119 -128h-68l87 128h100z" />
    <glyph glyph-name="afii10108" unicode="&#x45b;" horiz-adv-x="575" 
d="M145 749v-68h200v-57h-200v-159c35 64 99 68 167 68c146 0 198 -42 198 -193v-340h-80v355c0 97 -35 113 -126 113c-132 0 -159 -45 -159 -169v-299h-80v624h-65v57h65v68h80z" />
    <glyph glyph-name="afii10193" unicode="&#x45f;" horiz-adv-x="565" 
d="M145 524v-459h275v459h80v-524h-181v-149h-73v149h-181v524h80z" />
    <glyph glyph-name="afii10062" unicode="&#x40e;" horiz-adv-x="660" 
d="M20 749h90l231 -519l211 519h86l-262 -632c-32 -79 -78 -117 -140 -117h-78v73h49c52 0 71 16 89 70zM441 882h57c0 -92 -36 -115 -154 -115c-109 0 -153 23 -153 115h57c0 -55 41 -58 96 -58c59 0 97 3 97 58z" />
    <glyph glyph-name="afii10110" unicode="&#x45e;" horiz-adv-x="469" 
d="M373 524h81l-161 -594c-36 -133 -80 -167 -159 -167c-13 0 -32 2 -45 6v64c11 -3 19 -5 30 -5c60 0 74 21 115 172h-34l-191 524h80l164 -466zM310 665h48c0 -78 -31 -98 -117 -98s-118 20 -118 98h48c0 -43 22 -50 70 -50s69 6 69 50z" />
    <glyph glyph-name="afii10057" unicode="&#x408;" horiz-adv-x="561" 
d="M408 749h83v-543c0 -128 -46 -214 -230 -214c-192 0 -232 68 -232 214v67h83v-55c0 -118 28 -153 149 -153c104 0 147 45 147 154v530z" />
    <glyph glyph-name="currency" unicode="&#xa4;" horiz-adv-x="720" 
d="M134 543l38 38l50 -50c39 28 90 43 139 43c48 0 97 -14 135 -43l51 51l38 -36l-49 -49c28 -35 40 -82 40 -131c0 -50 -15 -101 -42 -134l50 -50l-38 -38l-50 50c-39 -29 -88 -43 -141 -43c-50 0 -97 19 -133 43l-51 -51l-38 36l49 49c-24 32 -40 76 -40 129
c0 50 13 99 42 136zM358 501c-75 0 -136 -57 -136 -133c0 -94 61 -144 136 -144s138 56 138 142c0 76 -63 135 -138 135z" />
    <glyph glyph-name="afii10050" unicode="&#x490;" horiz-adv-x="545" 
d="M71 749h380v133h83v-206h-380v-676h-83v749z" />
    <glyph glyph-name="brokenbar" unicode="&#xa6;" horiz-adv-x="556" 
d="M319 419h-80v330h80v-330zM319 -50h-80v330h80v-330z" />
    <glyph glyph-name="section" unicode="&#xa7;" horiz-adv-x="687" 
d="M440 352l-162 47c-22 7 -42 13 -55 13c-52 0 -66 -50 -66 -98c0 -71 19 -84 83 -102l169 -47c19 -5 35 -10 53 -10c61 0 68 59 68 115c0 50 -37 67 -90 82zM586 559h-73c0 115 -24 129 -166 129c-146 0 -160 -17 -160 -100c0 -75 20 -88 102 -113l167 -52
c104 -32 144 -45 144 -161c0 -59 -12 -107 -70 -133c68 -30 70 -82 70 -150c0 -153 -51 -191 -253 -191c-178 0 -258 12 -258 206h75v-32c0 -93 39 -104 183 -104c134 0 183 24 183 107c0 89 -20 97 -104 119l-230 61c-85 23 -112 65 -112 162c0 68 14 115 85 131
c-50 32 -58 86 -58 141c0 157 58 178 236 178c170 0 239 -9 239 -198z" />
    <glyph glyph-name="afii10023" unicode="&#x401;" horiz-adv-x="596" 
d="M153 418h381v-73h-381v-272h397v-73h-480v749h482v-73h-399v-258zM421 882v-86h-80v86h80zM270 882v-86h-80v86h80z" />
    <glyph glyph-name="copyright" unicode="&#xa9;" horiz-adv-x="879" 
d="M647 332c-10 -112 -94 -185 -205 -185c-131 0 -214 100 -214 226c0 127 82 232 215 232c93 0 187 -55 198 -154h-47c-15 71 -84 105 -152 105c-103 0 -156 -89 -156 -183c0 -95 55 -177 156 -177c86 0 148 51 159 136h46zM440 761c212 0 386 -175 386 -387
s-174 -388 -386 -388s-387 175 -387 388s174 387 387 387zM440 717c-189 0 -340 -155 -340 -343s151 -344 340 -344s339 157 339 344s-150 343 -339 343z" />
    <glyph glyph-name="afii10053" unicode="&#x404;" horiz-adv-x="682" 
d="M548 528c-14 124 -34 156 -203 156c-166 0 -217 -44 -217 -266h383v-73h-383c0 -245 31 -280 214 -280c188 0 215 30 215 165h83c0 -178 -47 -238 -298 -238c-244 0 -297 64 -297 380c0 319 61 385 297 385c216 0 276 -47 287 -229h-81z" />
    <glyph glyph-name="guillemotleft" unicode="&#xab;" horiz-adv-x="503" 
d="M191 575l58 -35l-118 -251l132 -253l-56 -36l-150 289zM376 575l57 -35l-118 -251l131 -253l-54 -36l-152 289z" />
    <glyph glyph-name="logicalnot" unicode="&#xac;" horiz-adv-x="561" 
d="M476 155v203h-440v47h487v-250h-47z" />
    <glyph glyph-name="registered" unicode="&#xae;" horiz-adv-x="879" 
d="M327 332v-182h-51v455h217c95 0 130 -34 130 -131c0 -65 -6 -105 -75 -121c53 -5 75 -38 75 -88v-115h-49v105c0 59 -33 77 -91 77h-156zM327 560v-185h149c69 0 98 16 98 85c0 67 -5 100 -79 100h-168zM440 761c212 0 386 -175 386 -387s-174 -388 -386 -388
s-387 175 -387 388s174 387 387 387zM440 717c-189 0 -340 -155 -340 -343s151 -344 340 -344s339 157 339 344s-150 343 -339 343z" />
    <glyph glyph-name="afii10056" unicode="&#x407;" horiz-adv-x="243" 
d="M80 882v-86h-80v86h80zM243 882v-86h-80v86h80zM163 749v-749h-83v749h83z" />
    <glyph glyph-name="degree" unicode="&#xb0;" 
d="M440 586c0 -88 -74 -159 -159 -159c-83 0 -159 71 -159 156c0 89 68 163 159 163c87 0 159 -74 159 -160zM398 586c0 64 -53 119 -117 119c-65 0 -117 -56 -117 -120c0 -63 54 -117 116 -117c64 0 118 54 118 118z" />
    <glyph glyph-name="plusminus" unicode="&#xb1;" 
d="M26 548h230v217h47v-217h232v-47h-232v-213h-47v213h-230v47zM26 238h509v-47h-509v47z" />
    <glyph glyph-name="afii10055" unicode="&#x406;" horiz-adv-x="223" 
d="M153 749v-749h-83v749h83z" />
    <glyph glyph-name="afii10103" unicode="&#x456;" horiz-adv-x="210" 
d="M145 749v-86h-80v86h80zM145 524v-524h-80v524h80z" />
    <glyph glyph-name="afii10098" unicode="&#x491;" horiz-adv-x="434" 
d="M65 524h288v92h65v-157h-273v-459h-80v524z" />
    <glyph glyph-name="mu" unicode="&#xb5;" horiz-adv-x="588" 
d="M65 537h80v-335c0 -83 64 -145 146 -145c102 0 152 97 152 186v294h80v-537h-80v105c-25 -69 -80 -113 -154 -113c-66 0 -110 22 -144 76v-255h-80v724z" />
    <glyph glyph-name="mu" unicode="&#x3bc;" horiz-adv-x="588" 
d="M65 537h80v-335c0 -83 64 -145 146 -145c102 0 152 97 152 186v294h80v-537h-80v105c-25 -69 -80 -113 -154 -113c-66 0 -110 22 -144 76v-255h-80v724z" />
    <glyph glyph-name="paragraph" unicode="&#xb6;" horiz-adv-x="689" 
d="M627 -210h-76v889h-89v-889h-76v504h-118c-239 0 -261 70 -261 222c0 184 30 233 261 233h359v-959zM386 364v315h-169c-109 0 -130 -25 -130 -156c0 -126 37 -159 174 -159h125z" />
    <glyph glyph-name="periodcentered" unicode="&#xb7;" horiz-adv-x="687" 
d="M388 324v-101h-89v101h89z" />
    <glyph glyph-name="periodcentered" unicode="&#x2219;" horiz-adv-x="687" 
d="M388 324v-101h-89v101h89z" />
    <glyph glyph-name="afii10071" unicode="&#x451;" horiz-adv-x="551" 
d="M501 246h-376c0 -157 26 -189 149 -189c126 0 147 17 147 89v16h80c0 -150 -79 -170 -227 -170c-176 0 -229 59 -229 273c0 207 67 269 228 269c160 0 228 -62 228 -245v-43zM125 311h296c0 120 -35 158 -148 158c-114 0 -148 -40 -148 -158zM390 665v-86h-80v86h80z
M249 665v-86h-80v86h80z" />
    <glyph glyph-name="afii61352" unicode="&#x2116;" horiz-adv-x="1200" 
d="M765 117h358v-44h-358v44zM945 514c120 0 147 -35 147 -161v-18c0 -104 -11 -155 -141 -155c-110 0 -154 35 -154 149v28c0 122 24 157 148 157zM948 468c-69 0 -94 -28 -94 -96v-45c0 -84 16 -101 83 -101c89 0 98 13 98 103v41c0 63 -5 98 -87 98zM70 749h132l422 -684
v684h83v-749h-132l-422 677v-677h-83v749z" />
    <glyph glyph-name="afii10101" unicode="&#x454;" horiz-adv-x="537" 
d="M418 160h78c-7 -121 -48 -168 -226 -168c-180 0 -225 61 -225 273s55 269 223 269c133 0 209 -17 219 -161h-75c-11 81 -37 96 -144 96c-117 0 -143 -38 -143 -158h258v-65h-258c0 -155 21 -189 144 -189c116 0 142 21 149 103z" />
    <glyph glyph-name="guillemotright" unicode="&#xbb;" horiz-adv-x="503" 
d="M312 575l134 -286l-151 -289l-55 36l131 253l-118 251zM127 575l136 -286l-153 -289l-53 36l130 253l-118 251z" />
    <glyph glyph-name="afii10105" unicode="&#x458;" horiz-adv-x="210" 
d="M145 750v-86h-80v86h80zM65 524h80v-573c0 -81 -19 -155 -117 -155c-12 0 -25 1 -38 5v55c4 -2 8 -3 11 -3c63 0 64 46 64 98v573z" />
    <glyph glyph-name="afii10054" unicode="&#x405;" horiz-adv-x="629" 
d="M35 231h83c0 -149 21 -166 201 -166c175 0 196 42 196 143s-27 125 -194 131c-179 6 -280 39 -280 209c0 152 82 209 278 209c168 0 266 -25 266 -215h-83c0 109 -29 142 -183 142c-164 0 -195 -34 -195 -131c0 -102 42 -125 237 -135c155 -8 237 -44 237 -203
c0 -177 -72 -223 -279 -223c-176 0 -284 15 -284 204v35z" />
    <glyph glyph-name="afii10102" unicode="&#x455;" horiz-adv-x="537" 
d="M50 167h80c0 -95 34 -110 139 -110c114 0 144 13 144 95c0 54 -38 76 -140 84c-117 9 -223 22 -223 149c0 108 53 149 207 149c121 0 223 -13 223 -125v-19h-80c0 56 -20 79 -135 79c-110 0 -135 -16 -135 -76c0 -67 17 -82 151 -88c127 -6 212 -37 212 -158
c0 -128 -69 -155 -220 -155c-153 0 -223 24 -223 175z" />
    <glyph glyph-name="afii10104" unicode="&#x457;" horiz-adv-x="211" 
d="M214 665v-86h-80v86h80zM73 665v-86h-80v86h80zM142 524v-524h-80v524h80z" />
    <glyph glyph-name="afii10017" unicode="&#x410;" horiz-adv-x="720" 
d="M26 0l273 749h121l279 -749h-89l-56 154h-378l-60 -154h-90zM527 227l-166 460l-165 -460h331z" />
    <glyph glyph-name="afii10018" unicode="&#x411;" horiz-adv-x="683" 
d="M73 749h495v-73h-412v-258h250c163 0 222 -49 222 -204c0 -152 -62 -214 -220 -214h-335v749zM156 345v-272h246c119 0 143 41 143 141c0 115 -35 131 -154 131h-235z" />
    <glyph glyph-name="afii10019" unicode="&#x412;" horiz-adv-x="691" 
d="M153 345v-272h231c128 0 175 15 175 138c0 122 -31 134 -140 134h-266zM153 676v-258h238c111 0 146 32 146 139c0 91 -25 119 -115 119h-269zM70 0v749h361c128 0 189 -49 189 -184c0 -84 -8 -142 -93 -172c99 -27 115 -77 115 -176c0 -134 -46 -217 -190 -217h-382z
" />
    <glyph glyph-name="afii10020" unicode="&#x413;" horiz-adv-x="545" 
d="M71 749h463v-73h-380v-676h-83v749z" />
    <glyph glyph-name="afii10021" unicode="&#x414;" horiz-adv-x="743" 
d="M78 73v1c57 86 76 173 76 289v386h509v-676h54v-245h-76v172h-533v-172h-76v245h46zM580 676h-343v-303c0 -151 -19 -221 -65 -300h408v603z" />
    <glyph glyph-name="afii10022" unicode="&#x415;" horiz-adv-x="596" 
d="M153 418h381v-73h-381v-272h397v-73h-480v749h482v-73h-399v-258z" />
    <glyph glyph-name="afii10024" unicode="&#x416;" horiz-adv-x="1122" 
d="M95 749h104l253 -331h73v331h83v-331h72l254 331h103l-282 -364l336 -385h-120l-291 345h-72v-345h-83v345h-73l-291 -345h-120l336 385z" />
    <glyph glyph-name="afii10025" unicode="&#x417;" horiz-adv-x="683" 
d="M228 345v73h169c117 0 147 25 147 139c0 95 -50 127 -193 127c-154 0 -188 -33 -196 -152h-83c7 192 91 225 279 225c198 0 276 -51 276 -190c0 -117 -37 -168 -124 -181c110 -15 137 -73 137 -187c0 -153 -83 -207 -289 -207c-230 0 -292 46 -292 207v25h83v-24
c0 -118 33 -135 209 -135c170 0 206 48 206 146c0 88 -43 134 -155 134h-174z" />
    <glyph glyph-name="afii10026" unicode="&#x418;" horiz-adv-x="782" 
d="M153 749v-692l426 692h133v-749h-83v685l-427 -685h-132v749h83z" />
    <glyph glyph-name="afii10027" unicode="&#x419;" horiz-adv-x="782" 
d="M153 749v-691l426 691h133v-749h-83v686l-427 -686h-132v749h83zM475 882h57c0 -92 -36 -115 -154 -115c-109 0 -153 23 -153 115h57c0 -55 41 -58 96 -58c59 0 97 3 97 58z" />
    <glyph glyph-name="afii10028" unicode="&#x41a;" horiz-adv-x="696" 
d="M153 749v-331h74l307 331h111l-344 -362l384 -387h-115l-343 345h-74v-345h-83v749h83z" />
    <glyph glyph-name="afii10029" unicode="&#x41b;" horiz-adv-x="726" 
d="M128 749h528v-749h-83v676h-362v-457c0 -142 -35 -219 -141 -219h-53v73h20c64 0 91 19 91 137v539z" />
    <glyph glyph-name="afii10030" unicode="&#x41c;" horiz-adv-x="946" 
d="M207 749l266 -642l266 642h137v-749h-83v689l-283 -689h-72l-285 682v-682h-83v749h137z" />
    <glyph glyph-name="afii10031" unicode="&#x41d;" horiz-adv-x="744" 
d="M153 418h438v331h83v-749h-83v345h-438v-345h-83v749h83v-331z" />
    <glyph glyph-name="afii10032" unicode="&#x41e;" horiz-adv-x="729" 
d="M50 374c0 319 63 383 316 383c251 0 312 -64 312 -383c0 -318 -61 -382 -314 -382c-251 0 -314 64 -314 382zM133 374c0 -264 28 -309 232 -309s230 45 230 309c0 266 -25 310 -230 310c-207 0 -232 -44 -232 -310z" />
    <glyph glyph-name="afii10033" unicode="&#x41f;" horiz-adv-x="744" 
d="M70 749h604v-749h-83v676h-438v-676h-83v749z" />
    <glyph glyph-name="afii10034" unicode="&#x420;" horiz-adv-x="666" 
d="M153 293v-293h-83v749h357c145 0 198 -64 198 -213c0 -182 -58 -243 -249 -243h-223zM153 676v-310h199c134 0 190 25 190 159c0 107 -19 151 -127 151h-262z" />
    <glyph glyph-name="afii10035" unicode="&#x421;" horiz-adv-x="671" 
d="M565 250h81c0 -194 -62 -258 -297 -258c-226 0 -299 62 -299 380c0 316 72 385 299 385c240 0 277 -76 287 -245h-81c-14 131 -32 172 -206 172c-170 0 -216 -54 -216 -312s45 -307 216 -307c177 0 216 37 216 185z" />
    <glyph glyph-name="afii10036" unicode="&#x422;" horiz-adv-x="601" 
d="M340 676v-676h-83v676h-242v73h567v-73h-242z" />
    <glyph glyph-name="afii10037" unicode="&#x423;" horiz-adv-x="660" 
d="M20 749h90l231 -519l211 519h86l-262 -632c-32 -79 -78 -117 -140 -117h-78v73h49c52 0 71 16 89 70z" />
    <glyph glyph-name="afii10038" unicode="&#x424;" horiz-adv-x="872" 
d="M393 749h83v-89h95c169 0 253 -73 253 -275c0 -203 -83 -274 -252 -274h-96v-111h-83v111h-93c-171 0 -255 71 -255 274c0 204 84 275 255 275h93v89zM476 589v-407h87c130 0 178 62 178 203s-49 204 -179 204h-86zM393 182v407h-87c-135 0 -178 -63 -178 -204
s43 -203 178 -203h87z" />
    <glyph glyph-name="afii10039" unicode="&#x425;" horiz-adv-x="686" 
d="M136 749l212 -320l212 320h100l-246 -361l268 -388h-102l-232 344l-232 -344h-102l268 388l-246 361h100z" />
    <glyph glyph-name="afii10040" unicode="&#x426;" horiz-adv-x="752" 
d="M153 749v-676h438v676h83v-676h56v-245h-80v172h-580v749h83z" />
    <glyph glyph-name="afii10041" unicode="&#x427;" horiz-adv-x="694" 
d="M60 749h83v-190c0 -143 61 -150 192 -150c58 0 151 2 206 14v326h83v-749h-83v352c-63 -14 -161 -16 -226 -16c-202 0 -255 48 -255 238v175z" />
    <glyph glyph-name="afii10042" unicode="&#x428;" horiz-adv-x="1153" 
d="M535 749h83v-676h382v676h83v-749h-1013v749h83v-676h382v676z" />
    <glyph glyph-name="afii10043" unicode="&#x429;" horiz-adv-x="1173" 
d="M535 749h83v-676h382v676h83v-676h56v-245h-80v172h-989v749h83v-676h382v676z" />
    <glyph glyph-name="afii10044" unicode="&#x42a;" horiz-adv-x="740" 
d="M219 749v-331h250c163 0 222 -49 222 -204c0 -152 -62 -214 -220 -214h-335v676h-136v73h219zM219 345v-272h246c119 0 143 41 143 141c0 115 -35 131 -154 131h-235z" />
    <glyph glyph-name="afii10045" unicode="&#x42b;" horiz-adv-x="899" 
d="M153 749v-331h250c163 0 222 -49 222 -204c0 -152 -62 -214 -220 -214h-335v749h83zM153 345v-272h246c119 0 143 41 143 141c0 115 -35 131 -154 131h-235zM829 749v-749h-83v749h83z" />
    <glyph glyph-name="afii10046" unicode="&#x42c;" horiz-adv-x="680" 
d="M153 749v-331h250c163 0 222 -49 222 -204c0 -152 -62 -214 -220 -214h-335v749h83zM153 345v-272h246c119 0 143 41 143 141c0 115 -35 131 -154 131h-235z" />
    <glyph glyph-name="afii10047" unicode="&#x42d;" horiz-adv-x="681" 
d="M137 528h-83c11 182 91 229 287 229c228 0 296 -74 296 -384c0 -307 -70 -381 -296 -381c-225 0 -298 60 -298 238h83c0 -135 52 -165 215 -165c186 0 213 73 213 280h-341v73h341c0 219 -64 266 -213 266c-156 0 -190 -31 -204 -156z" />
    <glyph glyph-name="afii10048" unicode="&#x42e;" horiz-adv-x="953" 
d="M153 749v-331h159c0 290 85 339 294 339c208 0 291 -44 291 -382c0 -337 -83 -383 -291 -383c-209 0 -294 46 -294 353h-159v-345h-83v749h83zM606 65c145 0 208 31 208 310c0 280 -64 309 -208 309c-163 0 -211 -29 -211 -309c0 -278 48 -310 211 -310z" />
    <glyph glyph-name="afii10049" unicode="&#x42f;" horiz-adv-x="694" 
d="M541 300h-231l-168 -300h-101l177 310c-95 17 -165 90 -165 220c0 156 83 219 239 219h332v-749h-83v300zM541 373v303h-266c-107 0 -139 -55 -139 -162c0 -91 63 -141 179 -141h226z" />
    <glyph glyph-name="afii10065" unicode="&#x430;" horiz-adv-x="565" 
d="M420 155c0 94 -34 103 -174 103c-80 0 -121 -15 -121 -90c0 -90 36 -111 122 -111c101 0 173 5 173 98zM143 382h-80c0 144 89 152 208 152c145 0 229 -20 229 -184v-350h-75l3 68c-37 -66 -71 -76 -176 -76c-129 0 -207 24 -207 168c0 135 79 159 200 159
c124 0 153 -18 175 -61v75c0 128 -23 136 -152 136c-93 0 -125 -10 -125 -72v-15z" />
    <glyph glyph-name="afii10066" unicode="&#x431;" horiz-adv-x="568" 
d="M120 432c28 55 74 82 159 82c188 0 233 -74 233 -254c0 -179 -36 -268 -232 -268s-230 89 -230 268v162c0 178 75 261 211 261c126 0 138 4 138 43h67c0 -88 -51 -105 -176 -105c-102 0 -170 -31 -170 -189zM279 449c-118 0 -148 -38 -148 -190c0 -150 23 -202 151 -202
c127 0 150 52 150 203c0 153 -29 189 -153 189z" />
    <glyph glyph-name="afii10067" unicode="&#x432;" horiz-adv-x="559" 
d="M145 246v-181h185c53 0 93 17 93 88c0 73 -40 93 -93 93h-185zM145 460v-149h183c66 0 86 16 86 73c0 63 -28 76 -86 76h-183zM65 0v525h265c93 0 164 -25 164 -135c0 -49 -27 -97 -96 -109c83 -20 105 -72 105 -128c0 -123 -67 -153 -159 -153h-279z" />
    <glyph glyph-name="afii10068" unicode="&#x433;" horiz-adv-x="434" 
d="M65 524h353v-65h-273v-459h-80v524z" />
    <glyph glyph-name="afii10069" unicode="&#x434;" horiz-adv-x="559" 
d="M67 65c39 65 50 117 50 222v237h371v-459h55v-214h-73v149h-378v-149h-73v214h48zM408 65v394h-211v-187c0 -86 -14 -154 -46 -207h257z" />
    <glyph glyph-name="afii10070" unicode="&#x435;" horiz-adv-x="551" 
d="M501 246h-376c0 -157 26 -189 149 -189c126 0 147 16 147 88v17h80c0 -150 -79 -170 -227 -170c-176 0 -229 59 -229 273c0 207 67 269 228 269c160 0 228 -62 228 -245v-43zM125 311h296c0 120 -35 158 -148 158c-114 0 -148 -40 -148 -158z" />
    <glyph glyph-name="afii10072" unicode="&#x436;" horiz-adv-x="747" 
d="M335 525h80v-214h31l165 214h85l-192 -243l234 -282h-94l-198 246h-31v-246h-80v246h-32l-198 -246h-94l234 282l-193 243h86l166 -214h31v214z" />
    <glyph glyph-name="afii10073" unicode="&#x437;" horiz-adv-x="543" 
d="M148 381h-80v9c0 120 79 144 205 144c156 0 210 -47 210 -139c0 -49 -24 -110 -92 -122c77 -12 101 -62 101 -118c0 -119 -52 -163 -214 -163c-181 0 -226 41 -226 167h80c0 -88 14 -102 138 -102s142 18 142 95c0 57 -27 94 -91 94h-118v65h118c48 0 82 12 82 78
c0 48 -17 80 -125 80c-94 0 -130 -5 -130 -79v-9z" />
    <glyph glyph-name="afii10074" unicode="&#x438;" horiz-adv-x="577" 
d="M145 524v-429l269 429h98v-524h-80v426l-267 -426h-100v524h80z" />
    <glyph glyph-name="afii10075" unicode="&#x439;" horiz-adv-x="577" 
d="M145 524v-428l268 428h99v-524h-80v427l-267 -427h-100v524h80zM357 665h48c0 -78 -31 -98 -117 -98s-118 20 -118 98h48c0 -43 22 -50 70 -50s69 6 69 50z" />
    <glyph glyph-name="afii10076" unicode="&#x43a;" horiz-adv-x="506" 
d="M145 524v-213h31l189 213h96l-223 -241l264 -283h-104l-222 246h-31v-246h-80v524h80z" />
    <glyph glyph-name="afii10077" unicode="&#x43b;" horiz-adv-x="550" 
d="M101 524h384v-524h-80v459h-224v-308c0 -83 -28 -151 -126 -151h-39v65h12c57 0 73 11 73 88v371z" />
    <glyph glyph-name="afii10078" unicode="&#x43c;" horiz-adv-x="732" 
d="M365 91l174 433h128v-524h-80v455l-187 -455h-70l-185 456v-456h-80v524h126z" />
    <glyph glyph-name="afii10079" unicode="&#x43d;" horiz-adv-x="565" 
d="M145 524v-213h275v213h80v-524h-80v246h-275v-246h-80v524h80z" />
    <glyph glyph-name="afii10080" unicode="&#x43e;" 
d="M511 262c0 -218 -57 -272 -231 -272c-173 0 -230 54 -230 271c0 218 57 272 230 272c174 0 231 -53 231 -271zM431 262c0 173 -31 206 -151 206c-119 0 -150 -32 -150 -206c0 -175 32 -207 150 -207c119 0 151 30 151 207z" />
    <glyph glyph-name="afii10081" unicode="&#x43f;" horiz-adv-x="565" 
d="M65 524h435v-524h-80v459h-275v-459h-80v524z" />
    <glyph glyph-name="afii10082" unicode="&#x440;" horiz-adv-x="566" 
d="M289 469c-142 0 -144 -61 -144 -206c0 -142 4 -206 147 -206c130 0 149 63 149 206c0 145 -19 206 -152 206zM145 60v-285h-80v749h80v-60c38 52 92 70 162 70c189 0 214 -100 214 -267c0 -158 -22 -275 -206 -275c-67 0 -132 8 -170 68z" />
    <glyph glyph-name="afii10083" unicode="&#x441;" horiz-adv-x="537" 
d="M419 192h77c-9 -164 -67 -200 -226 -200c-174 0 -225 65 -225 271s50 271 223 271c133 0 219 -30 219 -162v-17h-77c0 84 -19 114 -142 114c-117 0 -143 -31 -143 -203s31 -209 145 -209c123 0 142 26 149 135z" />
    <glyph glyph-name="afii10084" unicode="&#x442;" horiz-adv-x="458" 
d="M188 0v459h-181v65h442v-65h-181v-459h-80z" />
    <glyph glyph-name="afii10085" unicode="&#x443;" horiz-adv-x="469" 
d="M373 524h81l-161 -594c-36 -133 -80 -167 -159 -167c-13 0 -32 2 -45 6v64c11 -3 19 -5 30 -5c60 0 74 21 115 172h-34l-191 524h80l164 -466z" />
    <glyph glyph-name="afii10086" unicode="&#x444;" horiz-adv-x="820" 
d="M370 -225v307c-24 -58 -85 -90 -151 -90c-161 0 -169 113 -169 273c0 168 10 269 175 269c61 0 113 -24 145 -82v298h80v-298c34 58 82 82 148 82c158 0 172 -101 172 -269c0 -160 -10 -273 -172 -273c-64 0 -124 32 -148 92v-309h-80zM251 469c-99 0 -121 -66 -121 -189
c0 -158 22 -223 121 -223c98 0 119 67 119 223c0 129 -27 189 -119 189zM568 469c-92 0 -118 -60 -118 -189c0 -156 20 -223 118 -223c99 0 122 68 122 226c0 123 -23 186 -122 186z" />
    <glyph glyph-name="afii10087" unicode="&#x445;" horiz-adv-x="476" 
d="M442 524l-167 -250l187 -274h-96l-135 212l-135 -212h-96l187 274l-167 250h92l119 -192l119 192h92z" />
    <glyph glyph-name="afii10088" unicode="&#x446;" horiz-adv-x="581" 
d="M145 524v-459h274v459h80v-459h55v-214h-73v149h-416v524h80z" />
    <glyph glyph-name="afii10089" unicode="&#x447;" horiz-adv-x="538" 
d="M65 524h80v-132c0 -84 22 -100 113 -100c71 0 105 8 135 24v208h80v-524h-80v271h-4c-24 -35 -50 -44 -154 -44c-111 0 -170 37 -170 147v150z" />
    <glyph glyph-name="afii10090" unicode="&#x448;" horiz-adv-x="864" 
d="M145 524v-459h247v459h80v-459h247v459h80v-524h-734v524h80z" />
    <glyph glyph-name="afii10091" unicode="&#x449;" horiz-adv-x="868" 
d="M145 524v-459h247v459h80v-459h247v459h80v-459h55v-214h-73v149h-716v524h80z" />
    <glyph glyph-name="afii10092" unicode="&#x44a;" horiz-adv-x="573" 
d="M0 524h184v-213h191c86 0 153 -35 153 -155c0 -114 -68 -156 -152 -156h-272v459h-104v65zM184 246v-181h165c73 0 99 20 99 91c0 73 -27 90 -103 90h-161z" />
    <glyph glyph-name="afii10093" unicode="&#x44b;" horiz-adv-x="734" 
d="M145 524v-213h191c86 0 153 -35 153 -155c0 -114 -68 -156 -152 -156h-272v524h80zM145 246v-181h165c73 0 99 20 99 91c0 73 -27 90 -103 90h-161zM669 524v-524h-80v524h80z" />
    <glyph glyph-name="afii10094" unicode="&#x44c;" horiz-adv-x="534" 
d="M145 524v-213h191c86 0 153 -35 153 -155c0 -114 -68 -156 -152 -156h-272v524h80zM145 246v-181h165c73 0 99 20 99 91c0 73 -27 90 -103 90h-161z" />
    <glyph glyph-name="afii10095" unicode="&#x44d;" horiz-adv-x="552" 
d="M140 380h-75c15 127 86 154 219 154c168 0 223 -58 223 -270s-44 -272 -224 -272c-178 0 -220 62 -227 168h78c7 -82 33 -103 149 -103c123 0 144 34 144 189h-225v65h225c0 120 -26 158 -143 158c-107 0 -133 -16 -144 -89z" />
    <glyph glyph-name="afii10096" unicode="&#x44e;" horiz-adv-x="776" 
d="M145 311h124c10 173 59 222 230 222s232 -45 232 -271c0 -227 -61 -272 -232 -272s-230 46 -230 256h-124v-246h-80v524h80v-213zM651 262c0 169 -27 206 -152 206c-123 0 -150 -32 -150 -207c0 -176 27 -206 150 -206c125 0 152 30 152 207z" />
    <glyph glyph-name="afii10097" unicode="&#x44f;" horiz-adv-x="535" 
d="M390 211h-158l-104 -211h-90l114 221c-54 8 -108 62 -108 147c0 117 70 156 154 156h272v-524h-80v211zM390 276v183h-166c-72 0 -100 -24 -100 -91c0 -76 26 -92 102 -92h164z" />
    <glyph glyph-name="hyphenminus" horiz-adv-x="579" 
d="M40 405h493v-47h-493v47z" />
    <glyph glyph-name="Euro" unicode="&#x20ac;" horiz-adv-x="687" 
d="M634 693v-91c-39 40 -106 76 -199 76c-143 0 -217 -93 -236 -195h383l-26 -67h-368c-1 -9 -2 -23 -2 -37c0 -17 1 -32 2 -42h336l-26 -67h-299c23 -118 104 -199 238 -199c90 0 154 36 197 77v-92c-31 -29 -105 -63 -205 -63c-169 0 -281 95 -312 277h-87l27 67h53
c-1 10 -2 27 -2 42s1 28 1 37h-79l27 67h59c27 143 117 274 313 274c94 0 170 -33 205 -64z" />
    </font>
</defs>
</svg>
