<svg xmlns="http://www.w3.org/2000/svg" xmlns:xlink="http://www.w3.org/1999/xlink" width="96" height="41" viewBox="0 0 96 41">
    <defs>
        <path id="a" d="M0 41h96V0H0z"/>
    </defs>
    <g fill="none" fill-rule="evenodd">
        <path fill="#FEFEFE" d="M33.07 4.33a12.576 12.576 0 0 0-3.202-.395c-7.458 0-11.368 5.708-10.065 12.897h5.213c-.45-6.2 2.022-7.684 4.584-7.684 3.235 0 3.953 2.381 3.953 4.269 0 5.078-5.481 10.336-14.424 18.11l.045 4.359h14.842C30.406 39.06 25.685 41 20.5 41 9.178 41 0 31.821 0 20.5S9.178 0 20.5 0c4.743 0 9.097 1.626 12.57 4.33zM41 20.5c0 3.484-.875 6.76-2.409 9.634H27.623c4.382-3.763 11.846-9.448 12.066-16.792A20.414 20.414 0 0 1 41 20.5zM60.199 14.57h4.787C65.15 10.868 63.923 5 56.026 5 50.215 5 46 8.537 46 15.902c0 .998.04 6.158.04 9.361 0 7.99 5.444 9.737 10.026 9.737 2.742 0 6.711-.625 8.552-2.663V19.605h-9.002v4.618h4.01v5.618c-3.028 1.04-8.552 1.456-8.552-5.618v-8.321c0-4.952 2.25-6.657 4.746-6.657 2.579 0 4.379 1.331 4.379 5.325M95.998 26.935c.204-11.448-12.591-7.646-12.47-14.039.04-2.255 1.467-3.718 3.79-3.718 2.486 0 3.952 1.504 3.911 5.432h4.687c.122-3.552-.693-9.61-8.434-9.61-4.81 0-8.762 2.424-8.844 7.813-.203 10.988 12.674 7.395 12.47 14.04-.082 2.715-1.998 3.926-4.157 3.926-2.525 0-4.564-1.504-4.156-6.016h-4.728C77.537 30.738 80.105 35 86.911 35c5.745 0 9.005-3.26 9.087-8.065"/>
        <mask id="b" fill="#fff">
            <use xlink:href="#a"/>
        </mask>
        <path fill="#404042" d="M69 34h5V5h-5z" mask="url(#b)"/>
        <path fill="#FEFEFE" d="M69 34h5V5h-5z" mask="url(#b)"/>
    </g>
</svg>
