<svg xmlns="http://www.w3.org/2000/svg" xmlns:xlink="http://www.w3.org/1999/xlink" width="136" height="47" viewBox="0 0 136 47">
    <defs>
        <path id="a" d="M0 27.236V0h57.65v27.236H0z"/>
    </defs>
    <g fill="none" fill-rule="evenodd">
        <path fill="#FEFEFE" d="M67.947 46.115c13.807 0 24.946-10.126 24.946-22.586C92.893 11.07 81.753 1 67.947 1 54.14 1 43 11.07 43 23.53c0 12.459 11.14 22.585 24.947 22.585"/>
        <path stroke="#231F20" stroke-width=".35" d="M67.947 46.115c13.807 0 24.946-10.126 24.946-22.586C92.893 11.07 81.753 1 67.947 1 54.14 1 43 11.07 43 23.53c0 12.459 11.14 22.585 24.947 22.585z"/>
        <path fill="#FEFEFE" d="M67.74 45.462c13.077 0 23.74-9.513 23.74-21.26C91.48 12.512 80.816 3 67.74 3 54.61 3 44 12.512 44 24.202c0 11.747 10.61 21.26 23.74 21.26"/>
        <path stroke="#333" stroke-width=".35" d="M67.74 45.462c13.077 0 23.74-9.513 23.74-21.26C91.48 12.512 80.816 3 67.74 3 54.61 3 44 12.512 44 24.202c0 11.747 10.61 21.26 23.74 21.26z"/>
        <g transform="translate(0 2.77)">
            <mask id="b" fill="#fff">
                <use xlink:href="#a"/>
            </mask>
            <path fill="#333" d="M51.73 26.496c-1.043.623-4.016 1.529-4.85-.566-1.2.68-3.65 1.189-4.85-.51-1.981.51-4.224 1.586-5.058-.906-1.773.51-6.153 1.7-6.623-1.414-2.607.396-6.361.678-6.883-2.321-2.242 0-6.101-.397-6.101-3.228-2.242 0-6.153-1.642-5.684-3.624-2.034-.226-4.745-2.547-4.745-4.075-1.982-.68-4.224-2.322-3.755-4.53C1.981 4.529 0 3.623 0 2.322 0 1.075.939 0 1.982 0 3.077 0 7.092.68 8.5.68 9.908.68 27.012.282 31.027.51c4.016.283 9.126.17 11.577-.114 2.503-.225 13.089-.849 14.549 2.322 1.043 2.32.26 3.113-.678 4.02-.99.905-4.172 2.547-4.172 7.982 0 5.435.626 8.266-.573 11.776" mask="url(#b)"/>
        </g>
        <path fill="#FEFEFE" d="M3.79 5c3.638 0 12.108.264 13.77.264 1.663 0 13.302 1.318 15.121 1.898.831.264 1.04 1.107 0 1.16-.987.053-12.99.21-14.757.21-1.766 0-13.873.212-15.484-1.95C1.245 5 2.752 5.052 3.79 5M6.603 9.687c2.154.06 12.87.121 14.131.06 1.208-.06 10.927-.663 12.03-.723 1.156-.121 2.206.24 2.206.663 0 .423-.21.785-1.523 1.087-1.313.362-13.396 1.931-22.537 1.75-1.733.06-4.045-.966-4.675-1.931-.578-.966.053-.906.368-.906M10.45 14.193c1.493 0 18.693-1.327 22.297-2.124 1.236-.106 2.06-.159 2.163.372.103.53.051.796-.978 1.115-1.082.265-13.853 2.76-20.29 2.867-2.162-.053-4.685-2.177-3.192-2.23M15.343 18.28c2.101-.307 15.968-2.877 19.698-4.04 1.523-.428 2.206-.245 2.416.245.157.49.157 1.346-.893 1.775-1.103.428-13.342 3.733-15.6 3.917-2.26.122-4.938-.49-5.674-1.163-.682-.612.053-.735.053-.735"/>
        <path fill="#FEFEFE" d="M20.136 21.193c1.446-.364 13.328-3.524 16.737-5.043.982-.365 1.344 0 1.499.425.206.425.258 1.033-.414 1.398-.62.303-9.763 4.8-14.103 5.104-1.55 0-2.84-.669-3.564-1.094-.465-.304-.258-.304-.155-.79M39.634 19c-1.346.76-9.575 4.673-12.732 5.49-.88.234-1.346.993-.31 1.402 1.086.35 3.519.175 5.02-.292 1.449-.467 7.4-2.687 9.678-5.198-.466-.234-1.553-1.11-1.656-1.402"/>
        <path fill="#FEFEFE" d="M41.719 20c-.877.618-6.602 3.932-9.233 4.774-.876.337-.464 1.236.413 1.348.877.168 3.095.168 5.725-1.572 1.6-1.011 3.92-2.865 4.642-3.595-.36-.169-1.134-.674-1.547-.955M45.518 22c-1.583 1.093-5.187 3.496-5.788 3.933-.819.547-1.255 1.474.383 1.366 1.583-.164 4.586-1.312 6.934-4.753-.327-.109-1.146-.382-1.529-.546M47.558 24c-.915 1.045-2.287 2.786-3.252 3.714-.66.696-.203 2.031.914 1.452 1.068-.582 3.05-2.67 3.608-4.702-.406-.116-.863-.29-1.27-.464M50.222 25c-.787 1.132-1.574 1.965-2.046 2.68-.472.655.105 1.37.577 1.548.525.179 1.417.775 2.466-1.667L50.222 25zM27.293 5.018c1.576 0 6.778.346 8.722.346 1.892 0 6.305-.116 7.881-.23 1.63-.116 5.833-.231 7.514 0 1.681.172 5.36.46 5.99 2.361.683 1.902-.736 2.939-1.629 3.688-.893.691-3.678 2.477-3.783 7.086-.683-.345-1.734-.518-.998-2.19.42-.921 2.417-3.917 1.944-5.3-.473-1.382-1.997-2.477-5.517-2.65-3.52-.115-8.46 0-10.193-.288-1.734-.346-8.355-2.19-9.72-2.362-.631-.115-.631-.404-.211-.461"/>
        <path fill="#FEFEFE" d="M40.357 8.024c1.254 0 5.798-.12 7.104.178 1.306.238 2.925.655 3.604 2.025.626 1.132-.366 2.978-.836 3.752-.522.715-1.88 2.204-2.403 2.74-.47.417-1.358-.239-.574-1.251-.993.655-2.246.536-1.672-1.072-.888.834-2.35.893-1.462-1.191-.575.536-2.246.476-1.201-1.132-.888.298-1.88-.297-1.254-1.31-1.097.179-1.776-.774-.574-1.489-1.097.358-1.41-1.131-.732-1.25M36.072 7c-1.429 0-1.476 1.882.142 1.764 1.286-.059 2.81-.47 2.81-1.058C38.976 7.059 37.119 7 36.072 7M35.883 9.195c-.945.16-.945.538-.833.86.11.323.61.915 2.222.646 1.667-.215 2.556-.86 2.556-1.399 0-.538-2.945-.215-3.945-.107M36.886 11.538c-.526.069-1.004.685-.86 1.37.191.823 1.434 1.097 2.773.138 1.386-1.028 1.29-1.234 1.147-1.782-.144-.548-1.578-.137-3.06.274M40.65 13.124c-.756.29-1.565.695-2.159 1.1-.593.406-1.079 1.912 1.241 1.275 2.374-.695 2.482-1.564 2.158-2.144-.323-.579-1.079-.29-1.24-.231"/>
        <path fill="#FEFEFE" d="M39.33 15.043c-.674.451-.337 2.206 1.204 1.404 1.59-.803 2.698-1.605 2.457-2.206-.241-.552-2.023-.1-3.66.802M43.493 16.108c-.751.352-3.098 1.208-2.347 2.316.423.504 1.174.05 1.455-.15.329-.202 1.971-1.41 1.549-2.116-.14-.252-.516-.151-.657-.05M44.655 18.152c-1.644 1.111.2 2.064 1.246 1.111.548-.476 1.694-1.429 1.195-2.117-.448-.582-1.943.741-2.44 1.006"/>
        <path fill="#FEFEFE" d="M46.103 18.97c-.49.62-1.666 1.576-.784 2.308.784.619 1.225 0 1.617-.45.342-.45 1.665-1.97 1.175-2.645-.49-.619-1.567.507-2.008.788M50.226 19.104c-.565-.503-1.644.942-2.055 1.76-.36.88-.103 1.382.308 1.634.411.188 1.13-.315 1.285-.754.154-.503 1.027-1.949.462-2.64"/>
        <path stroke="#333" d="M54 5c.713.423 1.514 1.003 1.603 1.584.045.634-.133 1.215-.98 1.954"/>
        <path fill="#333" d="M83.97 29.678c1.048.627 4.035 1.54 4.873-.57 1.152.685 3.667 1.197 4.873-.513 1.99.513 4.243 1.596 5.08-.912 1.782.513 6.183 1.71 6.655-1.424 2.619.399 6.39.683 6.862-2.338 2.253 0 6.182-.4 6.182-3.25 2.253 0 6.182-1.653 5.71-3.648 1.991-.228 4.716-2.565 4.716-4.103 2.043-.685 4.296-2.338 3.824-4.562 1.205-.798 3.196-1.71 3.196-3.02 0-1.255-.943-2.338-1.991-2.338-1.1 0-5.134.684-6.549.684-1.414 0-18.65-.399-22.684-.171-4.034.285-9.116.171-11.63-.114-2.462-.227-13.098-.855-14.565 2.337-1.1 2.337-.262 3.135.681 4.048.943.912 4.139 2.565 4.139 8.037 0 5.473-.576 8.323.629 11.857"/>
        <path fill="#FEFEFE" d="M131.615 5c-3.69 0-12.162.264-13.773.264-1.663 0-13.306 1.318-15.177 1.898-.78.264-.988 1.107 0 1.16 1.04.053 13.046.21 14.813.21 1.767 0 13.826.212 15.489-1.95C134.11 5 132.655 5.052 131.615 5M129.396 9.687c-2.152.06-12.86.121-14.119.06-1.26-.06-10.918-.663-12.073-.723-1.101-.121-2.204.24-2.204.663 0 .423.262.785 1.575 1.087 1.313.362 13.384 1.931 22.518 1.75 1.732.06 4.041-.966 4.619-1.931.629-.966-.054-.906-.316-.906M125.47 14.193c-1.443 0-18.66-1.327-22.268-2.124-1.238-.106-2.062-.159-2.165.372-.103.53-.052.796.979 1.115 1.03.265 13.815 2.76 20.31 2.867 2.165-.053 4.69-2.177 3.144-2.23M121.149 18.28c-2.05-.307-15.924-2.877-19.656-4.04-1.524-.428-2.207-.245-2.417.245-.158.49-.158 1.346.893 1.775 1.104.428 13.349 3.733 15.609 3.917 2.26.122 4.94-.49 5.676-1.163.683-.612-.105-.735-.105-.735M115.373 21.193c-1.447-.364-13.326-3.524-16.735-5.043-.981-.365-1.343 0-1.498.425-.206.425-.258 1.033.362 1.398.671.303 9.813 4.8 14.1 5.104 1.602 0 2.893-.669 3.616-1.094.465-.304.259-.304.155-.79M95.657 19c1.347.76 9.582 4.673 12.741 5.49.88.234 1.347.993.26 1.402-1.037.35-3.47.175-4.973-.292-1.45-.467-7.406-2.687-9.685-5.198.466-.234 1.554-1.11 1.657-1.402"/>
        <path fill="#FEFEFE" d="M93.503 20c.88.618 6.632 3.932 9.275 4.774.88.337.466 1.236-.414 1.348-.83.168-3.11.168-5.752-1.572-1.555-1.011-3.887-2.865-4.612-3.595.363-.169 1.14-.674 1.503-.955M90.477 22c1.588 1.093 5.256 3.496 5.859 3.933.82.547 1.204 1.474-.384 1.366-1.587-.164-4.599-1.312-6.952-4.753.328-.109 1.149-.382 1.477-.546M88.228 24c.92 1.045 2.354 2.786 3.325 3.714.614.696.154 2.031-.92 1.452-1.126-.582-3.121-2.67-3.633-4.702.41-.116.87-.29 1.228-.464M85.999 25c.79 1.132 1.578 1.965 2.053 2.68.472.655-.158 1.37-.633 1.548-.473.179-1.367.775-2.419-1.667L85.999 25zM108.326 5.018c-1.577 0-6.833.346-8.725.346-1.892 0-6.307-.116-7.884-.23-1.63-.116-5.834-.231-7.516 0-1.683.172-5.362.46-6.044 2.361-.631 1.902.788 2.939 1.682 3.688.892.691 3.625 2.477 3.731 7.086.736-.345 1.735-.518 1.05-2.19-.419-.921-2.469-3.917-1.996-5.3.472-1.382 2.05-2.477 5.572-2.65 3.521-.115 8.462 0 10.143-.288 1.734-.346 8.41-2.19 9.777-2.362.578-.115.578-.404.21-.461"/>
        <path fill="#FEFEFE" d="M94.871 8.024c-1.253 0-5.792-.12-7.096.178-1.305.238-2.922.655-3.601 2.025-.574 1.132.417 2.978.888 3.752.468.715 1.825 2.204 2.4 2.74.47.417 1.356-.239.573-1.251.992.655 2.244.536 1.67-1.072.887.834 2.348.893 1.461-1.191.574.536 2.243.476 1.2-1.132.887.298 1.879-.297 1.2-1.31 1.148.179 1.774-.774.626-1.489 1.096.358 1.41-1.131.679-1.25M99.969 7c1.437 0 1.437 1.882-.192 1.764C98.532 8.705 97 8.294 97 7.706 97.047 7.059 98.915 7 99.969 7M99.945 9.195c.945.16.945.538.834.86-.167.323-.667.915-2.278.646C96.889 10.486 96 9.841 96 9.302c0-.538 2.945-.215 3.945-.107"/>
        <path fill="#FEFEFE" d="M97.09 11.538c.573.069 1.051.685.908 1.37-.191.823-1.434 1.097-2.773.138-1.386-1.028-1.29-1.234-1.147-1.782.143-.548 1.53-.137 3.012.274"/>
        <path fill="#FEFEFE" d="M95.376 13.124c.757.29 1.513.695 2.16 1.1.594.406 1.08 1.912-1.296 1.275-2.322-.695-2.43-1.564-2.105-2.144.323-.579 1.025-.29 1.24-.231"/>
        <path fill="#FEFEFE" d="M95.66 15.043c.725.451.387 2.206-1.209 1.404-1.547-.803-2.66-1.605-2.418-2.206.242-.552 2.031-.1 3.627.802M90.95 16.108c.926.352 3.818 1.208 2.894 2.316-.522.504-1.447.05-1.794-.15-.405-.202-2.488-1.41-1.967-2.116.231-.252.694-.151.868-.05"/>
        <path fill="#FEFEFE" d="M91.593 18.152c1.598 1.111-.25 2.064-1.25 1.111-.599-.476-1.748-1.429-1.198-2.117.45-.582 1.948.741 2.448 1.006M89.13 18.97c.493.62 1.675 1.576.738 2.308-.739.619-1.232 0-1.577-.45s-1.676-1.97-1.183-2.645c.494-.619 1.578.507 2.021.788M85.19 19.104c.52-.503 1.664.942 2.028 1.76.416.88.104 1.382-.312 1.634-.364.188-1.092-.315-1.248-.754-.156-.503-1.04-1.949-.468-2.64"/>
        <path stroke="#333" d="M81.61 5c-.732.423-1.557 1.003-1.602 1.584-.046.634.091 1.215 1.007 1.954"/>
        <path fill="#FEFEFE" d="M67.556 46.727c-.906.059-1.652-.64-1.546-2.271l.48-6.467c0-.582.8-.989 1.12-.989.32 0 1.119.407 1.119.99l.48 6.466c.106 1.63-.64 2.271-1.653 2.271"/>
        <path stroke="#231F20" stroke-width=".35" d="M67.556 46.727c-.906.059-1.652-.64-1.546-2.271l.48-6.467c0-.582.8-.989 1.12-.989.32 0 1.119.407 1.119.99l.48 6.466c.106 1.63-.64 2.271-1.653 2.271z"/>
        <path fill="#FEFEFE" d="M67.663 46.727c.906.059 1.652-.64 1.546-2.271l-.48-6.467c0-.582-.8-.989-1.12-.989-.32 0-1.12.407-1.12.99l-.479 6.466c-.106 1.63.64 2.271 1.653 2.271"/>
        <path stroke="#333" stroke-width=".35" d="M67.663 46.727c.906.059 1.652-.64 1.546-2.271l-.48-6.467c0-.582-.8-.989-1.12-.989-.32 0-1.12.407-1.12.99l-.479 6.466c-.106 1.63.64 2.271 1.653 2.271z"/>
        <path fill="#FEFEFE" d="M70.066 46.715c.798-.175 1.36-.936 1.08-2.575l-1.174-6.32c-.093-.586-.797-.82-1.078-.82-.282.059-.939.585-.892 1.17l.376 6.496c.094 1.64.797 2.166 1.688 2.05"/>
        <path stroke="#333" stroke-width=".35" d="M70.066 46.715c.798-.175 1.36-.936 1.08-2.575l-1.174-6.32c-.093-.586-.797-.82-1.078-.82-.282.059-.939.585-.892 1.17l.376 6.496c.094 1.64.797 2.166 1.688 2.05z"/>
        <path fill="#FEFEFE" d="M74.717 45.73c.936-.276 1.432-1.1.881-2.532l-2.368-5.664c-.166-.495-1.048-.605-1.378-.495-.33.11-.991.715-.826 1.21l1.432 5.995c.33 1.485 1.267 1.815 2.259 1.485"/>
        <path stroke="#333" stroke-width=".35" d="M74.717 45.73c.936-.276 1.432-1.1.881-2.532l-2.368-5.664c-.166-.495-1.048-.605-1.378-.495-.33.11-.991.715-.826 1.21l1.432 5.995c.33 1.485 1.267 1.815 2.259 1.485z"/>
        <path fill="#FEFEFE" d="M77.766 44.636c.822-.454 1.206-1.365.492-2.786l-3.124-5.46c-.22-.456-1.152-.456-1.426-.285-.329.17-.877.853-.658 1.366l2.248 5.914c.548 1.479 1.48 1.706 2.468 1.251"/>
        <path stroke="#333" stroke-width=".35" d="M77.766 44.636c.822-.454 1.206-1.365.492-2.786l-3.124-5.46c-.22-.456-1.152-.456-1.426-.285-.329.17-.877.853-.658 1.366l2.248 5.914c.548 1.479 1.48 1.706 2.468 1.251z"/>
        <path fill="#FEFEFE" d="M64.152 46.715c-.797-.175-1.36-.936-1.079-2.575l1.173-6.32c.047-.586.798-.82 1.08-.82.28.059.937.585.89 1.17l-.375 6.496c-.094 1.64-.797 2.166-1.689 2.05"/>
        <path stroke="#333" stroke-width=".35" d="M64.152 46.715c-.797-.175-1.36-.936-1.079-2.575l1.173-6.32c.047-.586.798-.82 1.08-.82.28.059.937.585.89 1.17l-.375 6.496c-.094 1.64-.797 2.166-1.689 2.05z"/>
        <path fill="#FEFEFE" d="M61.111 45.73c-.936-.276-1.432-1.1-.881-2.532l2.369-5.664c.165-.495 1.046-.605 1.377-.495.33.11.992.715.826 1.21l-1.432 5.995c-.386 1.485-1.267 1.815-2.259 1.485"/>
        <path stroke="#333" stroke-width=".35" d="M61.111 45.73c-.936-.276-1.432-1.1-.881-2.532l2.369-5.664c.165-.495 1.046-.605 1.377-.495.33.11.992.715.826 1.21l-1.432 5.995c-.386 1.485-1.267 1.815-2.259 1.485z"/>
        <path fill="#FEFEFE" d="M56.888 44.636c-.819-.454-1.256-1.365-.491-2.786l3.111-5.46c.219-.456 1.092-.456 1.42-.285.327.17.873.853.655 1.366l-2.238 5.914c-.546 1.479-1.474 1.706-2.457 1.251"/>
        <path stroke="#333" stroke-width=".35" d="M56.888 44.636c-.819-.454-1.256-1.365-.491-2.786l3.111-5.46c.219-.456 1.092-.456 1.42-.285.327.17.873.853.655 1.366l-2.238 5.914c-.546 1.479-1.474 1.706-2.457 1.251z"/>
        <path fill="#333" d="M67.107 38.192c9.995 0 18.106-6.518 18.106-14.624C85.213 15.519 77.102 9 67.107 9 57.11 9 49 15.52 49 23.568c0 8.106 8.111 14.624 18.107 14.624"/>
        <path fill="#FEFEFE" d="M75.694 18.494c0-2.198-2.127-5.494-8.241-5.494-3.615 0-6.646.983-8.453 2.834.425.404.903.983.903 1.677v12.028c-.053.752-.372 1.33-.85 1.967 1.702 1.503 4.572 2.834 9.039 2.718 4.466-.116 8.612-1.677 8.612-6.188 0-1.909-1.647-3.817-3.456-4.453-.478-.174-.371-.694 0-.868.372-.23 2.446-1.966 2.446-4.221"/>
        <path fill="#333" d="M66.817 22.077c1.54 0 2.816-1.586 2.816-3.539 0-1.952-1.275-3.538-2.816-3.538C65.275 15 64 16.586 64 18.538c0 1.953 1.275 3.539 2.817 3.539M67.219 31.077c1.8 0 3.219-1.566 3.219-3.539 0-1.972-1.42-3.538-3.22-3.538-1.8 0-3.218 1.566-3.218 3.538 0 1.973 1.418 3.539 3.219 3.539"/>
        <path stroke="#231F20" stroke-width=".35" d="M67.219 31.077c1.8 0 3.219-1.566 3.219-3.539 0-1.972-1.42-3.538-3.22-3.538-1.8 0-3.218 1.566-3.218 3.538 0 1.973 1.418 3.539 3.219 3.539z"/>
    </g>
</svg>
