<svg xmlns="http://www.w3.org/2000/svg" xmlns:xlink="http://www.w3.org/1999/xlink" width="79" height="89" viewBox="0 0 79 89">
    <defs>
        <path id="a" d="M79 89V0H0v89h79z"/>
    </defs>
    <g fill="none" fill-rule="evenodd">
        <mask id="b" fill="#fff">
            <use xlink:href="#a"/>
        </mask>
        <path fill="#FEFEFE" d="M75.921 72.18c-.07-.009-.14-.02-.203-.03a.832.832 0 0 0-.437.052c-.133.055-.204.227-.204.514v4.81c0 .254.063.43.188.53.125.102.274.162.453.174l.203.015V72.179zm-3.86 12.768c.266-.983.53-1.962.797-2.934.265-.968.532-1.93.805-2.888-.383-.025-.659-.138-.836-.353a1.552 1.552 0 0 1-.336-.677c-.03-.145-.059-.285-.07-.423a4.105 4.105 0 0 1-.016-.347v-4.998c0-.118.004-.246.008-.38.004-.136.034-.27.062-.409.073-.355.233-.666.516-.93.28-.263.765-.335 1.47-.226 1.374.213 2.758.426 4.141.642v13.94l-2.68-.007v-5.5l-.125-.008a2190.725 2190.725 0 0 0-.985 5.504l-2.751-.006zm-7.909-.02V68.772l2.673.415v7.292c.203-1.194.405-2.385.61-3.572.202-1.179.406-2.356.61-3.526.89.136 1.78.274 2.68.415v15.147l-2.68-.006V77.623a2404.28 2404.28 0 0 0-1.22 7.313l-2.673-.009zm-8.072-.021V67.514c.89.138 1.781.276 2.672.417v15.124l.844.014V68.061c.891.14 1.782.278 2.673.419V83.12l.547.012v2.673c-.899-.002-1.79-.002-2.68-.002v-.887c-1.353-.002-2.705-.006-4.056-.01zm-8.355-.021V66.21l2.673.417v8.458c.203-1.39.406-2.777.61-4.156.203-1.373.406-2.746.617-4.112.891.14 1.782.278 2.673.42v17.664l-2.673-.006v-8.499c-.21 1.404-.414 2.814-.617 4.228-.204 1.416-.407 2.84-.61 4.267l-2.673-.006zm-5.822-2.135c.477.01.954.019 1.43.03v-7.049c0-2.35 0-4.698.008-7.05l-1.14-.149c-.016 2.16-.032 4.317-.04 6.477-.008 2.159-.01 4.32-.023 6.478-.003.502.008 1.013-.235 1.263zm-3.133 3.037c-.008-.795-.016-2.281-.016-3.078.164-.002.328-.01.492-.008.47.004.581-.64.583-1.343.006-2.727.023-5.454.031-8.181.008-2.725.023-5.453.04-8.18 1.937.304 4.074.629 6.02.93-.008 2.818-.008 5.636-.008 8.452v8.45c.157.002.313.004.477.008v2.954c-.89 0-1.782 0-2.673-.002a33.272 33.272 0 0 1-.015-.89l-2.259-.006v.894H38.77zm-6.667-.904V66.12c1.806-.314 3.611-.624 5.424-.94v2.158c-.922.142-1.837.285-2.75.423v6.086c.913-.09 1.828-.184 2.75-.276v2.157l-2.75.225v6.819l2.86-.062v2.16l-5.534.014zm-7.994.023V67.503c2.07-.36 4.142-.718 6.213-1.075V84.89l-2.68.006V68.864c-.29.043-.58.088-.86.132V84.9l-2.673.007zm-4.228-5.828l2.673-.168v3.491c0 .151 0 .316-.008.5a6.491 6.491 0 0 1-.04.54 2.57 2.57 0 0 1-.484 1.198c-.262.36-.734.533-1.43.537-.758.004-1.508.024-2.258.019-.095-.001-.188-.02-.282-.027-.101-.007-.204-.012-.304-.029-.353-.06-.67-.267-.962-.597-.294-.332-.437-.98-.437-1.948V71.294c0-.153.003-.324.007-.519a2.791 2.791 0 0 1 .602-1.71c.274-.356.727-.588 1.36-.699.75-.13 1.5-.263 2.259-.394a5.66 5.66 0 0 1 .32-.046c.117-.013.226-.012.336-.008.328.013.634.177.907.502.274.327.414 1.01.414 2.046v3.08l-2.673.31v-3.597c0-.014.005-.033 0-.06a.505.505 0 0 0-.148-.266.307.307 0 0 0-.282-.085.427.427 0 0 0-.281.163.721.721 0 0 0-.133.277.36.36 0 0 1-.008.07.359.359 0 0 0-.008.07v12.445c0 .027.004.049.008.068.004.02.008.044.008.07.024.091.064.175.133.252a.35.35 0 0 0 .281.116.36.36 0 0 0 .282-.134.618.618 0 0 0 .148-.291c.005-.027 0-.048 0-.06v-3.815zM8.424 84.952V70.216c.891-.157 1.782-.312 2.673-.464v6.492c.164-1.1.329-2.205.492-3.311.165-1.11.329-2.232.493-3.35.883-.156 1.766-.309 2.657-.461-.227 1.309-.46 2.611-.68 3.904-.219 1.288-.453 2.57-.672 3.842.266 1.327.54 2.658.805 3.998.266 1.348.547 2.703.82 4.067l-2.641.007c-.219-1.183-.43-2.366-.64-3.539l-.634-3.493v7.036l-2.673.008zM.454 80.29l2.672-.167v3.18c0 .109.03.194.094.254a.381.381 0 0 0 .203.103c.023.01.039.016.054.016l.063-.002a.495.495 0 0 0 .297-.105.346.346 0 0 0 .133-.285v-4.81l-1.977.16V77.14l1.977-.198v-4.3c0-.006.002-.015 0-.025a.34.34 0 0 0-.133-.207c-.073-.06-.172-.08-.297-.061a.498.498 0 0 0-.297.156.413.413 0 0 0-.117.287v2.818c-.86.102-1.712.203-2.563.302v-2.298c0-.116.004-.268.015-.456.012-.188.047-.384.11-.599.094-.324.279-.64.555-.943.279-.308.719-.512 1.32-.618.696-.121 1.39-.25 2.087-.37.109-.018.226-.036.351-.05.125-.015.25-.021.383-.007.313.034.605.189.868.47.26.28.39.851.39 1.698v10.054c0 .125-.003.287-.015.48a2.948 2.948 0 0 1-.102.603 1.999 1.999 0 0 1-.547.903c-.273.268-.703.4-1.297.402-.711.004-1.414.017-2.118.015-.711-.002-1.203-.152-1.492-.424a1.793 1.793 0 0 1-.54-.914 2.288 2.288 0 0 1-.07-.46c-.004-.15-.008-.287-.008-.416V80.29zM0 89h79v-1.877H0V89zm38.3-69.578c1.443 0 2.864.101 4.254.296L56.182 0l6.104 2.108.144.337-16.048 18.066a30.515 30.515 0 0 1 11.195 5.795l16.942-1.043.28.334-.292 2.119-.334.28-14.357.33.076.074c5.536 5.543 8.968 13.193 8.968 21.62 0 2.866-.398 5.645-1.143 8.284a30.481 30.481 0 0 1-3.357 7.663l-.207.336-.386-.053-25.931-3.577-24.383 4.497-.389.072-.22-.33a30.529 30.529 0 0 1-3.805-8.073 30.45 30.45 0 0 1-1.299-8.82 30.418 30.418 0 0 1 4.779-16.396l-5.902 1.113-.447-.074-2.48-1.226-.087-.165 10.08-1.345a30.85 30.85 0 0 1 10.527-9.044L.264 12.522l3.759-2.265 23.136 11.276A30.305 30.305 0 0 1 38.3 19.422zm-10.843 15.73c-.328-.19-.71-.292-1.01-.523-.416-.319-.757-.726-1.114-1.11-.14-.15-.301-.298-.374-.49-.093-.243-.088-.512-.109-.77-.022-.272-.085-.553-.018-.818.012-.05.025-.099.04-.147l-7.051 1.33c-3.988 4.696-6.4 10.772-6.4 17.395 0 2.82.466 5.638 1.333 8.315a27.554 27.554 0 0 0 3.487 7.1l6.332-1.168a.06.06 0 0 1-.006-.021l-.94-8.927c-.007-.064-.061-.112-.086-.171-.087-.207-.158-.458-.128-.685.006-.045.045-.084.043-.129l-.064-1.049c-.007-.1.363-.097.368.004l.04.753c.006.134.221-.116.34-.179.152-.08.296-.176.449-.257.118-.062.303-.051.363-.17.077-.154-.025-.343-.021-.515.004-.186.036-.37.043-.556.007-.221-.01-.443 0-.664.011-.274.077-.53.15-.792.018-.067.172-.441.106-.492-.108-.085-.25-.12-.385-.15-.097-.022-.204.03-.299 0-.241-.078-.328-.3-.342-.536-.012-.2.086-.522.235-.663.054-.051.14-.062.214-.064.164-.005.335-.008.492.042.158.052.272.198.427.257.15.057.313.061.47.086.143.022.394.098.514-.021.025-.025.028-.085 0-.107-.058-.047-.161-.012-.214-.065-.035-.035-.042-.123 0-.15.08-.048.187-.003.278-.02a.325.325 0 0 0 .15-.065c.076-.067.122-.162.192-.236.087-.09.17-.192.278-.257.193-.116.405-.173.62-.085.15.061.292.146.428.235.114.076.207.18.32.257.088.06.18.188.279.15.142-.055.163-.262.278-.364a.82.82 0 0 1 .299-.15c.117-.038.244-.093.363-.064.236.057.396.427.406.642.015.287-.022.577-.085.857-.059.26-.177.503-.278.749-.098.239-.205.475-.32.706-.113.226-.267.431-.364.664-.198.473-.177 1.047-.086 1.541.039.21.066.426.15.621.096.224.284.4.385.62.128.282.2.586.3.879.099.292.21.581.298.877.075.247.126.5.193.75.09.329.194.654.278.984.11.438.202.877.235 1.328.022.299.043.599.043.899 0 .25-.028.5-.043.75-.014.227-.024.456-.043.684-.01.129-.05.257-.042.385.01.162.091.369.256.429.126.046.383-.033.47.107l.032.05 6.965-1.286a.267.267 0 0 0-.002-.018c-.047-.34-.055-.684-.108-1.023-.046-.299-.14-.589-.188-.888-.05-.32-.083-.645-.107-.969-.02-.277-.018-.556-.027-.834 0 0-.027-.7 0-.888.027-.189.107-1.238.107-1.238.01-.404.023-.808.027-1.211.005-.44.019-.88 0-1.32-.017-.413-.03-.83-.107-1.238-.085-.44-.231-.867-.377-1.291a16.39 16.39 0 0 0-.51-1.292c-.154-.349-.339-.683-.511-1.023-.15-.297-.307-.591-.457-.888-.127-.25-.28-.49-.377-.754a4.782 4.782 0 0 1-.215-.861c-.032-.195-.027-.395-.027-.592 0-.117-.03-.248.027-.35.05-.088.356.01.43.027.305.07.618.115.914.215.316.107.604.282.914.404.148.058.302.101.457.134a.651.651 0 0 0 .424-.082c.104-.071.164-.193.266-.267.149-.107.62.1.752.184.19.122.29.441.24.672-.05.234-.06.29.072.51.03.05.156.035.2.016.192-.085.386-.172.565-.283a.274.274 0 0 0 .1-.134c.107-.272.2-.55.282-.832.074-.257.096-.529.183-.782.053-.155.161-.285.232-.433.14-.29.317-.625.366-.948.03-.195-.022-.376-.033-.566-.006-.105 0-.211 0-.316 0-.056-.022-.116 0-.167.04-.091.15-.089.166.017.013.082-.05.173-.016.25.021.048.097.058.15.05.058-.01.099-.067.149-.1.066-.045.16-.064.2-.134.059-.104-.11-.482.082-.466.043.004.075.06.117.05.029-.006.006-.072.033-.083.089-.037.271.012.333.083.057.068.036.322.016.4a1.856 1.856 0 0 1-.15.4c-.05.097-.128.18-.199.265-.068.082-.18.134-.216.233-.046.126.006.269-.017.4-.032.181-.119.35-.15.532-.076.46-.042.941-.132 1.399a3.192 3.192 0 0 1-.167.549c-.063.161-.159.308-.232.466-.099.212-.157.41-.133.649.015.154.085.298.116.45.03.148.025.303.067.449.086.305.224.594.315.898.081.268.129.546.2.816.073.279.172.55.233.832.12.557.124 1.182.066 1.748-.013.129-.016.263-.066.383-.095.226-.29.3-.482.416-.073.043-.135.11-.216.133-.05.013-.101-.049-.15-.033-.108.033-.052.21-.05.283.01.365.007.732.017 1.098.012.455.056.91.05 1.365-.005.367-.076.731-.084 1.098-.01.494.04.988.034 1.481-.005.318-.044.633-.067.95a56.782 56.782 0 0 0-.116 2.045l6.686.923c-.025-1.719-.012-3.437-.029-5.155-.009-.878-.046-1.754-.028-2.633.005-.277.022-.554.028-.83.003-.115.017-.23 0-.344-.01-.067-.065-.12-.08-.187a.659.659 0 0 1-.02-.248c.013-.082.077-.149.096-.23.014-.061-.002-.127 0-.19.011-.554.038-1.108.038-1.662 0-.108-.03-.215-.038-.324-.01-.14.005-.282-.02-.42-.014-.082-.08-.148-.095-.23-.024-.13-.052-.27-.019-.4.01-.04.372-.27.4-.249.039.029.127.353.134.401.027.19.014.383.038.573.027.206.104.405.115.611.028.54-.077 1.088 0 1.623.013.088.166.062.248.096.102.042.207.081.305.134.098.052.186.124.282.18.095.055.199.094.292.152.065.04.113.11.184.14.254.112.369.076.388-.194.018-.234.022-.47.033-.703.008-.177-.098-.822.075-.952.087-.065.216-.27.216-.27.07-.06.28-.212.292-.303.008-.057-.119-.233-.173-.26-.055-.028-.123-.015-.183-.032-.184-.05-.318-.085-.41-.27-.022-.042.004-.095 0-.141-.007-.062-.006-.128-.033-.184-.022-.046-.096-.059-.108-.108-.013-.055.034-.107.043-.162.01-.057-.008-.119.01-.173.04-.112.126-.12.12-.27-.008-.182-.079-.104-.184-.174-.072-.047-.127-.117-.194-.173-.096-.078-.262-.14-.27-.28-.007-.105.161-.085.226-.087.115-.005.23 0 .346 0 .079 0 .187.038.216-.065.012-.042-.024-.094 0-.13.151-.227.54-.19.767-.173.325.025.667.097.831.41.037.07.019.165.065.228.12.163.477.06.53.238.015.052-.117.258-.152.292-.037.038-.103.037-.14.076-.079.082-.185.2-.054.28.047.03.193-.035.227-.064.11-.099.155-.267.26-.368.184-.18.625-.281.874-.281h.464c.165.165.323.32.433.53.063.123.023.29.13.41.07.08.19.104.258.185.284.33.347.692.452 1.101.075.292.152.583.21.879.12.617.176 1.247.247 1.871.032.274.069.547.096.821.02.206.025.414.048.62.025.234.114.42-.01.65-.058.107-.256.214-.362.277-.144.085-.292.178-.458.21-.141.027-.29.014-.43.048-.063.015-.113.064-.171.095-.085.046-.208.05-.257.134-.052.087.015.203 0 .303-.018.131-.071.255-.099.385-.061.285-.079.577-.137.859-.028.139-.08.272-.112.41-.03.132-.046.266-.074.399-.03.137-.077.271-.1.41-.03.183-.024.46.025.635.027.094.096.172.137.261.059.13.13.258.161.398.032.142.02.29.025.436.025.606.013 1.2-.025 1.804-.002.035-.001.097-.003.167l8.522 1.176a27.811 27.811 0 0 0 3.092-6.748 27.04 27.04 0 0 0 1.192-7.873c0-8.81-4.265-16.654-10.834-21.568l-10.435.239-.282-.402-4.188-.031a.838.838 0 0 1-.027.034c-.1.12-.318.106-.403.236-.092.142-.18.367-.079.502.222.295.616.407.921.614.233.159.457.329.692.484.318.211.69.35.967.614.26.25.37.625.61.895.214.24.45.479.74.618 4.399 2.12 8.87 4.084 13.297 6.146.099.046.178.127.276.175.316.155.613.399.963.432.135.013-.1-.257-.19-.359-.071-.082-.19-.107-.276-.175-.1-.08-.275-.138-.278-.266-.003-.129.154-.216.266-.279a.962.962 0 0 1 .406-.1c.181-.013.377-.039.545.033.187.08.34.236.463.398.13.172.122.442.285.584.067.058.195-.058.224-.142.079-.23.07-.484.074-.728.002-.152-.072-.302-.056-.453.022-.22-.012-.51.167-.64.152-.11.376.048.547.124.098.043.176.13.232.222.104.167.092.41.24.54.09.08.246.025.362-.009.175-.05.311-.234.494-.238.142-.004.28.106.368.218.066.085.072.212.052.317-.036.194-.136.37-.214.55-.18.416-.35.839-.561 1.24-.195.367-.427.713-.657 1.06-.107.16-.262.29-.352.461-.115.216.25.994.25.994.033.136.159.28.1.407-.056.116-.231.135-.36.144a1.196 1.196 0 0 1-.546-.078.999.999 0 0 1-.37-.31 1.168 1.168 0 0 1-.237-.449c-.064-.265.186-.71-.065-.816a90.344 90.344 0 0 0-10.93-3.837c-.244-.068-.076.516-.21.731-.153.246-.386.438-.622.605-.32.227-.685.383-1.03.569-.446.24-.875.52-1.345.712a4.7 4.7 0 0 1-1.127.298 4.908 4.908 0 0 1-1.224.029c-.376-.043-.734-.184-1.096-.293-.476-.144-.944-.315-1.417-.467-.273-.088-.536-.231-.822-.254-.172-.014-.332.096-.496.147-.301.096-.634.125-.9.294-.132.083-.196.26-.218.414-.02.137.135.27.1.406-.03.114-.152.205-.267.233a.971.971 0 0 1-.545-.033c-.163-.057-.332-.157-.415-.308-.104-.188-.05-.427-.106-.634-.043-.157-.188-.286-.191-.45-.003-.109.273-.228.175-.276-1.117-.543-2.323-.876-3.479-1.328-.233-.092-.438-.279-.687-.303-.081-.007-.045.159-.086.23a1.002 1.002 0 0 1-.176.23c-.094.09-.192.185-.312.235-.084.034-.181.01-.272.006-.137-.006-.281.012-.41-.036-.11-.041-.194-.136-.276-.22-.106-.11-.227-.216-.28-.358-.049-.127-.03-.274-.01-.408.02-.128.232-.29.128-.366-.67-.483-1.533-.65-2.204-1.131-.099-.07.197-.202.174-.322-.022-.116-.175-.162-.277-.22zm-10.562-2.354l-2.721.513a29.23 29.23 0 0 0-5.23 16.708 29.253 29.253 0 0 0 4.685 15.896l1.967-.362a28.17 28.17 0 0 1-3.413-7.033 27.656 27.656 0 0 1-1.364-8.5 27.391 27.391 0 0 1 6.076-17.222zM15.373 31.7l2.792-.373a27.636 27.636 0 0 1 9.828-6.809l-2.342-1.013a29.598 29.598 0 0 0-10.278 8.195zm3.744-.5l6.123-.817c.216-.4.487-.759.811-1.15.595-.72.82-.88 1.742-1.222.261-.096.534-.22.812-.2 1.009.074.977.456 1.879-.157.239-.162.314-.419.554-.58a.729.729 0 0 1 .542-.104c.463.102.88.359 1.327.515.285.1.57.214.868.253.21.027.427-.014.634-.06.163-.037.315-.112.468-.181l-6.1-2.64a26.995 26.995 0 0 0-9.66 6.343zm9.54-8.938l2.46 1.2a27.304 27.304 0 0 1 9.447-.864l1.22-1.764a29.4 29.4 0 0 0-3.484-.207c-3.375 0-6.62.577-9.643 1.635zm3.296 1.606l1.04.507-.192.55 3.583 1.983c.167.027.337.087.504.077.202-.011.387-.118.586-.15l.181-.029 2.512-3.633a26.722 26.722 0 0 0-8.214.696zm13.531-2.348l-1.417 1.596a27.3 27.3 0 0 1 8.639 3.49l3.055-.189a29.256 29.256 0 0 0-10.277-4.897zm-1.878 2.115l-.944 1.063-.4.35-.899-.593-1.824 2.575c.102.086.126.227.123.378l11.981-.738a26.674 26.674 0 0 0-8.037-3.035zm14.507 4.728l-2.81.065c6.375 5.045 10.479 12.853 10.479 21.59 0 2.722-.424 5.444-1.218 8.047a28.467 28.467 0 0 1-3.014 6.665l1.987.273a29.277 29.277 0 0 0 3.022-7.025c.714-2.53 1.097-5.2 1.097-7.96 0-8.094-3.297-15.441-8.615-20.766-.303-.303-.612-.599-.928-.889zM24.919 63.752c-.007-.063 0-.128 0-.192 0-.42.008-.843 0-1.263-.003-.207-.018-.414-.021-.621-.004-.257.012-.514 0-.77-.01-.208-.055-.414-.064-.622a1 1 0 0 1 .021-.32c.05-.172.141-.33.214-.493.041-.093.121-.176.128-.278.043-.598.079-1.202.022-1.799-.016-.161-.158-.285-.235-.428-.058-.106-.142-.203-.172-.32-.029-.119.025-.246 0-.365-.037-.178-.255-.216-.406-.235-.127-.016-.265.045-.385 0-.103-.04-.169-.147-.235-.236-.078-.105-.13-.227-.192-.342-.08-.149-.174-.292-.235-.45-.054-.137-.016-.312-.107-.428-.045-.056-.144.005-.214.021-.145.034-.293.066-.428.13-.145.066-.275.164-.406.256-.062.043-.225.074-.217.15l.915 9.056v.002l2.018-.372a.504.504 0 0 0 0-.08zm2.97-.467c-.004-.08.015-.16.024-.239.012-.114.043-.227.043-.343 0-.253-.057-.528-.129-.77-.064-.216-.17-.42-.214-.642-.036-.19-.018-.386-.021-.578-.004-.222.012-.443 0-.664-.003-.052-.023-.102-.043-.15-.087-.216-.188-.427-.278-.642-.074-.177-.161-.35-.213-.535-.036-.126.054-.347-.129-.386-.063-.013-.175-.04-.192.022-.08.29-.02.602-.064.899-.083.556-.27 1.096-.45 1.627-.06.18-.132.355-.192.535-.061.184-.156.363-.17.557-.024.3-.003.616.106.899a.345.345 0 0 0 .192.192c.121.045.263-.017.385.022.05.015.07.08.086.128.015.048 0 .1 0 .15 0 .042.015.095.028.145l1.232-.227zm10.909-1.693c.008-.069.015-.136.011-.195-.024-.31-.028-.622-.05-.933-.011-.155-.039-.31-.05-.466a8.953 8.953 0 0 1-.016-.482c-.006-.358.04-.481.1-.783a.738.738 0 0 0 0-.316c-.038-.152-.134-.284-.183-.433-.073-.218-.128-.442-.183-.665-.062-.25-.084-.51-.183-.75-.03-.072-.072-.168-.166-.149-.101.02-.126.126-.133.216-.013.15.022.302 0 .45-.034.22-.097.437-.167.649-.041.127-.11.244-.166.366-.06.131-.12.216-.116.366.01.365.077.707.133 1.065.04.255.097.509.116.766.03.402-.058.786-.1 1.182v.005l.07-.012.188-.005.895.124zm-2.903-13.994c-.066-.01-.136-.016-.197-.046-.044-.022-.073-.07-.106-.106a3.94 3.94 0 0 1-.167-.198c-.058-.074-.126-.143-.167-.228a7.444 7.444 0 0 1-.167-.502c0-.084.472.021.516.03.144.033.292.059.425.122.124.06.231.152.334.244.144.128.32.286.243.501-.033.092-.091.193-.182.228-.105.04-.223-.02-.334-.03-.066-.006-.132-.005-.198-.015zm15.123 15.68c.08-.104.16-.198.178-.255.027-.087 0-.182 0-.274 0-.273.015-.548 0-.82-.006-.119-.045-.233-.062-.35-.035-.24-.041-.474-.125-.708-.02-.057-.065-.1-.099-.15-.098-.14-.216-.266-.236-.448-.015-.14.025-.281.025-.423 0-.207-.028-.414-.025-.622.001-.108.037-.215.037-.323 0-.113-.023-.225-.037-.336-.006-.05-.001-.238-.087-.112-.15.218-.114.454-.211.684-.05.118-.157.202-.224.311-.086.14-.159.29-.236.436-.063.12-.165.227-.187.36-.03.194.035.39.038.585.002.154-.017.307-.025.46-.008.154-.009.308-.025.46-.03.289-.108.586-.199.86-.045.135-.12.26-.161.398a.226.226 0 0 0-.008.036l1.67.23zm-2.868-.396c-.013-.286.081-.55.126-.83.028-.177.035-.357.062-.534.023-.155.064-.306.087-.46.045-.308.019-.58.024-.884.006-.276.01-.564.075-.834.05-.208.135-.406.199-.61.068-.219.125-.442.199-.659.054-.16.135-.311.186-.473.057-.18.086-.366.137-.547.04-.143.091-.282.137-.423.029-.091.045-.188.087-.274.021-.045.092-.063.099-.112.036-.273.03-.662-.05-.933-.038-.129-.112-.245-.149-.373-.022-.077.016-.17-.025-.237-.027-.045-.1-.068-.149-.05-.097.037-.139.272-.26.324-.122.051-.409-.016-.523-.075-.196-.1-.326-.302-.484-.448-.115-.105-.242-.198-.36-.298-.152-.128-.343-.368-.56-.349-.036.003-.084.027-.087.062-.047.476-.043.954-.062 1.431-.021.532.013 1.061.024 1.593.016.702.055 1.4.063 2.103a194.91 194.91 0 0 1-.002 3.723l1.206.167z" mask="url(#b)"/>
    </g>
</svg>
