<svg xmlns="http://www.w3.org/2000/svg" width="92" height="57" viewBox="0 0 92 57">
    <g fill="none" fill-rule="evenodd">
        <path fill="#FEFEFE" d="M1 1v.455c1.476.702 2.497 1.497 3.015 2.393v27.591c-.624.792-1.36 1.432-2.256 1.851V34h9.482v-.71c-.798-.37-1.476-.98-2.021-1.85V3.847c.47-1.12 1.477-1.882 2.78-2.393V1H1z"/>
        <path stroke="#FEFEFE" stroke-width=".088" d="M1 1v.455c1.476.702 2.497 1.497 3.015 2.393v27.591c-.624.792-1.36 1.432-2.256 1.851V34h9.482v-.71c-.798-.37-1.476-.98-2.021-1.85V3.847c.47-1.12 1.477-1.882 2.78-2.393V1H1z"/>
        <path fill="#FEFEFE" d="M26.62 1H16v.462c1.345.539 2.23 1.31 2.655 2.425l11.38 29.849c.133.35 1.009.353 1.137 0L38 14.972c.208-.572.54-.568.759 0l7.207 18.764c.135.35 1.012.354 1.137 0L57.724 3.887c.328-.92 1.025-1.747 2.276-2.425V1h-7.207v.462c1.606.603 2.623 1.423 2.276 2.425L48.24 23.604c-.185.536-.563.525-.759 0l-6.827-18.39c-.704-1.896.473-3.435 1.896-3.752V1h-10.62v.462c1.367.232 2.498 1.486 3.414 3.753l1.517 3.753c.281.695.194.941 0 1.5L32.31 23.605c-.156.45-.628.37-.758 0l-6.448-18.39c-.718-2.048-.183-3.464 1.517-3.752V1z"/>
        <path stroke="#FEFEFE" stroke-width=".088" d="M26.62 1H16v.462c1.345.539 2.23 1.31 2.655 2.425l11.38 29.849c.133.35 1.009.353 1.137 0L38 14.972c.208-.572.54-.568.759 0l7.207 18.764c.135.35 1.012.354 1.137 0L57.724 3.887c.328-.92 1.025-1.747 2.276-2.425V1h-7.207v.462c1.606.603 2.623 1.423 2.276 2.425L48.24 23.604c-.185.536-.563.525-.759 0l-6.827-18.39c-.704-1.896.473-3.435 1.896-3.752V1h-10.62v.462c1.367.232 2.498 1.486 3.414 3.753l1.517 3.753c.281.695.194.941 0 1.5L32.31 23.605c-.156.45-.628.37-.758 0l-6.448-18.39c-.718-2.048-.183-3.464 1.517-3.752V1z"/>
        <path fill="#FEFEFE" d="M90.24 11.284h.38l-.38-10.077h-.38c-1.474 2.847-3.903.596-8.19 0C71.15-.256 61 6.103 61 18.315c0 10.615 8.637 17.207 18.607 16.653 4.718-.262 8.467-3.038 11.393-7.401h-.38c-3.012 3.063-6.494 5.177-11.013 5.18-7.786.006-12.638-5.763-12.531-14.432.127-10.348 4.1-15.697 12.531-15.542 5.94.04 8.894 3.567 10.634 8.51"/>
        <path stroke="#FEFEFE" stroke-width=".088" d="M90.24 11.284h.38l-.38-10.077h-.38c-1.474 2.847-3.903.596-8.19 0C71.15-.256 61 6.103 61 18.315c0 10.615 8.637 17.207 18.607 16.653 4.718-.262 8.467-3.038 11.393-7.401h-.38c-3.012 3.063-6.494 5.177-11.013 5.18-7.786.006-12.638-5.763-12.531-14.432.127-10.348 4.1-15.697 12.531-15.542 5.94.04 8.894 3.567 10.634 8.51z"/>
        <path fill="#FEFEFE" d="M29.802 41.245c.7 1.345-.619 2.486-1.453 3.508-2.102 1.94-4.431 3.325-6.904 4.376-1.515 2.032-3.164 4.559-5.72 5.296-1.504.486-3.627.971-5.09.071-.557-.424-.752-1.071-.567-1.728.237-.233.34-.606.69-.677.444-.04.938.01 1.072.435.01.272-.093.565-.381.676-.268.132-.721-.05-.815.364.104.506.67.95 1.134 1.113 2.278.525 4.153-.658 5.658-2.346.453-.718 1.102-1.354 1.38-2.152l-.123-.122c-1.814.535-4.174.9-5.781-.313-.804-.566-.835-1.526-.691-2.406.485-1.637 2.165-2.689 3.761-3.012 1.176-.243 2.65-.202 3.329.799.02.374.02.899-.247 1.232-.577.567-1.38 1.234-2.01 1.052.69-.314 1.598-.93 1.762-1.728.103-.617-.36-.951-.824-1.234-1.164-.323-2.37-.01-3.267.678-.958.91-1.7 1.97-1.38 3.325.061.738.793 1.314 1.453 1.546 1.504.293 3.08.04 4.39-.495 1.958-2.153 3.43-4.72 5.904-6.59 1.082-.778 2.154-1.537 3.39-1.91.474.01.98-.071 1.33.242"/>
        <path fill="#010202" d="M30 41.314c-.02 2.003-1.84 3.411-3.278 4.642A12.966 12.966 0 0 1 23.197 48H23c.497-1.596 1.644-2.92 2.709-4.266 1.065-1.002 2.006-2.253 3.278-2.733.382.01.847-.073 1.013.313"/>
        <path fill="#FEFEFE" d="M58.323 41.592c-.663 3.097-3.884 4.978-6.269 6.355-.315.515-.805.956-.876 1.58l.132.13c.796-.087 1.652-1.012 2.416-.194.082.967-.856 1.57-.867 2.42l.184.128c2.141-.312 3.333-3.796 5.718-2.688.336.129.48-.204.744-.258l.744.064c-.204 1.022-1.06 1.763-1.172 2.817h.56c1.112-.72 2.437-1.483 3.1-2.817.214-.236.58-.085.876-.13.285.377-.255.721-.317 1.12-.305.494-.662.967-.743 1.57.204.311.47-.012.683-.065.999-.57 1.946-1.57 2.487-2.624.275-.237.703-.086 1.06-.129v.323c-.397.838-1.06 1.548-1.183 2.494.775.011 1.407-.73 2.11-1.118.826-.655 1.662-1.28 2.426-2.096.184-.43.326-1.044.805-1.173.224-.032.429.119.5.323-.112.495-.693.806-.938 1.247.041.817-.102 1.484.122 2.226 1.193-.118 1.407-1.71 2.487-2.226.591-.365 1.488-.72 2.12-.194.03.323.194.614 0 .915-.56.85-1.437 1.16-2.303 1.376-.265.248-.255.613-.245.978.132.344.53.183.744.14 1.417-1.022 2.518-2.881 4.098-3.484.448-.01.785.258 1.12.527.796-.161 1.764-.967 2.488-.193-.031 1.01-.907 1.667-1.06 2.623.112.334.489.183.683.13L82 51.032c-.51.774-1.396 1.139-2.17 1.505-.429.032-.887.01-1.061-.452.062-.978.836-1.634 1-2.56-.317-.407-.704.173-1.061.259-1.06.656-1.294 1.957-2.303 2.688l-.806-.065c.387-.902 1.05-1.687 1.366-2.623-.153-.28-.397-.032-.56.064-1.142 1.011-2.1 2.516-3.476 2.958-.47.085-.826-.119-1.182-.334-.317-.236-.317-1.15-.928-.72-1.01.645-2.12 1.193-3.353 1.054-.439-.162-.357-.646-.622-.925-.866.054-1.682 1.592-2.487.462-.02-.344-.306-.602-.622-.398-.663.355-1.264 1.044-2.049.86-.57-.16-.285-.806-.621-1.118-1.101.205-1.835 1.517-3.048 1.248-.265-.226-.234-.57-.499-.786-.969.151-2.009 1.656-2.915.452-.072-.215-.092-.44-.316-.591-.959.258-1.702 1.28-2.793.989-.326-.193-.163-.666-.061-.914.214-.72.805-1.28.928-2.032l-.184-.205c-1.336.442-2.559 1.742-3.17 3.087-.245.247-.601.182-.928.193l-.132-.13c.48-.967 1.213-1.891 1.437-2.88-1.794.741-3.282 2.258-5.035 3.074-.948 1.086-1.305 2.431-2.049 3.602-.316.151-.703.291-1.06.14.164-.666.622-1.376.999-2.032.082-.462.602-.882.367-1.311-.387-.183-1.08.14-1.182-.527-.01-.173.112-.28.061-.463l-.122-.129c-2.13.365-2.406 2.936-3.599 4.398a1.757 1.757 0 0 1-.999 0c.388-.968 1.05-1.828 1.366-2.828-.264-.323-.856-.225-.866-.785-.49-.236-.999.43-1.55.204-.264-.215-.458-.882-.876-.591-.601.269-1.162.839-1.926.516-.459-.14-.459-1.258-1.111-.655-.836.258-1.794 1.494-2.62.461.042-.935.867-1.526 1-2.42-.123-.332-.419-.138-.622-.138-1.173.602-1.825 1.86-2.61 2.892-.336.258-.825.322-1.243.193.306-.85 1.131-1.462 1.305-2.365h-.367c-1.356 1-2.63 2.193-4.23 2.56-.387-.076-.877-.055-1.06-.528-.102-.258-.01-.667-.306-.785-.673.269-1.274.72-2.049.72l.061-.193c1.754-.721 3.109-2.462 4.842-3.214.54-.066 1.386-.227 1.62.397.082.44-.295.688-.621.785-.53.129-.53-.85-1.06-.527-.724.7-1.182 1.516-1.244 2.495.255.397.703.096 1 0 2.251-1.656 5.177-3.43 6.278-6.226.326-.591.662-1.022 1.05-1.57 1.151-1.677 2.63-3.204 4.474-3.677.428.043.621.376.683.785-.754 2.806-3.527 4.774-5.84 5.967-.48.462-.969 1.043-1.122 1.71.418.387.918-.172 1.376-.269.306-.054.816-.204 1.05.13.184 1-.724 1.676-.989 2.558.51.44 1.07-.204 1.55-.462 1.335-1.215 2.72-3.108 4.597-2.162.479-.086.876-.365 1.426-.257v.323l-1.366 2.365c.296.204.704-.076 1-.27l3.23-2.687c2.06-2.904 4.108-6.677 7.452-7.99.407-.063 1.06-.214 1.304.194.061 1.505-1.183 2.495-2.05 3.537-1.395 1.506-3.168 2.344-4.84 3.28-.907 1.097-1.55 2.301-2.12 3.538l.132.129c1.6-.634 3.007-1.763 4.465-2.753 2.028-2.634 3.7-6.01 6.656-7.666.641-.086 1.549-.84 2.048 0-.02 1.365-1.05 2.398-1.927 3.28-1.59 1.634-3.383 2.72-5.157 3.87-.703 1.065-1.416 2.118-1.926 3.269l.183.204c1.998-.806 3.731-2.408 5.413-3.87 1.498-2.29 2.976-4.764 5.086-6.624.754-.333 2.1-1.366 2.61-.129"/>
        <path fill="#010202" d="M56 42.18c-.087 1.274-.963 2.183-1.76 3.13-.717.702-1.348 1.295-2.187 1.69-.114-.08-.018-.306.052-.425.963-1.402 1.68-2.923 2.888-4.217.272-.227.7-.573 1.007-.178M53 42.168c-.058 1.294-1.467 2.104-2.239 3.072-.936.55-1.708 1.49-2.761 1.76v-.232c1.178-1.714 2.635-3.613 4.47-4.768.202.01.414-.046.53.168M48 42.18c-.21 1.61-1.869 2.584-3.049 3.702-.63.425-1.23.897-1.949 1.118-.04-.482.49-.897.73-1.35 1.13-1.33 2.219-2.978 3.838-3.643.19-.03.32.038.43.173M34 43.304c-.452 2.175-2.155 3.826-3.894 4.696H30c.328-.992.931-1.903 1.517-2.722.674-.85 1.206-2.096 2.27-2.278l.213.304zM74.911 49c.383.76-.557 1.348-1.168 1.796-.243.063-.418.264-.73.186-.14-.836.922-1.873 1.898-1.982M58 49.314c-.01 1.394-1.117 2.272-1.888 2.686h-.107c-.08-1.23.728-2.335 1.463-2.986.222-.05.407.037.532.3M69.979 50c.139 1.138-.428 2.224-1.134 3-.44-.065-.324-.866-.845-1.034v-.31c.625-.634 1.261-1.268 1.979-1.656M36 50.345c-.01 1.143-.796 2.09-1.429 2.562-.18.026-.415.13-.551.079-.154-1.208.615-2.194 1.265-2.878.272-.052.597-.315.715.237M46 51c-.292.994-.83 2.194-1.692 2.98-.739.164-.831-.741-1.308-1.082.646-.86 1.77-1.35 2.724-1.898H46zM40 52c-.338.625-.611 2.047-1.577 1.999-.144-.218-.546-.328-.386-.656A4.417 4.417 0 0 1 40 52"/>
    </g>
</svg>
