<svg xmlns="http://www.w3.org/2000/svg" xmlns:xlink="http://www.w3.org/1999/xlink" width="98" height="48" viewBox="0 0 98 48">
    <defs>
        <path id="a" d="M97.62 13.35V0H0v13.35z"/>
    </defs>
    <g fill="none" fill-rule="evenodd">
        <path fill="#FEFEFE" d="M41.439 14.764c-1.241 2.124-1.352 3.152-1.386 3.845-.042.673-.042 1.886.966 2.876 1.707 1.642 4.086 1.375 6.196 1.375h17.41c.74 0 .96-.235 1.357-.817C67.374 19.74 68 17.249 68 15.017c0-4.782-2.874-10.801-10.135-13.525l-.817 1.267c5.759 2.957 8.145 6.83 8.145 12.247a8.294 8.294 0 0 1-1.199 4.471H47.066c-1.014 0-1.152-1.242-.793-1.938a74.584 74.584 0 0 1 4.854-8.044c1.71-2.47 3.399-4.78 5.161-7.2.481-.67.16-1.319-.792-1.53C53.519.313 51.454 0 48.954 0 35.066 0 30 8.627 30 15.019 30 21.948 35.111 30 48.989 30c7.704 0 12.75-2.688 15.672-6.135h-2.947c-2.556 2.551-6.938 4.359-12.725 4.359-11.756 0-16.09-7.147-16.09-13.3.087-5.49 4.738-13.073 16.384-13.326.44-.012.782.423.475.835-1.991 2.65-7.67 11.224-8.319 12.33"/>
        <g transform="translate(0 34)">
            <mask id="b" fill="#fff">
                <use xlink:href="#a"/>
            </mask>
            <path fill="#FEFEFE" d="M38.602 10.619H22.636c.042-1.365 1.369-2.738 2.579-2.738h10.054V5.146H22.506c-.145-.797 1.226-2.371 2.272-2.371H36.25V1.308l7.436 5.828-5.084 3.483zm55.111-5.215H82.578c.15-1.482 1.316-2.721 2.497-2.721h11.27l-.04-2.574H84.36c-3.779 0-6.8 3.428-6.892 7.417-.015.278.157.45.447.45l13.557-.053c.695.105 1.229.708 1.229 1.417 0 .797-.668 1.438-1.47 1.438H76.314V.118h-4.388v10.687h-8.073c-2.195 0-2.647-1.452-2.647-2.788V.054h-7.284c-.721.536-1.418 1.122-2.158 1.614l-4.316 2.907-5.62-4.48h-16.98c-2.23 0-3.947.635-5.22 1.734-2.286 1.97-3.012 4.054-2.983 4.987h2.974c-1.306 1.065-2.188 2.348-2.648 3.83h-9.77c-1.756 0-2.882-1.36-2.882-2.685V0H0v8.27c0 2.972 2.582 5.03 6.73 5.03h32.742c.684-.503 1.327-1.039 2.037-1.511l4.449-2.943 5.636 4.395h6.417l-8.478-6.973L53.89 3.16c.928-.665 1.901-1.224 2.853-1.84v7.022c0 2.957.691 5.008 6.15 5.008l30.82-.078c2.379.038 3.907-1.764 3.907-3.932 0-2.16-1.756-3.936-3.907-3.936z" mask="url(#b)"/>
        </g>
    </g>
</svg>
