<svg xmlns="http://www.w3.org/2000/svg" xmlns:xlink="http://www.w3.org/1999/xlink" width="141" height="40" viewBox="0 0 141 40">
    <defs>
        <path id="a" d="M26.831 39.183V.33H.37v38.853H26.83z"/>
    </defs>
    <g fill="none" fill-rule="evenodd">
        <path fill="#FEFEFE" d="M78.028 27.512a43.31 43.31 0 0 0-4.339 4.112h-.036l-.362.4c-.761.88-1.544 1.747-2.2 2.673h-.028c-.495.703-.915 1.44-1.196 2.244a.722.722 0 0 0 .013.272h.009c.057.218.194.426.34.526.809.234 1.479-.194 2.186-.443l.169-.081h.074c1.345-.664 2.648-1.544 3.893-2.556h.045a34.906 34.906 0 0 0 3.274-3.076h.036a53.802 53.802 0 0 0 3.214-3.775c.066-.11.14-.222.216-.337h.028c.615-.911 1.463-1.968.968-2.814-.655-.762-1.817-.05-2.575.265a31 31 0 0 0-3.681 2.59h-.048zm-66.748 9.7c.486-.11.964-.226 1.436-.35-2.188-.83-4.394-1.612-6.8-1.944-1.6-.149-3.434-.249-4.63.848-.244.257-.256.482-.148.717.179.349.439.575.74.73h.078c.536.253 1.191.309 1.771.442 2.49.31 5 .062 7.372-.444h.181zM52.574 5.766l-.287-.332c-1.245-.714-2.643.067-3.736.631-5.774 3.372-11.503 11.205-15.122 16.52.909-.15 4.444-1.303 6.853-2.802 4.259-2.342 9.716-7.473 12.005-11.875.253-.647.656-1.411.287-2.142zM34.69 23.373c-.705.2-1.417.384-2.135.552-.874 1.32-1.67 2.498-2.494 3.585h-.028c-1.136 1.494-2.327 2.819-3.846 4.11h-.041c-.476.4-.984.8-1.532 1.2a20.875 20.875 0 0 1-3.11 1.878h-.08c-.618.302-1.25.571-1.894.809 3.367 1.412 8.197 1.428 11.496-.183.434-.202.866-.423 1.291-.663h.062a20.806 20.806 0 0 0 4.126-3.075h.037a20.837 20.837 0 0 0 1.807-1.967l1.718-2.146h.03l3.292-4.11h.01l.059-.074h5.293l-.067.084h-.008l-3.297 4.138h-.03l-3.275 4.11h-.03l-2.45 3.075h-.03l-1.77 2.223a.929.929 0 0 0-.174.33h-.008a.466.466 0 0 0 .043.305c.4.756 1.783 0 1.783 0s.172-.065.612-.34h.06c.601-.382 1.662-1.128 3.393-2.559h.049c.766-.638 1.663-1.405 2.708-2.333.276-.245.547-.49.812-.735h.038c1.362-1.254 2.608-2.53 3.795-3.978l.11-.136h.03l3.323-4.11h.01l.126-.158h4.987l-.132.169h-.009a154.112 154.112 0 0 0-3.104 4.134h-.027l-.061.085.151-.123h.05c2.029-1.636 4.056-3.243 6.392-4.107h.029a10.729 10.729 0 0 1 1.622-.456c.83-.115 1.634.026 2.273.455h.016c.276.187.522.43.724.73.66 1.038.507 2.323.04 3.418h-.016c-.152.344-.332.67-.529.962l-1.06 1.312-1.602 1.838h-.033l-2.677 3.073h-.032l-1.864 2.14c-.111.134-.148.263-.122.378h.01c.024.062.067.121.13.175.329.224.754.015 1.142-.175h.076c.121-.058.237-.11.345-.145a21.07 21.07 0 0 0 3.914-2.412h.052a32.16 32.16 0 0 0 2.24-1.928c.283-.313.559-.73.831-1.146h.025c.252-.386.499-.768.746-1.066a22.626 22.626 0 0 1 2.948-3.04h.041c2.245-1.906 4.822-3.32 7.58-4.114h.04a18.892 18.892 0 0 1 1.628-.388c1.196-.167 2.642-.347 3.63.388h.01c.092.066.181.144.265.232.286.348.353.797.336 1.262l.758-.864.5-.63h.009l5.635-7.098 5.916-7.55h5.05l-11.463 14.66h-.008l-3.198 4.09-.038.047h-.028l-3.229 4.11h-.029l-2.414 3.075h-.03l-1.705 2.172a.9.9 0 0 0-.11.355.362.362 0 0 0 .036.148c.2.423 1 .192 1.42.108.26-.078.516-.166.77-.262h.09c1.522-.586 2.934-1.476 4.235-2.557h.043a24.283 24.283 0 0 0 2.925-2.936l.11-.14h.03l3.276-4.11h.029l3.276-4.112h.009l1.248-1.568-3.124-.002 1.121-1.326h3.08s9.081-11.6 9.25-11.766H114l-9.099 11.7 7.482-.014-1.197 1.387-7.361.005-1.266 1.595h-.01l-3.277 4.138h-.03l-3.258 4.11h-.03l-2.436 3.075h-.029l-1.683 2.123a.762.762 0 0 0-.16.422.455.455 0 0 0 .028.149c.157.309.332.401.741.39.723-.01 1.397-.229 2.048-.568h.074c.786-.423 1.542-1.015 2.32-1.622.342-.264.729-.587 1.127-.931h.044c1.458-1.264 3.046-2.797 3.046-2.797l.808.83c-.733.65-1.461 1.333-2.19 2.002h-.039c-1.017.929-2.036 1.827-3.075 2.558h-.053c-.856.597-1.724 1.078-2.615 1.366-.823.315-2.57.7-3.885-.06-.564-.326-.917-.764-1.058-1.307h-.008c-.168-.69.006-1.55.514-2.555h-.094c-1.125.856-2.235 1.786-3.411 2.553h-.053c-1.73 1.115-3.6 1.872-5.858 1.509-.74-.133-1.43-.748-1.75-1.429-.012-.025-.022-.051-.033-.078h-.015a3.871 3.871 0 0 1-.07-2.376c-.724.482-1.448 1.147-2.189 1.645-.345.239-.705.488-1.075.731h-.057c-1.914 1.249-4.14 2.352-6.418 1.36-.568-.293-.949-.787-1.183-1.36h-.015c-.222-.557-.307-1.187-.29-1.777.03-.27.06-.566.103-.816h.006l.009-.044-.101.081h-.047c-1.196.959-2.398 1.819-3.657 2.556h-.065c-.83.483-1.686.912-2.583 1.282-.98.356-3.405.866-4.612-.344-.262-.314-.434-.61-.523-.938h-.01c-.102-.41-.077-.872.06-1.486.074-.305.276-.69.547-1.108h.026c.74-1.129 1.964-2.474 2.525-3.07h.032c.165-.173.264-.274.264-.274l3.449-3.84h.033l2.456-2.733s.264-.294.013-.64c-.303-.415-.925-.066-1.309.075-1.622.668-3.366 1.8-5.258 3.335h-.045c-1.39 1.129-2.857 2.474-4.413 4.009l-.112.103h-.04c-.833.781-1.89 1.932-2.89 3.07h-.03c-.82.932-1.601 1.857-2.186 2.559h-.03c-.598.719-.983 1.195-.983 1.195l-5.037.003.983-1.236h.03L45.6 34.66h.03l.75-.942c-.12-.15-.304.066-.304.066s-.377.37-.973.91h-.037c-.795.713-1.963 1.717-3.15 2.556h-.05c-.766.534-1.537 1-2.22 1.273l-.045.017c-.98.356-3.41.866-4.617-.344-.265-.317-.436-.614-.525-.944h-.01c-.1-.409-.075-.87.062-1.48.114-.461.304-.834.488-1.113h.025c.255-.38.493-.575.493-.575-.267.21-.538.415-.811.614h-.053a23.247 23.247 0 0 1-4.435 2.553h-.084c-2.865 1.218-5.98 1.775-9.357 1.425a51.405 51.405 0 0 1-5.555-1.196c-3.855 1.08-8.366 1.81-12.557.913-.736-.21-1.639-.536-2.19-1.14H.442a1.85 1.85 0 0 1-.437-.881c-.05-.661.28-1.252.747-1.716h.04c.311-.303.678-.548 1.03-.722 4.637-2.224 10.334-.674 14.962.726h.126l.6.183c.084-.06.166-.12.248-.182h.047c1.18-.893 2.261-1.964 3.258-3.076h.034c.478-.536.937-1.079 1.38-1.617l2.035-2.494h.03l1.01-1.237c.488-.697 1.603-2.142 1.603-2.142-2.079-.104-4.236-.262-6.266-.72h-.06c-2.828-.65-5.402-1.885-7.16-4.37-1.464-2.326-1.295-5.597.152-7.89 3.047-4.4 8.08-5.713 13.163-6.012 3.165-.083 6.11.532 8.854 1.512 0 0-.067.498-.117.747-3.99-.996-8.837-1.295-12.81.034-3.3.946-7.17 3.87-7.541 7.54-.354 2.441.909 4.717 3.08 6.012 2.71 1.644 5.976 1.993 9.342 2.093C32.001 17.576 38.08 10.334 43.87 6.63c2.34-1.361 4.748-2.74 7.66-2.623.707.033 1.582.332 2.07 1.096.942 1.378.135 3.106-.539 4.351-2.979 5.116-9.126 10.164-14.125 12.456a36.898 36.898 0 0 1-4.206 1.463h-.039zm.826 10.795h-.004.004zm-.004 0h-.004.004zm12.246-17.01c1.397-1.286 3.194-1.626 4.013-.76.819.867.35 2.612-1.047 3.897-1.397 1.286-3.193 1.626-4.012.76-.82-.867-.35-2.612 1.046-3.897z"/>
        <g transform="translate(114)">
            <mask id="b" fill="#fff">
                <use xlink:href="#a"/>
            </mask>
            <path fill="#FEFEFE" d="M13.906 9.054a7.718 7.718 0 0 0-.055-.39c.17-.027.346-.048.516-.061.085.129.124.283.176.431-.052-.148-.09-.302-.176-.431-.17.013-.346.034-.516.06.022.13.04.262.055.391v.003a7.345 7.345 0 0 0-.055-.393c.17-.027.346-.048.516-.061.085.129.124.283.176.431-.052-.148-.09-.302-.176-.431-.17.013-.346.034-.516.06.022.13.04.262.055.394v-.003zm.696 1.024c.05-.346.045-.713-.052-1.032v-.001c.097.32.102.687.052 1.035v-.002zm-.052-1.033c.097.32.102.687.052 1.035v-.002c.05-.346.045-.713-.052-1.032v-.001zm-1.2.009c-.008.04-.015.083-.022.126l.022-.126zm-.46 2.556l.02.484c.111.087.19.222.308.303.004-.264.01-.523.019-.787l.006-.168-.02-.033-.345-.081.012.282zm-4.754 7.185c.054.162-.017.348-.093.377.175.014.399-.014.562-.08-.192-.168-.311-.24-.469-.297zm-.633-.166c-.166-.03-.422.018-.577.075a.942.942 0 0 0 .469.357.383.383 0 0 1 .108-.432zm1.549.39l.23.02.035.12c-.314.417-1.98.254-2.33-.077-.128-.121-.19-.298-.36-.372l-.014-.14c.947-.563 1.648-.119 2.439.448zm-6.608 6.594c-.021-.157.094-.602.002-.624-.414-.095-.527.94-.003.624zm.98.092c.389.18.458-.547.321-.561-.33-.034-.448.386-.32.561zm17.334 6.38c-.176-1.045-1.276-.672-1.225-.326.625-.153.703-.044 1.225.326zm1.148-.923c.18.497.376.932.408 1.471.385-.216.021-1.533-.408-1.47zm1.834 3.33c-.159.027-.85.42-.952.532.115.05.219.133.347.14.254-.162.421-.441.605-.672zm-2.752 1.421c.131.356 1.12.805 1.312.442-.18-.15-.803-.303-1.067-.414-.064-.026-.192-.111-.245-.028zM6.52 37.44c-.128-.045-.464-.172-.6-.165l-.04.146c.084.255.489.359.655.156l-.015-.137zm13.87-.694h.005c.32.436 1.069.874 1.34.48-.393-.15-.613-.313-.764-.47h-.012c-.19-.203-.277-.393-.484-.53-.06-.04-.122-.04-.174.018-.104.12-.05.31.088.502zm-1.179 0h.002c.185.622.802 1.157 1.358.865-.32-.234-.61-.519-.843-.856h-.008a3.414 3.414 0 0 1-.265-.463c-.035-.074-.071-.17-.161-.169l-.13.16c-.015.152.003.31.047.463zm-1.375 0h.002c.135.584.475 1.185.923 1.107l.085-.101a3.166 3.166 0 0 1-.43-.997h-.002c-.072-.27-.128-.552-.21-.853-.02-.078-.076-.182-.175-.18-.268.005-.31.507-.193 1.024zm4.175-1.541h.002c.158.568 1.644.926 2.04 1.488a.527.527 0 0 1 .034.053h.006c.247.427-.064.808-.04 1.233.186-.113.357-.252.488-.427h-.134c-.07-.056-.003-.176.012-.246.043-.195.03-.38-.028-.55h-.003a1.15 1.15 0 0 0-.363-.498c-.537-.44-1.268-.577-1.8-1.03l-.015-.014h-.01c-.058-.057-.103-.12-.2-.081a.43.43 0 0 0 .01.072zm-.874 0h.007c.184.25.487.412.782.307l-.041-.104a1.466 1.466 0 0 1-.327-.194h-.01a2.406 2.406 0 0 1-.478-.511l-.095-.014a.815.815 0 0 0 .162.515zm-4.336.013c-.356.37-.39 1.044-.196 1.528h.005c.138.34.388.584.718.564a1.9 1.9 0 0 1-.195-.555h-.002a2.074 2.074 0 0 1 .07-.996c.023-.075.193-.348.258-.554h.003c.043-.142.034-.25-.114-.234a.87.87 0 0 0-.534.247H16.8zm5.966-1.033a2.912 2.912 0 0 1-.46.49c-.016.013-.098.068-.055.098.054.038.144.07.204.098.269-.085.52-.367.717-.69h.004c.197-.325.34-.696.386-.96-.045-.14-.16.04-.19.084-.209.287-.389.596-.6.88h-.006zm-2.74.004c-.027.401.093 1.04.683.877-.287-.317-.376-.532-.473-.88h-.003l-.047-.175c-.057-.217-.137-.07-.158.178h-.001zm-.485-.013h.008a.814.814 0 0 0 .203.218.88.88 0 0 0 .01-.208c-.025-.275-.169-.463.078-1.128-.34-.086-.613.623-.3 1.118zm-3.595.008c-.232.29-.383.658-.414 1.03-.029.394.078.792.37 1.107a2.728 2.728 0 0 1 .158-1.114h.003c.135-.36.349-.689.622-1.034h.01c.139-.18.295-.36.463-.554-.112-.075-.296-.01-.415.023-.309.085-.582.282-.79.542h-.007zm-8.1 4.103c.005-.172-.21-.085-.379.008h-.014c-.1.056-.18.113-.185.117-.188.2.51.41.577-.11l.001-.015zm2.033.01h-.023c-.184-.112-.454-.243-.502-.199a.307.307 0 0 0 .003.189h.004c.114.291.656.422.656.104a1.017 1.017 0 0 0-.138-.095zm-2.972-1.552h.132a.447.447 0 0 0 .041-.01c.05-.138-.083-.3-.138-.423-.305-.683-.445.336-.035.433zm15.844-4.097c-.029.198-.055.402-.106.559-.056.172-.148.333-.183.51l.088.029c.37-.233.46-.675.485-1.108.014-.22.01-.436.017-.62-.049-.002-.136.02-.162.07-.072.137-.107.346-.138.56h-.001zm-2.316-.002c-.345.499.114 1.136.634 1.53h.014a2.1 2.1 0 0 0 .557.312 1.97 1.97 0 0 0 .187-.307h.002c.286-.592.16-1.173-.126-1.532h-.008c-.28-.342-.706-.475-1.055-.209a.95.95 0 0 0-.201.205h-.004zm-1.399.002a.59.59 0 0 0 .025.522c.203-.246.3-.401.42-.527h.006c.134-.134.297-.237.66-.383-.354-.319-.931-.03-1.107.388h-.004zm-3.652.003c-.365.418-.6.977-.705 1.538h-.002a3.566 3.566 0 0 0-.044 1.015c.017.14.043.275.08.4l.156.048c.036-.147.057-.296.08-.446.015-.103.031-.207.052-.31a3.58 3.58 0 0 1 .226-.722h.006c.252-.578.642-1.076 1.112-1.533h.009a10.5 10.5 0 0 1 .724-.634c-.721-.084-1.28.193-1.684.644h-.01zm5.405-1.552h.012c.224.18.443.378.574.638.064.128.084.268.224.337a1.022 1.022 0 0 0-.355-.966h-.015c-.229-.186-.492-.239-.595-.132.051.041.104.081.155.123zm-5.874.008c-.51.4-.828.938-.972 1.541h-.002c-.095.4-.114.831-.06 1.272a.578.578 0 0 0 .073.256h.005c.012.015.026.03.042.046l.112-.04.003-.009h.004c.192-.663.377-1.14.594-1.535h.007c.326-.593.725-.997 1.326-1.542h.014c.182-.17.384-.35.61-.55-.407-.213-1.011.11-1.364.308a2.838 2.838 0 0 0-.382.253h-.01zm-.951-1.021a2.8 2.8 0 0 0-.547 1.019h-.002a3.535 3.535 0 0 0-.088 1.534h.002a.357.357 0 0 0 .103.2l.113-.041c.016-.054.03-.108.047-.16h.003c.203-.668.4-1.142.639-1.538h.004c.231-.379.502-.687.851-1.025h.01c.276-.268.604-.554 1.002-.913-.407-.212-1.01.11-1.364.308-.304.17-.557.378-.763.616h-.01zM3.473 28.542h-.005a1.465 1.465 0 0 1-.065-.208l-.138-.038c-.086.041-.118.133-.114.236.013.261.255.592.488.4-.048-.132-.113-.26-.166-.39zm13.384-1.554h.008a.388.388 0 0 0 .237.125l.136-.12c-.017-.22.024-.535-.042-.733-.137-.408-.61.387-.34.728zm-14.47.009h-.013c-.162-.118-.415-.19-.492-.003h-.004a.3.3 0 0 0-.016.08c-.024.22.556.537.649.11.012-.052-.043-.125-.124-.187zm1.544 0h-.019c-.36-.171-.68-.516-1.053-.699.014.146.104.268.186.375-.018.113-.127.149-.119.282.16-.013.419-.072.567.033h.01c.057.043.096.116.103.229.006.111-.163.201-.105.304.9-.291 1.605.222 2.467.55.001.114-.16.232-.217.329.035.069.12.069.183.054.638-.14 1.216-.979 1.95-.743l.062.108c-.088.23-.334.342-.397.587l.084.04c.308-.07.79-.444 1.005-.46.287-.02.393.273.481.546h.005c.082.26.152.495.35.423-.024-.127-.04-.27-.057-.413h-.001a4.904 4.904 0 0 0-.105-.657c-.068-.044-.143-.005-.212-.04-.048-.227-.014-.461-.025-.692-.725-.015-1.445.06-2.161.199-.271.052-.91.285-1.14.241-.49-.096-1.37-.385-1.831-.591l-.011-.005zm13.842-1.02c-.09.293-.084.753.08 1.01h.008c.101.151.257.227.482.156a1.268 1.268 0 0 1-.052-.146h-.004c-.09-.334-.05-.708-.109-1.02h-.001a.921.921 0 0 0-.074-.237c-.043-.088-.178-.017-.22.028a.538.538 0 0 0-.107.208h-.003zm1.991-1.543c-.024.404-.013.976-.005 1.533.005.369.01.73.002 1.03-.011.417-.045.716-.13.755-.178.082-.29-.352-.356-.755h-.001c-.044-.267-.068-.518-.079-.594a6.54 6.54 0 0 1-.046-.426h-.001c-.032-.38-.044-.763-.096-1.141l-.102.063c-.112.232-.145.64-.145 1.075 0 .35.021.712.04 1.014.022.365.04.638.01.68-.131.188-1.597-.2-2.16.12l.014.111c.168.046.344 0 .516 0 .666 0 1.137.15 1.738.418.058.025.356.172.388.178.03.006.066 0 .096 0 1.248-1.094 1.649-1.16 3.254-1.416a.51.51 0 0 0-.003-.082h-.002c-.023-.19-.13-.447-.28-.518-.179-.083-.346.662-.51.197-.02-.06-.041-.423-.062-.7a3.485 3.485 0 0 0-.027-.265l-.116-.007c-.02.059-.04.155-.056.269-.054.354-.092.882-.16.94l-.13-.034c-.096-.183-.153-.52-.19-.902h-.002c-.051-.54-.066-1.157-.096-1.541h-.001l-.01-.103-.1-.07c-.05.028-.087.088-.115.171h-.002c-.103.318-.08.972-.068 1.533.011.405.016.759-.034.905-.022.065-.082.102-.149.084-.172-.044-.291-.458-.373-.98h-.002a16.105 16.105 0 0 1-.145-1.54 16.976 16.976 0 0 1-.023-.684c-.134.012-.183.134-.219.245-.03.097-.05.248-.061.437zm.543-2.573h.004c.089.222.327.621.582 1.024h.006c.322.509.667 1.02.769 1.19l.216.352h.005c.315.509.629 1.012.895 1.54h.003c.166.326.313.664.432 1.02h.003c.025.076.048.15.07.225.048.168.031.603.278.603a.263.263 0 0 0 .238-.154c.087-.22-.102-.341-.183-.505a.58.58 0 0 1-.047-.16h-.002c-.046-.275-.028-.72-.006-1.027l.02-.222c.05-.469.174-.902.343-1.32h.003c.216-.53.5-1.034.786-1.544h.007l.064-.117c.022-.04.071-.147.014-.182-.055-.031-.21.105-.244.14-.054.054-.106.111-.154.17h-.008c-.366.453-.606 1.043-.823 1.543h-.004c-.142.327-.273.614-.425.798-.153.001-.188-.137-.176-.266.016-.187.052-.367.102-.541h.003c.157-.547.452-1.044.725-1.544h.005c.096-.176.188-.352.272-.53.027-.06-.046-.129-.09-.148-.191.134-.392.39-.582.687h-.005c-.322.498-.615 1.117-.804 1.476a.48.48 0 0 1-.04.063h-.006c-.049.055-.109.072-.192.011l-.003-.007h-.004c-.102-.33.204-.96.49-1.549h.005c.194-.4.379-.78.417-1.03h.001l.004-.034a.409.409 0 0 0-.074.044h-.008c-.23.166-.504.61-.745 1.025h-.004c-.257.44-.473.847-.549.846l-.074-.126c.019-.244.094-.489.187-.727h.003c.143-.366.326-.716.406-1.021h.002c.024-.088.039-.176.04-.258-.104.024-.206.127-.303.266h-.008c-.253.367-.479.965-.67 1.025l-.07-.003a.224.224 0 0 1-.07-.071c-.065-.36.084-.657.218-.965h.006a2.81 2.81 0 0 0 .13-.357c.014-.052.025-.138-.027-.175-.103-.075-.304.27-.503.547h-.008c-.19.267-.38.462-.474.15a.48.48 0 0 1-.01-.16c.012-.215.092-.534.084-.712-.2-.303-.459.443-.475.574a.337.337 0 0 0 .032.136zm-4.52-2.039c-.005.113-.011.225-.03.336-.04.254-.117.482-.225.689h-.005c-.219.419-.561.749-.974 1.026h-.019c-.626.419-1.41.717-2.17 1.022h-.025c-1.011.405-1.978.821-2.477 1.541h-.008a1.917 1.917 0 0 0-.305.736c.096-.05.184-.1.298-.084-.028.354-.161.61-.23.887h-.003c-.06.244-.07.507.09.869.139-.295.252-.612.516-.82l.102.028c-.024.157-.13.57-.183.945h-.001c-.044.314-.05.6.062.685.14-.21.27-.61.557-.658l.068.119-.204.917c-.036.159-.056.32-.07.482h-.001c-.029.34-.032.681-.099 1.008a4.488 4.488 0 0 1-.15.533H10.3c-.103.308-.224.618-.309.915a3.98 3.98 0 0 0-.031.11h-.003a15.724 15.724 0 0 0-.342 1.54h-.002c-.082.49-.143.987-.185 1.49-.001.015-.003.029-.003.044-.024.332-.017.69-.044 1.028a3.419 3.419 0 0 1-.03.248c-.016.108-.356.868-.571 1.295h-.004a1.61 1.61 0 0 1-.158.272c-.438.428-1.223.241-1.738.126l-.007.112c.21.051.435.095.638.168.225.081-.064.185.014.35.218-.098 1.039-.568 1.283-.434.151.083.189.297.408.224.03-.279-.14-.55-.07-.826h.001l.007-.026c.067-.201.519-.96.525-1.064.008-.152.014-.304.02-.455.012-.298.023-.59.048-.888a1.33 1.33 0 0 1 .016-.134h.002c.019-.121.052-.274.098-.312.104-.092.136.141.264.105l.074-.12c.003-.27-.075-.865.013-1.214h.002a.472.472 0 0 1 .08-.177c.021-.025.106-.053.136-.036a.533.533 0 0 1 .178.214h.007c.105.213.163.47.256.464.048-.003.084-.127.09-.16a1.62 1.62 0 0 0 .014-.294c-.013-.398-.13-.812-.042-1.204.027-.116.102-.283.221-.344h.02a.247.247 0 0 1 .05-.01.147.147 0 0 1 .07.008h.015c.083.047.113.174.228.157a.463.463 0 0 0 .031-.156c.014-.225-.015-.622-.018-1.016-.002-.522.046-1.035.307-1.149l.088.083c.03.22.041.725.143 1.056h.004c.04.13.096.233.173.28.018-.056.044-.16.079-.279h.001c.093-.31.24-.724.436-.72l.055.105c-.016.1-.044.342-.064.624a6.235 6.235 0 0 0-.008 1.015c.024.188.066.323.14.353.026-.116.055-.234.086-.352h.002c.058-.219.125-.44.21-.647a2.94 2.94 0 0 1 .19-.377h.005c.349-.58.892-1.065 1.452-1.417.067-.042.152-.082.236-.123h.015a1.19 1.19 0 0 0 .25-.145c.03-.026.054-.068.08-.098-.395-.352-1.109-.008-1.683.247h-.014c-.253.108-.477.201-.632.205a.678.678 0 0 1 .097-.215h.009c.322-.473 1.219-.919 1.632-1.12l.007-.091c-.75-.243-1.71.234-2.344.588-.032.02-.105.022-.129-.014-.132-.202.449-.579.995-.905h.018c.42-.25.814-.47.849-.556-.86-.088-1.474.188-2.235.518-.067.029-.122-.013-.137-.085.34-.372.752-.66 1.192-.894h.012c.216-.11.44-.21.665-.3-.374-.178-1.388.067-1.932.305h-.019c-.086.038-.16.076-.217.112h-.109l-.02-.09a.397.397 0 0 0 .023-.027h.006c.558-.639 1.354-.899 2.105-1.24-.624.02-1.254.067-1.855.253-.157.048-.307.124-.469.154l-.054-.091c.35-.32.701-.494 1.057-.623h.036c.537-.19 1.08-.276 1.617-.587-.846.043-1.693.097-2.533.217.288-.385 2.036-.731 3.343-1.17h.033c.83-.282 1.475-.6 1.44-.993-.598.536-1.8.849-2.762 1.004h-.06c-.222.036-.43.062-.615.08 0 0 .096-.03.256-.087h.021c.447-.16 1.352-.52 2.082-1.026h.014c.424-.297.785-.642.961-1.028h.006c.097-.22.135-.449.091-.689a1.894 1.894 0 0 0-.089-.322h-.005a1.307 1.307 0 0 0-.287-.46c-.008.153-.006.307-.01.46h-.001zm-1.193-.002a1.57 1.57 0 0 1-.405.747c-.047.05-.234.189-.266.278h-.003a.046.046 0 0 0 .005.038c.098.137.289.088.491-.044h.01c.343-.224.719-.68.76-.88.01-.05.017-.1.02-.148.017-.441-.288-.822-.79-1.032.18.353.246.704.18 1.041h-.002zm-1.174 0c-.065.166-.143.342-.18.549.365.069.638-.202.733-.557h.002c.133-.513-.104-1.194-.967-1.278.628.568.559.91.415 1.286h-.003zm-.939-.008h.002c.02.159-.014.321.06.47l.141-.04a.898.898 0 0 0 .204-.43h.001c.088-.577-.455-1.166-1.341-1.193.445.299.791.688.918 1.12a.435.435 0 0 1 .015.073zm-1.202 0h.008c.17.168.336.262.41.162.03-.041.036-.094.024-.152h-.002c-.072-.307-.638-.79-.817-.868l-.115.013c-.038.159.23.585.492.845zm-1.127 0c0 .008 0 .018.003.03.06.456 1.029.534.754.14a.799.799 0 0 0-.177-.16h-.018c-.233-.16-.574-.292-.562-.01zm13.616-1.527c-.084.401-.067 1.038-.044 1.527.014.31.029.559.022.648l-.101.07c-.168-.014-.287-.326-.369-.708h-.001a7.758 7.758 0 0 1-.146-1.37l-.103-.078c-.29.043-.164.898-.14 1.438.013.32-.01.526-.179.381-.082-.071-.155-.208-.216-.371h-.002c-.12-.314-.201-.723-.25-.93-.227.065-.097.595-.106.93-.005.164-.046.279-.18.266-.095-.008-.161-.121-.198-.196a.916.916 0 0 1-.028-.07h-.004c-.047-.138-.066-.29-.157-.404l-.102.035c-.02.121-.037.244-.06.366l-.015.073c-.042.203-.448-.052-.414.252.015.135 1.25.377 1.46.442.247.074.488.158.726.25h.018c.7.272 1.365.62 2 1.025h.016l.217.142c.144.097.325.352.515.308.328-.074.21-.27.053-.44h-.013c-.096-.108-.205-.202-.23-.251a7.686 7.686 0 0 1-.334-.774H25.4a6.394 6.394 0 0 1-.278-1.024h-.002a6.124 6.124 0 0 1-.073-1.548 7.32 7.32 0 0 1 .112-.815l-.094-.084c-.115.026-.18.173-.218.273-.08.207-.13.418-.162.63-.075.504-.039 1.02-.01 1.534h.001c.015.27.028.537.022.802-.004.14-.09.315-.239.16-.136-.141-.249-.643-.305-.952h-.002a3.386 3.386 0 0 1-.025-.152c-.025-.167-.04-.925-.06-1.389-.008-.201-.017-.346-.028-.36-.135-.007-.218.138-.268.364h-.003zM3.341 18.27c.004.064.03.122.088.171l.101.007a.931.931 0 0 1 .125-.18h.012a.318.318 0 0 1 .128-.083c.076-.026.17-.026.238.02.025.017.037.04.042.065h.002c.008.09-.045.203.052.241.103.04.411-.078.584.007.295.145.259.242.632.21.173-.014.27.074.36.203.142.208.317.02.49.028.138.007.555.248.712.316.597.259 1.69.254 1.956.392.067.035.09.085.08.154H8.94a.069.069 0 0 1-.003.012c-.041.188-.315.338-.481.399-.356.13-.79.169-1.163.231-.468.08-.896.235-1.329.383h-.03c-.495.17-.995.325-1.562.337-.143.002-.304-.022-.421.084.309.224 2.775-.17 3.466-.433h.026a.392.392 0 0 0 .142-.083c.328-.414.628-.012.92.085h.02a.44.44 0 0 0 .093.01.306.306 0 0 0 .083-.01h.024c.153-.074-.165-.361-.032-.499.266-.275.717.052 1.012-.188l-.006-.148a3.057 3.057 0 0 1-.278-.18h-.01c-.262-.204-.01-.226.328-.497.316-.252.308-.82-.013-.644-.178.435-.933-.058-1.485-.4h-.017c-.205-.128-.38-.232-.483-.257-.498-.121-.847.083-1.113.256h-.014c-.142.094-.261.176-.367.19-.174.024-1.129-.112-1.452-.189h-.028a.23.23 0 0 1-.048-.012c-.29-.1-.669-.478-1-.42-.173.03-.382.235-.38.422h.001zm22.694-2.035c-.026.046-.048.09-.068.136a7.354 7.354 0 0 0-.303.887h-.003a6.18 6.18 0 0 0-.184 1.02 5.481 5.481 0 0 0 .07 1.533h.002c.064.345.162.686.294 1.025h.003c.098.25.213.497.347.744a.55.55 0 0 1 .248.28h.005l.004.02c.302.196.53.592.266.924a1.084 1.084 0 0 0-.246-.435c-.418.347-.38.327-.89.182-.091-.025-.176.086-.223.147a3.245 3.245 0 0 0-.14.199h-.01c-.246.382-.526.94-.76 1.54h-.005a8.087 8.087 0 0 0-.44 1.539H24c-.063.385-.073.737-.004 1.01h.002c.008.029.017.06.027.089.08.23.204.331.204.61.155.231.184.607.032.859h-.007a.573.573 0 0 1-.1.119l-.018-.122h-.003a1.226 1.226 0 0 0-.15-.458c-.824.461-.786-.255-1.059-.49-.84-.108-1.821.136-2.486.665-.121.097-.222.19-.31.28h-.006c-.273.277-.419.523-.635.72-.153.14-.33-.16-.435-.238-.171-.129-.565-.333-.969-.48h-.034c-.405-.145-.816-.225-1.015-.106a.247.247 0 0 0-.023.1c.009.411.96 1.019 1.137 1.249.07.091-.015.208-.1.3h-.01c-.036.04-.07.072-.093.097-.156.174-.464.351-.673.456.027.172.092.322.172.46h.005c.172.291.411.537.516.854-.097.306-.402.465-.624.666 0 .007 0 .014.002.021h.002c.057.367.316.658.566.915.04.262-.23.424-.252.59v.032c.034.23.485.646.626.777.008.062-.012.167-.011.251.001.04.007.074.024.097.256.345.895.14 1.08.533.415.12.915.113 1.257-.183-.205-.131-.428-.244-.581-.437h-.01l-.034-.051c-.434-.16-.72-.39-.896-.82a.99.99 0 0 0-.086-.157h-.006c-.12-.174-.271-.302-.31-.562-.038-.256.003-.449.02-.7a.93.93 0 0 0-.03-.275h-.003c-.05-.21-.124-.417-.013-.626.11-.209.354-.319.46-.505.076-.13.05-.287.13-.421h.006a.354.354 0 0 1 .035-.046c.21-.228.584-.145.795-.357.134-.135.246-.316.468-.28.29.046.606.322.91.147.158-.09.288-.23.483-.112.249.15.307.48.537.65h.015c.03.022.064.04.1.055.252.1.657-.14.727.259.057.324-.125.93.273 1.1.112.048.283.026.36.126h.005c.017.022.03.054.035.096.038.308-.325.885-.224 1.156.037.1.138.19.218.285h.01c.076.1.127.203.064.328-.13.265-.372.42-.49.712h-.005a.905.905 0 0 0-.028.085c.575.417 1.095.729 1.218 1.445h.002c.01.072.019.147.023.227.043-.018.103-.134.21-.229h.013c.09-.074.21-.13.382-.112a.707.707 0 0 1 .251.114h.01c.146.093.282.228.255.325-.021.077-.102.036-.15.035-.284-.005-.52.666-1.028 1.19h-.01c-.416.427-1.014.751-1.964.532-.07-.017-.15-.048-.176-.12.161-.13.405-.252.555-.42h.008a.465.465 0 0 0 .122-.397c-.037-.24-.332-.378-.258-.645.096-.348.707-.291.76.21.16-.307.02-.538-.206-.7h-.009a1.918 1.918 0 0 0-.518-.236.739.739 0 0 0-.318.235h-.008c-.206.26-.251.606-.27.631-.25.308-.734.428-1.081.568-.152.06-.128.235-.206.339h-.005a.194.194 0 0 1-.09.058c-.435.146-1.3.144-1.725.154-.081.08-.124.196-.223.26-.51.007-1.186-.263-1.68-.469h-.024a9.7 9.7 0 0 0-.096-.04.433.433 0 0 0-.072.04h-.012c-.082.058-.15.14-.229.202-.125-.006-.3-.087-.487-.202h-.016c-.37-.227-.791-.578-.985-.742-.113.003-.269.138-.373.071-.14-.09-.403-.51-.612-.87h-.006c-.112-.194-.207-.368-.259-.459-.102.002-.202.054-.306.028-.12-.188-.194-.783-.235-1.11h-.001a4.277 4.277 0 0 0-.022-.156c-.038-.235-.229-.224-.428-.259a14.546 14.546 0 0 0-.127-.613h-.003c-.346-1.464-.727-1.657-.932.003h-.002c-.024.194-.045.41-.063.652l-.136.007c-.52-.435-.685-.076-.802.363h-.002c-.028.102-.053.21-.08.314-.12.113-.204-.102-.305-.147-.384-.167-.397.453-.422.673-.228-.01-.48.33-.622.701h-.002c-.141.372-.167.779.054.9.15.083.347.115.468.239.25.014.716.05.701.406v.005c-.007.072-.006.162-.068.21a.643.643 0 0 0-.217-.216h-.02a.2.2 0 0 0-.146 0h-.022c-.253.12-.48.653-1.043.468a.565.565 0 0 1-.42-.468h-.002c-.064-.333.021-.608-.896-.118a.703.703 0 0 1-.02.118H8.16c-.122.49-.681.907-1.051.391-.26.059-.283.275-.265.497-.418-.356-.185-.59.036-.898h.007l.011-.017c.099-.14.108-.276.258-.4-.429-.401-1.593.806-1.494-.784-.16-.1-.398-.148-.557-.021a.662.662 0 0 1 .19-.318h.01c.178-.145.426-.138.666 0h.012c.018.008.035.019.053.03.159.001.313.042.469.063a.96.96 0 0 1-.05-.084H6.45c-.163-.331-.198-.84.245-.943.091-.19-.117-.403-.28-.469-.003-.187.49-.037.592.09.22.275.36 1.676 1.29 1.122.229-.136.567-1.056.582-1.348v-.003c.005-.32-.012-.665-.036-1.018-.035-.505-.08-1.028-.081-1.537-.002-.548.048-1.082.216-1.553h.005c.034-.097.072-.188.116-.276.078-.157-.845-.403-.924-.573-.179-.383-.766.213-.932.338l-.083-.03c-.071-.152-.097-.314-.124-.471h-.002a1.682 1.682 0 0 0-.084-.333c-.093-.23-1.06-.244-1.28-.2-.003-.46.634-.884-.692-.84a1.208 1.208 0 0 0-.064-.168h-.005c-.164-.34-.533-.803-.88-.609a1.163 1.163 0 0 0-.059.6h.003c.11.558.627.767.104 1.123.007-.905-.63-.016-1.114-.69-.128-.177-.158-.316-.137-.435h.002c.064-.331.505-.517.29-.997a.638.638 0 0 0-.337-.086c-.544.388-1.246.254-1.219-.46.002-.032.006-.068.01-.105-.15-.163-.289-.013-.44-.041-.22-.042.19-.572.736-.373a.663.663 0 0 1 .43.008 1.66 1.66 0 0 0-.14-.5h-.005a.299.299 0 0 0-.05-.068c-.511-.496-.473-1.085.308-1.245a.307.307 0 0 0 .056-.228h-.002c-.024-.118-.118-.217-.22-.3.126-.071.306-.017.417.063.091.065.141.143.167.228h.002c.05.165.01.359.007.534-.003.108.134.417.186.523.101-.444.555-1.027.976-.479.245-.024.257-.21.258-.412.054-.018.083.023.108.062.212.329.121.719-.228.907-.01.147-.074.285-.138.418h-.006a3.47 3.47 0 0 1-.025.055c.114.221.043.534.33.627.186.061.63.219.992.326h.023c.192.052.359.092.447.094l.126-.007c.11-.017.224-.05.34-.086h.026c.124-.038.248-.08.368-.108a12.348 12.348 0 0 1 1.795-.275l.759-.058c.048-.117-.036-.122.005-.242-.094-.05-.44-.143-.447-.209a1.445 1.445 0 0 1-.011-.12c-.02-.617.352-1.262.35-1.37 0-.075-.121-.073-.108-.154l.005-.027h.002c.138-.573 1.238-.972 1.507-1.266.049-.053-.052-.136.02-.204a.454.454 0 0 1 .111-.069h.016c.416-.19 1.516-.387 1.586-.447.055-.046.036-.155.055-.217.326-.236.925-.137 1.331-.363h.018a.732.732 0 0 0 .267-.272c.248-.437-.223-.674-.736-.742h-.089a2.193 2.193 0 0 0-.467.004h-.07a1.39 1.39 0 0 0-.133.03c-.16.049-.37.202-.543.162-.197-.046-.558-.153-.916-.196h-.056a2.17 2.17 0 0 0-.4 0h-.068c-.232.04-.417.15-.49.378-.06.186.155.282.116.455l-.102.098c-.544.065-1.311-.613-1.889.091h-.006l-.02.026-.026-.024H7.98c-.204-.193-.424-.405-.721-.408-.947-.011-2.999.481-3.702-.168-.05-.047-.127-.174-.115-.246.05-.324 1.23-.053 1.39-.211h.008a.043.043 0 0 0 .007-.017c.012-.044-.052-.1-.087-.112-.78-.268-2.14-.8-2.927-.886h-.109a2.584 2.584 0 0 0-.329-.002h-.1a1.646 1.646 0 0 0-.537.145c0-.04.016-.092.04-.15h.005c.156-.367.62-1.023-.432-1.319.148-.152.376-.112.564-.084.99.148 1.94.857 2.901 1.4h.018c.677.382 1.362.678 2.074.637.262-.016 1.758-.329 1.784-.468.01-.048-.046-.072-.082-.081-.296-.076-1.03.122-1.206.065-.114-.037-.22-.09-.327-.143h-.025a1.766 1.766 0 0 0-.24-.107c-.107-.037-.208.044-.302.105h-.011c-.082.05-.158.083-.228.002h-.005a.21.21 0 0 1-.03-.044c-.238-.435-.56-.508-.932-.126l-.101-.02c-.113-.179-.022-.45-.265-.54-.345-.127-.564.333-.7.035.102-.346-.172-.545-.253-.846h-.001a.642.642 0 0 1 .023-.385c.356-1.014 1.47-.056 1.685-.035.431.042.864.07 1.296.105.827-.956.995-.372 1.654-.486.81-.14 1.106-.1 1.88.318.45.243.719.528 1.264.308.19-.077.4-.271.611-.16.107.056.167.193.306.125.285-.138.481-.417.747-.567.358-.202.385.512.619.581.328.098.684-.605.856-.77.308-.299.72.73.903.883.346.052.462-.471.66-.519.22-.054.382.262.498.592h.004c.092.266.158.539.203.639.166.36.488-.256.713-.098.23.159.205.605.159 1.01h-.001c-.029.25-.065.483-.056.62.02.267.45.088.503.364.002.01.004.02.004.03.009.298-.378.813-.524 1.038h-.007a.412.412 0 0 1-.016.027c-.105.173.212.341.278.441.095.144-.097.327-.189.42a1.9 1.9 0 0 1-.147.129h-.007c-.169.129-.358.24-.513.38-.215.196.145.357.055.491-.05.075-.47.36-.809.676h-.013c-.365.347-.628.727-.211.912.378-.078 1.134-.514 1.677-.923h.012c.24-.183.438-.36.54-.497.051-.07.17-.5.305-1.043h.002c.08-.319.166-.678.247-1.025h.002c.089-.379.172-.743.238-1.022h.001c.05-.212.087-.376.108-.454-.084-.11-.16-.324-.203-.564h-.001c-.086-.5-.024-1.107.408-1.116-.062.14-.177.308-.096.463.235-.17.457-.123.646.077.323-.359.652-.683.987-.977h.014c.444-.39.902-.726 1.38-1.023h.017a12.61 12.61 0 0 1 2.088-1.022h.024c.41-.16.837-.306 1.285-.446.112-.3.175-.446.51-.511.18-.278.63-.424.89-.161-.169.04-.343.104-.429.266.114.104.18.25.164.406-.018.174-.12.312-.205.458h-.007zm-3.57 1.023c-.527.299-1.023.634-1.502 1.024h-.014a12.9 12.9 0 0 0-1.565 1.538h-.008a1.943 1.943 0 0 0-.038.043l-.024-.042h-.005c-.374-.652-.639-.406-.56-.01.033.158.123.341.283.5-.029.115-.069.302-.117.534h-.002c-.06.287-.134.646-.215 1.023h-.001c-.072.337-.15.69-.227 1.025h-.002c-.163.692-.33 1.306-.466 1.543h-.006a.314.314 0 0 1-.051.069c-.615.584-1.477.87-2.085 1.422l.007.04h.002l.01.056a.588.588 0 0 0 .272-.056h.023l.012-.004c.588-.228 1.55-.774 2.024-1.185.084-.073.165-.196.24-.352h.005c.183-.387.336-.975.457-1.54h.002c.08-.372.145-.735.195-1.023h.001c.04-.225.071-.405.092-.504.034-.164.07-.344.118-.522h.002c.07-.257.167-.508.321-.701.088-.11.179-.217.27-.324h.008a11.517 11.517 0 0 1 1.616-1.542h.012a10.675 10.675 0 0 1 1.58-1.026h.023a9.63 9.63 0 0 1 2.076-.807 1.12 1.12 0 0 0 .395-.215h.011c.158-.136.262-.316.151-.49l-.143-.049c-.182.042-.25.26-.306.413-.148.046-.293.092-.436.139h-.037c-.876.293-1.656.622-2.376 1.023h-.021zm-9.26-3.594a.849.849 0 0 0-.212.578c0 .163.04.314.11.439h.008c.114.2.303.328.515.328.213 0 .401-.128.517-.325h.006a.909.909 0 0 0 .112-.442.847.847 0 0 0-.21-.575h-.01a.561.561 0 0 0-.415-.192.572.572 0 0 0-.415.19h-.006zm2.578-1.03h.006a.966.966 0 0 0 .397.446c-.59.197-1.06-.11-1.06-.11.005.239.126.484.268.685h.006c.118.164.25.3.346.378-.362.143-.88-.055-.88-.055a77.58 77.58 0 0 0-.065.713c-.092 1.123-.071 1.455-.071 1.455h.728s.017-.847.734-1.467h.012c.156-.134.345-.256.574-.357.003-.23.01-.452.022-.665.025-.408.062-.767.096-1.024h.001c.034-.27.062-.43.062-.43s-.535.044-1.288-.11c0 0-.012.264.112.54zm-5.416 0a13.684 13.684 0 0 1 .118 1.69c.253.098.457.221.622.357h.007c.74.61.691 1.465.691 1.465h.73s.023-.382-.068-1.455a34.78 34.78 0 0 0-.07-.713s-.517.198-.88.055a2.02 2.02 0 0 0 .345-.378h.009c.142-.203.26-.447.267-.686 0 0-.471.308-1.06.11a.982.982 0 0 0 .397-.443h.003c.128-.275.114-.543.114-.543-.752.154-1.286.11-1.286.11s.027.162.06.43zm11.648-1.015a4.995 4.995 0 0 1-.737.649c.008.074.04.155.086.202.105.225 1.234-.903 1.424-.809.026.054.04.128.007.182-.205.33-.517.555-.803.8h-.007a2.7 2.7 0 0 0-.366.37c-.007.088.045.162.092.236.365-.15.69-.376 1.006-.616h.01c.193-.148.383-.301.577-.446.216-.135.418-.303.679-.344.06 0 .13.027.177.027a.844.844 0 0 0-.24-.252h-.013a1.13 1.13 0 0 0-.668-.17c-.072-.007-.145.034-.208.027 0-.114.031-.25.031-.37-.007-.29-.065-.6-.234-.823a3.68 3.68 0 0 1-.804 1.337h-.01zm-2.546-.001c-.26.45-.616.787-1.034 1.023h-.018a3.27 3.27 0 0 1-.742.295l-.044.412c.331-.015.805-.217 1.472-.594.033-.013.112-.033.126.021.052.161-.076.277-.19.357-.322.247-.699.421-1.097.535h-.028c-.1.027-.2.052-.303.072l-.016.273a3.737 3.737 0 0 0 1.26-.355h.017c.486-.24.913-.586 1.242-1.024h.008a3.352 3.352 0 0 0 .515-1.024h.004c.055-.172.095-.351.115-.534-.018-.21-.168-.168-.221-.088-.07.221-.147.429-.238.628h-.004c-.094.205-.202.4-.333.59-.118.128-.21.323-.464.263-.106-.105.264-.49.349-.74a2.6 2.6 0 0 1 .042-.12h.004c.119-.312.316-.73.1-.808-.097-.007-.142.028-.207.089a2.71 2.71 0 0 1-.197.51 2.77 2.77 0 0 1-.113.219h-.005zm-12.842-.01h.003c.055.173.122.337.196.495.092.19.199.366.322.53h.007c.328.438.755.784 1.242 1.024h.017c.39.19.817.31 1.26.355l-.018-.273a4.583 4.583 0 0 1-.302-.072h-.028a3.28 3.28 0 0 1-1.096-.535c-.114-.08-.242-.196-.19-.357.013-.054.092-.034.124-.02.668.376 1.142.578 1.473.593l-.043-.412a3.277 3.277 0 0 1-.74-.294h-.02A2.72 2.72 0 0 1 7.8 11.62h-.006a3.049 3.049 0 0 1-.114-.22 2.704 2.704 0 0 1-.196-.51c-.066-.06-.111-.095-.209-.088-.215.077-.017.495.102.809h.004c.016.042.03.082.041.119.084.25.455.635.35.74-.255.06-.347-.135-.464-.264a3.778 3.778 0 0 1-.332-.586H6.97a5.793 5.793 0 0 1-.237-.631c-.054-.08-.205-.122-.223.088.02.182.061.36.116.534zm-1.441.01h-.009a3.65 3.65 0 0 1-.803-1.336c-.17.222-.229.532-.236.822 0 .121.033.257.033.371-.065.007-.137-.034-.21-.027a1.126 1.126 0 0 0-.666.17h-.013a.85.85 0 0 0-.241.252c.045 0 .118-.027.176-.027.262.04.464.209.68.344.194.145.384.298.577.446h.01c.316.24.64.467 1.007.616.046-.074.098-.148.091-.236a2.7 2.7 0 0 0-.366-.37H5.21c-.286-.245-.599-.47-.803-.8-.032-.054-.02-.128.007-.182.19-.094 1.318 1.034 1.425.81a.363.363 0 0 0 .084-.203 4.951 4.951 0 0 1-.736-.65zm-.36-1.55c.208.613.59 1.147 1.058 1.54h.013c.04.036.082.069.123.1l.004-.097c.004-.296-.037-.626.067-.89.04-.13.178-.196.281-.25.445-.223 1.052-.256 1.51-.034.196.121.183.39.261.586.062.217.158.413.282.586h.006a2.08 2.08 0 0 0 1.094.756c-.05-.385-.096-.638-.096-.638s1.461.192 2.433-.116h.026c.061-.019.12-.04.177-.065l.011.063h.002c.035.173.153.644.458 1.024h.005c.236.288.586.524 1.094.523.512 0 .86-.234 1.095-.524h.008c.303-.38.416-.85.449-1.026h.002l.01-.06c.053.023.108.043.165.062h.037c.971.311 2.434.12 2.434.12s-.044.242-.095.617c.412-.137.777-.39 1.03-.738h.008c.123-.173.22-.368.28-.584.078-.195.065-.465.261-.586.457-.222 1.065-.189 1.509.034.105.054.242.12.281.25.105.264.065.593.068.89 0 .033.002.065.004.098.042-.032.082-.065.124-.1h.01a3.503 3.503 0 0 0 1.06-1.54h.003a3.18 3.18 0 0 0 .155-.708c.327.121.579.393.755.707h.004l.025.045c.105.25.176.533.216.816.41.095.797.333 1.032.68h.006c.112.168.188.362.216.578.019.138.026.32-.016.455h-.003c-.021.014-.037.012-.05 0h-.01c-.02-.022-.036-.06-.058-.07a.738.738 0 0 0-.588-.156 3.887 3.887 0 0 0-.452.226h-.01c-.418.25-.794.564-1.224.803-.146.081-.29.158-.436.222h-.02a2.32 2.32 0 0 1-.36.132c-.377.083-.81.047-1.146-.134h-.017a1.102 1.102 0 0 1-.255-.193l-.058-.094c-.112.104-.228.199-.346.289h-.015c-.367.27-.763.468-1.188.645-.303.086-.606.177-.934.208l.008.161.003.057c-1.164.002-1.524.966-1.635 1.494h-.001c-.04.193-.046.325-.046.325h-1.219v.375h-2.184v-.375h-1.193s-.002-.132-.037-.325h-.002c-.1-.528-.443-1.492-1.645-1.494l.003-.057.01-.156c-.353-.025-.674-.122-.997-.213a5.551 5.551 0 0 1-1.187-.645h-.016a4.45 4.45 0 0 1-.345-.29l-.06.095c-.073.076-.16.14-.254.193h-.016c-.335.18-.77.217-1.147.134a2.595 2.595 0 0 1-.365-.132H5.26a5.139 5.139 0 0 1-.437-.222c-.43-.239-.806-.552-1.224-.803h-.01a3.85 3.85 0 0 0-.451-.226.736.736 0 0 0-.587.155c-.022.012-.039.049-.06.071h-.009c-.013.012-.03.014-.05 0H2.43a1.147 1.147 0 0 1-.016-.455c.028-.216.104-.41.216-.578h.006c.234-.347.62-.585 1.032-.68a3.35 3.35 0 0 1 .216-.816 1.58 1.58 0 0 1 .025-.047h.006c.175-.314.426-.584.753-.705.024.244.077.48.153.707h.004zm7.392-1.017a1.967 1.967 0 0 1 0 0zm0 0a1.905 1.905 0 0 1 0 0zm2.853.002c.098.307.106.66.008.989l-.009.026a1.702 1.702 0 0 0 .01-.026l-.01.026a1.702 1.702 0 0 0 0-1.015zm-1.163.003zm1.163-.003h-.003a1.347 1.347 0 0 0-.355-.572c.098-.068.261-.095.294-.243-.033-.068-.104-.128-.19-.108-.64.276-1.495.31-2.168.101-.138-.027-.242-.128-.399-.108-.065.02-.058.095-.052.156.046.134.203.134.313.202a1.993 1.993 0 0 0-.29.57v.002c.066-.209.165-.4.29-.572-.11-.068-.267-.068-.313-.202-.006-.061-.013-.135.052-.156.157-.02.261.081.399.108.673.21 1.528.175 2.169-.1.085-.02.156.04.19.107-.034.148-.197.175-.295.243.098-.068.261-.095.294-.243-.033-.068-.104-.128-.19-.108-.64.276-1.495.31-2.168.101-.138-.027-.242-.128-.399-.108-.065.02-.058.095-.052.156.046.134.203.134.313.202a1.993 1.993 0 0 0-.29.57v.002c.066-.209.165-.4.29-.572-.11-.068-.267-.068-.313-.202-.006-.061-.013-.135.052-.156.157-.02.261.081.399.108.673.21 1.528.175 2.169-.1.085-.02.156.04.19.107-.034.148-.197.175-.295.243.098-.068.261-.095.294-.243-.033-.068-.104-.128-.19-.108-.64.276-1.495.31-2.168.101-.138-.027-.242-.128-.399-.108-.065.02-.058.095-.052.156.046.134.203.134.313.202a1.993 1.993 0 0 0-.29.57h-.002c-.038.12-.066.246-.08.378-.011.213-.008.438.039.639h.002c.057.233.176.436.404.55.071.021.124.082.195.068-.071.014-.124-.047-.195-.067-.228-.115-.347-.318-.404-.552.057.234.176.437.404.552.071.02.124.081.195.067-.071.014-.124-.047-.195-.067-.228-.115-.347-.318-.404-.551v-.001c.057.234.176.437.404.552.071.02.124.081.195.067a2.29 2.29 0 0 1-.134-.609h-.001c-.028-.343.009-.7.088-1.032v-.001c-.08.334-.116.69-.088 1.032v.001c-.028-.343.009-.7.088-1.032v-.001c-.08.334-.116.69-.088 1.032v.001c-.028-.343.009-.7.088-1.032h.002c.034-.138.076-.274.124-.403.007-.114.117-.033.176-.033.124.033.275.02.392.06-.024.13-.052.255-.074.382v.002c.022-.13.05-.254.074-.383-.117-.041-.268-.028-.392-.061-.059 0-.17-.081-.176.033a3.677 3.677 0 0 1 0 0c.007-.114.117-.033.176-.033.124.033.275.02.392.06-.024.13-.052.255-.074.382v.002c.022-.13.05-.254.074-.383-.117-.041-.268-.028-.392-.061-.059 0-.17-.081-.176.033.007-.114.117-.033.176-.033.124.033.275.02.392.06-.024.13-.052.255-.074.384h-.002c-.008.04-.015.083-.022.126-.031.288-.036.59-.02.889h.001c.015.27.049.538.098.787.13.034.28.04.418.02a4.936 4.936 0 0 1 0 0 1.084 1.084 0 0 0 0 0 4.936 4.936 0 0 1 0 0 1.084 1.084 0 0 0 0 0c.06-.262.095-.534.112-.808a6.261 6.261 0 0 1-.03-1.01 7.345 7.345 0 0 0-.056-.394c.17-.027.346-.048.516-.061.085.129.124.283.176.431l.004.012h.003c.097.32.102.686.052 1.032a3.31 3.31 0 0 1-.137.576l.13-.014c.256-.09.387-.333.472-.571-.085.238-.216.481-.472.571l-.13.014a3.31 3.31 0 0 1 0 0l.13-.014c.256-.09.387-.333.472-.571-.085.238-.216.481-.472.571l-.13.014.13-.014c.256-.09.387-.333.472-.571h.003a1.702 1.702 0 0 0 0-1.015zm.042-5.136h-.002c-.082.468-.079.966-.119 1.428-.07.37-.045.85-.282 1.134h-.017a.628.628 0 0 1-.19.138c.013-.04.024-.08.035-.12h.005c.17-.647.186-1.339.179-2.026.009-.183.015-.367.033-.548.032-.32.094-.63.245-.902.21-.452.646-.766 1.175-.734.351.026.665.24.759.567.039.183-.027.376-.167.466a.542.542 0 0 1-.033-.17c-.083-.226-.26-.428-.514-.45a.807.807 0 0 0-.825.409c-.146.247-.23.522-.282.808zm-2.55.006c.017.18.025.365.033.548-.007.687.009 1.379.178 2.027h.005l.034.119a.62.62 0 0 1-.19-.14h-.015c-.236-.283-.211-.761-.283-1.132-.04-.462-.036-.96-.119-1.432h-.002a2.384 2.384 0 0 0-.282-.804.805.805 0 0 0-.824-.409c-.254.022-.43.224-.515.45a.516.516 0 0 1-.033.17c-.14-.09-.205-.283-.166-.466.093-.327.407-.541.759-.567.528-.032.963.282 1.175.734.15.273.212.582.244.902zm1.977-2.575h-.006l-.03-.042a1.231 1.231 0 0 0-1.086-.423 1.142 1.142 0 0 0-.727.468h-.008a1.277 1.277 0 0 0-.092.17c-.157.336-.064.786.22 1.064.012-.096.034-.159.113-.19.095-.045.184.006.27.063.057.047.088.133.094.216.035.403-.037.83-.092 1.246a5.71 5.71 0 0 0-.053.552c-.01.414.006 1.12.033 1.519.02.161.036.324.06.484h.003c.023.136.051.267.096.387.029.055.063.11.136.105.049-.004.051-.061.068-.094a3.664 3.664 0 0 1-.066-.373h-.003c-.066-.545-.059-1.214-.045-1.654.017-.319.058-.628.102-.933.052-.357.103-.712.122-1.074-.005-.273 0-.547-.156-.764a.444.444 0 0 0-.305-.137c-.11.008-.2.059-.338.183-.027-.043-.032-.1-.048-.15-.004-.257.088-.516.316-.633h.014l.009-.003c.206-.13.526-.134.748-.036.026.011.05.023.073.038h.018c.277.164.397.48.394.86-.033.6-.28.964-.376 1.536-.014.06-.025.122-.038.19h-.002c-.134.72-.168 1.749-.103 2.552h.002c.011.146.027.284.046.411.022.037.05.092.103.07.061-.012.056-.075.079-.121-.002-.1-.001-.224.002-.356.01-.395.035-.881.052-1.162.063-.484.067-.939.15-1.404h.002c.018-.097.04-.194.066-.292.122-.543.471-1.083.406-1.67a1.49 1.49 0 0 0-.223-.603zm-2.416-.006C12.325.94 12.771.33 13.632.33c.948.001 1.366.608 1.539 1.013h.004c.083.198.108.344.108.344s.297-.12.54-.16c.438-.04.849.08 1.156.33.392.337.633.89.477 1.436-.098.303-.379.566-.706.58-.163.02-.3-.054-.45-.081a.49.49 0 0 0-.158.132h-.008c-.107.137-.177.326-.259.472l.163-.08c.229-.096.517-.062.738-.204 0 .169-.058.33-.11.48-.163.444-.641.538-1.033.761.184-.034.386-.02.556-.088.098-.04.19-.094.28-.114-.058.29-.247.58-.463.768-.15.135-.353.182-.536.243-.059.013-.105.033-.124.101.19-.047.411-.007.594-.034a1.11 1.11 0 0 1-.143.272h-.014c-.289.387-.81.619-1.193.866.02.074.072.121.138.148.137.054.228.223.391.175.17-.027.34.068.425.202a.44.44 0 0 1 .042.128h.001a.333.333 0 0 1-.01.16c.182.238.317.54.38.86h.002a1.958 1.958 0 0 1-.068 1.038h-.004c-.176.482-.56.832-.983 1.063v.368c0 .038-.002.075-.005.112h-.001c-.04.47-.3.816-.606 1.022h-.014a1.256 1.256 0 0 1-.674.233c-.155-.001-.388-.079-.611-.232h-.014a1.392 1.392 0 0 1-.605-1.025h-.001a1.363 1.363 0 0 1-.004-.11v-.368c-.424-.23-.808-.58-.983-1.063h-.004a1.972 1.972 0 0 1-.07-1.037h.004c.064-.323.199-.624.38-.861a.341.341 0 0 1-.012-.162h.002a.499.499 0 0 1 .042-.126.438.438 0 0 1 .426-.202c.163.048.253-.12.391-.175a.22.22 0 0 0 .138-.148c-.384-.247-.907-.48-1.198-.868h-.013c-.06-.082-.11-.171-.145-.27.184.027.406-.013.596.034-.02-.068-.065-.088-.125-.101-.182-.06-.384-.108-.535-.243a1.482 1.482 0 0 1-.464-.768c.091.02.183.074.28.114.17.068.374.054.556.088-.392-.223-.869-.317-1.032-.762-.052-.148-.112-.31-.112-.479.223.142.51.108.739.203l.164.08c-.082-.145-.152-.334-.26-.471h-.008a.473.473 0 0 0-.157-.132c-.15.027-.288.1-.452.08-.325-.013-.607-.276-.704-.579-.158-.546.084-1.099.476-1.436.308-.25.72-.37 1.156-.33.242.04.54.16.54.16s.039-.146.136-.344h.003z" mask="url(#b)"/>
        </g>
    </g>
</svg>
