<svg xmlns="http://www.w3.org/2000/svg" width="62" height="62" viewBox="0 0 62 62">
    <g fill="none" fill-rule="evenodd">
        <path fill="#FFF" d="M0 62h62V0H0z"/>
        <path fill="#333" d="M12 12h4.025v33.803H22V50H12zM40 12h10v4.144h-6.043v12.184h5.648v4.433h-5.648V45.8H50V50H40zM25.885 50v-4.158l1.344-.005c1.765-.008 4.753-1.171 5.193-3.8.427-2.547.112-4.39-3.351-9.984l-.045-.094c-2.411-3.717-4.697-6.962-3.844-12.055.928-5.537 5.505-7.975 9.67-7.902L36.199 12v4.158l-1.345.004c-1.765.01-4.835 1.154-5.276 3.782-.426 2.547-.132 4.195 3.24 9.713l.091.143c2.505 3.814 4.761 7.185 3.908 12.278-.927 5.537-5.422 7.993-9.587 7.92L25.885 50"/>
    </g>
</svg>
