<svg xmlns="http://www.w3.org/2000/svg" xmlns:xlink="http://www.w3.org/1999/xlink" width="57" height="80" viewBox="0 0 57 80">
    <defs>
        <path id="a" d="M0 39.941V0h28.16v79.883H0z"/>
        <path id="c" d="M0 0h28.16V79.883H0V0z"/>
    </defs>
    <g fill="none" fill-rule="evenodd">
        <g>
            <mask id="b" fill="#fff">
                <use xlink:href="#a"/>
            </mask>
            <path fill="#FFF" d="M28.16 79.883C14.717 72.326 3.68 61.686 3.113 48.886L0 4.164C11.462 1.31 18.523 0 28.287 0" mask="url(#b)"/>
        </g>
        <path fill="#333" d="M28.481 27H19v17.58c0 4.78 3.68 10.256 9.481 10.256"/>
        <g transform="translate(28.05)">
            <mask id="d" fill="#fff">
                <use xlink:href="#c"/>
            </mask>
            <path fill="#FFF" d="M.126 79.883c13.444-7.557 24.481-18.197 25.048-30.997l3.113-44.722C16.824 1.31 9.764 0 0 0" mask="url(#d)"/>
        </g>
        <path fill="#333" d="M27.958 1C39.56 1 50.033 3.699 54.915 5.01l-.521 7.649C41.896 9.25 34.467 8.71 27.958 8.71c-6.51 0-13.94.54-26.436 3.948L1 5.009C5.882 3.7 16.354 1 27.958 1M39.024 34.044L39 42.534l13.73.047.613-8.581zM53.94 26.008l.615-8.85L29 17v8.633h10.047v.374z"/>
        <path fill="#231F20" d="M17.795 34c-.334.458-.723 1.07-.795 1.397.155.09.485.394.797.813L17.795 34z"/>
        <path fill="#333" d="M14 68.034c4.124 4.068 8.996 7.454 13.515 10.057V68L14 68.034zM27.192 59.498v-3.59c-3.876-.194-6.589-2.358-8.21-4.908L4 51.018c.433 2.998 1.465 5.83 2.923 8.483l20.269-.003zM28 27h9.481v17.58c0 4.78-3.68 10.256-9.481 10.256"/>
        <path fill="#333" d="M34.952 53.934c2.765-2.317 4.095-5.884 4.095-8.394v-1.494L52.711 44l-.503 7.246C50.509 63.43 38.906 72.913 29 78.62V56.244c1.66-.082 3.107-.527 4.346-1.208l-.03.308c-.332 1.062-.313 1.508-.333 1.737-.056.478-.594.525-.69.472a.728.728 0 0 0-.4-.12c-.43 0-.78.382-.78.851 0 .08.01.135.03.209-.28.129-.405.38-.405.732 0 .47.28.85.71.85.179 0 .295.023.426-.087a.753.753 0 0 0 .586.288c.431 0 .65-.126.68-1.082 2.882-1.663 7.27-2.936 9.211-2.822 2.197.129 3.793 2.53 3.963 2.683.17.155.311.155.283-.092-.142-.987-.421-2.473-2.562-3.748.142-.647 1.185-.769 1.38-.863.146-.071.198-.278 0-.278-1.433-.206-2.455.494-2.653.771-.198-.062-1.168-.139-1.45-.108.159-.792.583-1.37 1.216-1.95-.092.084.17-.247-.028-.247-1.585.154-2.568 1.943-2.682 2.406-.141.03-1.86.339-2.144.431.259-1.817 2.151-3.053 2.321-3.177.17-.123.227-.308 0-.308-2.38.087-4.125 3.44-4.21 4.148-.368.155-.934.37-1.217.556-.098-1.209-.077-1.583.225-2.303l.159-.359z"/>
        <path fill="#FFF" d="M31.92 64.803c-.022.765-.198.866-.543.866a.602.602 0 0 1-.468-.231c-.106.088-.198.07-.341.07-.345 0-.568-.304-.568-.68 0-.282.1-.483.323-.586a.6.6 0 0 1-.023-.167c0-.376.28-.68.624-.68.117 0 .227.035.32.096.077.041.507.004.552-.378.034-.407.808-3.464 2.733-3.76.203-.05.136.123.045.222.154-.168-1.653 1.4-1.51 3.15.226-.149.892-.399 1.186-.522.068-.567 1.64-3.134 3.545-3.203.18 0 .136.148 0 .247-.136.098-1.792 1.048-1.998 2.503.226-.074 1.354-.321 1.467-.346.09-.37 1.286-1.995 2.676-1.963.159 0-.05.265.023.197-.507.465-1.448 1.043-1.575 1.677.226-.025 1.002.037 1.16.086.159-.222 1.047-.859 2.194-.694.158 0 .116.165 0 .222-.156.076-.885.327-.998.845 1.238.796 1.723 1.63 1.837 2.42.022.197-.09.197-.227.074-.136-.123-1.448-1.504-3.205-1.607-1.554-.09-4.922.811-7.228 2.142M31.42 69.97c-.016.523-.242.63-.478.63a.412.412 0 0 1-.32-.158c-.073.06-.136.048-.234.048-.235 0-.388-.208-.388-.465 0-.193.068-.33.221-.4a.409.409 0 0 1-.016-.115c0-.257.191-.465.427-.465a.4.4 0 0 1 .219.065c.052.029.347.003.378-.258.023-.279.152-2.42 1.338-2.649.14-.034.093.084.03.152.106-.115-.703.906-.501 2.173.155-.101.45-.214.652-.299.046-.388.485-2.181 1.788-2.229.123 0 .092.101 0 .169-.093.067-.642.698-.784 1.692.176-.099.618-.176.792-.236.062-.253 1.004-1.635 1.954-1.612.109 0-.035.18.016.135-.347.317-.814.828-.9 1.262.154-.017.525-.033.634.001.108-.152.504-.684 1.288-.571.108 0 .08.113 0 .152a.967.967 0 0 0-.47.617c.913.48 1.302.902 1.38 1.442.015.136-.062.136-.155.051-.093-.084-.92-.7-2.122-.771-1.062-.063-3.143.569-4.75 1.638M19.921 42.099c.089-.29.372-.636.407-.81.035-.173-.018-.308.088-.481.107-.174.407-.502.513-.617.107-.116.478-.29.673.173.194.463.53 1.484 1.202 1.793a6.05 6.05 0 0 1-1.238.482c-.336.077-.601.135-.46 1.04.142.907.177 1.292.124 1.581-.053.29-.07.906.425 1.388l.442.675c.177.173.601.366.637-.02.035-.385.141-.77-.213-.809-.123-.02-.46-.328-.424-.675.035-.347-.053-.636-.195-.925-.141-.289-.194-.617-.123-.906.07-.289.265-.463.707-.366.354.135 1.981.617 2.476.02.336.269 2.335 1.079 3.503.944.212.405.654 1.291.937 1.542.23.231.319.964-.07 1.35-.23.192-.832.867-1.327 1.02-.495.155-.69.251-.92.502-.23.25-.371.25-.513.578-.141.328-.46.906.053.906s.655-.27.69-.424c.035-.154 0-.482.195-.54.194-.057.796-.096 1.202-.636.407-.54 1.221-.829 1.54-.886.318-.058.353-.405.318-.579-.036-.173-.053-.616.141-.848.283.077 1.185.29 1.61.925.07.174.088.27.16.386-.125.231-.372.443-.46.675-.09.231-.195.617-.602.964s-.76.559-.955.867c-.195.308-.319.636-.283 1.06.035.424.141.212.318.212.177 0 .584-.212.602-.5.017-.29-.107-.425.265-.598.371-.174 1.026-.752 1.167-1.119.142-.366.566-1.079.902-1.291.336-.212.266-.52.106-.829-.159-.308-.707-1.137-.601-1.677.106-.54.69-.868.867-1.696.177-.83.07-1.215-.036-1.504.301-.096.478-.02.867.173.39.193 1.274.155 1.38-.115.106-.27.07-.81 0-.925.247-.232.424-.733.283-.964a1.15 1.15 0 0 1-.142-.848c-.247-.04-.513-.27-.336-.444.177-.173.531-.578.372-1.099.053-.327.07-.732-.443-.713-.017-.212-.176-.906-.972-.27-.124.097-.266-.115-.089-.173.177-.058 1.097-.386 1.238-.733.142-.347.089-.52.036-.655.07-.154.141-.463.07-.578-.07-.116-.353-.097-.548.424-.194.52-.141.52-.654.617-.513.096-.902 0-1.238.616-.107.155-.16.328-.407.482a.935.935 0 0 0-.425.617c-.035.212.142.598.106.868-.035.27-.176.848.478 1.465.318.385.796.886.442 1.272-.354.385-.672-.02-.937-.212-.266-.193-1.133-.482-1.699-.443-.566.038-2.423-.463-2.865-.868-.442-.405-.172-.61.053-.733a.643.643 0 0 0 .354-.346c.088-.193.23-.232.389-.232.16 0 .318-.038.46-.405.141-.366.283-.23.442-.27.16-.038.265-.404-.018-.52-.283-.116-.442-.231-.424-.347.018-.116.212-.366.477-.385.266-.02.283-.213.266-.367-.018-.154 0-.25.177-.347.176-.096.159-.327-.142-.424-.3-.096-.743-.212-.743-.366s.195-.424.39-.501c.194-.077.282-.405-.16-.386-.442.02-.69.077-.778-.231-.089-.309-.106-.482.354-.675.194-.058.247-.347-.106-.327-.354.019-.761.211-.885.077-.124-.135-.088-.25-.018-.309.071-.058.089-.25-.088-.25s-.867.289-1.044.077c-.177-.212-.46-.328-.69-.174-.23.154-.23.386-.106.52.124.136-.035.348-.177.213-.141-.135-.088-.232-.088-.29 0-.057-.106-.25-.23-.327-.124-.077-.124-.29-.088-.424.035-.135-.107-.27-.319-.135-.212.135-.407.366-.3.713-.23.02-.814.174-.832.366-.018.193.07.405.036.482-.036.077-.23.077-.337.154-.3.328-.813.637-.937.772-.124.134-.212.27-.372.481-.159.193-.173.414-.106.52.195.31.354.097.46.27.106.174.106.213.089.31-.018.096.194.308.513.019.318-.29.548-.598.796-.27.247.327.017.52-.089.732-.212.231-.707.945-.937 1.157-.23.212-.407.713-.496 1.176-.088.462-.194.559-.283.674-.424-.173-.902-.385-1.167-.616-.177-.155-.566-.347-.814.038-.124.154-.76 1.099-.92 1.504-.159.405-.406.25-.406 1.021 0 .27-.195.386-.301.81-.018.116-.3.829-.018.964.283.135.62-.039.69-.232.07-.192.088-.79.106-1.002"/>
        <path fill="#333" d="M17.718 25.182h10.048V10c-5.608.088-13.234.422-25.766 4l1.97 28.082 13.748-.003v-5.2c-.385-.33-.978-.863-2.746-.862-1.045.001-4.01 1.078-5.736 3.381-.024.807-.448 1.108-.812 1.108a.635.635 0 0 1-.494-.243.584.584 0 0 1-.39.14c-.363 0-.658-.322-.658-.718 0-.298.194-.574.43-.683a.63.63 0 0 1-.024-.176c0-.397.295-.718.658-.718.124 0 .239.037.338.101.08.044.344.24.392-.164.035-.43-.014-4.458 1.963-5.069.214-.052.143.13.047.235-.095.104-.969 1.749-.852 3.825.239-.156.756-.58 1.066-.71.096-.442.78-3.795 2.415-3.83.191 0 .143.157 0 .26-.143.105-.855 1.022-.999 2.662.24-.078.835-.19.955-.215.095-.39.8-2.637 2.137-2.767.168 0 .096.188.024.266-.071.078-.78 1.15-.92 2.196.238-.026.792-.006.96.046.143-.202 1.276-1.557 2.246-2l.003-4.569c-.186-.184-.477-.38-1.368-.383-1.394-.004-3.725.625-6.941 2.915-.032 1.076-.598 1.477-1.083 1.477a.847.847 0 0 1-.658-.324.778.778 0 0 1-.52.186c-.485 0-.878-.429-.878-.957 0-.397.26-.765.575-.91a.843.843 0 0 1-.033-.235c0-.529.393-.957.878-.957a.82.82 0 0 1 .45.134c.107.06.552.267.616-.27.048-.573.855-5.365 3.56-5.781.287-.07.192.173.065.312-.128.139-2.236 2.024-2.08 4.792a16.46 16.46 0 0 1 1.705-.894c.127-.59 1.323-4.187 3.502-4.234.255 0 .19.209 0 .347-.191.14-1.518 1.157-1.709 3.343a29.189 29.189 0 0 1 1.461-.39c.128-.52.973-2.59 2.756-2.764.223 0 .128.25.032.355-.095.104-1.04.813-1.228 2.21.182-.02.568.054.9.128l-.005-1.293z"/>
        <path fill="#FFF" d="M8.488 22.983c-.036 1.195-.665 1.641-1.203 1.641a.941.941 0 0 1-.732-.36.865.865 0 0 1-.577.206c-.54 0-.976-.476-.976-1.063 0-.44.288-.85.638-1.012a.936.936 0 0 1-.036-.26c0-.587.436-1.063.975-1.063.183 0 .354.054.5.15.12.065.615.296.685-.302.053-.636.832-6.303 3.839-6.766.318-.077.212.193.07.347-.141.154-2.476 2.198-2.193 5.668.354-.232 1.592-.887 2.052-1.08.106-.887 1.274-5.012 3.891-5.089.284 0 .213.231 0 .386-.212.154-1.804 1.542-2.016 3.97.354-.115 1.486-.308 1.663-.346.141-.579 1.238-3.393 3.219-3.586.248 0 .142.193.035.309-.106.115-1.52 1.426-1.52 2.968.353-.038 1.343-.038 1.591.039.248-.347 1.31-1.62 2.83-1.735.248 0 .142.192 0 .347-.141.154-1.061 1.04-1.238 1.85.53.309 2.052 1.427 2.229 2.66.035.309-.142.309-.354.116s-1.84-1.62-3.891-1.62c-2.052 0-5.908 1.08-9.481 3.625M23.976 7.32l-.001.89-1.223.064.001-.783c-.002-.779-.394-1.267-1.059-1.216l-3.377.24.033 2.128-1.216.062L17 3.384l5.07-.369c.93-.081 1.745.125 1.743 1.512 0 .397-.13.8-.327 1.159.256.217.495.794.49 1.633M2.354 11.649L2 6.289l5.041-1.233c.637-.154 1.54-.058 1.575 1.176.035 1.233-.177 1.754-.973 1.947l-4.228 1.04.16 2.121-1.221.309z"/>
        <path fill="#000" d="M4 6.846l.035.79 3.52-.847c.301-.077.354-.347.336-.52-.013-.135-.141-.329-.495-.251C7.043 6.095 4 6.846 4 6.846"/>
        <path fill="#FFF" d="M10 6.193c0-.501-.018-1.234 1.238-1.446l4.086-.732c.496-.097 1.61.27 1.61 1.272l.053 2.583c.018.54-.018 1.253-1.344 1.465l-3.786.656c-.672.135-1.769.019-1.804-1.369L10 6.193z"/>
        <path fill="#333" d="M11 6.511s0 .405 0 0c0-.404-.018-.79.637-.925l3.13-.578a.6.6 0 0 1 .69.578l.036 1.58c0 .251-.106.656-.62.753l-3.095.54c-.424.076-.707.096-.743-.502L11 6.511z"/>
        <path fill="#FFF" d="M26.813 5.083c-.235 0-.425-.208-.425-.464s.19-.463.425-.463h4.988V3H26.23c-.283 0-1.238.067-1.229 1.638.009 1.572 1.017 1.6 1.23 1.6h3.909c.234 0 .425.207.425.463s-.19.425-.425.425H25.15v1.156h5.555c.353 0 1.282.058 1.282-1.61 0-1.667-1.044-1.59-1.282-1.59h-3.892zM40.3 3L40 8.475l1.167.173.142-2.352 4.104.848-.142 2.237 1.168.23.3-5.454-1.15-.232-.123 2.12-4.104-.848.106-2.004zM48 10.397L48.283 5l5.625 1.292-.07 1.098-4.44-1.021-.036 1.002 4.405 1.022-.071 1.098L49.29 8.47l-.053 1.099 4.387 1.021-.088 1.099zM39.599 4.65l.053-1.195-5.183-.443c-.442-.039-1.291-.077-1.362 1.503-.07 1.581-.106 2.294-.106 2.294-.018.54.283 1.446 1.22 1.523l5.165.424.053-1.195-4.316-.347c-.406-.02-.849-.154-.813-.964l.035-1.156c.018-.463.16-.887.831-.83l4.423.386z"/>
        <path fill="#000" d="M22.638 4.835l-3.622.221L19 4.21 22.669 4c.284.008.401.119.413.401.012.282-.193.413-.444.434"/>
        <path fill="#FFF" d="M20.417 29.986c.054.327.192.462.471.462.233 0 .396-.135.396-.327 0-.104-.053-.174-.187-.243l-.648-.328c-.283-.143-.41-.355-.41-.698 0-.513.308-.852.775-.852.513 0 .806.32.828.906h-.425c-.042-.308-.16-.436-.396-.436-.212 0-.365.135-.365.324 0 .089.053.162.149.212l.665.336c.3.15.432.328.432.705a.918.918 0 0 1-.266.671c-.145.143-.307.2-.562.2-.354 0-.605-.134-.75-.404-.082-.143-.11-.27-.124-.528h.417z"/>
        <path fill="#FFF" d="M22.702 28v.509h-.626v2.302h-.436v-2.302H21V28zM24.705 28v1.735c0 .64-.173 1.13-.852 1.13-.676 0-.853-.482-.853-1.13V28h.435v1.724c0 .454.117.632.41.632.312 0 .425-.17.425-.632V28h.435zM26.702 28v.509h-.627v2.302h-.435v-2.302H25V28zM30.072 29.342h.877v1.523h-.3l-.043-.355c-.166.281-.368.409-.633.409-.57 0-.973-.594-.973-1.435 0-.894.41-1.484 1.037-1.484.509 0 .849.35.912.948h-.445c-.085-.304-.227-.44-.464-.44-.364 0-.59.367-.59.953 0 .575.233.949.59.949.273 0 .453-.208.51-.586h-.478v-.482zM31.754 28h.491l.747 2.81h-.474l-.145-.59h-.768l-.149.59H31zM33.93 28c.301 0 .414.035.542.162.141.146.22.37.22.648 0 .323-.075.49-.302.651.206.12.23.197.248.74.014.456.025.525.092.61h-.481c-.043-.154-.05-.193-.053-.444-.01-.412.042-.667-.361-.667h-.4v1.11H33V28h.93zM36.702 28v.509h-.627v2.302h-.435v-2.302H35V28zM28.702 28v.509h-.626v2.302h-.436v-2.302H27V28z"/>
        <path fill="#000" d="M32.53 30.095L32.266 29 32 30.095zM34 29.717h.414c.297 0 .393-.089.393-.362 0-.274-.092-.355-.393-.355H34v.717z"/>
        <path fill="#FFF" d="M28 55.142l.385-.142.418.142v24.565l-.419.293-.36-.293zM28 9.147L28.385 9l.418.147v17.55l-.419.303-.36-.302zM28 .104L28.385 0l.418.104v.561l-.419.214-.36-.214z"/>
    </g>
</svg>
