<svg xmlns="http://www.w3.org/2000/svg" width="61" height="87" viewBox="0 0 61 87">
    <g fill="none" fill-rule="evenodd">
        <path fill="#FFF" d="M0 87h61V0H0z"/>
        <path fill="#333" d="M47 70v4h1.241v-2.663h4.519V74H54v-3.993z"/>
        <g fill="#333">
            <path d="M46.875 69.825h4.74c.659-.13 1.148-.708 1.286-1.267H45.59c.137.56.634 1.137 1.286 1.267M42.046 74.886c.621-.262.956-.715 1.084-1.246H37.6l.004-5.078-1.239.003v6.32h5.681M27.148 69.808h4.378c.66-.19 1.214-.69 1.35-1.244H25.92v3.735h5.692v1.31l-4.465.004c-.7.194-1.293.661-1.589 1.278l.362-.007h6.914v-3.827h-5.687v-1.25M16.341 69.82h4.739c.66-.13 1.15-.708 1.286-1.267h-7.312c.137.559.634 1.136 1.287 1.267M16.341 72.318h4.739c.66-.13 1.15-.707 1.286-1.267h-7.312c.137.56.634 1.138 1.287 1.267M16.341 74.885h4.739c.66-.13 1.15-.708 1.286-1.267h-7.312c.137.56.634 1.137 1.287 1.267M4.013 68.568c.143.553.624 1.117 1.284 1.259H7.29l.102.04v5.004H8.64v-5.004l.113-.04h1.996a1.788 1.788 0 0 0 1.278-1.259v-.012H4.013v.012M29.385 56.065l6.223-34.8c5.933 0 7.804.647 8.074 3.287 0 0 3.98-1.475 5.987-4.47-7.833-3.61-15.702-3.772-15.702-3.772l-4.592 5.56h.01l-4.592-5.56s-7.87.162-15.702 3.77c2.006 2.997 5.987 4.472 5.987 4.472.272-2.64 2.14-3.287 8.033-3.291l6.274 34.804"/>
            <path d="M29.382 14.704c6.332-.049 13.578.973 20.997 4.188.992-1.774 1.247-2.558 1.247-2.558-8.11-3.19-15.705-4.282-22.245-4.31-6.54.028-14.134 1.12-22.242 4.31 0 0 .362.966 1.245 2.558 7.418-3.214 14.666-4.236 20.998-4.188"/>
        </g>
    </g>
</svg>
