<svg xmlns="http://www.w3.org/2000/svg" width="62" height="62" viewBox="0 0 62 62">
    <g fill="none" fill-rule="evenodd">
        <path fill="#FEFEFE" d="M52.214.274c5.253 0 9.512 4.258 9.512 9.511V52.49c0 5.252-4.259 9.511-9.512 9.511H9.511A9.511 9.511 0 0 1 0 52.489V9.785A9.511 9.511 0 0 1 9.511.274h42.703"/>
        <path fill="#010202" d="M45.228 31.767s5.271-7.618 5.795-10.122c.175-.894-.21-1.394-1.117-1.394h-4.572c-1.047 0-1.432.464-1.746 1.144 0 0-2.472 5.398-5.48 8.799-.965 1.1-1.456 1.43-1.99 1.43-.43 0-.628-.367-.628-1.359v-8.691c0-1.216-.14-1.574-1.116-1.574h-7.33c-.559 0-.908.333-.908.787 0 1.145 1.71 1.404 1.71 4.507v6.402c0 1.288-.07 1.789-.663 1.789-1.57 0-5.305-5.545-7.4-11.84-.418-1.287-.872-1.645-2.059-1.645h-4.572c-.663 0-1.152.465-1.152 1.144 0 1.252 1.43 7.047 7.05 14.808C22.82 41.175 27.778 44 32.245 44c2.723 0 3.386-.465 3.386-1.645v-4.006c0-1.001.384-1.43.942-1.43.629 0 1.738.206 4.329 2.825C43.972 42.748 44.18 44 45.857 44h5.13c.524 0 1.013-.25 1.013-1.144 0-1.18-1.5-3.291-3.804-5.795-.943-1.288-2.479-2.682-2.968-3.326-.697-.751-.488-1.18 0-1.968"/>
    </g>
</svg>
