<svg xmlns="http://www.w3.org/2000/svg" width="118" height="36" viewBox="0 0 118 36">
    <g fill="none" fill-rule="evenodd">
        <path fill="#FEFEFE" d="M27.278 8.013c2.091-.504 4.323-.453 6.305.47l.094-.655 7.107.05c1.053-.235 2.17-.251 3.24.017l.235.068.708-4.75h9.167l-.692 4.582c.518-.084 1.038-.1 1.572-.084l.676-4.497h9.135l-.566 3.758a9.25 9.25 0 0 1 .598-.94c1.62-2.063 3.695-2.836 6.148-3.02 1.493-.05 2.972.034 4.356.688l.062-.486h9.167l-.754 4.967a10.194 10.194 0 0 1 1.54-.353c2.406-.319 4.938-.167 6.825 1.645 1.776-1.594 4.34-1.896 6.572-1.73 1.462.152 2.972.572 4.073 1.696 1.257-1.09 2.83-1.527 4.418-1.695 2.437-.167 4.906.118 6.604 2.165.77 1.057 1.069 2.081 1.132 3.406 0 .47-.032.907-.095 1.377l-.912 6.108h-.502c.267.974.283 1.88.157 2.87l-.503 3.322c-.425 2.03-1.306 3.541-2.94 4.7-2.029 1.274-4.419 1.492-6.73 1.174-1.211-.202-2.485-.621-3.397-1.543-1.981 1.56-4.497 1.845-6.871 1.593-.77-.1-1.478-.269-2.201-.587l-.064.402h-6.305c-1.1.286-2.185.303-3.302.202-.393-.067-.801-.134-1.179-.269v.067H70.99l.046-.318c-1.901.688-3.946.67-5.88.167-2.013-.62-3.6-1.93-4.104-4.195l-.644 4.346h-5.582l-.378-.1c-1.541.52-3.207.503-4.717-.134l-.032.234H29.935l.015-.117a9.382 9.382 0 0 1-1.54.302c-2.516.252-5.283 0-7.076-2.131l-.503 1.946H3L4.258 3.214h24.277l-1.257 4.799z"/>
        <path stroke="#FFF" stroke-linejoin="round" stroke-width="5.71" d="M27.278 8.013c2.091-.504 4.323-.453 6.305.47l.094-.655 7.107.05c1.053-.235 2.17-.251 3.24.017l.235.068.708-4.75h9.167l-.692 4.582c.518-.084 1.038-.1 1.572-.084l.676-4.497h9.135l-.566 3.758a9.25 9.25 0 0 1 .598-.94c1.62-2.063 3.695-2.836 6.148-3.02 1.493-.05 2.972.034 4.356.688l.062-.486h9.167l-.754 4.967a10.194 10.194 0 0 1 1.54-.353c2.406-.319 4.938-.167 6.825 1.645 1.776-1.594 4.34-1.896 6.572-1.73 1.462.152 2.972.572 4.073 1.696 1.257-1.09 2.83-1.527 4.418-1.695 2.437-.167 4.906.118 6.604 2.165.77 1.057 1.069 2.081 1.132 3.406 0 .47-.032.907-.095 1.377l-.912 6.108h-.502c.267.974.283 1.88.157 2.87l-.503 3.322c-.425 2.03-1.306 3.541-2.94 4.7-2.029 1.274-4.419 1.492-6.73 1.174-1.211-.202-2.485-.621-3.397-1.543-1.981 1.56-4.497 1.845-6.871 1.593-.77-.1-1.478-.269-2.201-.587l-.064.402h-6.305c-1.1.286-2.185.303-3.302.202-.393-.067-.801-.134-1.179-.269v.067H70.99l.046-.318c-1.901.688-3.946.67-5.88.167-2.013-.62-3.6-1.93-4.104-4.195l-.644 4.346h-5.582l-.378-.1c-1.541.52-3.207.503-4.717-.134l-.032.234H29.935l.015-.117a9.382 9.382 0 0 1-1.54.302c-2.516.252-5.283 0-7.076-2.131l-.503 1.946H3L4.258 3.214h24.277l-1.257 4.799z"/>
        <path fill="#333" d="M27.278 8.013c2.091-.504 4.323-.453 6.305.47l.094-.655 7.107.05c1.053-.235 2.17-.251 3.24.017l.235.068.708-4.75h9.167l-.692 4.582c.518-.084 1.038-.1 1.572-.084l.676-4.497h9.135l-.566 3.758c.189-.335.378-.637.598-.94 1.62-2.063 3.695-2.836 6.148-3.02 1.493-.05 2.972.034 4.356.688l.062-.486h9.167l-.754 4.967a10.194 10.194 0 0 1 1.54-.353c2.406-.319 4.938-.167 6.825 1.645 1.776-1.594 4.34-1.896 6.572-1.73 1.462.152 2.972.572 4.073 1.696 1.257-1.09 2.83-1.527 4.418-1.695 2.437-.167 4.906.118 6.604 2.165.77 1.057 1.069 2.081 1.132 3.406 0 .47-.032.907-.095 1.377l-.912 6.108h-.502c.267.974.283 1.88.157 2.87l-.504 3.322c-.424 2.03-1.305 3.541-2.94 4.7-2.028 1.274-4.418 1.492-6.73 1.174-1.21-.202-2.484-.621-3.396-1.544-1.981 1.56-4.497 1.846-6.871 1.594-.77-.1-1.478-.269-2.201-.587l-.064.402h-6.305c-1.1.286-2.185.303-3.302.202-.393-.067-.802-.134-1.18-.269v.067H70.99l.046-.318c-1.901.688-3.946.67-5.88.167-2.013-.62-3.601-1.93-4.104-4.195l-.645 4.346h-5.581l-.378-.1c-1.541.52-3.207.503-4.717-.134l-.032.234H29.935l.015-.117a9.382 9.382 0 0 1-1.54.302c-2.516.252-5.283 0-7.076-2.131l-.503 1.946H3L4.258 3.214h24.277l-1.257 4.799z"/>
        <path fill="#FEFEFE" d="M40.704 18.37H45.1l.86-5.552c.132-.849-.067-1.528-.613-2.037-.098-.085-.181-.17-.28-.238-.496-.357-1.124-.543-1.852-.543-1.222 0-2.165.271-2.826.797l.099-.661h-4.38l-2.331 14.89L33 30h4.381l2.496-15.977c.099-.576.397-.883.893-.883.512 0 .71.307.611.917l-.677 4.313zM25 6h-3.844l-3.269 11.078L18.317 6h-5.279L9.737 17.078 10.247 6H6.052L5 30h4.769l3.62-13.237L13.022 30h5.55l5.057-18.9zM30.659 14.204l-1.675 11.362-.178 1.23c-.096.704-.403 1.056-.885 1.056-.5 0-.693-.352-.597-1.055l1.66-11.362.192-1.231c.098-.686.387-1.02.886-1.02.5 0 .693.334.597 1.02zm4.285-.035c.177-1.249-.065-2.199-.71-2.867a2.7 2.7 0 0 0-.321-.3C33.01 10.335 31.915 10 30.593 10a9.27 9.27 0 0 0-1.61.123c-2.384.423-3.753 1.83-4.107 4.221l-.5 3.413-1.304 8.9c-.258 1.74.177 2.972 1.304 3.657.741.457 1.789.686 3.141.686.532 0 1.015-.035 1.467-.105 2.384-.37 3.753-1.724 4.091-4.046l1.16-7.897.709-4.783zM51 6h-3.732l-2.479 18.187L44 30h3.746l2.226-16.426zM83.872 26.867c-.048.37-.16.633-.35.792a.728.728 0 0 1-.479.158c-.51 0-.716-.317-.62-.95l.54-3.729a1.65 1.65 0 0 1 .56-1.02c.27-.228.652-.404 1.13-.545l-.78 5.294zm6.056-12.523c.175-1.213.03-2.18-.415-2.885-.62-.967-1.848-1.459-3.681-1.459-.86 0-1.641.088-2.31.281-1.929.528-3.028 1.829-3.33 3.887l-.606 4.116h4.079c.048-.3.096-.739.127-1.32.064-.58.112-1.02.16-1.318.239-1.636.622-2.463 1.18-2.463.494 0 .685.334.588 1.02l-.446 3.043c-.047.353-.604.827-1.673 1.425-.031.017-.047.017-.079.036-1.801 1.001-3.028 1.846-3.681 2.531a4.15 4.15 0 0 0-.686.933c-.254.457-.414.95-.494 1.478l-.605 4.133c-.207 1.425.16 2.374 1.1 2.849.478.246 1.114.369 1.896.369 1.131 0 1.96-.21 2.47-.615.159-.14.302-.282.398-.458l-.111.792h3.728l1.976-13.526.415-2.85zM99.623 20.237c-2.191-1.373-3.36-2.358-3.522-2.92-.146-.564-.146-1.408.032-2.516.147-1.072.504-1.618 1.039-1.618.536 0 .665.862.422 2.568l-.47 2.48h4.203l.145-1.002.455-3.06c.178-1.179.032-2.094-.455-2.762-.649-.932-1.914-1.407-3.813-1.407-3.343 0-5.226 1.442-5.647 4.344l-.407 2.761c-.162 1.108-.064 1.917.325 2.48.373.546 1.59 1.513 3.635 2.902.52.493.65 1.618.39 3.36-.195 1.337-.535 2.004-1.023 2.004-.487 0-.665-.351-.567-1.054l.648-4.362h-4.3l-.211 1.494-.438 2.92c-.162 1.126-.016 2.022.438 2.691.65.985 1.963 1.46 3.943 1.46 3.392 0 5.307-1.442 5.73-4.344l.454-3.078c.21-1.39-.13-2.497-1.006-3.341M56.58 14.214l-1.635 10.694-.188 1.232c-.094.59-.377.888-.848.888-.487 0-.691-.297-.613-.888l1.65-10.678.188-1.215c.078-.592.377-.888.864-.888.471 0 .676.28.582.855zm.487-3.122c-.456-.427-1.147-.657-2.122-.69-.11-.016-.235-.016-.345-.016-.849 0-1.587.23-2.262.723-.66.476-1.053 1.133-1.178 1.939l-1.006 6.554-1.116 7.26c-.141.97.11 1.726.77 2.3.11.083.22.18.346.247.613.394 1.35.591 2.246.591.896 0 1.744-.296 2.545-.887 0-.017.016-.017.016-.017l.251.64h3.143L62 6h-4.164l-.77 5.092zM108.66 10c-3.344 0-5.227 1.442-5.648 4.344l-.407 2.761c-.162 1.109-.064 1.918.326 2.48.372.546 1.59 1.513 3.635 2.902.52.493.649 1.618.389 3.36-.194 1.337-.536 2.005-1.023 2.005-.486 0-.665-.352-.567-1.055l.649-4.362h-4.3l-.196 1.336-.455 3.078c-.161 1.144-.016 2.058.455 2.727.666.95 1.98 1.424 3.928 1.424 3.392 0 5.307-1.442 5.729-4.344l.455-3.078c.21-1.39-.13-2.497-1.007-3.341-2.19-1.373-3.36-2.358-3.522-2.92-.146-.564-.146-1.408.033-2.516.146-1.072.503-1.618 1.039-1.618.534 0 .665.862.421 2.569l-.47 2.48h4.203l.6-4.063c.423-2.78-1.006-4.169-4.267-4.169M80 6h-3.732l-2.324 17.041L73 30H76.732l2.254-16.542z"/>
        <path fill="#FEFEFE" d="M69.988 19.922l-.921 6.05c-.064.408-.307.611-.726.611-.453 0-.663-.203-.599-.61l2.601-17.03c.066-.409.323-.612.776-.612.42 0 .614.203.549.611l-.743 4.861H75.238l.678-4.452c.259-1.632-.08-2.805-1.002-3.519-.71-.56-1.792-.832-3.23-.832-3.65 0-5.718 1.58-6.203 4.776L63.075 25.58C62.622 28.54 64.222 30 67.872 30c1.26 0 2.455-.34 3.553-1.054 1.115-.696 1.761-1.631 1.94-2.804l.952-6.22h-4.329z"/>
    </g>
</svg>
