<svg xmlns="http://www.w3.org/2000/svg" xmlns:xlink="http://www.w3.org/1999/xlink" width="99" height="38" viewBox="0 0 99 38">
    <defs>
        <path id="a" d="M77.887 29V.28H.033V29z"/>
    </defs>
    <g fill="none" fill-rule="evenodd">
        <path fill="#FEFEFE" d="M13.281 3h-1.98C8.307 3 5.41 4.892 5.41 10.385c0 5.307 2.656 7.015 5.892 7.015h1.98V3zm-3.09 17.354L4.298 33H0l6.472-13.523C3.429 18 1.4 15.323 1.4 10.385 1.4 3.462 5.989 0 11.446 0H17v33h-3.719V20.354h-3.09z"/>
        <g transform="translate(21 9)">
            <mask id="b" fill="#fff">
                <use xlink:href="#a"/>
            </mask>
            <path fill="#FEFEFE" d="M64.958 12.475c0-7.44 2.837-12.195 8.325-12.195 2.093 0 3.302.566 4.325 1.225l-.511 3.484c-.977-.848-2.372-1.648-3.86-1.648-2.605 0-4.465 2.966-4.465 8.945 0 5.932 1.395 9.322 4.325 9.322 1.767 0 3.116-.706 3.953-1.46l.837 2.731c-1.256 1.083-2.744 1.79-4.883 1.79-5.023 0-8.046-4.097-8.046-12.194zm-10.604.047v11.817h-3.628V.609h3.628v10.97L59.982.61h3.674l-5.814 11.16 6.65 12.57H60.54l-6.186-11.817zm-17.068-2.213h6c0-4.05-.652-7.015-2.745-7.015-2.232 0-3.023 2.777-3.255 7.015zm4 14.36c-4.838 0-7.814-3.908-7.814-11.206 0-7.627 2.093-13.183 7.07-13.183 3.906 0 6.464 2.967 6.464 11.018v2.024h-9.767c0 5.367 1.489 8.192 4.372 8.192 2.046 0 3.674-.942 4.604-1.6l.838 2.824c-1.489 1.177-3.442 1.93-5.768 1.93zM25.844 3.575h-4.047V4c0 4.99-.232 12.288-2.185 17.326h6.232V3.576zM31.285 29H28.03v-4.661H17.985V29h-3.256v-7.674h1.442c2.14-5.038 2.372-12.383 2.372-18.692V.61h10.883v20.716h1.86V29zM12.637.61v23.729h-3.58v-10.64H3.66v10.64H.033V.609H3.66v10.076h5.395V.61h3.581z" mask="url(#b)"/>
        </g>
    </g>
</svg>
