<svg xmlns="http://www.w3.org/2000/svg" width="56" height="46" viewBox="0 0 56 46">
    <g fill="none" fill-rule="evenodd">
        <path fill="#FFF" d="M16 0h24a2 2 0 0 1 2 2v42a2 2 0 0 1-2 2H16a2 2 0 0 1-2-2V2a2 2 0 0 1 2-2zm1 7v33h22V7H17z"/>
        <path fill="#E51F1F" fill-rule="nonzero" d="M8.01 38.364a1 1 0 0 0 1.235-1.533C6.083 33.187 4.4 28.395 4.4 23.074c0-4.979 1.737-9.688 4.858-13.434a1 1 0 1 0-1.536-1.28A22.907 22.907 0 0 0 2.4 23.074c0 2.96.483 5.783 1.422 8.371L0 34.924l8.019 3.456-.01-.016zM47.48 8.123a1 1 0 0 0-1.235 1.532c3.163 3.645 4.845 8.437 4.845 13.757 0 4.98-1.737 9.688-4.858 13.434a1 1 0 1 0 1.536 1.28 22.907 22.907 0 0 0 5.322-14.714c0-2.96-.483-5.782-1.421-8.37l3.821-3.479-8.018-3.456.009.016z"/>
    </g>
</svg>
