<svg xmlns="http://www.w3.org/2000/svg" width="31" height="21" viewBox="0 0 31 21">
    <path fill="#E51F1F" fill-rule="nonzero" d="M12.174 14.267V5.943l8.3 4.155-8.3 4.17zm18.224-9.773s-.3-2.042-1.223-2.94A4.475 4.475 0 0 0 26.1.298C21.799 0 15.353 0 15.353 0S8.907 0 4.607.297a4.475 4.475 0 0 0-3.076 1.258C.608 2.452.308 4.495.308 4.495A43.2 43.2 0 0 0 0 9.291v2.22c.013 1.603.116 3.205.308 4.797 0 0 .3 2.043 1.223 2.94 1.172 1.18 2.703 1.145 3.384 1.265 2.454.226 10.445.297 10.445.297s6.454 0 10.753-.311a4.475 4.475 0 0 0 3.077-1.258c.923-.897 1.223-2.94 1.223-2.94.192-1.593.294-3.194.308-4.798V9.257a43.282 43.282 0 0 0-.308-4.798l-.015.035z"/>
</svg>
