<svg xmlns="http://www.w3.org/2000/svg" width="149" height="55" viewBox="0 0 149 55">
    <g fill="none" fill-rule="evenodd">
        <path fill="#FFF" d="M11.22 6.49V5.202C11.22 1.263 10.453 0 5.965 0 1.056 0 0 .99 0 5.202v8.596C0 18.108 1.188 19 5.966 19c4.356 0 5.253-1.016 5.253-5.202v-1.932H7.022v2.551c0 1.04-.238 1.288-1.162 1.288-.923 0-1.108-.247-1.108-1.288v-9.81c0-1.04.185-1.288 1.108-1.288.924 0 1.162.248 1.162 1.289V6.49h4.197zM13.594.223v18.554h3.96l-.317-15.705 2.983 15.705h5.095L28.38 3.072l-.264 15.705h4.144V.223h-6.573l-2.772 14.64-2.64-14.64h-6.679zM40.891 0c4.831 0 5.967 1.016 5.967 5.202v8.596c0 4.434-1.03 5.202-5.967 5.202-4.857 0-5.992-.892-5.992-5.202V5.202C34.899 1.016 35.981 0 40.891 0zm0 3.27c-.976 0-1.24.272-1.24 1.338v9.81c0 1.04.264 1.312 1.24 1.312.977 0 1.215-.272 1.215-1.313v-9.81c0-1.04-.238-1.337-1.215-1.337zM48.31.223v3.27h3.115v15.284h4.62V3.493h3.114V.223H48.31zm17.185 3.27v6.614h1.03c1.03 0 1.372-.273 1.372-1.338V4.781c0-1.065-.343-1.288-1.372-1.288h-1.03zm0 9.884v5.4h-4.62V.223h4.62c5.016 0 7.022.694 7.022 4.756v3.765c0 3.741-1.795 4.633-6.31 4.633h-.712zM74.655.223v18.554h9.108v-3.27h-4.488v-4.855h3.828V7.53h-3.828V3.493h4.092V.223h-8.712zm10.164 0v3.27h3.115v15.284h4.62V3.493h3.115V.223h-10.85zm17.185 10.429v4.855h1.03c1.03 0 1.346-.248 1.346-1.313v-2.23c0-1.064-.317-1.312-1.346-1.312h-1.03zm0-10.43v7.16h.766c4.54 0 6.23.99 6.23 4.707v1.907c0 4.063-1.98 4.781-6.996 4.781h-4.62V.223h4.62zM4.187 37.007v-1.27c0-1.085.314-1.403 1.177-1.403.89 0 1.1.318 1.1 1.402v1.694c0 1.402-.262 1.72-1.91 1.72H3.034v3.228h1.623c1.57 0 1.962.265 1.962 1.535v2.672c0 1.112-.235 1.376-1.15 1.376-.917 0-1.178-.29-1.178-1.376v-2.17H0v2.118c0 3.89 1.282 4.762 5.521 4.762 4.24 0 5.522-.9 5.522-4.762v-2.435c0-2.223-.654-3.228-2.67-3.52 1.911-.343 2.46-1.216 2.46-3.2v-1.589c0-3.863-1.177-4.789-5.312-4.789C1.44 31 .21 31.926.21 35.79v1.217h3.978zm11.645-5.769h7.274l3.01 19.82h-4.684l-.524-4.843h-2.904l-.524 4.842H12.9l2.932-19.819zm2.59 11.643h2.067l-.994-9.34-1.073 9.34zm26.875-6.536h-4.083v-.82c0-1.112-.235-1.43-1.125-1.43s-1.125.345-1.125 1.43V39.6c1.02-.847 1.936-1.217 3.166-1.217 3.036 0 3.585 1.243 3.585 4.868v2.488c0 4.445-1.256 5.556-5.626 5.556s-5.626-1.11-5.626-5.556V35.55c0-3.73 1.282-4.551 5.417-4.551 3.977 0 5.417.582 5.417 4.366v.98zm-5.208 5.213c-.89 0-1.125.291-1.125 1.402v3.625c0 1.112.236 1.376 1.125 1.376.942 0 1.125-.317 1.125-1.402V42.96c0-1.085-.209-1.402-1.125-1.402zM53.592 31c4.37 0 5.626 1.111 5.626 5.557v9.182c0 4.445-1.256 5.556-5.626 5.556s-5.626-1.11-5.626-5.556v-9.182c0-4.446 1.256-5.557 5.626-5.557zm0 3.334c-.89 0-1.125.318-1.125 1.402v10.85c0 1.084.235 1.375 1.125 1.375s1.125-.264 1.125-1.376V35.736c0-1.11-.235-1.402-1.125-1.402zm25.801 3.599v-1.376c0-4.207-.758-5.557-5.207-5.557-4.867 0-5.914 1.058-5.914 5.557v9.182c0 4.604 1.178 5.556 5.914 5.556 4.318 0 5.207-1.084 5.207-5.556v-2.064h-4.16V46.4c0 1.112-.236 1.376-1.152 1.376-.916 0-1.099-.264-1.099-1.376V35.922c0-1.112.183-1.376 1.1-1.376.915 0 1.15.264 1.15 1.376v2.01h4.161zm2.356-6.695v19.82h9.027v-3.494h-4.448v-5.186h3.794v-3.334h-3.794v-4.313h4.056v-3.493h-8.635zm15.831 0H93v19.82h4.58v-9.024l3.48 9.023h4.737l-4.344-10.505 3.742-9.314h-4.658l-2.957 8.547v-8.547zm8.426 0l4.841 14.527c-.21.98-.732 1.244-1.36 1.244-.524 0-.864-.053-1.178-.212v4.26c.55.133 1.308.238 2.067.238 2.015 0 3.35-1.137 4.449-4.313l5.416-15.744h-4.657l-2.382 8.573h-.183l-2.46-8.573h-4.553zm20.254 0h-4.58v19.82h4.58v-8.68h2.355v8.68h4.58v-19.82h-4.58v7.647h-2.355v-7.647zm16.905 3.493h-1.91v6.245c0 3.545-.289 4.604-1.126 6.588h3.036V34.731zm-6.045-3.493h10.624v16.326H149V55h-4.135v-3.943h-5.783V55h-4.134v-7.436h.994c.89-2.17 1.178-3.28 1.178-7.17v-9.156z"/>
    </g>
</svg>
