<svg xmlns="http://www.w3.org/2000/svg" width="23" height="27" viewBox="0 0 23 27">
  <path fill="#FFF" fill-rule="evenodd" d="M15,27.0679258 C11.4355484,27.0679258 8.45186537,25.0134341 7.68895569,21.6803072 L5.54918333,9.41570955 C5.39769829,8.63638659 5.63176609,7.92577296 6.41108905,7.77428793 C7.19041201,7.62280289 7.69734257,8.12691074 7.84882761,8.9062337 L9.22761943,14.7303689 C9.24928792,14.8418436 9.35722182,14.9146459 9.46869654,14.8929774 C9.51056308,14.8848394 9.82636607,14.5167383 9.85579481,14.4858679 C10.0300685,14.3030567 10.115287,14.0529464 10.0888863,13.8017607 L9.30722551,5.20267702 C9.22423939,4.41311683 9.66756805,3.63610014 10.4571282,3.55311402 C11.2466884,3.4701279 11.8378257,4.00282173 11.9208118,4.79238193 L12.785116,11.950203 C12.8155194,12.2394718 12.977166,12.745681 13.2664348,12.7152776 C13.2914359,12.7126499 13.5442647,12.7214449 13.5686352,12.7152776 C13.915257,12.6275611 14.1580522,12.3156702 14.1580522,11.9581217 L14.3026311,2.57238524 C14.3026311,1.77847593 14.8016429,1.21242098 15.5955522,1.21242098 L15.7205524,1.21242098 C16.5144617,1.21242098 16.9724985,1.77847593 16.9724985,2.57238524 L17.1580523,11.9037906 C17.1580523,12.3613893 17.2840428,12.4458138 17.7158389,12.5973023 C18.0194773,12.7038288 18.2707105,12.4916242 18.377237,12.1879858 C18.3944681,12.1388709 18.4050402,12.0876684 18.408671,12.0357453 L19.1117885,4.67536234 C19.1671688,3.88338695 19.6589875,3.38163612 20.4509629,3.43701643 L20.5756586,3.44573601 C21.367634,3.50111632 21.8010117,4.14637416 21.7456314,4.93834955 L20.5756586,19.4034954 C23.0246698,17.0817681 24.2782158,15.8981519 24.3362966,15.8526468 C25.5537026,14.8988356 26.6030353,15.3274973 27.4255034,16.2546711 C27.5342623,16.3772758 25.629766,18.3260801 25.6109204,18.3485395 C23.3215121,21.07695 23.3724748,22.2122941 21.7456314,24.0159652 C19.0278316,27.0291729 16.1250279,27.0679258 15,27.0679258 Z" transform="translate(-5 -1)"/>
</svg>
